<svg id="Слой_1" data-name="Слой 1" xmlns="http://www.w3.org/2000/svg" viewBox="0 0 111.08 74.08"><defs><style>.cls-1{fill:#f8f8f8;}.cls-2{fill:#111;}.cls-3{fill:#f39456;}</style></defs><circle class="cls-1" cx="61.05" cy="37.67" r="25.47"/><path class="cls-2" d="M88.89,38.7a81,81,0,0,1-1.31,8.69C85,57.16,78.86,63.2,68.71,64.56c-11.12,1.49-21.55.2-29.35-9.09-7.11-8.47-8.47-22.3-3.29-31.81,4.9-9,16.37-14.81,27-13.6,12.81,1.46,21.38,8.23,24.4,19.55A85.46,85.46,0,0,1,88.89,38.7ZM37.64,28.91c3.47-.57,6.59-1.22,9.75-1.6,8.21-1,10.53,1.12,10.57,9.33,0,.31,0,.63,0,.94-.13,3.27.33,6.22,3.92,7.61.31.13.44.71.74,1.22-4.46-.16-6.33-1.53-6.92-5.38a45.6,45.6,0,0,1-.3-7.12c0-2.43-1.09-3.81-3.52-3.66-4.12.26-8.21.89-12.32,1.06-2.8.11-3.3,1.5-3.37,3.92-.48,17,12.24,28.63,29.13,26.51,7.35-.92,13.51-3.86,16.9-10.94,3.69-7.71,4-15.41,1.94-18.21A6.52,6.52,0,0,0,82,30.71a6.25,6.25,0,0,0-3.07-.51c-5.84.15-8.2.57-11.26-.29l-.85-.27a1.47,1.47,0,0,1-.39-.49,1.69,1.69,0,0,1,.19-1.5,39.19,39.19,0,0,1,15.77-.6C79.83,18.85,70,12.82,59.58,13S40.11,19.66,37.64,28.91Z"/><path class="cls-2" d="M42.24,31.69c2.58,1.34-2.41,5.86,2.52,5.5,3.82-.27.33-3.56,1.42-5.35a3.21,3.21,0,0,1,3.27,3.56c0,2.61-1.27,4.31-3.9,4.78a5.65,5.65,0,0,1-6-3.45C38.86,34.68,39.69,33.13,42.24,31.69Z"/><path class="cls-2" d="M55.64,50.05A1.3,1.3,0,0,1,56,49c.88-.72,2.56,1,5.92,1.41,1.32.18,2.49.31,3.5-.37.74-.5.8-1,1.64-1.35s2.2-.2,2.54.47a1.56,1.56,0,0,1-.16,1.26,4.58,4.58,0,0,1-1.53,1.81,8.35,8.35,0,0,1-5.67,1.58c-1.55-.06-3.21,0-4.74-1.19A6.08,6.08,0,0,1,55.64,50.05Z"/><path class="cls-2" d="M71.38,35.35a3.3,3.3,0,0,1,.4-2.67c1.12-1.54,3.42-1.08,3.71-1,1.79.35,3.73,1.91,3.67,3.81a3.11,3.11,0,0,1-1.46,2.81,3,3,0,0,1-1.65.16,5.33,5.33,0,0,1-3.31-1.13A4.68,4.68,0,0,1,71.38,35.35Zm4.82-1-.77,0c.07.45.14.89.25,1.33a1.67,1.67,0,0,0,.5,0C76.21,35.19,76.2,34.76,76.2,34.34Z"/><path class="cls-3" d="M76.75,34.48a1.16,1.16,0,0,1,0,1.27c-.24.27-.64.23-1.1.18-.63-.06-1.66-.16-1.9-.85s.42-1.35.48-1.42a2.37,2.37,0,0,1,1.14,0A2.4,2.4,0,0,1,76.75,34.48Z"/><path class="cls-2" d="M22.64,57.55c-1.58-7.19,1.2-14.15,5.48-21C33.5,27.87,38.19,18.78,43.21,9.89A33.51,33.51,0,0,1,45.7,6c3-3.89,7-4.87,11-2.75s6.05,6.61,4.4,10.89C57.73,23,54,31.62,50.42,40.34,48.3,45.52,46.48,50.84,44,55.85a22.42,22.42,0,0,1-5.59,7.06,111.81,111.81,0,0,1-11.33,7.9c-3.07,2-4.35,1.28-4.46-2.38C22.57,65.14,22.64,61.84,22.64,57.55ZM42.56,17.87c-.82,1.3-1.49,2.25-2.05,3.27-3.46,6.35-6.94,12.7-10.33,19.09-3.16,6-3.12,6,2.7,10,3.45-6.86,6.67-13.82,10.4-20.49C45.6,25.57,44.63,22.06,42.56,17.87ZM52.88,25.6c-3.41.11-5.54,1-6.89,4-2.91,6.36-6.16,12.56-9.2,18.86-2,4.09-1.93,4.12,1.67,6.81a17.52,17.52,0,0,0,1.62.91ZM26.21,67.16,37.74,59,26.21,49ZM54.76,14a3.78,3.78,0,0,0,4-3.49C58.88,7.9,55.66,5.09,52.45,5c-2.32,0-3.83,1-4,3.39C48.3,11,51.73,13.94,54.76,14Z"/><path class="cls-3" d="M42.56,17.87c2.07,4.19,3,7.7.72,11.85-3.73,6.67-7,13.63-10.4,20.49-5.82-4-5.86-4-2.7-10,3.39-6.39,6.87-12.74,10.33-19.09C41.07,20.12,41.74,19.17,42.56,17.87Z"/><path class="cls-3" d="M52.88,25.6,40.08,56.15a17.52,17.52,0,0,1-1.62-.91c-3.6-2.69-3.65-2.72-1.67-6.81,3-6.3,6.29-12.5,9.2-18.86C47.34,26.63,49.47,25.71,52.88,25.6Z"/><path class="cls-3" d="M26.21,67.16V49L37.74,59Z"/><path class="cls-3" d="M54.76,14c-3-.07-6.46-3-6.29-5.59.15-2.36,1.66-3.43,4-3.39,3.21.06,6.43,2.87,6.29,5.49A3.78,3.78,0,0,1,54.76,14Z"/></svg>