<svg id="Слой_1" data-name="Слой 1" xmlns="http://www.w3.org/2000/svg" viewBox="0 0 111.08 74.08"><defs><style>.cls-1{fill:#111;}.cls-2{fill:#9a6349;}.cls-3{fill:#a6bd85;}.cls-4{fill:#a1ce93;}</style></defs><path class="cls-1" d="M43.27,63.64c-1,7.57-1,7.57-8.85,7.82-3.08.1-3.25-.14-4.39-6.31L17.9,66.52q4-9.48,8-19l-8.08.12L22,38.8,26,30.21l-5.94.43,13.61-28c1.46,1.74,2.41,2.75,3.21,3.86,3.85,5.36,7.71,10.71,11.46,16.14,2.48,3.6,2.17,4.22-2.09,5.19-.33.08-.66.19-1.32.38l9.57,15.42-6,1.38L59.4,60.68Zm12.49-4.1c-3.07-4.41-5.84-8.12-8.29-12-1.21-1.93-2.4-2.75-4.73-2.27a44.67,44.67,0,0,1-8.23,1c-.29,0-4.9-.06-5.85.78-.2.18-.38.38-.38.38a4.44,4.44,0,0,0-.81,1.32C27,49.81,26.39,50.87,26,52c-.47,1.36-1.77,4.54-5,11.87Zm-35-13.86,1.09-.22,29.29-3.3c-3-4.68-5.55-8.66-8.18-12.56a2.58,2.58,0,0,0-1.93-1,26.47,26.47,0,0,0-4,.2s-2.14.3-6.49.78c-.46.05-.91.13-1.37.19a3.25,3.25,0,0,0-1.11.23,2.15,2.15,0,0,0-.86,1.3c-.34,1-.93,1.85-1.28,2.83-.49,1.36-1.13,2.66-1.68,4C23.61,39.83,22.54,42.27,20.8,45.68ZM34.15,6.93,23.29,28.23,24.68,28l22.89-2.45ZM40.69,63.7c-2.72.35-4.74.53-6.72.93A1.85,1.85,0,0,0,32.83,66c0,.91.35,2.62.58,2.62A22.3,22.3,0,0,0,40,68C40.5,67.86,40.4,65.55,40.69,63.7Z"/><path class="cls-2" d="M40.69,63.7C40.4,65.55,40.5,67.86,40,68a22.3,22.3,0,0,1-6.54.6c-.23,0-.6-1.71-.58-2.62A1.85,1.85,0,0,1,34,64.63C36,64.23,38,64.05,40.69,63.7Z"/><path class="cls-3" d="M48.46,45l6-1.38L44.94,28.17c.66-.19,1-.3,1.32-.38,4.26-1,4.57-1.59,2.09-5.19C44.6,17.17,40.74,11.82,36.89,6.46c-.8-1.11-1.75-2.12-3.21-3.86l-13.61,28L26,30.21,22,38.8l-4.18,8.88,8.08-.12q-4,9.48-8,19L30,65.15c1.14,6.17,1.31,6.41,4.39,6.31,7.87-.25,7.87-.25,8.85-7.82l16.13-3Z"/><path class="cls-1" d="M43.27,63.64c-1,7.57-1,7.57-8.85,7.82-3.08.1-3.25-.14-4.39-6.31L17.9,66.52q4-9.48,8-19l-8.08.12L22,38.8,26,30.21l-5.94.43,13.61-28c1.46,1.74,2.41,2.75,3.21,3.86,3.85,5.36,7.71,10.71,11.46,16.14,2.48,3.6,2.17,4.22-2.09,5.19-.33.08-.66.19-1.32.38l9.57,15.42-6,1.38L59.4,60.68Zm12.49-4.1c-3.07-4.41-5.84-8.12-8.29-12-1.21-1.93-2.4-2.75-4.73-2.27a44.67,44.67,0,0,1-8.23,1c-.29,0-4.9-.06-5.85.78-.2.18-.38.38-.38.38a4.44,4.44,0,0,0-.81,1.32C27,49.81,26.39,50.87,26,52c-.47,1.36-1.77,4.54-5,11.87Zm-35-13.86,1.09-.22,29.29-3.3c-3-4.68-5.55-8.66-8.18-12.56a2.58,2.58,0,0,0-1.93-1,26.47,26.47,0,0,0-4,.2s-2.14.3-6.49.78c-.46.05-.91.13-1.37.19a3.25,3.25,0,0,0-1.11.23,2.15,2.15,0,0,0-.86,1.3c-.34,1-.93,1.85-1.28,2.83-.49,1.36-1.13,2.66-1.68,4C23.61,39.83,22.54,42.27,20.8,45.68ZM34.15,6.93,23.29,28.23,24.68,28l22.89-2.45ZM40.69,63.7c-2.72.35-4.74.53-6.72.93A1.85,1.85,0,0,0,32.83,66c0,.91.35,2.62.58,2.62A22.3,22.3,0,0,0,40,68C40.5,67.86,40.4,65.55,40.69,63.7Z"/><path class="cls-2" d="M40.69,63.7C40.4,65.55,40.5,67.86,40,68a22.3,22.3,0,0,1-6.54.6c-.23,0-.6-1.71-.58-2.62A1.85,1.85,0,0,1,34,64.63C36,64.23,38,64.05,40.69,63.7Z"/><path class="cls-1" d="M49,41.58c-1.7-1.22-2.8-1.92-3.8-2.74-2.64-2.15-2.59-3.35.28-5.14,2.67-1.67,5.43-3.22,8.11-4.88,1.15-.71,2.2-1.59,3.38-2.45a47.91,47.91,0,0,1-4.2-3.47c-1.63-1.7-1.42-3.31.73-4.28,5.47-2.45,9.76-6.3,13.68-10.69,1.42-1.6,2-1.29,3.44.68,2.42,3.41,5,6.75,7.66,9.94,1.12,1.32,2.83,2.13,4.2,3.26s1.41,2.4-.33,3.14a46.41,46.41,0,0,1-5.54,1.63c1.68,1.56,3.2,3,4.79,4.44,1.95,1.71,4,3.27,5.9,5.06S89,39,86.71,40.2a61.43,61.43,0,0,1-6.06,2.47,39.56,39.56,0,0,0,9.49,8.5A25.23,25.23,0,0,1,93.31,54,20.07,20.07,0,0,1,90,56.86a33.14,33.14,0,0,1-14.45,3.77c-2.05.11-2.89.95-3.77,2.63a24.7,24.7,0,0,1-4.16,5.89c-2.22,2.26-5.15,1.9-6.81-.81a23.52,23.52,0,0,1-2.51-6.24c-.45-1.68-1-2.51-2.89-2.91-6.08-1.3-11.79-3.52-16.39-7.94-3-2.9-2.77-4,1-5.55C42.91,44.49,45.7,43.1,49,41.58Zm-7.5,7c8.3,9,36.12,12.15,46.32,5.08-.44-.38-.88-.73-1.27-1.12-3.09-3.09-6.35-6-9.19-9.31-2.13-2.46-1.5-3.48,1.67-4,1.76-.28,3.48-.78,5.46-1.24-3.51-3.22-6.73-6-9.63-9-1.06-1.09-1.34-2.92-2-4.42L77,23.14a1.39,1.39,0,0,0,.32-.23L68.4,12.08,55.6,21.64c1.82.79,3.39,1.6,5,2.14s1.77,1.59.75,2.69a24.28,24.28,0,0,1-3.83,3.33c-3.18,2.22-6.45,4.3-9.68,6.43.16.24.23.43.35.49,1.24.58,2.5,1.13,3.75,1.7,2.09,1,2.27,1.76.61,3.36a17.29,17.29,0,0,1-3.24,2.54C46.78,45.83,44.12,47.19,41.5,48.61Zm18.59,11.8a56.46,56.46,0,0,0,2.47,6.32c.88,1.62,2.58,1.93,3.8.44a65.58,65.58,0,0,0,4.1-6.26Z"/><path class="cls-4" d="M41.5,48.61c2.62-1.42,5.28-2.78,7.85-4.29a17.29,17.29,0,0,0,3.24-2.54c1.66-1.6,1.48-2.39-.61-3.36-1.25-.57-2.51-1.12-3.75-1.7-.12-.06-.19-.25-.35-.49,3.23-2.13,6.5-4.21,9.68-6.43a24.28,24.28,0,0,0,3.83-3.33c1-1.1,1-2.11-.75-2.69s-3.22-1.35-5-2.14l12.8-9.56,8.9,10.83a1.39,1.39,0,0,1-.32.23l-4.1,1.49c.64,1.5.92,3.33,2,4.42,2.9,3,6.12,5.76,9.63,9-2,.46-3.7,1-5.46,1.24-3.17.51-3.8,1.53-1.67,4,2.84,3.29,6.1,6.22,9.19,9.31.39.39.83.74,1.27,1.12C77.62,60.76,49.8,57.65,41.5,48.61Z"/><path class="cls-2" d="M60.09,60.41l10.37.5a65.58,65.58,0,0,1-4.1,6.26c-1.22,1.49-2.92,1.18-3.8-.44A56.46,56.46,0,0,1,60.09,60.41Z"/></svg>