<svg id="Слой_1" data-name="Слой 1" xmlns="http://www.w3.org/2000/svg" viewBox="0 0 111.08 74.08"><defs><style>.cls-1{fill:#111;}.cls-2{fill:#c59e7c;}</style></defs><path class="cls-1" d="M70.71,55.23a16.73,16.73,0,0,1-3.1,8.82c-1.17,1.61-3.19,4.4-6.82,5.25a11.31,11.31,0,0,1-9.25-2.23c-6.94-5-8.66-12.33-8.14-20.37a17.13,17.13,0,0,1,3.68-10.08c4.19-5.09,10.8-5.69,15.54-1.17a19.3,19.3,0,0,1,4.12,5A32.37,32.37,0,0,1,70.71,55.23Z"/><path class="cls-1" d="M67.33,28.79a5.54,5.54,0,0,1,.36-2.1,6.68,6.68,0,0,1,3-3.17c4-2.55,8.63-5.87,11.93-8,.4-.26,1.4-.3,1.56-.07a2.65,2.65,0,0,1,.31,1.84c-.13.64-.69,1.19-.91,1.83-.88,2.65-1.75,5.31-2.51,8-.32,1.12-.28,2.33-.49,3.49-.75,4.18-2.8,6.16-6,5.85C70.84,36.11,67.81,32.78,67.33,28.79Zm11.41-6.88L78,21.28a68.68,68.68,0,0,0-6.82,6c-.65.74-.49,3,.17,3.92a5.15,5.15,0,0,0,3.81,2c.9,0,2.18-1.82,2.47-3A74.48,74.48,0,0,0,78.74,21.91Z"/><path class="cls-1" d="M47.33,19.32c.25-1.06.7-3.07,1.19-5.07,1.11-4.5.3-7.59,2.46-9.67a5.91,5.91,0,0,1,1.07-.8,3.59,3.59,0,0,1,.66.15c1.94.69,2.45,3.18,3.58,6.23A25.54,25.54,0,0,0,58.93,16c1.33,2.36,2.18,4.89.81,7.57a7.63,7.63,0,0,1-7.9,3.88C48.91,26.7,47.29,24.14,47.33,19.32ZM52.76,11l-1,.13c-.65,3.31-1.45,6.6-1.87,9.94-.21,1.7.52,3.38,2.63,3.62s3.8-.46,4.55-2.43a4.86,4.86,0,0,0,0-3.42C55.84,16.1,54.23,13.56,52.76,11Z"/><path class="cls-1" d="M34.58,42.78c-2.36-.23-4.5-1.1-5.67-3.43a18.24,18.24,0,0,1-1.2-3.59c-.59-2.25-1.78-8.51-2.55-10.2A2.23,2.23,0,0,1,25,24.08a1.14,1.14,0,0,1,.36-.64,1.83,1.83,0,0,1,1.78.09c3.69,2.23,7.42,4.41,10.93,6.89A6.41,6.41,0,0,1,40.41,38C39.39,40.86,37.18,42.71,34.58,42.78Zm-4.47-14.2-.72.43a88,88,0,0,0,2.14,8.61c.32.92,2,2.1,2.78,1.94A4.66,4.66,0,0,0,37.1,37a4.13,4.13,0,0,0-1.56-5.19C33.81,30.64,31.93,29.66,30.11,28.58Z"/><path class="cls-1" d="M80.65,57.68c-3.52.06-5.85-1.4-6.78-3.67-1-2.48,0-4.5,1.8-6a14.88,14.88,0,0,1,4.55-2.59c2.85-1,5.81-1.73,8.75-2.49a2.28,2.28,0,0,1,1.86.24c.3.3.2,1.31-.09,1.81C89,48,87.22,51,85.39,54,84.1,56.13,82.31,57.55,80.65,57.68Zm4.77-9.88L84.7,47c-2.13.8-4.34,1.46-6.37,2.45a2.52,2.52,0,0,0-1.06,4,2.58,2.58,0,0,0,4.3.32A45.43,45.43,0,0,0,85.42,47.8Z"/><path class="cls-1" d="M29.54,52.77c.61.11,1.52.28,2.63.51a24.68,24.68,0,0,1,5.1,1.35c2.31,1.25,4.61,4.87,3.28,7.36a5.92,5.92,0,0,1-8.43,2,25.11,25.11,0,0,1-3.94-3.91c-1.27-1.35-2.45-2.79-3.68-4.18A1.84,1.84,0,0,1,24,54.66a1.55,1.55,0,0,1,.31-.86,1.65,1.65,0,0,1,.48-.65,2,2,0,0,1,1-.43A17.86,17.86,0,0,1,29.54,52.77Z"/><path class="cls-2" d="M45.83,48.58A15.3,15.3,0,0,1,48.11,40c.94-1.48,2.32-3.65,4.87-4.38A7.93,7.93,0,0,1,59.72,37c6,4.19,9.67,14.24,7.54,21.27A15.16,15.16,0,0,1,65,62.66a8.77,8.77,0,0,1-6,3.85c-3.07.34-5.46-1.47-6.71-2.43C46.07,59.32,45.84,50.47,45.83,48.58Zm16.91,12.7c-1.41-1.23-2.09-2.18-3-2.45-.4-.12-1.73,1.14-1.71,1.74a3,3,0,0,0,1.52,2.29C60.15,63.07,61.15,62.12,62.74,61.28Zm-8.57-2.54c-.62-.52-1.2-1.2-1.37-1.11A2.69,2.69,0,0,0,51.58,59c-.09.25.77,1.16.92,1.09A7.36,7.36,0,0,0,54.17,58.74Zm11.41-3.37c-.69-.54-1.12-1.11-1.63-1.18-.32,0-1.11.75-1.05,1A2.22,2.22,0,0,0,64,56.48C64.27,56.58,64.84,55.93,65.58,55.37ZM52,50.92l-1.26-.15v2.67l1,0Z"/><path class="cls-2" d="M78.68,23.53A28.4,28.4,0,0,0,78,27.61a10.77,10.77,0,0,1-.37,2.61c-.25.72-.84,2.92-2.47,3a5.15,5.15,0,0,1-3.81-2c-.66-.94-.82-3.18-.17-3.92a68.68,68.68,0,0,1,6.82-6c.09-.05.71-.43,1-.22s.1.36,0,.81C78.83,22.61,78.74,23.18,78.68,23.53Z"/><path class="cls-2" d="M52.71,11.08c.67.79,3.54,4.3,4.39,7.72a5.45,5.45,0,0,1,0,3.42c-.75,2-2.52,2.66-4.55,2.43S49.67,22.73,49.88,21c.42-3.34,1.22-6.63,1.87-9.94a.52.52,0,0,1,.31-.31A.59.59,0,0,1,52.71,11.08Z"/><path class="cls-2" d="M30.11,28.58c1.82,1.08,3.7,2.06,5.43,3.27a4.41,4.41,0,0,1,1.84,2.64A4.3,4.3,0,0,1,37.1,37c-.42,1-1.56,2.7-3.05,2.62-1.22-.07-2-1.28-2.52-2a9.1,9.1,0,0,1-1.19-3.51c-.29-1.39-.62-3.11-.95-5.1a.48.48,0,0,1,0-.43A.53.53,0,0,1,30.11,28.58Z"/><path class="cls-2" d="M85.42,47.8a45.43,45.43,0,0,1-3.85,5.91,2.58,2.58,0,0,1-4.3-.32,2.52,2.52,0,0,1,1.06-4c2-1,4.24-1.65,6.37-2.45.54-.4,1.08-.44,1.22-.26S85.89,47.37,85.42,47.8Z"/><path class="cls-2" d="M30.06,55.76a22.67,22.67,0,0,1,6.16,1.48A2.78,2.78,0,0,1,38,58.74a2.23,2.23,0,0,1-.16,1.52,4.06,4.06,0,0,1-3.15,1.38c-2.1-.17-3.75-2.71-5-4.63l-.32-.51a.57.57,0,0,1,0-.5A.6.6,0,0,1,30.06,55.76Z"/><path class="cls-1" d="M63,61.16a4.37,4.37,0,0,1-1.13,1.08,2.82,2.82,0,0,1-2.31.62,2.06,2.06,0,0,1,.19-4,2.52,2.52,0,0,1,1.78.36A3.35,3.35,0,0,1,63,61.16Z"/><path class="cls-1" d="M54.17,58.74a1.71,1.71,0,0,1-.75,1.11,1.23,1.23,0,0,1-.92.21A1.2,1.2,0,0,1,51.58,59a1.39,1.39,0,0,1,1.22-1.34,1.2,1.2,0,0,1,.77.14A1.36,1.36,0,0,1,54.17,58.74Z"/><path class="cls-1" d="M65.58,55.37a1.21,1.21,0,0,1-.41,1,1.27,1.27,0,0,1-1.14.15c-.53-.15-1.2-.66-1.13-1.31s.67-.88,1.05-1a1.3,1.3,0,0,1,1,.1A1.36,1.36,0,0,1,65.58,55.37Z"/><path class="cls-1" d="M52,50.92a1.82,1.82,0,0,1,.43,1.35,1.86,1.86,0,0,1-.66,1.2l-1,0A1.43,1.43,0,0,1,50.05,51a1.61,1.61,0,0,1,1.91,0Z"/></svg>