<svg id="Слой_1" data-name="Слой 1" xmlns="http://www.w3.org/2000/svg" viewBox="0 0 111.08 74.08"><defs><style>.cls-1{fill:#f8f8f8;}.cls-2{fill:#111;}.cls-3{fill:#ffd048;}</style></defs><path class="cls-1" d="M67.74,35.49c2.78-.17,5.58.12,8.37.12A2.54,2.54,0,0,0,78,35.06a2.21,2.21,0,0,0,.54-1.62c0-2.14,0-4.28-.09-6.42a2,2,0,0,0-2.25-2.13c-2.74,0-5.48-.07-8.22,0-.63,0-1.76.59-1.78.95-.16,2.92-.11,5.85-.13,8.78a.8.8,0,0,0,.15.42C66.56,35.57,67.43,35.5,67.74,35.49Z"/><path class="cls-1" d="M55.4,35.56c1.41,0,2.82,0,4.22,0A2,2,0,0,0,62,33.28c0-2.15-.06-4.29-.1-6.43,0-1.4-.83-2-2.15-2-2.23,0-4.45,0-6.68,0-3.93.05-4.19.23-4.1,4.2C49.1,36.45,48.11,35.21,55.4,35.56Z"/><path class="cls-1" d="M32.45,32.9c-.07,1.83.85,2.58,2.52,2.62,2.59,0,5.18,0,7.77.1,1.76.05,2.38-1,2.4-2.5,0-2-.06-4,0-6,0-1.4-.7-2-2-2.07-1.55-.09-6.74-.12-7.77-.2-2.16-.16-2.95,1-2.91,2.94C32.42,29.49,32.53,31.2,32.45,32.9Z"/><path class="cls-1" d="M82.45,33A2.31,2.31,0,0,0,85,35.6c1.85,0,3.69,0,5.54,0,4.31-.14,4.31-.16,4.31-4.52,0-6.26,0-6.26-6.16-6.17-1.33,0-2.66,0-4,0a2,2,0,0,0-2.29,2.33C82.47,29.14,82.46,31.06,82.45,33Z"/><path class="cls-2" d="M101,51.55l0-12.21V21.09l-.51-1.53c-1.23-3.72-4.09-5.82-8.27-6.09l-.79-.05-.3-1.53C90.4,8,89.29,7,85.77,7c-2.22,0-4.57-.06-7.63-.06l-8.51,0H25.76c-3.89,0-5.25,1.18-5.82,5l-.21,1.47-.85,0c-4.17.16-7.14,2.41-8.17,6.17l-.21.75L10.05,39l-.38,9.5h0c.07.93.11,1.86.16,2.78a36.67,36.67,0,0,0,.6,6,4.36,4.36,0,0,0,4.38,3.38,4.39,4.39,0,0,0,2.31-.64c.75-.47,1.55-.86,2.4-1.29l1.17-.58,1.49-.76v1.66a7.76,7.76,0,0,0,8,7.83,7.58,7.58,0,0,0,5.38-2.27,8.19,8.19,0,0,0,2.21-4l.18-.79H73.35l.14.85a7.46,7.46,0,0,0,7.42,6.37h0a8,8,0,0,0,7.82-6.38L89.84,60l.73,0c.64,0,1.28.07,1.92.11,1,.06,2,.13,2.91.13,2.11,0,4.47-.28,6-2.37Zm-1.08-26.7V38.92H11.18V22.08H99.91Z"/><path class="cls-1" d="M18.14,35.39c2.15,0,4.3.25,6.45.19,4-.1,4.19-.29,4.09-4.21-.17-6.77.6-6.45-6.62-6.49-1.11,0-2.23.06-3.34,0-2.11-.15-3,.92-3,2.89,0,1.71.05,3.42.05,5.12A2.19,2.19,0,0,0,18.14,35.39Z"/><path class="cls-3" d="M11.18,38.92H99.91V22.08H11.18Zm73.55-14c1.33,0,2.66,0,4,0,6.16-.09,6.16-.09,6.16,6.17,0,4.36,0,4.38-4.31,4.52-1.85.06-3.69,0-5.54,0A2.31,2.31,0,0,1,82.45,33c0-1.92,0-3.84,0-5.76A2,2,0,0,1,84.73,24.89Zm-18.55,1c0-.36,1.15-.92,1.78-.95,2.74-.1,5.48,0,8.22,0A2,2,0,0,1,78.43,27c0,2.14.09,4.28.09,6.42A2.21,2.21,0,0,1,78,35.06a2.54,2.54,0,0,1-1.87.55c-2.79,0-5.59-.29-8.37-.12-.31,0-1.18.08-1.54-.42a.8.8,0,0,1-.15-.42C66.07,31.72,66,28.79,66.18,25.87Zm-13.13-1c2.23,0,4.45,0,6.68,0,1.32,0,2.12.58,2.15,2,0,2.14.11,4.28.1,6.43a2,2,0,0,1-2.36,2.29c-1.4,0-2.81,0-4.22,0-7.29-.35-6.3.89-6.45-6.49C48.86,25.1,49.12,24.92,53.05,24.87Zm-17.75,0c1,.08,6.22.11,7.77.2,1.32.07,2,.67,2,2.07,0,2,.07,4,0,6,0,1.54-.64,2.55-2.4,2.5-2.59-.06-5.18,0-7.77-.1-1.67,0-2.59-.79-2.52-2.62s0-3.41-.06-5.11C32.35,25.81,33.14,24.69,35.3,24.85Zm-16.58,0c1.11.08,2.23,0,3.34,0,7.22,0,6.45-.28,6.62,6.49.1,3.92-.1,4.11-4.09,4.21-2.15.06-4.3-.14-6.45-.19a2.19,2.19,0,0,1-2.4-2.52c0-1.7-.07-3.41-.05-5.12C15.71,25.78,16.61,24.71,18.72,24.86Z"/><path class="cls-3" d="M99.67,49l.63,9.19c-2.32,3.14-6.56,2.25-10.59,2.09-2.13-6.92-4.68-9.52-9.13-9.4-4.68.12-7.39,2.87-9,9.27H39.68c-.26-3-.92-6.09-3.71-7.84a11.43,11.43,0,0,0-5.14-1.75c-4.47-.28-7.34,2.46-9.11,7.86-1.41.74-2.58,1.25-3.66,1.93a4.38,4.38,0,0,1-6.53-2.69A68.9,68.9,0,0,1,10.79,49Z"/><path class="cls-3" d="M20.82,13C21.37,9.18,22.66,8,26.5,8q21.14,0,42.28,0c5.42,0,10.84-.06,16.25,0,3.51.07,4.52,1.1,5.26,4.86Z"/><path class="cls-2" d="M23,59.33a7.84,7.84,0,0,1,7.85-7.95,7.64,7.64,0,0,1,7.53,7.73,7.85,7.85,0,0,1-7.63,7.94A7.56,7.56,0,0,1,23,59.33Zm12.16,0a4.43,4.43,0,0,0-4.47-4.54A4.78,4.78,0,0,0,26,59.18a4.65,4.65,0,0,0,4.56,4.54A4.52,4.52,0,0,0,35.15,59.28Z"/><path class="cls-3" d="M11.17,40.58q43.92,0,87.85,0c.33,0,.65.42,1,.69C98.28,42.39,12.34,42.21,11.17,40.58Z"/><path class="cls-3" d="M11.14,45.4h88.7l.11.72a15.55,15.55,0,0,1-2.22.36l-60.58.1c-7.87,0-15.74.08-23.6.07A13.66,13.66,0,0,1,11,46.17Z"/><path class="cls-2" d="M72.94,59.59a7.73,7.73,0,0,1,7.85-7.72A7.59,7.59,0,0,1,88.1,59.6a7.8,7.8,0,0,1-7.78,7.59A7.43,7.43,0,0,1,72.94,59.59Zm3.17.07A4.17,4.17,0,0,0,80.43,64,4.6,4.6,0,0,0,85,59.45,4.46,4.46,0,0,0,80.57,55,4.63,4.63,0,0,0,76.11,59.66Z"/><path class="cls-3" d="M35.15,59.28a4.52,4.52,0,0,1-4.6,4.44A4.65,4.65,0,0,1,26,59.18a4.78,4.78,0,0,1,4.69-4.44A4.43,4.43,0,0,1,35.15,59.28Z"/><path class="cls-3" d="M76.11,59.66A4.63,4.63,0,0,1,80.57,55,4.46,4.46,0,0,1,85,59.45,4.6,4.6,0,0,1,80.43,64,4.17,4.17,0,0,1,76.11,59.66Zm7,.32V59c-.88-.57-1.78-1.6-2.64-1.57s-2.1,1.38-2,1.94a3.19,3.19,0,0,0,2,2.22C81.25,61.67,82.21,60.55,83.08,60Z"/><path class="cls-2" d="M30.27,61.22a2.24,2.24,0,0,1-1.84-2c-.06-1.22,1.2-2,2.13-2.18a1.92,1.92,0,0,1,1.71.4,2.13,2.13,0,0,1,.64,1.81,2.54,2.54,0,0,1-1.2,1.82Z"/><path class="cls-2" d="M83.08,60a2.12,2.12,0,0,1-2.6,1.57,2.39,2.39,0,0,1-2-2.22,2.22,2.22,0,0,1,2-1.94,2.6,2.6,0,0,1,1.53.48A3.45,3.45,0,0,1,83.08,59a1.74,1.74,0,0,1,.07.51A2.16,2.16,0,0,1,83.08,60Z"/></svg>