<svg id="Слой_1" data-name="Слой 1" xmlns="http://www.w3.org/2000/svg" viewBox="0 0 111.08 74.08"><defs><style>.cls-1{fill:#111;}.cls-2{fill:#ea544c;}</style></defs><path class="cls-1" d="M56.69,66a13.72,13.72,0,0,1-2.21-1.74C47.15,55.47,39.81,46.7,32.63,37.81a3.86,3.86,0,0,1-.05-3.56C39.6,24,46.79,13.79,53.91,3.58c1.66-2.37,3.37-2.06,5-.05,7.34,9.2,14.69,18.39,21.87,27.72a4.1,4.1,0,0,1,0,3.85C73.44,44.92,66,54.62,58.55,64.33A13.63,13.63,0,0,1,56.69,66Zm.05-4.92c7.09-9.35,14.1-18.59,21.22-28L56.12,5.77c-6.78,10-13.21,19.41-19.52,28.91a3,3,0,0,0,.48,2.62c6,7.61,12.15,15.16,18.26,22.7A8.8,8.8,0,0,0,56.74,61.06Z"/><path class="cls-2" d="M56.74,61.06A8.8,8.8,0,0,1,55.34,60c-6.11-7.54-12.23-15.09-18.26-22.7a3,3,0,0,1-.48-2.62c6.31-9.5,12.74-18.92,19.52-28.91L78,33.1C70.84,42.47,63.83,51.71,56.74,61.06Zm-.32-12.52c3.92-5.13,7.19-9.34,10.34-13.64a2.69,2.69,0,0,0,.18-2.41c-3.27-4.6-6.67-9.1-10.58-14.38-4.08,5.62-7.63,10.46-11.06,15.38a2.54,2.54,0,0,0,.15,2.39C48.85,40,52.38,43.91,56.42,48.54Z"/><path class="cls-1" d="M56.42,48.54c-4-4.63-7.57-8.59-11-12.66a2.54,2.54,0,0,1-.15-2.39c3.43-4.92,7-9.76,11.06-15.38,3.91,5.28,7.31,9.78,10.58,14.38a2.69,2.69,0,0,1-.18,2.41C63.61,39.2,60.34,43.41,56.42,48.54Zm.09-26.6c-3,4.21-5.72,7.84-8.25,11.58a2.51,2.51,0,0,0,.11,2.35c2.47,2.9,5.11,5.67,7.94,8.75,2.67-3.43,5.09-6.44,7.38-9.55a2.75,2.75,0,0,0,.49-2.33C61.87,29.27,59.37,25.92,56.51,21.94Z"/><path class="cls-2" d="M56.51,21.94c2.86,4,5.36,7.33,7.67,10.8a2.75,2.75,0,0,1-.49,2.33c-2.29,3.11-4.71,6.12-7.38,9.55-2.83-3.08-5.47-5.85-7.94-8.75a2.51,2.51,0,0,1-.11-2.35C50.79,29.78,53.48,26.15,56.51,21.94Z"/><path class="cls-1" d="M56.42,32.81c-.62-.71-1.17-1.32-1.69-1.94a.4.4,0,0,1,0-.37c.53-.76,1.07-1.5,1.7-2.36.6.81,1.12,1.5,1.62,2.21a.44.44,0,0,1,0,.37C57.52,31.38,57,32,56.42,32.81Z"/><path class="cls-1" d="M56.42,39.13c-.62-.71-1.17-1.32-1.69-1.94a.4.4,0,0,1,0-.37c.53-.75,1.07-1.5,1.7-2.36.6.81,1.12,1.5,1.62,2.21A.44.44,0,0,1,58,37C57.52,37.7,57,38.34,56.42,39.13Z"/><path class="cls-1" d="M56.53,33.83c.71-.62,1.32-1.16,1.94-1.68a.38.38,0,0,1,.37,0c.75.52,1.49,1.07,2.36,1.69-.81.6-1.5,1.12-2.21,1.62a.41.41,0,0,1-.37,0C58,34.93,57.32,34.43,56.53,33.83Z"/><path class="cls-1" d="M51.54,33.83c.71-.62,1.32-1.16,1.94-1.68a.38.38,0,0,1,.37,0c.75.52,1.49,1.07,2.36,1.69-.81.6-1.5,1.12-2.21,1.62a.41.41,0,0,1-.37,0C53,34.93,52.33,34.43,51.54,33.83Z"/><path class="cls-1" d="M79.48,72.15a7.39,7.39,0,0,1-1.08-1c-3.5-4.63-7-9.26-10.43-14A1.94,1.94,0,0,1,68,55.43c3.82-5,7.72-10,11.59-15,.9-1.16,1.76-1,2.53.1,3.5,4.85,7,9.71,10.41,14.62a2.11,2.11,0,0,1-.11,2c-3.94,4.81-8,9.55-12,14.29A6.6,6.6,0,0,1,79.48,72.15Zm.15-2.5L91.1,56,80.69,41.56C77,46.46,73.5,51.08,70.06,55.75a1.5,1.5,0,0,0,.18,1.34c2.87,4,5.79,8,8.7,12A5.38,5.38,0,0,0,79.63,69.65Z"/><path class="cls-2" d="M79.63,69.65a5.38,5.38,0,0,1-.69-.57c-2.91-4-5.83-8-8.7-12a1.5,1.5,0,0,1-.18-1.34C73.5,51.08,77,46.46,80.69,41.56L91.1,56Zm.15-6.37c2.11-2.51,3.88-4.56,5.58-6.67a1.31,1.31,0,0,0,.15-1.22c-1.54-2.41-3.15-4.78-5-7.56-2.21,2.75-4.13,5.12-6,7.53a1.29,1.29,0,0,0,0,1.22C76.14,58.73,77.84,60.83,79.78,63.28Z"/><path class="cls-1" d="M79.78,63.28c-1.94-2.45-3.64-4.55-5.26-6.7a1.29,1.29,0,0,1,0-1.22c1.86-2.41,3.78-4.78,6-7.53,1.86,2.78,3.47,5.15,5,7.56a1.31,1.31,0,0,1-.15,1.22C83.66,58.72,81.89,60.77,79.78,63.28Zm.7-13.5c-1.64,2.06-3.1,3.84-4.47,5.67a1.28,1.28,0,0,0,0,1.2c1.19,1.53,2.46,3,3.82,4.64,1.44-1.67,2.74-3.14,4-4.66.24-.3.46-.93.31-1.18C83,53.63,81.84,51.87,80.48,49.78Z"/><path class="cls-2" d="M80.48,49.78c1.36,2.09,2.54,3.85,3.63,5.67.15.25-.07.88-.31,1.18-1.24,1.52-2.54,3-4,4.66-1.36-1.64-2.63-3.11-3.82-4.64a1.28,1.28,0,0,1,0-1.2C77.38,53.62,78.84,51.84,80.48,49.78Z"/><path class="cls-1" d="M80.17,55.29c-.3-.37-.56-.69-.81-1a.21.21,0,0,1,0-.19c.28-.37.58-.73.92-1.15.28.42.53.78.76,1.16a.17.17,0,0,1,0,.18C80.76,54.6,80.49,54.91,80.17,55.29Z"/><path class="cls-1" d="M80,58.5c-.3-.37-.56-.69-.81-1a.21.21,0,0,1,0-.19c.28-.37.58-.73.92-1.16l.77,1.16a.21.21,0,0,1,0,.19Z"/><path class="cls-1" d="M80.2,55.82c.37-.3.69-.56,1-.81a.21.21,0,0,1,.19,0c.37.28.73.58,1.16.92l-1.16.77a.21.21,0,0,1-.19,0Z"/><path class="cls-1" d="M77.66,55.69l1-.8a.19.19,0,0,1,.19,0c.37.28.73.58,1.15.91-.42.29-.79.54-1.16.77a.17.17,0,0,1-.18,0C78.36,56.29,78.05,56,77.66,55.69Z"/><path class="cls-1" d="M32.6,71.33c-4.31-4.48-8.63-8.95-12.87-13.5a2.1,2.1,0,0,1-.23-1.94C22.6,50.77,25.78,45.7,29,40.64c.69-1.11,1.54-1.36,2.51-.26,4.18,4.75,8.39,9.48,12.52,14.28a1.93,1.93,0,0,1,.18,1.8c-3.12,4.9-6.33,9.75-9.53,14.6a6.84,6.84,0,0,1-1,1A6.49,6.49,0,0,1,32.6,71.33ZM34,69c2.65-4.16,5.31-8.31,7.92-12.5a1.52,1.52,0,0,0,.1-1.35c-3.73-4.44-7.51-8.84-11.51-13.5L21,56.66,33.33,69.58A4.46,4.46,0,0,0,34,69Z"/><path class="cls-2" d="M21,56.66l9.47-15c4,4.66,7.78,9.06,11.51,13.5a1.52,1.52,0,0,1-.1,1.35C39.29,60.65,36.63,64.8,34,69a4.46,4.46,0,0,1-.65.62Zm16.58-.44A1.31,1.31,0,0,0,37.53,55c-2-2.29-4.08-4.53-6.46-7.14-1.67,2.89-3.14,5.36-4.52,7.87a1.3,1.3,0,0,0,.23,1.2c1.83,2,3.73,3.94,6,6.3C34.55,60.67,36.11,58.47,37.6,56.22Z"/><path class="cls-1" d="M26.78,56.93a1.3,1.3,0,0,1-.23-1.2c1.38-2.51,2.85-5,4.52-7.87,2.38,2.61,4.45,4.85,6.46,7.14a1.31,1.31,0,0,1,.07,1.22c-1.49,2.25-3.05,4.45-4.82,7C30.51,60.87,28.61,58.93,26.78,56.93ZM28,55.7c-.14.26.12.87.37,1.15,1.34,1.44,2.73,2.82,4.28,4.4C33.86,59.53,35,58,36.12,56.37A1.26,1.26,0,0,0,36,55.18c-1.49-1.74-3-3.42-4.83-5.38C30,52,28.93,53.81,28,55.7Z"/><path class="cls-2" d="M36,55.18a1.26,1.26,0,0,1,.08,1.19C35,58,33.86,59.53,32.61,61.25c-1.55-1.58-2.94-3-4.28-4.4-.25-.28-.51-.89-.37-1.15,1-1.89,2-3.72,3.25-5.9C33,51.76,34.55,53.44,36,55.18Z"/><path class="cls-1" d="M31,54.32a.17.17,0,0,1,0-.18c.21-.39.43-.77.69-1.21.37.4.68.74,1,1.1a.19.19,0,0,1,0,.18c-.23.35-.47.69-.74,1.08C31.53,54.93,31.24,54.63,31,54.32Z"/><path class="cls-1" d="M31.32,57.52a.19.19,0,0,1,0-.19c.21-.38.43-.76.69-1.21.37.4.68.75,1,1.1a.21.21,0,0,1,0,.19l-.74,1.07Z"/><path class="cls-1" d="M30.92,56.73a.22.22,0,0,1-.19,0l-1.21-.7,1.1-1a.25.25,0,0,1,.19,0l1.07.74Z"/><path class="cls-1" d="M33.44,56.45a.19.19,0,0,1-.19,0l-1.2-.69,1.09-1a.21.21,0,0,1,.19,0l1.07.74Z"/></svg>