<svg id="Слой_1" data-name="Слой 1" xmlns="http://www.w3.org/2000/svg" viewBox="0 0 111.08 74.08"><defs><style>.cls-1{fill:#c59e7c;}.cls-2{fill:#111;}.cls-3{fill:#9a6349;}</style></defs><path class="cls-1" d="M88.89,17.15c-6.66-4-15.83-3-21.94,2.47S58.75,33.74,62.31,41a15.24,15.24,0,0,0,4.13,5.18,6.8,6.8,0,0,1,2.88,6.68c-.3,2.83-.53,5.66-.79,8.5a1.19,1.19,0,0,0,.41.2,1.24,1.24,0,0,0,.69-.05q.95-5.65,1.88-11.31a1.67,1.67,0,0,1,1.73.19c-.35,2-.68,4.1-1,6.19s-.62,4-.9,6a1.54,1.54,0,0,0,.69.54A1.67,1.67,0,0,0,73.37,63c.13-.78.32-1.85.53-3.13l.54-3.13c.35-2.05.71-4.09,1.07-6.14a1.76,1.76,0,0,1,.93,0,1.86,1.86,0,0,1,.52.21q-.69,5.88-1.36,11.76a2,2,0,0,0,1.09.32,1.33,1.33,0,0,0,.69-.15c.58-.36.54-1.42.53-1.77a62.3,62.3,0,0,1,.66-6.66c.07-.79.19-2,.42-3.4a2.59,2.59,0,0,1,.79-.13,2.72,2.72,0,0,1,1,.2L80,63.07a2.18,2.18,0,0,0,1.15.31,2.16,2.16,0,0,0,1.12-.32c0-.54,0-1.34.08-2.32,0-1.14.08-4,.31-7.15a4.53,4.53,0,0,1,.51-2.28A4.73,4.73,0,0,1,86,49.51,15.87,15.87,0,0,0,97,37.78C98.87,30.2,95.3,21,88.89,17.15ZM71.67,41.68c-3,0-5.51-2.89-5.57-6.39s2.1-6,5.32-6a5.92,5.92,0,0,1,6.14,6.1C77.62,39,75.09,41.73,71.67,41.68Zm13.61,2.15a5.75,5.75,0,0,1-5.55-5.93,6.38,6.38,0,0,1,6.21-6.55,5.23,5.23,0,0,1,5.55,5.39C91.53,40.38,88.57,43.76,85.28,43.83Z"/><path class="cls-2" d="M91.08,15.41c-6.45-4.93-13.87-4.88-21-1.44C62.16,17.76,58.26,24.34,58,33A18.57,18.57,0,0,0,64.2,47.78a6.07,6.07,0,0,1,2.11,5.58c-.39,4.36-.6,8.74-.69,13.11-.07,3.6,1.26,5,4.8,5.74.33.07.67.08,1,.12C85,73.87,84.78,70,85,61.19c.14-5.2.27-9.32,6.61-11.48,5-1.71,7.42-7,8.27-12.34C101.31,28.35,98.17,20.83,91.08,15.41ZM97,37.78A15.87,15.87,0,0,1,86,49.51a4.73,4.73,0,0,0-2.74,1.8,4.53,4.53,0,0,0-.51,2.28c-.23,3.15-.28,6-.31,7.15,0,1-.06,1.78-.08,2.32a2.16,2.16,0,0,1-1.12.32A2.18,2.18,0,0,1,80,63.07L80.73,51a2.72,2.72,0,0,0-1-.2,2.59,2.59,0,0,0-.79.13c-.23,1.44-.35,2.61-.42,3.4A62.3,62.3,0,0,0,77.91,61c0,.35,0,1.41-.53,1.77a1.33,1.33,0,0,1-.69.15,2,2,0,0,1-1.09-.32Q76.28,56.68,77,50.8a1.86,1.86,0,0,0-.52-.21,1.76,1.76,0,0,0-.93,0c-.36,2-.72,4.09-1.07,6.14L73.9,59.9c-.21,1.28-.4,2.35-.53,3.13a1.67,1.67,0,0,1-1.35.09,1.54,1.54,0,0,1-.69-.54q.42-3,.9-6c.33-2.09.66-4.15,1-6.19a1.67,1.67,0,0,0-1.73-.19q-.95,5.65-1.88,11.31a1.24,1.24,0,0,1-.69.05,1.19,1.19,0,0,1-.41-.2c.26-2.84.49-5.67.79-8.5a6.8,6.8,0,0,0-2.88-6.68A15.24,15.24,0,0,1,62.31,41c-3.56-7.3-1.6-15.87,4.64-21.42s15.28-6.47,21.94-2.47C95.3,21,98.87,30.2,97,37.78Z"/><path class="cls-2" d="M85.94,31.35a6.38,6.38,0,0,0-6.21,6.55,5.75,5.75,0,0,0,5.55,5.93c3.29-.07,6.25-3.45,6.21-7.09A5.23,5.23,0,0,0,85.94,31.35Z"/><path class="cls-2" d="M71.42,29.25c-3.22.08-5.37,2.53-5.32,6s2.53,6.34,5.57,6.39c3.42,0,6-2.67,5.89-6.33A5.92,5.92,0,0,0,71.42,29.25Z"/><path class="cls-3" d="M42.57,2.08c-9.55-2-17.79.48-24.25,7.84s-9.41,16.21-6,25.93c1.44,4.08,4.29,7.64,6.31,11.53.82,1.58,1,3.47,1.72,5.12.52,1.21,1.3,3.15,2.13,3.24,4.26.47,5.54,3.74,7.2,6.77,2.51,4.55,6.38,6.25,11.43,5.24,1.65-.32,3.26-.84,4.89-1.28v0c1.13-.3,2.29-.52,3.38-.91C59.52,62,61.47,60.41,61.5,50.32c0-1.29,1-2.71,1.93-3.83,1.57-2,2.59-3.73.85-6.24a7.09,7.09,0,0,1-.66-4c.1-4.52.87-9.09.45-13.55C63.12,12.75,54.29,4.52,42.57,2.08Z"/><path class="cls-2" d="M46,66.47c-1.63.44-3.24,1-4.89,1.28-5,1-8.92-.69-11.43-5.24-1.66-3-2.94-6.3-7.2-6.77-.83-.09-1.61-2-2.13-3.24-.7-1.65-.9-3.54-1.72-5.12-2-3.89-4.87-7.45-6.31-11.53-3.42-9.72-.59-18.43,6-25.93S33,.09,42.57,2.08c11.72,2.44,20.55,10.67,21.5,20.66.42,4.46-.35,9-.45,13.55a7.09,7.09,0,0,0,.66,4c1.74,2.51.72,4.27-.85,6.24-.88,1.12-1.93,2.54-1.93,3.83,0,10.09-2,11.66-12.1,15.29-1.09.39-2.25.61-3.38.91ZM30.9,49a1.15,1.15,0,0,1,1-.32c.7.18,1,1.56.91,2.55-.13,1.82-1.43,2.06-1.89,3.71-.54,2,.68,3.89,1.64,5.39.72,1.12,2,3.08,4.27,3.72a5.86,5.86,0,0,0,2.75.1,63.51,63.51,0,0,0,10.09-2.57c7.8-2.79,8.89-4.7,8.06-13.11-2.78-.74-5.33-2.35-4.46-5.49.33-1.21,2.65-.13,6-1.11l.68-.22c0-.13,0-.35.08-.63a68.92,68.92,0,0,0,.56-16.21,23.46,23.46,0,0,0-1-5.66,19.76,19.76,0,0,0-7.1-9.11c-9.14-6.8-21.87-6.55-30.16.65C13.85,18,12.22,29.1,18.11,39.57a46.55,46.55,0,0,0,4.46,7.27c1.12,1.35,2.37,2.37,2.72,3.45a2.15,2.15,0,0,0,.95,1.31,1.71,1.71,0,0,0,.34.13,2.63,2.63,0,0,0,.51-.11,2.5,2.5,0,0,0,1.05-.75A9.64,9.64,0,0,1,30.9,49Z"/><path class="cls-3" d="M33,44.27c3.19-.94,5.37-4.94,4.35-8s-5.48-4.95-9.13-3.77a5.55,5.55,0,0,0-3.61,6.79A6.93,6.93,0,0,0,33,44.27ZM54.43,31.36a5.33,5.33,0,0,0-6.82-4A6,6,0,0,0,43,35c1,3.33,4.37,5.45,7.45,4.62S55.36,34.84,54.43,31.36ZM43.65,51.06a6.38,6.38,0,0,0,1.18-.46c2.3-1.34,3.2-3.42,2.27-5.85s-2.77-1.42-4.46-.64c-.65.3-1.71-.1-2.22.29-1.14.88-2.68,1.93-2.91,3.14C37,50,40.33,51.83,43.65,51.06Z"/><path class="cls-2" d="M33,44.27a6.93,6.93,0,0,1-8.39-5,5.55,5.55,0,0,1,3.61-6.79c3.65-1.18,8.1.66,9.13,3.77S36.15,43.33,33,44.27Z"/><path class="cls-2" d="M54.43,31.36c.93,3.48-1,7.47-3.94,8.26S44,38.33,43,35a6,6,0,0,1,4.57-7.67A5.33,5.33,0,0,1,54.43,31.36Z"/><path class="cls-2" d="M43.65,51.06c-3.32.77-6.61-1.08-6.14-3.52.23-1.21,1.77-2.26,2.91-3.14.51-.39,1.57,0,2.22-.29,1.69-.78,3.5-1.86,4.46.64s0,4.51-2.27,5.85A6.38,6.38,0,0,1,43.65,51.06Z"/><path class="cls-2" d="M49.86,58.08c-1.54,1.1-5.06,3.64-8.2,2.23A5.09,5.09,0,0,1,39,57.78a4.49,4.49,0,0,1-.26-.93,2.21,2.21,0,0,1,1.16-.38,2.81,2.81,0,0,1,1.52.56,6,6,0,0,0,3.36.6,4.69,4.69,0,0,0,2.43-.83c1.19-.88,1.15-1.92,2.36-2.58a3.39,3.39,0,0,1,1.58-.41c0,.24.08.6.13,1a6.47,6.47,0,0,1,.11,1.22,2.23,2.23,0,0,1-.87,1.46"/><path class="cls-2" d="M46,66.47c-1.63.44-3.24,1-4.89,1.28-5,1-8.92-.69-11.43-5.24-1.66-3-2.94-6.3-7.2-6.77-.83-.09-1.61-2-2.13-3.24-.7-1.65-.9-3.54-1.72-5.12-2-3.89-4.87-7.45-6.31-11.53-3.42-9.72-.59-18.43,6-25.93S33,.09,42.57,2.08c11.72,2.44,20.55,10.67,21.5,20.66.42,4.46-.35,9-.45,13.55a7.09,7.09,0,0,0,.66,4c1.74,2.51.72,4.27-.85,6.24-.88,1.12-1.93,2.54-1.93,3.83,0,10.09-2,11.66-12.1,15.29-1.09.39-2.25.61-3.38.91ZM30.9,49a1.15,1.15,0,0,1,1-.32c.7.18,1,1.56.91,2.55-.13,1.82-1.43,2.06-1.89,3.71-.54,2,.68,3.89,1.64,5.39.72,1.12,2,3.08,4.27,3.72a5.86,5.86,0,0,0,2.75.1,63.51,63.51,0,0,0,10.09-2.57c7.8-2.79,8.89-4.7,8.06-13.11-2.78-.74-5.33-2.35-4.46-5.49.33-1.21,2.65-.13,6-1.11l.68-.22c0-.13,0-.35.08-.63a68.92,68.92,0,0,0,.56-16.21,23.46,23.46,0,0,0-1-5.66,19.76,19.76,0,0,0-7.1-9.11c-9.14-6.8-21.87-6.55-30.16.65C13.85,18,12.22,29.1,18.11,39.57a46.55,46.55,0,0,0,4.46,7.27c1.12,1.35,2.37,2.37,2.72,3.45a2.15,2.15,0,0,0,.95,1.31,1.71,1.71,0,0,0,.34.13,2.63,2.63,0,0,0,.51-.11,2.5,2.5,0,0,0,1.05-.75A9.64,9.64,0,0,1,30.9,49Z"/><path class="cls-3" d="M33,44.27c3.19-.94,5.37-4.94,4.35-8s-5.48-4.95-9.13-3.77a5.55,5.55,0,0,0-3.61,6.79A6.93,6.93,0,0,0,33,44.27ZM54.43,31.36a5.33,5.33,0,0,0-6.82-4A6,6,0,0,0,43,35c1,3.33,4.37,5.45,7.45,4.62S55.36,34.84,54.43,31.36ZM43.65,51.06a6.38,6.38,0,0,0,1.18-.46c2.3-1.34,3.2-3.42,2.27-5.85s-2.77-1.42-4.46-.64c-.65.3-1.71-.1-2.22.29-1.14.88-2.68,1.93-2.91,3.14C37,50,40.33,51.83,43.65,51.06Z"/><path class="cls-2" d="M33,44.27a6.93,6.93,0,0,1-8.39-5,5.55,5.55,0,0,1,3.61-6.79c3.65-1.18,8.1.66,9.13,3.77S36.15,43.33,33,44.27Z"/><path class="cls-2" d="M54.43,31.36c.93,3.48-1,7.47-3.94,8.26S44,38.33,43,35a6,6,0,0,1,4.57-7.67A5.33,5.33,0,0,1,54.43,31.36Z"/><path class="cls-2" d="M43.65,51.06c-3.32.77-6.61-1.08-6.14-3.52.23-1.21,1.77-2.26,2.91-3.14.51-.39,1.57,0,2.22-.29,1.69-.78,3.5-1.86,4.46.64s0,4.51-2.27,5.85A6.38,6.38,0,0,1,43.65,51.06Z"/><path class="cls-2" d="M49.86,58.08c-1.54,1.1-5.06,3.64-8.2,2.23A5.09,5.09,0,0,1,39,57.78a4.49,4.49,0,0,1-.26-.93,2.21,2.21,0,0,1,1.16-.38,2.81,2.81,0,0,1,1.52.56,6,6,0,0,0,3.36.6,4.69,4.69,0,0,0,2.43-.83c1.19-.88,1.15-1.92,2.36-2.58a3.39,3.39,0,0,1,1.58-.41c0,.24.08.6.13,1a6.47,6.47,0,0,1,.11,1.22,2.23,2.23,0,0,1-.87,1.46"/></svg>