<svg id="Слой_1" data-name="Слой 1" xmlns="http://www.w3.org/2000/svg" viewBox="0 0 111.08 74.08"><defs><style>.cls-1{fill:#ea544c;}.cls-2{fill:#ee7168;}.cls-3{fill:#111;}.cls-4{fill:#ffd048;}.cls-5{fill:#199c95;}</style></defs><path class="cls-1" d="M30.78,63.73c-.85-1.79-1.33-2.36-1.56-2.89a5.08,5.08,0,0,0-.27-.43.35.35,0,0,0-.17-.18.34.34,0,0,0-.15,0l-.12.07a.83.83,0,0,0-.29.45,28.68,28.68,0,0,0-1.87,3.95c-.58,1.62-.83,2.41-.62,2.84.29.62,1.14,1,2.63,1.29h.12c1.68.32,2.8-.39,2.93-2.1A5.71,5.71,0,0,0,30.93,64C30.91,64,30.87,63.9,30.78,63.73Z"/><path class="cls-2" d="M35.29,53.8c-.09-.28-.15-.34-.19-.34s-.09.5-.18,1.35a5.54,5.54,0,0,1-.26,1.41,4.7,4.7,0,0,1-.7,1.05c-.76.89-1.68.69-2-.43A13.88,13.88,0,0,1,31.44,54c-.07-1.51-.45-1.33-1.72-5.9-.23-.8-.4-1.45-.5-1.84a.21.21,0,0,0-.12,0c-.51,0-.71,1.38-1.07,2.78,0,0,.11-.4-.79,2.49a13.52,13.52,0,0,1-1.78,4.33c-.55.76-.89,1-1.22,1s-.89-.41-1.26-1.16-.53-1.25-.89-2.11c-1.33,4.82-1.35,9.13,2.22,12.95.78-1.54,1.57-2.95,2.23-4.41s1.22-3,1.82-4.51a.16.16,0,0,1,.11-.11.24.24,0,0,1,.27.15c.61,1,1,2.29,1.79,3.61,1.26,2.22,2.69,4.37,1.41,7.18a10.12,10.12,0,0,0,4.66-5.86c.73-2.93-.31-5.95-.91-7.68C35.54,54.41,35.39,54,35.29,53.8Z"/><path class="cls-3" d="M35.79,53.06c-.09-.31-.16-.57-.2-.74s-.25-.45-.39-.46c-.41,0-.91,1.2-1.49,3.67-.17.26-.43.61-.65.56s-.29-.87-.35-1.08c-.55-2.1-1-4.24-1.72-6.28a20.11,20.11,0,0,1-.84-6.55,6.28,6.28,0,0,0-.09-.91,3,3,0,0,0-.07-.35c-.08-.16-.16-.23-.25-.24s-.48.49-.74,1.49c-.5,1.72-1.27,4.3-2.19,7.1-1.61,4.92-1.71,5.3-2.31,6a3.38,3.38,0,0,1-.29.28.71.71,0,0,1-.18-.07c-.46-.25-.52-1-.54-1.22a23.35,23.35,0,0,0-.77-3.49.24.24,0,0,0-.45-.06,2.14,2.14,0,0,0-.28.27,3,3,0,0,0-.52.86,15.74,15.74,0,0,0-.13,12.1c1.54,3.11,3.9,5.39,7.49,5.92s7.18-2.88,8.47-6.3c.3-.8,1.38-3.69.28-6.09A22.84,22.84,0,0,1,35.79,53.06ZM31.41,66.7c-.13,1.71-1.25,2.42-2.93,2.1h-.12c-1.49-.32-2.34-.67-2.63-1.29-.21-.43,0-1.22.62-2.84a28.68,28.68,0,0,1,1.87-3.95.83.83,0,0,1,.29-.45l.12-.07a.34.34,0,0,1,.15,0,.35.35,0,0,1,.17.18,5.08,5.08,0,0,1,.27.43c.23.53.71,1.1,1.56,2.89.09.17.13.25.15.3A5.71,5.71,0,0,1,31.41,66.7Zm5.19-4.16a10.12,10.12,0,0,1-4.66,5.86c1.28-2.81-.15-5-1.41-7.18-.75-1.32-1.18-2.63-1.79-3.61a.24.24,0,0,0-.27-.15.16.16,0,0,0-.11.11c-.6,1.5-1.15,3-1.82,4.51S25.09,65,24.31,66.49c-3.57-3.82-3.55-8.13-2.22-12.95.36.86.59,1.5.89,2.11s.81,1.15,1.26,1.16.67-.21,1.22-1a13.52,13.52,0,0,0,1.78-4.33c.9-2.89.79-2.46.79-2.49.36-1.4.56-2.73,1.07-2.78a.21.21,0,0,1,.12,0c.1.39.27,1,.5,1.84,1.27,4.57,1.65,4.39,1.72,5.9A13.88,13.88,0,0,0,32,56.84c.31,1.12,1.23,1.32,2,.43a4.7,4.7,0,0,0,.7-1.05,5.54,5.54,0,0,0,.26-1.41c.09-.85.08-1.33.18-1.35s.1.06.19.34.25.61.4,1.06C36.29,56.59,37.33,59.61,36.6,62.54Z"/><path class="cls-3" d="M61.21,56.81c-3.76.47-7.33.95-10.92,1.37-1.75.21-3.52.38-5.29.44-3.17.11-3.52-.34-2.42-3.25,3.28-8.67,6.4-17.4,9.92-26,1.93-4.7,7.4-18.54,8-20.06.14-.37.31-.72.45-1.09.45-1.11.54-1.51.93-1.69a1.16,1.16,0,0,1,.89,0,6.15,6.15,0,0,1,.7.49,3.12,3.12,0,0,1,1,.86C75,23.52,85.53,39.2,96.22,54.78c1.79,2.61,2.11,4.77-.08,7.13a4.6,4.6,0,0,0-.42.63c-4.39,6.61-4.38,6.49-12.2,5.79-6.29-.56-12.62-.85-18.94-1.12-1.9-.08-2.8-.8-2.9-2.66C61.55,62.05,61.38,59.55,61.21,56.81ZM70.53,22l-.12-.09.17,0c0,.13,0,.26,0,.39a2.32,2.32,0,0,0,0,.35c.82,3.95,18.05,39.86,18.05,39.86l1,2.1.15,0-.2.06-.26-2.41.35-.06c.28.52.57,1,.79,1.43l4.66-5.24c-5.41-8.09-10.63-15.94-15.9-23.76C76.37,30.39,73.43,26.2,70.53,22Zm16,43.75c-7.38-17-14.53-33.51-21.67-50l-.64.22V64.41ZM45.1,55.61C48,55.37,50,55.32,51.94,55a2.64,2.64,0,0,0,1.7-1.62c.76-3,1.33-6.1,1.9-9.16Q58.21,30,60.84,15.75l-.64-.18ZM62,24.9l-.77,0c-1.66,9.82-3.33,19.65-5,29.81L61,53.25C61.31,43.57,61.63,34.23,62,24.9Z"/><path class="cls-4" d="M96.27,22.63l2.3,4.17-.74.65c-1.15-.82-2.29-1.65-3.49-2.52l-4.1,2.54-.75-.85,2.74-4a15.43,15.43,0,0,1-1.82-2.28c-.25-.46,0-1.19,0-1.8a4.08,4.08,0,0,1,1.58.37,19.62,19.62,0,0,1,2,2.16c1.2-1.14,2.22-2.22,3.37-3.15a4.65,4.65,0,0,1,1.74-.49c0,.68.18,1.52-.14,2A35.15,35.15,0,0,1,96.27,22.63Z"/><path class="cls-4" d="M82.1,11.56a32.16,32.16,0,0,1,1.8,3.08c.17.37-.23,1-.37,1.51-.44-.15-1-.17-1.28-.46-.8-.86-1.49-1.83-2.28-2.83l-3.76,2.89C75.26,14,75.26,14,78.49,10.7,78.16,9,75.72,7.81,77.2,5l3.27,3.9,3.84-2.33.79.75C84.12,8.69,83.14,10.07,82.1,11.56Z"/><path class="cls-5" d="M86.49,65.74,64.18,64.41V16a.45.45,0,0,1,.25-.28.41.41,0,0,1,.39.06Z"/><path class="cls-5" d="M88.42,62.73c-1.38-2.43-2.26-4.35-2.58-5q-7.35-16.17-7.37-16.2S72.33,29.36,70.84,24a7.74,7.74,0,0,1-.24-1.36,5,5,0,0,1,0-.74l0,0c2.9,4.21,5.84,8.4,8.7,12.65,5.27,7.82,10.49,15.67,15.9,23.76q-1.6,2-3.5,4.11c-.68.75-1.37,1.48-2,2.17C89.32,64.25,88.9,63.57,88.42,62.73Z"/><path class="cls-5" d="M45.1,55.61l15.1-40a.36.36,0,0,1,.39-.1.44.44,0,0,1,.25.28C59.37,25,58.3,30.86,57.58,34.53c-.57,2.87-1.1,5.34-1.79,9.27a48.22,48.22,0,0,0-1.11,6A21.92,21.92,0,0,1,54,53a2.66,2.66,0,0,1-.78,1.52,2.3,2.3,0,0,1-1.32.46C50.66,55.05,48.27,55.3,45.1,55.61Z"/><path class="cls-5" d="M62,24.9c-.33,9.33-.65,18.67-1,28.35l-4.84,1.43c1.72-10.16,3.39-20,5-29.81a.43.43,0,0,1,.41-.2A.49.49,0,0,1,62,24.9Z"/><path class="cls-3" d="M22.72,50.73a23.35,23.35,0,0,1,.77,3.49c0,.25.08,1,.54,1.22a.71.71,0,0,0,.18.07,3.38,3.38,0,0,0,.29-.28c.6-.66.7-1,2.31-6,.92-2.8,1.69-5.38,2.19-7.1.26-1,.51-1.5.74-1.49s.17.08.25.24a3,3,0,0,1,.07.35,6.28,6.28,0,0,1,.09.91A20.11,20.11,0,0,0,31,48.73c.72,2,1.17,4.18,1.72,6.28.06.21.06,1,.35,1.08s.48-.3.65-.56c.58-2.47,1.08-3.7,1.49-3.67.14,0,.27.16.39.46s.11.43.2.74a22.84,22.84,0,0,0,1.79,4.37c1.1,2.4,0,5.29-.28,6.09-1.29,3.42-4.88,6.84-8.47,6.3S22.88,67,21.34,63.9a15.74,15.74,0,0,1,.13-12.1,3,3,0,0,1,.52-.86,2.14,2.14,0,0,1,.28-.27.24.24,0,0,1,.45.06Zm1.59,15.76c.78-1.54,1.57-2.95,2.23-4.41s1.22-3,1.82-4.51a.16.16,0,0,1,.11-.11.24.24,0,0,1,.27.15c.61,1,1,2.29,1.79,3.61,1.26,2.22,2.69,4.37,1.41,7.18a10.12,10.12,0,0,0,4.66-5.86c.73-2.93-.31-5.95-.91-7.68-.15-.45-.3-.82-.4-1.06s-.15-.34-.19-.34-.09.5-.18,1.35a5.54,5.54,0,0,1-.26,1.41,4.7,4.7,0,0,1-.7,1.05c-.76.89-1.68.69-2-.43A13.88,13.88,0,0,1,31.44,54c-.07-1.51-.45-1.33-1.72-5.9-.23-.8-.4-1.45-.5-1.84a.21.21,0,0,0-.12,0c-.51,0-.71,1.38-1.07,2.78,0,0,.11-.4-.79,2.49a13.52,13.52,0,0,1-1.78,4.33c-.55.76-.89,1-1.22,1s-.89-.41-1.26-1.16-.53-1.25-.89-2.11C20.76,58.36,20.74,62.67,24.31,66.49Zm4.32-6.3-.12.07a.83.83,0,0,0-.29.45,28.68,28.68,0,0,0-1.87,3.95c-.58,1.62-.83,2.41-.62,2.84.29.62,1.14,1,2.63,1.29h.12c1.68.32,2.8-.39,2.93-2.1A5.71,5.71,0,0,0,30.93,64c0-.05-.06-.13-.15-.3-.85-1.79-1.33-2.36-1.56-2.89a5.08,5.08,0,0,0-.27-.43.35.35,0,0,0-.17-.18A.34.34,0,0,0,28.63,60.19Z"/></svg>