<svg id="Слой_1" data-name="Слой 1" xmlns="http://www.w3.org/2000/svg" viewBox="0 0 111.08 74.08"><defs><style>.cls-1{fill:#111;}.cls-2{fill:#b2b2b2;}</style></defs><path class="cls-1" d="M87.39,38.44a24.65,24.65,0,0,1-3,1.11c-5.2,1.21-10.43,2.29-15.61,3.57a3.61,3.61,0,0,0-2.3,1.81c-2.57,7.12-5,14.29-7.42,21.46-.23.66-.21,1.42-.44,2.08-.32.93-.76,1.8-1.16,2.7a12.73,12.73,0,0,1-2-2.3C52,62,48.6,55,45.05,48.09a5,5,0,0,0-2.65-2.26c-4.9-1.62-9.87-3-14.82-4.5a23.32,23.32,0,0,1-2.8-.86c-1.55-.7-1.58-1.68-.11-2.47,2.27-1.21,4.63-2.28,7-3.43,3.43-1.69,6.93-3.28,10.26-5.16a5.55,5.55,0,0,0,2.26-2.95c2.18-7,4.16-14,6.33-21,.29-1,1.25-1.73,1.9-2.58a14,14,0,0,1,2.26,2.44c2.3,4.23,4.28,8.63,6.75,12.75A19.21,19.21,0,0,0,66.58,24C72,27.74,77.7,31.06,83.26,34.6c1.46.93,2.83,2,4.23,3Zm-6.75-2.52,0,.14.06-.1L63.08,25.21l-4.25,4.86c7,2.09,13.64,4.08,20.28,6A4.12,4.12,0,0,0,80.64,35.92Zm-4.33,2.42.06-.64c-6-1.7-12.05-3.47-18.13-5-.7-.18-2.19.85-2.5,1.63a3,3,0,0,0,.85,2.81c2.37,1.55,5,2.77,7.49,4.09a2,2,0,0,0,1.26.26C69,40.48,72.66,39.4,76.31,38.34Zm-29.7,6.74c3,5.92,6,11.7,9,17.47l.8-.28c-1.3-7.06-2.59-14.12-4-21.66ZM58.49,56.81l1,.17c1.42-4,2.87-8.09,4.21-12.17a1.68,1.68,0,0,0-.64-1.48C60.81,42.11,58.5,41,55.6,39.58,56.63,45.71,57.56,51.26,58.49,56.81ZM55.27,29.54c6-4.66,6.3-5.68,3.32-11.55-.73-1.43-1.46-2.86-2.24-4.26-.48-.85-1.08-1.63-1.62-2.45l-.56.29ZM51.84,12.6l-.93-.12c-1.39,5.11-2.83,10.22-4.11,15.37a2.56,2.56,0,0,0,1,2.15,27.2,27.2,0,0,0,4.07,1.74ZM50.63,38.93c-6.71-.69-12.74-.89-18.82.37a121.28,121.28,0,0,0,12.28,4.24,1.83,1.83,0,0,0,1.45-.34C47.12,42,48.62,40.63,50.63,38.93ZM52.24,36c-.06-3-4.09-6.11-6.67-5-3,1.34-5.85,3.05-8.77,4.6l.11.36Z"/><path class="cls-2" d="M76.31,38.34c-3.65,1.06-7.3,2.14-11,3.16a2,2,0,0,1-1.26-.26c-2.53-1.32-5.12-2.54-7.49-4.09a3,3,0,0,1-.85-2.81c.31-.78,1.8-1.81,2.5-1.63,6.08,1.52,12.09,3.29,18.13,5Z"/><path class="cls-2" d="M46.61,45.08l5.82-4.47c1.39,7.54,2.68,14.6,4,21.66l-.8.28C52.63,56.78,49.66,51,46.61,45.08Z"/><path class="cls-2" d="M58.49,56.81c-.93-5.55-1.86-11.1-2.89-17.23,2.9,1.44,5.21,2.53,7.45,3.75a1.68,1.68,0,0,1,.64,1.48C62.35,48.89,60.9,52.93,59.48,57Z"/><path class="cls-2" d="M80.64,35.92a4.12,4.12,0,0,1-1.53.17c-6.64-1.94-13.27-3.93-20.28-6l4.25-4.86L80.67,36Z"/><path class="cls-2" d="M55.27,29.54l-1.1-18,.56-.29c.54.82,1.14,1.6,1.62,2.45.78,1.4,1.51,2.83,2.24,4.26C61.57,23.86,61.31,24.88,55.27,29.54Z"/><path class="cls-2" d="M51.84,12.6V31.74A27.2,27.2,0,0,1,47.77,30a2.56,2.56,0,0,1-1-2.15c1.28-5.15,2.72-10.26,4.11-15.37Z"/><path class="cls-2" d="M50.63,38.93c-2,1.7-3.51,3-5.09,4.27a1.83,1.83,0,0,1-1.45.34A121.28,121.28,0,0,1,31.81,39.3C37.89,38,43.92,38.24,50.63,38.93Z"/><path class="cls-2" d="M52.24,36H36.91l-.11-.36c2.92-1.55,5.76-3.26,8.77-4.6C48.15,29.93,52.18,33,52.24,36Z"/></svg>