<svg id="Слой_1" data-name="Слой 1" xmlns="http://www.w3.org/2000/svg" viewBox="0 0 111.08 74.08"><defs><style>.cls-1{fill:#7bcbe2;}.cls-2{fill:#111;}</style></defs><path class="cls-1" d="M80.87,30.05a7.21,7.21,0,0,1-3.07,7.21c-3,2.11-5.21,2-10.62,3.64-3.6,1.09-3.07,1.32-5.56,1.93a29.81,29.81,0,0,1-9.27.74c-5.55-.43-6.17-2.11-13.86-4a25.75,25.75,0,0,1-4.11-1.66c-3.34-1.62-4.55-4.39-4.16-8.28a65,65,0,0,0,18.84,5A66.1,66.1,0,0,0,80.87,30.05Z"/><path class="cls-1" d="M46.57,5.31c4-3,6.68-3.23,8.47-2.85,1,.2,1.64.58,4.23,1.38,1.95.6,3.58,1,4.66,1.25C63,8,61.82,10.75,61.1,13.6c-1.4,5.49-2.61,11-3.81,16.56-.3,1.37-.73,2.13-2.34,2.1s-1.59-1-1.79-2.11C51.67,21.79,49.86,13.5,46.57,5.31Z"/><path class="cls-2" d="M34.23,40.38l3.21,1.15A7.5,7.5,0,0,0,35,45.28c-.8,3.1,1,5.9,2.31,7.95C39.13,56,39.83,55.61,42.78,59c3.79,4.32,3.59,6.07,6.88,8.3a9.36,9.36,0,0,0,5.07,1.9,9.58,9.58,0,0,0,4.93-1.51,19.41,19.41,0,0,0,5.89-5.6c7.21-9.21,8.63-9.22,9.31-12.59a14.34,14.34,0,0,0-.61-7.6c2.1-1.15,2.27-1.08,3.07,1a10.89,10.89,0,0,1-.67,8.84A42.53,42.53,0,0,1,62,69.22c-5.25,3.55-9.37,3.37-14.31-.52A50.2,50.2,0,0,1,34.36,52.84C32.21,48.83,31.6,44.72,34.23,40.38Z"/><path class="cls-1" d="M50.41,32c-2-.25-3.7-.38-5.39-.75a2.12,2.12,0,0,1-1.18-1.4,48.5,48.5,0,0,0-6.66-16.42c-.52-.79.43-1.87.43-1.87A8.38,8.38,0,0,1,39.49,8a6.48,6.48,0,0,1,4.33-1.73C45.17,10.15,46.48,14.42,50.41,32Z"/><path class="cls-1" d="M66.84,6a7.15,7.15,0,0,1,3.75,1.58,7,7,0,0,1,2.28,3.46c.22.85.45,1.63.19,2-3.43,5.13-5.28,10.85-6.61,16.81a2.62,2.62,0,0,1-1.62,1.58,32.22,32.22,0,0,1-4.62.74C61,23.1,64.09,15,66.84,6Z"/><path class="cls-1" d="M75.88,14.33a10.77,10.77,0,0,1,4.5,5.55c.57,1.86,0,2.59.47,5.33a2.11,2.11,0,0,1-.1,1.17A2.77,2.77,0,0,1,79,27.73c-3,1.06-6.09,2-9.55,3.11C70.36,24.67,72,19.32,75.88,14.33Z"/><path class="cls-1" d="M40.93,30.54c-3.56-1.31-6.59-2.38-9.57-3.56-.46-.18-.61-.74-.77-1.31-.65-2.25,1.95-3.47,2-6.67,0-1.05-.27-1.68.19-2.49a3.37,3.37,0,0,1,2-1.41C36,16.94,37.44,19.36,40.93,30.54Z"/><path class="cls-2" d="M54.94,56.84c1.57,0,3.13-.06,4.7,0,1.75.08,2.57,1,2.22,2.81a9.79,9.79,0,0,1-4.45,6.63A4.31,4.31,0,0,1,52.14,66,10.44,10.44,0,0,1,48.59,59a1.76,1.76,0,0,1,1.89-2.16c1.48-.06,3,0,4.46,0Zm-3.7,2.64c.76,3.39,2,4.93,3.83,4.89s3.45-2,4-4.89Z"/></svg>