<svg id="Слой_1" data-name="Слой 1" xmlns="http://www.w3.org/2000/svg" viewBox="0 0 111.08 74.08"><defs><style>.cls-1{fill:#f08db9;}.cls-2{fill:#111;}</style></defs><path class="cls-1" d="M91.08,12.56C86.4,4.8,77.91,1.14,69.53,4.6,64,6.89,59.17,11,53.84,14.44c-2.11-2.25-4.53-5.37-7.48-7.88a19.48,19.48,0,0,0-21.8-2.34c-6.24,3.46-9.77,11.13-8.62,19.24a30.36,30.36,0,0,0,2,7.44c6.66,16,18.7,27.89,30.68,39.79,2.12,2.1,4.41,1.8,6.56.08,10.59-8.41,21.51-16.44,31.61-25.41C96.69,36.58,97.87,23.83,91.08,12.56Z"/><path class="cls-2" d="M53.84,14.44C59.17,11,64,6.89,69.53,4.6c8.38-3.46,16.87.2,21.55,8,6.79,11.27,5.61,24-4.27,32.8-10.1,9-21,17-31.61,25.41-2.15,1.72-4.44,2-6.56-.08-12-11.9-24-23.8-30.68-39.79a30.36,30.36,0,0,1-2-7.44c-1.15-8.11,2.38-15.78,8.62-19.24a19.48,19.48,0,0,1,21.8,2.34C49.31,9.07,51.73,12.19,53.84,14.44ZM87,39.05l-1.2-1.2C75,47.42,64.07,56.76,51.25,63.67,56.08,56.62,64,53.16,70.06,47.53S82.56,36.3,88.82,30.7c-.32-.38-.65-.75-1-1.12-10.74,10.05-21.6,20-34.94,26.59a7,7,0,0,1,2.48-3.66C58.6,50,62.05,47.69,65.15,45c7-6,14-12.12,20.7-18.49a8.47,8.47,0,0,0,2.37-6A12.51,12.51,0,0,0,69.35,10.37c-4.32,2.55-7.86,6.54-11.43,10.2s-4.7,3.43-7.53-.72c-2.52-3.71-5.25-7.55-8.73-10.25C37,6,31.23,6,26.2,9.15,21.33,12.23,20,17.31,20.93,22.8A24.25,24.25,0,0,0,23.63,31,148.63,148.63,0,0,0,35.05,48.53c5,6.36,10.9,12.07,16.64,18.31Z"/><path class="cls-2" d="M48.27,57.27A136.38,136.38,0,0,1,35,42c-4.13-5.52-11.54-16.35-10.06-17.65.31-.28,1-.07,1.51.18L49.58,56.29a.86.86,0,0,1-.14,1A.87.87,0,0,1,48.27,57.27Z"/><path class="cls-2" d="M55.61,31.55a1.74,1.74,0,0,1,.9.71c.49.82,0,1.88-.48,2.89a6.53,6.53,0,0,1-2.92,3.43,2.91,2.91,0,0,1-4.34-1.43,7,7,0,0,1,1-3.26,4.83,4.83,0,0,1,5.88-2.34Z"/><path class="cls-2" d="M35.4,17.28A2.73,2.73,0,0,1,31.61,21c-1.42-1.79-2.84-3.57-4.25-5.36a1.31,1.31,0,0,1,1.36-2A16.8,16.8,0,0,1,33,15.48,16.17,16.17,0,0,1,35.4,17.28Z"/><path class="cls-2" d="M69.12,26.39c2.53,1.48,3.6,3.47,3.09,4.5-.4.8-1.73.93-2.1,1a5.05,5.05,0,0,1-2.67-2.75,4.36,4.36,0,0,1-.27-1.69,1.3,1.3,0,0,1,.47-1.06A1.25,1.25,0,0,1,69.12,26.39Z"/><path class="cls-2" d="M37.9,21.94a2.86,2.86,0,0,1,2.43.63,2.74,2.74,0,0,1,.75,2,3.28,3.28,0,0,1-.64,1.94,2.71,2.71,0,0,1-2.7-.79,2.83,2.83,0,0,1-.53-2.44A3,3,0,0,1,37.9,21.94Z"/><path class="cls-2" d="M64.17,18.67a2,2,0,0,1,3.32,1.71,1.66,1.66,0,0,1,0,1,1.81,1.81,0,0,1-1.14,1.07,3.61,3.61,0,0,1-2.22-.77,3.48,3.48,0,0,1-1-1.25,1.86,1.86,0,0,1,1-1.78Z"/><path class="cls-2" d="M45.2,16.09a2,2,0,0,1-.09,1.23,1.73,1.73,0,0,1-.79.86,1.55,1.55,0,0,1-1.86-.34,1.45,1.45,0,0,1,.06-1.73,1.52,1.52,0,0,1,.8-.48A2.31,2.31,0,0,1,45.2,16.09Z"/></svg>