<svg id="Слой_1" data-name="Слой 1" xmlns="http://www.w3.org/2000/svg" viewBox="0 0 111.08 74.08"><defs><style>.cls-1{fill:#111;}.cls-2{fill:#f8c6d4;}</style></defs><path class="cls-1" d="M65.64,48.34l-8.21,4c.8,1.69,1.79,3.74,2.74,5.8a12.38,12.38,0,0,1,1,9.1A15.59,15.59,0,0,1,59,71.06c-.19.28-.92.19-1.4.28-.08-.46-.39-1.06-.2-1.34,3.42-5.11,1.13-9.68-.88-14.54a16.64,16.64,0,0,0-6.25-7.28c-4,2.74-8.45,4.49-13.53,4.06-5.27-.44-9.36-3.58-10.5-8.22-1.2-4.9,1.19-8.55,6.18-9.42.41-.07.83-.17,1.42-.29-1.33-1.47-2.63-2.69-3.67-4.1-2.84-3.85-3-8.53-.61-11.61s7.22-4.2,11.61-2.47c.82.32,1.61.7,2.69,1.17-.72-4.08-1.05-7.94,1.89-11.15A10.3,10.3,0,0,1,52.5,3c6.77-.74,10.7,3.06,13.08,12.6a38.57,38.57,0,0,1,4.7-3.2c4.8-2.37,10.32-1.26,13.19,2.45s2.72,9.92-.76,13.83a57.78,57.78,0,0,1-5.87,5.07c1.2.25,2.49.44,3.74.79,4,1.16,6.56,4.24,6.67,8s-2.07,6.77-6,8.26a14.39,14.39,0,0,1-10.47-.23C68.86,49.84,67,48.92,65.64,48.34Zm12.54-6.93c-3.71.51-7.77-.8-11.11,1.69l0,.78,9,1.9-.12.57-9.3-1.15-.15.78C70.31,48.16,74.28,50,79,49c3.38-.73,5.68-3.08,5.85-5.86s-1.75-5.19-5.26-6.34-7-.7-10.5.43c-2.69.87-2.74,1-1.52,3.81a12,12,0,0,1,2.59-.38c2.66.19,5.31.53,8,.8ZM36.8,23l1.71,1.4c3.72,3.08,7.43,6.17,11.19,9.2a2,2,0,0,0,1.69.21c.28-.11.53-1.08.35-1.46-2.46-5.22-5.39-10.14-10.38-13.38A7.53,7.53,0,0,0,31.59,20c-2,2.29-1.69,5.84.69,9,4.28,5.69,10.44,7.43,16.92,8.41,1.15-1.3.75-2-.38-3C44.65,30.8,40.64,27,36.58,23.17ZM75,22.57l.17.18c-3.54,3.75-7.09,7.49-10.74,11.34l1.4,1.77c3.62-1.68,7.2-3.15,10.59-5a12.07,12.07,0,0,0,6.12-6.83c1-3,.82-5.94-1.51-8.33s-5.12-2.53-8.08-1.66c-5.09,1.48-8.44,6.42-8.48,12.16l4.34-4.94.1.1L62.44,32l.78.68a30.69,30.69,0,0,0,3.1-2.17C69.25,27.9,72.1,25.22,75,22.57ZM58.21,31.21c1.44.66,2.28.49,2.59-1,.65-3.2,1.77-6.36,2-9.58a28.84,28.84,0,0,0-.94-9.85c-1.24-4.16-6.51-6.35-10.62-5.1C46.9,7,45.37,10,46,15.11c.74,5.76,4.62,9.81,7.72,14.41Q52.3,22.1,50.88,14.68l.65-.13c1.26,5.61,2.51,11.22,3.78,16.88,1.33.38,1.87-.16,1.82-1.55-.12-3-.14-6.09-.32-9.13-.15-2.46-.48-4.92-.72-7.38C58.27,19.13,58.33,25.1,58.21,31.21ZM48.14,40.37l.09-.76c-3.88-.91-7.74-1.93-11.64-2.68a11.75,11.75,0,0,0-4.61.16A4.45,4.45,0,0,0,28.45,43a10.8,10.8,0,0,0,2.23,4c4.56,5,14,2.8,18-.74a1.66,1.66,0,0,0,.25-1.37c0-.17-.73-.3-1.13-.29a10.19,10.19,0,0,0-1.53.26c-3.8.54-7.61.94-11.41-.19,4.64-.45,9.52.36,13.74-2.13l-.06-.81L39.82,41l0-.66Zm3.11,1.51c0,4.41,2.3,7.26,6,7.35,4,.09,7.4-3.59,7.45-8.12,0-4.15-2.8-7.19-6.78-7.22C53.78,33.86,51.28,36.85,51.25,41.88Z"/><path class="cls-1" d="M51.51,55.9a1.34,1.34,0,0,1-.43.82,1.32,1.32,0,0,1-1,.3,1.55,1.55,0,0,1-1.22-1.23,1.1,1.1,0,0,1,.27-.62,1.31,1.31,0,0,1,.89-.34,1.42,1.42,0,0,1,1.21.24A1.17,1.17,0,0,1,51.51,55.9Z"/><path class="cls-1" d="M65.82,56.19s-.83-.08-1-.57a1.55,1.55,0,0,1,0-.8,2,2,0,0,1,.09-.37,2.36,2.36,0,0,1,.49-.82,1.49,1.49,0,0,1,.78.28,1.58,1.58,0,0,1,.42.54,1.29,1.29,0,0,1,.15,1.07A1.25,1.25,0,0,1,65.82,56.19Z"/><path class="cls-1" d="M66.8,58.72a1.61,1.61,0,0,1-.53-1,1.48,1.48,0,0,1,.16-.83,1.15,1.15,0,0,1,.56-.27,1.12,1.12,0,0,1,.6.05,1.22,1.22,0,0,1,.64.81,1.19,1.19,0,0,1-.42,1.14.75.75,0,0,1-.31.23A.81.81,0,0,1,66.8,58.72Z"/><path class="cls-1" d="M49.83,58a1,1,0,0,1,.53.79,1,1,0,0,1-.38.82.87.87,0,0,1-.51.15.85.85,0,0,1-.46-.17,1,1,0,0,1-.36-.69.95.95,0,0,1,.43-.9Z"/><path class="cls-2" d="M58.21,31.21c.12-6.11.06-12.08-2.12-17.84.24,2.46.57,4.92.72,7.38.18,3,.2,6.09.32,9.13,0,1.39-.49,1.93-1.82,1.55C54,25.77,52.79,20.16,51.53,14.55l-.65.13q1.42,7.42,2.86,14.84c-3.1-4.6-7-8.65-7.72-14.41C45.37,10,46.9,7,51.2,5.64c4.11-1.25,9.38.94,10.62,5.1a28.84,28.84,0,0,1,.94,9.85c-.19,3.22-1.31,6.38-2,9.58C60.49,31.7,59.65,31.87,58.21,31.21Z"/><path class="cls-2" d="M68.8,21.29l-4.34,4.94c0-5.74,3.39-10.68,8.48-12.16,3-.87,5.81-.67,8.08,1.66s2.5,5.32,1.51,8.33a12.07,12.07,0,0,1-6.12,6.83c-3.39,1.82-7,3.29-10.59,5l-1.4-1.77c3.65-3.85,7.2-7.59,10.74-11.34l.36-.51v-.06l0,.09-.58.3c-2.89,2.65-5.74,5.33-8.67,7.93a30.69,30.69,0,0,1-3.1,2.17L62.44,32l6.46-10.6L69,21Z"/><path class="cls-2" d="M36.58,23.17C40.64,27,44.65,30.8,48.82,34.48c1.13,1,1.53,1.68.38,3-6.48-1-12.64-2.72-16.92-8.41-2.38-3.17-2.7-6.72-.69-9a7.53,7.53,0,0,1,9.77-1.11c5,3.24,7.92,8.16,10.38,13.38.18.38-.07,1.35-.35,1.46a2,2,0,0,1-1.69-.21c-3.76-3-7.47-6.12-11.19-9.2L36.8,23l-.66-.23,0-.07h.1Z"/><path class="cls-2" d="M48.14,40.37H39.87l0,.66,8.69.74.06.81c-4.22,2.49-9.1,1.68-13.74,2.13,3.8,1.13,7.61.73,11.41.19a10.19,10.19,0,0,1,1.53-.26c.4,0,1.1.12,1.13.29a1.66,1.66,0,0,1-.25,1.37c-3.95,3.54-13.41,5.78-18,.74a10.8,10.8,0,0,1-2.23-4A4.45,4.45,0,0,1,32,37.09a11.75,11.75,0,0,1,4.61-.16c3.9.75,7.76,1.77,11.64,2.68Z"/><path class="cls-2" d="M78.15,41.45c-2.65-.27-5.3-.61-8-.8A12,12,0,0,0,67.6,41c-1.22-2.83-1.17-2.94,1.52-3.81,3.46-1.13,6.95-1.59,10.5-.43s5.43,3.48,5.26,6.34S82.41,48.26,79,49c-4.75,1-8.72-.83-12.6-3l.15-.78,9.3,1.15.12-.57-9-1.9,0-.78c3.34-2.49,7.4-1.18,11.11-1.69.2.11.4.23.08,0Z"/><path class="cls-2" d="M51.25,41.88c0-5,2.53-8,6.67-8,4,0,6.83,3.07,6.78,7.22,0,4.53-3.43,8.21-7.45,8.12C53.55,49.14,51.22,46.29,51.25,41.88Zm6.61,2.35a3.43,3.43,0,0,0,3.44-3.07A3.38,3.38,0,0,0,58,37.77a3.12,3.12,0,0,0-3.4,3A3.37,3.37,0,0,0,57.86,44.23Z"/><path class="cls-1" d="M75,22.57l.58-.3,0,0-.36.51Z"/><polygon class="cls-1" points="75.58 22.27 75.53 22.18 75.52 22.23 75.58 22.27"/><path class="cls-1" d="M68.8,21.29,69,21l-.11.41Z"/><polygon class="cls-1" points="36.19 22.67 36.09 22.66 36.14 22.73 36.19 22.67"/><path class="cls-1" d="M36.58,23.17l-.39-.5,0,.06.66.23Z"/><path class="cls-1" d="M78.15,41.45h.11c.32.19.12.07-.08,0Z"/><path class="cls-1" d="M57.86,44.23a3.37,3.37,0,0,1-3.31-3.44,3.12,3.12,0,0,1,3.4-3,3.38,3.38,0,0,1,3.35,3.39A3.43,3.43,0,0,1,57.86,44.23Zm.08-4.42c-.39.46-.86.77-.83,1s.46.64.72,1c.28-.26.75-.51.79-.81S58.26,40.34,57.94,39.81Z"/><path class="cls-2" d="M57.94,39.81c.32.53.72.88.68,1.18s-.51.55-.79.81c-.26-.32-.68-.62-.72-1S57.55,40.27,57.94,39.81Z"/></svg>