<svg id="Слой_1" data-name="Слой 1" xmlns="http://www.w3.org/2000/svg" viewBox="0 0 111.08 74.08"><defs><style>.cls-1{fill:#111;}.cls-2{fill:#fbf5bc;}.cls-3{fill:#b7dcf6;}.cls-4{fill:#fff;}.cls-5{fill:#fff1c3;}</style></defs><path class="cls-1" d="M67.32,23.86c15.41,0,28.61,10,32.14,23.11a5,5,0,0,1-1.4,5.5C82.14,67.89,61.42,70.79,43,57.84c-9.44-6.63-9.57-9-2.89-18.14C47.11,30.12,56.6,24.36,67.32,23.86ZM39.49,47.93q1.95-1.43,3.91-2.84c9.06-6.51,18.6-11.14,30.31-9,8,1.43,14.85,4.93,21.38,9.41h.13l-.18,0a7.22,7.22,0,0,0-.28-1.83c-4.2-9.73-18.23-17.52-28.77-16A35.17,35.17,0,0,0,42.73,41.47c-1.45,1.87-2.15,4.33-3.19,6.51l-.24.18ZM85,43.15c-1.76,9.7-5,17.91-15.79,18.24C58,61.74,53.64,53.9,51.51,43.5L40.35,51.59c18.23,15.27,42.12,13.38,55-2.22ZM58.7,41c-4.13,1.13-4.14,1.13-3,5.06.21.73.44,1.45.7,2.16,2.37,6.52,6.86,9.78,13.06,9.48,5.68-.27,9.41-3.7,11.25-10.34,1.49-5.39,1.43-5.51-4-6.93-.17,0-.38.09-.57.15-1.38,6.52-4.1,9.64-8.56,9.84C63.38,50.64,61.05,48.21,58.7,41Zm11.9.79c0-.41-.07-.81-.1-1.22-1-.45-2-1.35-3-1.25-1.22.12-2.36,1-3.54,1.6,1.05,1.18,1.92,3,3.18,3.31C68,44.5,69.43,42.71,70.6,41.83Z"/><path class="cls-2" d="M95.09,45.48c-6.53-4.49-13.43-8-21.38-9.42C62,34,52.46,38.58,43.4,45.09q-2,1.41-3.91,2.84l0,0c1-2.18,1.74-4.64,3.19-6.51A35.17,35.17,0,0,1,66,27.64c10.54-1.55,24.57,6.24,28.77,16A7.22,7.22,0,0,1,95,45.44Z"/><path class="cls-2" d="M85,43.15l10.37,6.22c-12.92,15.6-36.81,17.49-55,2.22L51.51,43.5C53.64,53.9,58,61.74,69.23,61.39,80,61.06,83.26,52.85,85,43.15Z"/><path class="cls-2" d="M58.7,41c2.35,7.17,4.68,9.6,8.86,9.42,4.46-.2,7.18-3.32,8.56-9.84.19-.06.4-.2.57-.15,5.44,1.42,5.5,1.54,4,6.93C78.86,54,75.13,57.47,69.45,57.74c-6.2.3-10.69-3-13.06-9.48-.26-.71-.49-1.43-.7-2.16C54.56,42.17,54.57,42.17,58.7,41Z"/><path class="cls-3" d="M70.6,41.83a3.63,3.63,0,0,1-3.44,2.44,3.35,3.35,0,0,1-2.62-1.49A3.46,3.46,0,0,1,64,41a4.28,4.28,0,0,1,1.56-1.5,3.52,3.52,0,0,1,3.88.15,4.12,4.12,0,0,1,1.08,1Z"/><path class="cls-4" d="M39.49,47.93l-.19.23.24-.18Z"/><polygon class="cls-4" points="95.04 45.44 95.22 45.47 95.09 45.47 95.04 45.44"/><path class="cls-3" d="M50.07,31a2.16,2.16,0,0,0-.75-.53,2.45,2.45,0,0,0-2.46.47c-.89.84-.6,2.39-.64,2.93-.54,6.21-1.32,12.4-1.84,18.61-.09,1.14-.25,3-.48,5.24a1.4,1.4,0,0,0,.15,1.14c.47.61,1.64.49,2.29,0s.73-1.26.91-2.88c.33-3.06.5-4.58.56-5.53,0,0,.12-1.61.38-4.07.21-2,1.23-11,1.85-13a4.18,4.18,0,0,0,.15-1.91A3.55,3.55,0,0,0,50.07,31Z"/><path class="cls-3" d="M40.36,29c-1.48,0-2.55,1.49-2.54,3.43.06,7.29,0,12.34.18,23.84,0,1.23,0,2.23,0,2.79a1.2,1.2,0,0,0,.32.48,2.1,2.1,0,0,0,2.62-.29,2,2,0,0,0,.31-.38c0-.11.09-.28.15-.48A6.52,6.52,0,0,0,41.62,57c.07-1.68,1.45-15,2.32-24.44A3.63,3.63,0,0,0,40.36,29Z"/><path class="cls-3" d="M21,34.08a1.36,1.36,0,0,0-2.53.18c.92,4,1.52,7.28,1.91,9.57.76,4.54,2.13,9,3.06,13.47a5.16,5.16,0,0,0,.41,1.12c.22.42.34.53.42.58a1,1,0,0,0,1.26,0,.89.89,0,0,0,.15-.78Z"/><path class="cls-3" d="M29.08,43.94c-.07-.94-.18-1.88-.23-2.82a81.14,81.14,0,0,0-1.12-9.63,2.49,2.49,0,0,0-1.49-1.68c-.86-.19-3.16,3.51-3,4.55,1.34,7.63,2.7,15.26,4,22.91.08.45.22,1.77,1.08,2.19a1.62,1.62,0,0,0,1.85-.34,1.43,1.43,0,0,0,.28-1C29.72,51.48,29.32,46.93,29.08,43.94Z"/><path class="cls-3" d="M31.94,30.29a2.44,2.44,0,0,0-1.32,1.1,2.14,2.14,0,0,0-.25.81q1.15,13.35,2.32,26.7a1.83,1.83,0,0,0,1.38.91,1.76,1.76,0,0,0,1.68-1V31.73a2.29,2.29,0,0,0-.36-.69A3.09,3.09,0,0,0,31.94,30.29Z"/><path class="cls-5" d="M48.8,18.25c-2.28.19-2.62-.16-2.35-2.35.09-.8.23-1.61.24-2.41a4.06,4.06,0,0,0-3.24-4,3.54,3.54,0,0,0-4.33,1.77c-.3.49-.4,1.09-1,1.45a1.79,1.79,0,0,1-.54.21,3.29,3.29,0,0,1-.6-.22c-1-.5-1.28-1.37-1.9-2.29a6.09,6.09,0,0,0-3.53-2.55,4.23,4.23,0,0,0-1.62,0c-2.46.49-3.56,2.33-4.06,4.62-.16.71-.24,1.44-.45,2.13-.64,2.12-1.23,2.4-3.08,1.24-1.43-.92-2.78-1.4-4.14,0a3.56,3.56,0,0,0-.66,4.64c.6,1,1.24,1.47,1.36,2.55a2.9,2.9,0,0,1,0,.68,2.27,2.27,0,0,1-.83.74,3.28,3.28,0,0,1-1.28.2,3.7,3.7,0,0,0-2.33.81,2.79,2.79,0,0,0-.73,1.4,3.49,3.49,0,0,0,1.71,3.94,5.23,5.23,0,0,0,3.32.95A5.27,5.27,0,0,0,23,28.39a2.63,2.63,0,0,0,0-.65c-.28-1.46-1.66-1.93-1.59-2.78,0-.26.17-.61.81-1a3.09,3.09,0,0,1,.4-.07c2.84-.33,4,3.24,7.66,4.53,2.35.84,4.5.27,9.17-2.6,1.26.63,2.25,1.21,3.29,1.63a9.53,9.53,0,0,0,8.86-.62c2.31-1.38,3.31-3.68,2.6-5.68C53.29,18.68,52,18,48.8,18.25Zm-5.11,3.69c-2.95,0-5.86,1.49-8.88-.36-.74-.46-1.86-.27-2.76-.53a11.84,11.84,0,0,1-2-1,21.48,21.48,0,0,1,1.79-1.2,16.17,16.17,0,0,0,2.39-1.2c1.79-1.47,3.83-1.42,4.95.53A3.09,3.09,0,0,0,42,20c.65.05,1.26.66,1.88,1a.54.54,0,0,1,.42.44A.57.57,0,0,1,43.69,21.94Z"/><path class="cls-5" d="M35.32,19.28l2,1.18.38-.58C37.31,19,36.88,18,35.32,19.28Z"/><path class="cls-1" d="M52.54,16.3a33.2,33.2,0,0,0-3.33-1.12,7.18,7.18,0,0,0-3.66-7.37C42.56,6.05,39.82,7,37.26,9c-2.35-2.57-4.74-4.36-8.41-3.32S24.33,10,23.12,12.82c-6.77-1.18-9.7,2.29-7.69,9.13-.61.45-1.15.8-1.65,1.2-3.23,2.63-3.32,7.27.16,9.54a6.5,6.5,0,0,1,3,4.89c.28,1.6.61,3.18,1,4.76q2.87,11.53,5.78,23.07c.51,2,1.78,3.31,3.93,3.3,5.49,0,11-.09,16.48-.21,2.61,0,3.76-1.59,4.12-4.1C49.76,53.58,51.45,42.78,53,32a8.92,8.92,0,0,1,2.1-5A6.66,6.66,0,0,0,52.54,16.3ZM25.54,59a1,1,0,0,1-1.26,0c-.08,0-.2-.16-.42-.58a5.16,5.16,0,0,1-.41-1.12c-.93-4.51-2.3-8.93-3.06-13.47-.39-2.29-1-5.57-1.91-9.57A1.36,1.36,0,0,1,21,34.08l4.68,24.1A.89.89,0,0,1,25.54,59Zm4.64.16a1.62,1.62,0,0,1-1.85.34c-.86-.42-1-1.74-1.08-2.19C26,49.62,24.6,42,23.26,34.36c-.18-1,2.12-4.74,3-4.55a2.49,2.49,0,0,1,1.49,1.68,81.14,81.14,0,0,1,1.12,9.63c0,.94.16,1.88.23,2.82.24,3,.64,7.54,1.38,14.21A1.43,1.43,0,0,1,30.18,59.12Zm5.57-.28a1.76,1.76,0,0,1-1.68,1,1.83,1.83,0,0,1-1.38-.91q-1.15-13.35-2.32-26.7a2.14,2.14,0,0,1,.25-.81,2.44,2.44,0,0,1,1.32-1.1,3.09,3.09,0,0,1,3.45.75,2.29,2.29,0,0,1,.36.69Zm5.65-.48c-.06.2-.11.37-.15.48a2,2,0,0,1-.31.38,2.1,2.1,0,0,1-2.62.29A1.2,1.2,0,0,1,38,59c0-.56,0-1.56,0-2.79-.19-11.5-.12-16.55-.18-23.84,0-1.94,1.06-3.4,2.54-3.43a3.63,3.63,0,0,1,3.58,3.58C43.07,42,41.69,55.31,41.62,57A6.52,6.52,0,0,1,41.4,58.36ZM50,33.46c-.62,2-1.64,11-1.85,13-.26,2.46-.38,4.07-.38,4.07-.06.95-.23,2.47-.56,5.53-.18,1.62-.28,2.43-.91,2.88s-1.82.58-2.29,0a1.4,1.4,0,0,1-.15-1.14c.23-2.27.39-4.1.48-5.24.52-6.21,1.3-12.4,1.84-18.61,0-.54-.25-2.09.64-2.93a2.45,2.45,0,0,1,2.46-.47,2.16,2.16,0,0,1,.75.53,3.55,3.55,0,0,1,.12.51A4.18,4.18,0,0,1,50,33.46Zm1.53-6.64a9.53,9.53,0,0,1-8.86.62c-1-.42-2-1-3.29-1.63-4.67,2.87-6.82,3.44-9.17,2.6-3.65-1.29-4.82-4.86-7.66-4.53a3.09,3.09,0,0,0-.4.07c-.64.4-.8.75-.81,1-.07.85,1.31,1.32,1.59,2.78a2.63,2.63,0,0,1,0,.65,5.27,5.27,0,0,1-4.26,3.38,5.23,5.23,0,0,1-3.32-.95,3.49,3.49,0,0,1-1.71-3.94,2.79,2.79,0,0,1,.73-1.4,3.7,3.7,0,0,1,2.33-.81,3.28,3.28,0,0,0,1.28-.2,2.27,2.27,0,0,0,.83-.74,2.9,2.9,0,0,0,0-.68c-.12-1.08-.76-1.51-1.36-2.55a3.56,3.56,0,0,1,.66-4.64c1.36-1.39,2.71-.91,4.14,0,1.85,1.16,2.44.88,3.08-1.24.21-.69.29-1.42.45-2.13.5-2.29,1.6-4.13,4.06-4.62a4.23,4.23,0,0,1,1.62,0,6.09,6.09,0,0,1,3.53,2.55c.62.92.87,1.79,1.9,2.29a3.29,3.29,0,0,0,.6.22,1.79,1.79,0,0,0,.54-.21c.6-.36.7-1,1-1.45a3.54,3.54,0,0,1,4.33-1.77,4.06,4.06,0,0,1,3.24,4c0,.8-.15,1.61-.24,2.41-.27,2.19.07,2.54,2.35,2.35,3.18-.27,4.49.43,5.37,2.89C54.88,23.14,53.88,25.44,51.57,26.82Z"/><path class="cls-1" d="M43.92,21c-.62-.35-1.23-1-1.88-1a3.09,3.09,0,0,1-2.82-1.74c-1.12-1.95-3.16-2-4.95-.53a16.17,16.17,0,0,1-2.39,1.2,21.48,21.48,0,0,0-1.79,1.2,11.84,11.84,0,0,0,2,1c.9.26,2,.07,2.76.53,3,1.85,5.93.38,8.88.36a.57.57,0,0,0,.65-.53A.54.54,0,0,0,43.92,21Zm-6.57-.51-2-1.18c1.56-1.24,2-.33,2.41.6Z"/></svg>