<svg id="Слой_1" data-name="Слой 1" xmlns="http://www.w3.org/2000/svg" viewBox="0 0 111.08 74.08"><defs><style>.cls-1{fill:#111;}.cls-2{fill:#7d6fb0;}.cls-3{fill:#f8f8f8;}</style></defs><path class="cls-1" d="M69.23,62l7.23.52v.7l-12,.85,0,.61L80,65.77c-5,2.85-20.25,3.1-41.84,1.08l2-.84-4.63-2.25.07-.84,4.16-1C38,60.09,36.19,58,34.37,56,23.19,43.19,23.75,25,35.68,13.88A30.21,30.21,0,0,1,69.76,9.15C80.36,14.49,86,25.88,84.51,38.76,83.37,48.72,79.12,56.66,69.23,62Zm8.25-12.57C76.56,47,75.1,45.1,75.57,44c.58-1.38,2.77-2.08,4.82-3.45,2.34-11.73-2.1-23.4-9.94-26.84-2.56,1.09-5.12,3.06-6.25,2.44-1.83-1-2.72-3.71-4.42-6.32C49,7.46,37.67,13.17,32.25,24.41,27.15,35,30,48.72,39,55.85a3.78,3.78,0,0,0,3.38.33c1.84-.93,3.71-2.48,5.38-.55,1,1.11.8,3.18,1.23,5.21C59.77,64,74.55,57.93,77.48,49.45ZM64.69,10.71l-1.11,1,1.53,2.19,1.37-1.11ZM43.37,57.41c0,.49,0,1,0,1.45a21.74,21.74,0,0,0,2.8-.06c.12,0,.12-.9.18-1.39Zm35.26-14.2c-.6.64-1.17,1-1.2,1.36s.49.81.76,1.22c.37-.32.94-.59,1-1S78.94,44,78.63,43.21Z"/><path class="cls-2" d="M77.48,49.45C74.55,57.93,59.77,64,49,60.84c-.43-2-.28-4.1-1.23-5.21-1.67-1.93-3.54-.38-5.38.55A3.78,3.78,0,0,1,39,55.85C30,48.72,27.15,35,32.25,24.41,37.67,13.17,49,7.46,59.78,9.82c1.7,2.61,2.59,5.32,4.42,6.32,1.13.62,3.69-1.35,6.25-2.44,7.84,3.44,12.28,15.11,9.94,26.84-2,1.37-4.24,2.07-4.82,3.45C75.1,45.1,76.56,47,77.48,49.45ZM60.24,43.52c-4.39-.07-7.5,1.92-7.61,4.88-.13,3.53,4.08,7.4,8.1,7.44a7.25,7.25,0,0,0,7-6.42C67.89,46.06,64.78,43.6,60.24,43.52ZM70.36,24.73a6.24,6.24,0,0,0-6,6.29c.06,3.64,3.43,6.67,7.4,6.66,3.17,0,6.24-3.25,6.25-6.6C78,27.53,74.51,24.63,70.36,24.73ZM54,38.72c3.15-.06,5.67-1.86,5.69-4.06,0-2.67-3.6-5.34-7.14-5.27-2.92.06-5.33,2.16-5.2,4.54C47.5,36.66,50.45,38.79,54,38.72ZM42.8,27.54c0-2.5-2-4.28-4.93-4.26a5.42,5.42,0,0,0-5.64,5.34A4.35,4.35,0,0,0,36.73,33C39.82,33.07,42.78,30.42,42.8,27.54Z"/><path class="cls-3" d="M64.69,10.71a2,2,0,0,1,1.7.58,1.88,1.88,0,0,1,.46,1.38,2.18,2.18,0,0,1-1,1.41,2.13,2.13,0,0,1-1.11.28,2.26,2.26,0,0,1-1.32-1.54,2,2,0,0,1,.14-1.14,1.11,1.11,0,0,1,.23-.58A1.16,1.16,0,0,1,64.69,10.71Z"/><path class="cls-3" d="M43.37,57.41a3.44,3.44,0,0,1,1.12-.53A3.58,3.58,0,0,1,46.7,57a1.9,1.9,0,0,1-.16,2c-.45.41-1.17.3-1.85.2a4.24,4.24,0,0,1-1.28-.39,1.6,1.6,0,0,1-.19-.75A1.74,1.74,0,0,1,43.37,57.41Z"/><path class="cls-3" d="M78.63,43.21a1.48,1.48,0,0,1,1,.5,1.83,1.83,0,0,1,.19,1.56c-.15.74-.65,1.92-1.26,1.88s-.78-.8-.86-1a2.53,2.53,0,0,1-.29-1.56,1.68,1.68,0,0,1,.29-.74A1.59,1.59,0,0,1,78.63,43.21Z"/><path class="cls-1" d="M60.24,43.52c4.54.08,7.65,2.54,7.46,5.9a7.25,7.25,0,0,1-7,6.42c-4,0-8.23-3.91-8.1-7.44C52.74,45.44,55.85,43.45,60.24,43.52Zm-.57,1.89-4,3.24C57.1,50,58.57,52.42,60,52.39s2.76-2.53,4.13-3.94Z"/><path class="cls-1" d="M70.36,24.73c4.15-.1,7.63,2.8,7.61,6.35,0,3.35-3.08,6.58-6.25,6.6-4,0-7.34-3-7.4-6.66A6.24,6.24,0,0,1,70.36,24.73Zm.72,2.75c-2,.08-3.64.89-3.8,3.18s1.24,3.72,3.44,4.18a3.62,3.62,0,0,0,4.09-3.37C75,28.9,73.25,28.06,71.08,27.48Z"/><path class="cls-1" d="M51.19,23.63a10.63,10.63,0,0,1-5.63-4.16,4.92,4.92,0,0,1-1.05-3.3c.24-1.88,1.89-3.46,4.35-3.79a7.54,7.54,0,0,1,7.46,2.91c.34.47,2.21,3,1.43,5.3C57,22.62,54.32,24,51.19,23.63Zm1.13-2.31c1.37-1,2.59-1.42,2.92-2.23A2.71,2.71,0,0,0,54,16.71a25,25,0,0,0-5.82-1.26c-.2,0-1,1.91-.82,2.11C48.87,18.9,50.56,20,52.32,21.32Z"/><path class="cls-1" d="M54,38.72c-3.54.07-6.49-2.06-6.65-4.79-.13-2.38,2.28-4.48,5.2-4.54,3.54-.07,7.16,2.6,7.14,5.27C59.66,36.86,57.14,38.66,54,38.72Zm-4-6.1-.24,1.81a22.36,22.36,0,0,0,4.44,1.45c.75.09,1.62-.85,2.44-1.32-.61-.68-1.14-1.82-1.85-2A25.56,25.56,0,0,0,50,32.62Z"/><path class="cls-1" d="M42.8,27.54c0,2.88-3,5.53-6.07,5.45a4.35,4.35,0,0,1-4.5-4.37,5.42,5.42,0,0,1,5.64-5.34C40.76,23.26,42.83,25,42.8,27.54Zm-5-2.59-2.95,3.44c.75.58,1.79,1.81,2.2,1.63a14.48,14.48,0,0,0,3.11-2.49C39.55,26.82,38.9,26.12,37.83,25Z"/><path class="cls-1" d="M41.09,48.28c-2.83-.56-4.72-2.26-4.74-3.89a3.23,3.23,0,0,1,.76-1.93A3.89,3.89,0,0,1,40,41.33c1.82-.06,4.35,1.38,4.31,3.52A3.89,3.89,0,0,1,41.09,48.28Zm-1.71-4.85-.51,1.34a22.34,22.34,0,0,0,2.31.88,9.14,9.14,0,0,0,.56-1.31Z"/><path class="cls-3" d="M59.67,45.41a4,4,0,0,1,3.34.91,3.7,3.7,0,0,1,1.12,2.13A4.92,4.92,0,0,1,60,52.39a4.23,4.23,0,0,1-3.56-1.47,3.9,3.9,0,0,1-.79-2.27,3.44,3.44,0,0,1,.79-2.15A3.73,3.73,0,0,1,59.67,45.41Z"/><path class="cls-3" d="M71.08,27.48c2.17.58,3.94,1.42,3.73,4a3.62,3.62,0,0,1-4.09,3.37c-2.2-.46-3.61-1.84-3.44-4.18S69.07,27.56,71.08,27.48Z"/><path class="cls-3" d="M52.32,21.32a7.49,7.49,0,0,1-2.91-1.22c-.89-.63-1.9-1.35-2-2.54a2.44,2.44,0,0,1,.82-2.11c.9-.72,2.15-.36,3.39,0A5.39,5.39,0,0,1,54,16.71c.46.45,1.37,1.32,1.21,2.38a2.67,2.67,0,0,1-1.31,1.68A3.45,3.45,0,0,1,52.32,21.32Z"/><path class="cls-3" d="M50,32.62a3.93,3.93,0,0,1,4.17-1,4.13,4.13,0,0,1,2.47,3A4.06,4.06,0,0,1,51.77,36a4.56,4.56,0,0,1-2-1.55,1.66,1.66,0,0,1-.17-.83A1.7,1.7,0,0,1,50,32.62Z"/><path class="cls-3" d="M37.83,25a3.27,3.27,0,0,1,1.67.8,3.39,3.39,0,0,1,1.07,2.13c-.54,1.79-1.87,2.92-3,2.83a3.48,3.48,0,0,1-2-1.19,4,4,0,0,1-.7-1.13,3.4,3.4,0,0,1,.38-1.69A3.67,3.67,0,0,1,37.83,25Z"/><path class="cls-3" d="M39.38,43.43a2.13,2.13,0,0,1,1.47.1,2.09,2.09,0,0,1,.89.81,1.05,1.05,0,0,1,0,.91,1,1,0,0,1-.61.4,2.09,2.09,0,0,1-1.24,0,2,2,0,0,1-1.07-.89,1.42,1.42,0,0,1,0-.58A1.45,1.45,0,0,1,39.38,43.43Z"/></svg>