<?xml version="1.0" encoding="utf-8"?>
<!-- Generator: Adobe Illustrator 26.0.3, SVG Export Plug-In . SVG Version: 6.00 Build 0)  -->
<svg version="1.1" id="Ebene_1" xmlns="http://www.w3.org/2000/svg" xmlns:xlink="http://www.w3.org/1999/xlink" x="0px" y="0px"
	 viewBox="0 0 283.8 475.7" style="enable-background:new 0 0 283.8 475.7;" xml:space="preserve">
<style type="text/css">
	.st0{fill:#FFFFFF;}
</style>
<path class="st0" d="M279.6,169.4h-1.8c-4.2,0-4.2,0-6.4,2c-3.6,3.3-30.1,27.2-37.7,34.4c-2.1,2-2.1,2-4.3,0
	c-7.9-7.3-35.6-32.7-37.4-34.4c-2.1-2-2.2-2-6.3-2h-1.9c-4.2,0-4.2,0-4.2,4.2v127.6c0,4.1,3.3,7.3,7.3,7.3s7.3-3.3,7.3-7.3
	c0,0,0,0,0,0V195.7c0-2.1,0-2.1,2.9,0.5c2.5,2.2,24.9,23.1,32.1,29.5c2.2,2,2.2,2.1,4.3,0c7.1-6.9,30.7-28.1,32.9-30
	c2.6-2.2,2.6-2.2,2.6-0.2s-0.2,105.6-0.2,105.6c0,4,3.3,7.3,7.3,7.3c0,0,0,0,0,0l0,0c4,0,7.3-3.3,7.3-7.3c0,0,0,0,0,0
	c0,0,0.2-123.4,0.2-127.6S283.9,169.4,279.6,169.4L279.6,169.4z M269.7,7.3c0-4.1-3.3-7.3-7.3-7.3h-63.7c-4.1,0-7.3,3.3-7.3,7.3
	c0,4.1,3.3,7.3,7.3,7.3c0,0,0,0,0,0h18c4.2,0,4.2,0,4.2,4.2v112.9c0.1,4.1,3.6,7.2,7.6,7.1c3.8-0.1,6.9-3.2,7.1-7.1V19
	c0-4.3,0-4.3,4.2-4.3h22.6C266.4,14.7,269.7,11.4,269.7,7.3C269.7,7.4,269.7,7.3,269.7,7.3L269.7,7.3z M120.9,120.4V65.6
	c0-4.4,0-4.3,4.2-4.3h10.9c4.1,0,7.3-3.3,7.3-7.3c0-4.1-3.3-7.3-7.3-7.3h-11c-4.1,0-4.1,0-4.1-4V18.8c0-4.2,0-4.1,4.2-4.1h34.2
	c4.1,0,7.3-3.3,7.3-7.3c0-4-3.3-7.3-7.3-7.3h-49c-4.2,0-4.1,2.1-4.1,4.2v130.7c0.2,2.3,2,4.1,4.2,4.2h48.9c4.1,0,7.3-3.3,7.3-7.3
	c0-4-3.3-7.3-7.3-7.3h-34.2C120.9,124.4,120.9,124.4,120.9,120.4L120.9,120.4z M137.8,169.4h-49c-4.2,0-4.1,2.1-4.1,4.2v130.7
	c0.2,2.3,2,4,4.2,4.2h48.9c4.1,0,7.3-3.3,7.3-7.3s-3.3-7.3-7.3-7.3c0,0,0,0,0,0h-34.2c-4.2,0-4.2,0-4.2-4V235c0-4.4,0-4.3,4.2-4.3
	h10.9c4.1,0,7.3-3.3,7.3-7.3s-3.3-7.3-7.3-7.3c0,0,0,0,0,0h-11c-4.1,0-4.1,0-4.1-4v-23.8c0-4.2,0-4.1,4.2-4.1h34.2
	c4.1-0.1,7.2-3.6,7.1-7.6C144.8,172.6,141.7,169.5,137.8,169.4L137.8,169.4z M75,100.1c0-20.9-16.9-34.3-31.7-43.7l-4.4-2.7
	c-14.1-8.8-18.9-11.8-18.9-24.8c0-11.8,11.5-14.3,14.3-14.3c4.5,0,9,0.7,13.3,2.3c3.7,1.6,8-0.1,9.7-3.8s-0.1-8-3.8-9.7l0,0
	C47.4,1.1,40.9-0.1,34.4,0c-11.7,0-29,9.2-29,29c0,21.1,10.8,27.9,25.8,37.2l4.3,2.7c17.4,11.1,24.9,20.4,24.9,31.3
	c0,11.9-9.9,24.3-26.4,24.3c-12,0-20.2-14-20.2-14.2c-2-3.5-6.5-4.8-10-2.8s-4.8,6.5-2.8,10c0.5,0.9,12.3,21.7,33,21.7
	C59.7,139.1,75,119.3,75,100.1z M0.1,173.6c0,4.2-0.1,127.6-0.1,127.6c0,4.1,3.3,7.3,7.3,7.3l0,0c4,0,7.3-3.3,7.3-7.3
	c0,0,0-47.7,0-51.8s1.7-4.3,2.7-4.4c6.8-0.8,15.6-3.2,22.7-9.5c7.9-7,11.9-17.1,11.9-30c0-11.1-3.6-20-10.7-26.4
	c-13.2-11.9-33.7-9.8-34.6-9.7C6.6,169.4,0.1,169.4,0.1,173.6L0.1,173.6z M14.7,226.6c0-4.1,0-35,0-38.4c0-4.1,2-4,2.7-3.9
	c4.8,0.6,9.9,2,14,5.8c3.9,3.5,5.8,8.5,5.8,15.4c0,8.5-2.3,14.9-6.9,19c-3.8,3.4-8.6,5-12.8,5.7C16.5,230.4,14.7,230.7,14.7,226.6
	L14.7,226.6z M0.1,340.6c0,3.7-0.1,109.6-0.1,130.7c0,4.3,6.7,4.2,6.7,4.2c0.2,0,1.8,0.2,4.1,0.2c7.6,0,23.9-1.3,35.4-11.8
	c8.1-7.4,12.2-17.6,12.2-30.4s-4.1-23.1-12.2-30.5c-1.5-1.3-3.1-2.6-4.7-3.7c-0.6-0.4-1.8-1.4,0.2-2.8c6.9-6.1,10.4-14.6,10.4-25.3
	s-3.5-19.2-10.4-25.2c-13.2-11.8-34.1-9.6-34.9-9.5C6.6,336.5,0.1,336.5,0.1,340.6z M37.2,371.3c0,6.3-1.8,11-5.4,14.3
	c-3.8,3.4-9.4,5-14.3,5.7c-0.7,0.1-2.8,0.2-2.8-4c0-8.8,0-28.8,0-31.9c0-4.1,1.8-4,2.8-3.9c4.7,0.6,10.3,2.1,14.2,5.6
	C35.4,360.3,37.2,365,37.2,371.3L37.2,371.3z M14.7,456.7c0-11.5,0-42.9,0-46.4c0-4.3,2-4.1,2.7-4c5.9,0.7,13.4,2.6,18.9,7.5
	c5,4.5,7.4,11,7.4,19.6s-2.4,15-7.4,19.5c-5.4,4.9-12.9,6.9-18.8,7.6C16.5,460.7,14.7,460.9,14.7,456.7L14.7,456.7z M89.3,340.6
	v130.7c0.2,2.3,2,4.1,4.2,4.2h48.9c4.1,0,7.3-3.3,7.3-7.3s-3.3-7.3-7.3-7.3c0,0,0,0,0,0h-34.2c-4.2,0-4.2,0-4.2-4v-54.8
	c0-4.4,0-4.3,4.2-4.3h10.9c4.1,0,7.3-3.3,7.3-7.3s-3.3-7.3-7.3-7.3c0,0,0,0,0,0h-11c-4.1,0-4.1,0-4.1-4v-23.8c0-4.2,0-4.2,4.2-4.2
	h34.2c4.1,0,7.3-3.3,7.3-7.3s-3.3-7.3-7.3-7.3c0,0,0,0,0,0h-49C89.3,336.4,89.3,338.5,89.3,340.6L89.3,340.6z M183.8,340.6
	c0,4.2,0.1,127.5,0.1,127.5c0,4,3.3,7.3,7.3,7.3c0,0,0,0,0,0l0,0c4.1,0,7.3-3.3,7.3-7.3l0,0c0,0,0-40.7,0-44.8s1.7-2.1,1.7-2.1
	l41,51.5c2.5,3.2,7.1,3.7,10.3,1.2s3.7-7.1,1.2-10.3l0,0c0,0-43.5-54.8-44.7-56.2s-0.3-2.4,0.4-2.6c6.3-1.3,12.1-4.1,17-8.3
	c6.9-6.1,10.4-14.7,10.4-25.3s-3.5-19.1-10.3-25.2c-13.2-11.8-34.1-9.6-35-9.5C190.5,336.5,183.7,336.5,183.8,340.6L183.8,340.6z
	 M198.6,387.1c0-8.8,0-28.8,0-31.9c0-4.1,1.8-4,2.8-3.9c4.7,0.6,10.3,2.1,14.2,5.6c3.7,3.3,5.5,8,5.5,14.3s-1.8,11-5.4,14.3
	c-3.8,3.4-9.4,5-14.3,5.7C200.6,391.2,198.6,391.3,198.6,387.1L198.6,387.1z"/>
</svg>
