<svg xmlns="http://www.w3.org/2000/svg" viewBox="0 0 180.4 180.45"><defs><style>.cls-1{fill:#8769fa;fill-rule:evenodd;}</style></defs><g id="Ebene_2" data-name="Ebene 2"><g id="_ŽÓť_1" data-name="—ŽÓť_1"><path class="cls-1" d="M180.36,85.66C179.16,38.14,140,0,91.84,0,44.24,0,5.43,37.27,3.36,84.05c0,1.28-.08,2.57-.08,3.85A87.25,87.25,0,0,0,16,133.3L0,180.45l49.05-15.6a88.64,88.64,0,0,0,42.79,11c48.93,0,88.56-39.35,88.56-87.9C180.4,87.15,180.4,86.41,180.36,85.66ZM91.84,161.79a74.1,74.1,0,0,1-41-12.24l-28.61,9.13,9.28-27.45A73.19,73.19,0,0,1,17.37,87.9a68.16,68.16,0,0,1,.38-7.17C21.4,43.33,53.24,14,91.84,14c39.1,0,71.23,30.06,74.22,68.13.16,1.91.25,3.81.25,5.76C166.31,128.66,132.89,161.79,91.84,161.79Z"/><path class="cls-1" d="M132.43,105.65c-2.19-1.08-12.85-6.31-14.84-7s-3.44-1.08-4.89,1.08-5.64,7-6.89,8.41-2.52,1.62-4.72.54S91.92,105.36,83.63,98A64.42,64.42,0,0,1,71.56,83.09c-1.24-2.16-.12-3.32,1-4.39s2.16-2.53,3.27-3.78c.3-.37.54-.7.79-1A24.2,24.2,0,0,0,78,71.31a3.9,3.9,0,0,0-.16-3.77c-.54-1.08-4.9-11.69-6.72-16S67.46,48,66.18,48s-2.7-.21-4.15-.21a8,8,0,0,0-5.81,2.7,24.11,24.11,0,0,0-7.58,18,27.08,27.08,0,0,0,1.12,7.34,48.73,48.73,0,0,0,7.75,14.93c1.08,1.41,15,23.88,37.07,32.55s22.1,5.72,26.08,5.35,12.85-5.19,14.63-10.24,1.83-9.33,1.29-10.25S134.59,106.72,132.43,105.65Z"/></g></g></svg>