<svg xmlns="http://www.w3.org/2000/svg" viewBox="0 0 180.34 180.34"><defs><style>.cls-1{fill:#8769fa;}</style></defs><g id="Ebene_2" data-name="Ebene 2"><g id="_ŽÓť_1" data-name="—ŽÓť_1"><path class="cls-1" d="M90.17,16.25c24.08,0,26.93.09,36.43.52,8.79.4,13.57,1.87,16.75,3.11a28,28,0,0,1,10.37,6.74A28.08,28.08,0,0,1,160.46,37c1.24,3.18,2.7,7.95,3.11,16.74.43,9.51.52,12.36.52,36.44s-.09,26.93-.52,36.44c-.41,8.79-1.87,13.56-3.11,16.74a29.8,29.8,0,0,1-17.11,17.11c-3.18,1.24-8,2.71-16.75,3.11-9.5.43-12.35.52-36.43.52s-26.93-.09-36.44-.52c-8.79-.4-13.56-1.87-16.74-3.11a28,28,0,0,1-10.37-6.74,28,28,0,0,1-6.74-10.37c-1.24-3.18-2.71-7.95-3.11-16.74-.43-9.51-.52-12.36-.52-36.44s.09-26.93.52-36.44c.4-8.79,1.87-13.56,3.11-16.74a28,28,0,0,1,6.74-10.37A28,28,0,0,1,37,19.88c3.18-1.24,7.95-2.71,16.74-3.11,9.51-.43,12.36-.52,36.44-.52M90.17,0C65.68,0,62.61.1,53,.54s-16.15,2-21.89,4.19a44.36,44.36,0,0,0-16,10.4,44.4,44.4,0,0,0-10.4,16C2.5,36.84,1,43.4.54,53S0,65.68,0,90.17s.1,27.56.54,37.18,2,16.15,4.19,21.88a44.4,44.4,0,0,0,10.4,16,44.36,44.36,0,0,0,16,10.4c5.74,2.22,12.29,3.75,21.89,4.19s12.69.54,37.18.54,27.56-.1,37.18-.54,16.15-2,21.88-4.19a46.14,46.14,0,0,0,26.38-26.38c2.22-5.73,3.75-12.29,4.19-21.88s.54-12.69.54-37.18-.11-27.56-.54-37.18-2-16.15-4.19-21.88a44.3,44.3,0,0,0-10.41-16,44.28,44.28,0,0,0-16-10.4C143.5,2.51,136.94,1,127.35.54S114.66,0,90.17,0"/><path class="cls-1" d="M90.17,43.87a46.3,46.3,0,1,0,46.3,46.3,46.3,46.3,0,0,0-46.3-46.3m0,76.36a30.06,30.06,0,1,1,30.05-30.06,30.06,30.06,0,0,1-30,30.06"/><path class="cls-1" d="M149.12,42A10.82,10.82,0,1,1,138.3,31.22,10.82,10.82,0,0,1,149.12,42"/></g></g></svg>