<svg id="Слой_1" data-name="Слой 1" xmlns="http://www.w3.org/2000/svg" viewBox="0 0 100 100"><defs><style>.cls-1{fill:#fff;}</style></defs><path d="M26.06,67.91l-5.8-6.59L14.1,69l-1-.72c-.31-4,2.82-6.12,5.49-8.72-1.43-2-2.88-4.12-4.31-6.15a2.94,2.94,0,0,0-.69.29c-1.14,1-2.08,3.07-3.83,1.62-.5-.42.14-2.83.85-3.94,2.09-3.26,4.47-6.33,6.78-9.55a37.52,37.52,0,0,1-3.09-4.52c-.37-.72.1-1.85.19-2.79.9.23,2,.2,2.66.75a28.92,28.92,0,0,1,3.09,3.78l5.08-5.55a54.58,54.58,0,0,1-3-6c-.34-1,.2-2.25.34-3.38.93.63,2.16,1.07,2.71,1.94A45.91,45.91,0,0,1,28,31.63l6.1-4.06c-.8-2.45-1.75-4.8-2.29-7.25-.21-1,.48-2.18.77-3.29.82.78,2,1.41,2.38,2.36a61.53,61.53,0,0,1,2,6.44C40,25.14,43,24.52,46,23.72c.53-.14,1-.94,1.26-1.55a49.17,49.17,0,0,1,1.95-5c.43-.76,1.64-1.08,2.5-1.61.25,1.07.89,2.23.66,3.18a24.71,24.71,0,0,1-2,4.57l9.7,2c2-2.32,2.4-6.24,6.36-7.74,1,3.87-1.67,6.26-2.85,9.25L70.47,31a50.19,50.19,0,0,1,4.26-5c.87-.81,2.33-1,3.52-1.47-.27,1.19-.23,2.58-.86,3.52a62.32,62.32,0,0,1-4.46,5.21l4.56,4.94c1.76-1.21,3.33-2.44,5.05-3.39.58-.33,1.55,0,2.35.1-.19.76-.15,1.76-.62,2.25a55.41,55.41,0,0,1-4.22,3.63c3.06,3.94,6.23,7.79,9.1,11.85.85,1.2.86,3,1.25,4.52-1.48-.62-3-1.21-4.43-1.88a6.46,6.46,0,0,1-1.21-1l-5.41,7.18c1.32,2,2.61,4,4.19,6.49-3.77.43-4.67-2.38-6.79-4l-5.62,4.59c1.23,2.86,4.6,4.58,4.42,8.58-3.8-1-4.87-4.28-7.09-6.71l-7.12,3.4c.71,2.16,1.48,4.17,2,6.25.16.66-.34,1.49-.53,2.24-.67-.39-1.69-.62-2-1.2-1-2.11-1.76-4.33-2.66-6.66l-7.36,1.18c0,2.13.14,4.28-.06,6.4-.08.83-.91,1.59-1.4,2.38-.52-.82-1.4-1.59-1.5-2.46a60.1,60.1,0,0,1-.07-6.32L38,73.75c-.26,2.24-.37,4.3-.81,6.29-.15.69-1.13,1.21-1.73,1.8-.41-.75-1.23-1.56-1.14-2.26.27-2.13.89-4.22,1.41-6.48-2.36-1.33-4.8-2.72-7.29-4.14L24.31,78.2l-1.17-.44C22,73.79,24.87,70.77,26.06,67.91ZM82.69,51.29c-3.21-6-11-14.86-16.49-18.51C59.93,28.63,53,26.35,45.49,27.62c-13.76,2.3-22,11.82-29.31,22.49C36.12,82,67.34,75,82.69,51.29Z"/><path class="cls-1" d="M82.69,51.29C67.34,75,36.12,82,16.18,50.11c7.26-10.67,15.55-20.19,29.31-22.49,7.54-1.27,14.44,1,20.71,5.16C71.7,36.43,79.48,45.33,82.69,51.29ZM49.17,65.55c9.4,0,17.25-7.3,17.29-16,0-8.06-6.83-14.24-15.88-14.33C41.08,35.11,33.67,42,33.8,50.72,33.92,59.23,40.5,65.58,49.17,65.55Z"/><path d="M49.17,65.55c-8.67,0-15.25-6.32-15.37-14.83C33.67,42,41.08,35.11,50.58,35.2c9.05.09,15.91,6.27,15.88,14.33C66.42,58.25,58.57,65.52,49.17,65.55ZM49,61.86c6.53,0,12.76-4.67,13.56-10.25,1.12-7.78-5.41-13.53-14.18-12.49-6.71.8-11.56,6-11.15,12.05A11.58,11.58,0,0,0,49,61.86Z"/><path class="cls-1" d="M49,61.86A11.58,11.58,0,0,1,37.2,51.17c-.41-6,4.44-11.25,11.15-12.05,8.77-1,15.3,4.71,14.18,12.49C61.73,57.19,55.5,61.89,49,61.86ZM42,50.18c-.11,4.89,3,8.34,7.53,8.47a8.94,8.94,0,0,0,9-8.34c.19-4.59-3.75-8.53-8.64-8.62C45.34,41.62,42.06,45.14,42,50.18Z"/><path d="M42,50.18c.11-5,3.39-8.56,7.92-8.49,4.89.09,8.83,4,8.64,8.62a8.94,8.94,0,0,1-9,8.34C44.91,58.52,41.84,55.07,42,50.18Zm7.94-4.87a5.09,5.09,0,0,0-4.82,5.25,4.86,4.86,0,1,0,9.72-.09A5,5,0,0,0,49.89,45.31Z"/><path class="cls-1" d="M49.89,45.31a5,5,0,0,1,4.9,5.16,4.86,4.86,0,1,1-9.72.09A5.09,5.09,0,0,1,49.89,45.31Zm4.25,5.24,0-1.29c-1.05-.76-2.25-2.27-3.12-2.1A4,4,0,0,0,48.55,50c-.11.89,1.51,2.87,2.13,2.78C51.92,52.64,53,51.37,54.14,50.55Z"/><path d="M53.39,50.73c-1.14.82-2.22,2.09-3.47,2.28-.61.09-2.23-1.9-2.12-2.79a4.05,4.05,0,0,1,2.5-2.88c.87-.16,2.07,1.34,3.12,2.11a.9.9,0,0,1,0,1.28Z"/></svg>