<svg id="Слой_1" data-name="Слой 1" xmlns="http://www.w3.org/2000/svg" viewBox="0 0 100 100"><defs><style>.cls-1{fill:#fff;}.cls-2{fill:#9dc86c;}</style></defs><ellipse class="cls-1" cx="48.31" cy="51.51" rx="21.03" ry="23.14"/><path class="cls-2" d="M31.08,61,14.65,68.38c6.2.37,11.45-.59,16.26-3.73C32.67,63.51,32.73,62.41,31.08,61Z"/><path class="cls-2" d="M35.94,70c-3.19,2.78-6.19,5.78-9.25,8.71,5.17-1.13,9.64-3.17,12.16-8.43C37.82,69.88,36.49,69.46,35.94,70Z"/><path class="cls-2" d="M45.93,74.54C45,78.27,44.24,82,43.42,85.77a19.46,19.46,0,0,0,7.86-11.72c-1.51-.12-2.77-.3-4-.28C46.79,73.77,46,74.18,45.93,74.54Z"/><path class="cls-2" d="M28.67,48.88c-5.35-2.4-10.79-2-16.2-.38l-.05.65,17.71,3C29.45,50.55,29.31,49.16,28.67,48.88Z"/><path class="cls-2" d="M29.61,53.14,13.49,50.48C18.43,54.79,26.39,56.34,29.61,53.14Z"/><path class="cls-2" d="M49.13,16.66c-.15,5.42-1.08,10.9,1,16.12C53.39,27.15,50.53,22,49.13,16.66Z"/><path class="cls-2" d="M66.45,59.82c0,1.52-.44,2.93.07,3.48,3,3.31,6.2,6.43,9.33,9.6l.49-.43A28.61,28.61,0,0,0,66.45,59.82Z"/><path class="cls-2" d="M57.91,74.19a3.94,3.94,0,0,0-.76-1.11A2.08,2.08,0,0,0,55,73a2.28,2.28,0,0,0-.5.39,1.09,1.09,0,0,0,0,.25,1,1,0,0,0,.18.56,10.47,10.47,0,0,0,.78,1.18c.62.71,4.82,5.76,6.69,7.73-2-4.41-3.49-7.64-3.82-8.32C58.11,74.52,58,74.27,57.91,74.19Z"/><path d="M86.37,52.83a28.32,28.32,0,0,0-12.78-6.15c-.51-.09,3.85-5,5.89-7.78.7-.93,1.48-2.69,1.07-3.36A4.52,4.52,0,0,0,77.13,34a49.72,49.72,0,0,0-11.76.5c.79-1.24,3.33-5.25,5.32-9.25a6.35,6.35,0,0,0,.85-4.11A5.25,5.25,0,0,0,70.61,19a11.08,11.08,0,0,0-3.07-.18,12.68,12.68,0,0,0-5.12,1.6A30.67,30.67,0,0,0,54,27.1c-.2-1.31-.36-2.91-.73-4.47-.85-3.65-1.73-7.29-2.76-10.89a2.87,2.87,0,0,0-1.7-1.66c-.35-.11-1.14.81-1.59,1.38a8.19,8.19,0,0,0-1.13,2c-1.31,3.2-2.57,6.43-3.89,9.75-2.15-2.08-3.78-3.71-5.13-5.12a26,26,0,0,0-3.56-2.91,5.09,5.09,0,0,0-2.64-1,3.65,3.65,0,0,0-.36.53A5.17,5.17,0,0,0,30,17.53a22.23,22.23,0,0,0,.12,3c.3,2.11,1.28,6.66,2.82,12.57-4.25-2-8.36-4-12.54-5.84-.89-.39-2.5-.49-3,0s-.42,2.07-.14,3a37.07,37.07,0,0,0,7,13.89,93.09,93.09,0,0,0-12.77,1.8,6.3,6.3,0,0,0-3,1.6,5.23,5.23,0,0,0-.82,1.07,3.08,3.08,0,0,0,.23,1A4.71,4.71,0,0,0,10.5,52.1C12.38,53,16.07,55,21,57.74c-3.53,2.65-6.34,4.86-8.26,6.36a9.39,9.39,0,0,0-2.71,3.07,8.38,8.38,0,0,0-.77,2,8.3,8.3,0,0,0,1.52.88,9.86,9.86,0,0,0,4.19.83c2.36,0,6,.09,10.6.08-.92,2.42-2.19,5.22-3,8.15-.79,2.78.24,3.8,3,3.09a42.11,42.11,0,0,0,6.94-2.54,54.13,54.13,0,0,0,5-2.88c.72,3.43,1.21,6.73,2.14,9.91,1.11,3.78,2.54,4.26,5.33,1.51,3.15-3.12,5.82-6.72,8.54-9.93.18.19,4.05,4.38,7.57,7.86a5.38,5.38,0,0,0,3,1.7,4.14,4.14,0,0,0,1.44,0,8.67,8.67,0,0,0,.66-1.5,9.12,9.12,0,0,0,.46-2.52c.09-1.52.16-4.94.07-9.46,1.09.39,1.94.73,2.81,1,2.45.74,4.87,1.6,7.36,2.12,3.08.65,4.32-.68,2.93-3.44-2-4.1-4.6-7.94-7-11.87a14,14,0,0,0-1-1.38c4.73-1.12,9.43-2,14-3.39C88.56,56.47,88.66,54.66,86.37,52.83ZM49.13,16.66c1.4,5.29,4.26,10.49,1,16.12C48.05,27.56,49,22.08,49.13,16.66ZM12.47,48.5c5.41-1.65,10.85-2,16.2.38.64.28.78,1.67,1.46,3.27l-17.71-3Zm1,2,16.12,2.66C26.39,56.34,18.43,54.79,13.49,50.48Zm1.16,17.9L31.08,61c1.65,1.37,1.59,2.47-.17,3.61C26.1,67.79,20.85,68.75,14.65,68.38Zm12,10.28c3.06-2.93,6.06-5.93,9.25-8.71.55-.49,1.88-.07,2.91.28C36.33,75.49,31.86,77.53,26.69,78.66Zm16.73,7.11c.82-3.75,1.61-7.5,2.51-11.23.08-.36.86-.77,1.32-.77,1.26,0,2.52.16,4,.28A19.46,19.46,0,0,1,43.42,85.77Zm12-10.38a10.47,10.47,0,0,1-.78-1.18,1,1,0,0,1-.18-.56,1.09,1.09,0,0,1,0-.25A2.28,2.28,0,0,1,55,73a2.08,2.08,0,0,1,2.18.07,3.94,3.94,0,0,1,.76,1.11c.05.08.2.33.34.61.33.68,1.82,3.91,3.82,8.32C60.2,81.15,56,76.1,55.38,75.39Zm8.88-16.32c-1.81,6.15-5.65,10.48-12.14,11.87s-11.33-1.29-15.33-6c-6.56-7.75-6.27-18.05.53-24.62l4.4,1.47c.08-.24.17-.48.26-.72l-3.32-1.87,6.19-3.3,2,3.84L49,38.55l-.27-.68L46.74,38c0-.74-.08-1.45-.12-2.22a6.08,6.08,0,0,1,1.13-.24C59.61,35.43,67.81,47,64.26,59.07Zm12.08,13.4-.49.43c-3.13-3.17-6.34-6.29-9.33-9.6-.51-.55-.07-2-.07-3.48A28.61,28.61,0,0,1,76.34,72.47Z"/><path class="cls-1" d="M64.26,59.07A16.57,16.57,0,0,1,58.61,68a15.53,15.53,0,0,1-6.49,3c-6.39,1.37-11.33-1.29-15.33-6-.69-.82-6.65-8.37-4-17.35a17.77,17.77,0,0,1,4.34-7.3,9,9,0,0,1,.68-.74,10.65,10.65,0,0,1,1-.88,20.21,20.21,0,0,1,6-2.77,13.46,13.46,0,0,1,5.78-.14M62,54.91l.52-.51c0-.33,0-.66,0-1l-1.06-1-2.48,0-.56.56c-1.18,2.5-.94,2.95,1.6,3L60,56l1.49-.55ZM44.68,51.09a4.49,4.49,0,0,0-4.46-4.64,5.21,5.21,0,0,0-4.88,5A4.91,4.91,0,0,0,40,56.25C42.47,56.29,44.72,53.79,44.68,51.09Zm11.14.14a4.42,4.42,0,0,0,4.28-4.48,4.56,4.56,0,0,0-4.65-4.69,4.74,4.74,0,0,0-4.77,4.64C50.69,49.31,52.93,51.28,55.82,51.23Zm-15,11.44c.78-1,2-1.91,2.16-3,.09-.61-1.44-2-2.37-2.15a2.46,2.46,0,0,0-2.84,2.55C37.67,61.69,38.75,62.27,40.8,62.67ZM44.72,60c3.62,2.64,10.68.49,11.92-3.64C53,59.17,49.2,60.68,44.72,60Zm6.74-7.34c-2.48-1.42-3.75-.77-4.17,1.49,1,1.24,1.86,2.38,2.94,3.76C50.69,56,51.06,54.37,51.46,52.67Zm.94-15.28c-.59.86-1.12,1.32-1.17,1.82,0,.33.82,1.09,1,1A2.54,2.54,0,0,0,53.45,39C53.55,38.76,53,38.23,52.4,37.39Zm-8.42.5-.84.53c-.17.39-.58.91-.45,1.12a4.71,4.71,0,0,0,1.23,1.05c.23-.38.67-.76.65-1.12A5.43,5.43,0,0,0,44,37.89Zm-5.38,5.4-.63-.9L36.12,44.1l.54.61C37.3,44.23,38,43.76,38.6,43.29Z"/><path d="M44.68,51.09c0,2.7-2.21,5.2-4.64,5.16a4.91,4.91,0,0,1-4.7-4.81,5.21,5.21,0,0,1,4.88-5A4.49,4.49,0,0,1,44.68,51.09Z"/><path d="M55.82,51.23c-2.89.05-5.13-1.92-5.14-4.53a4.74,4.74,0,0,1,4.77-4.64,4.56,4.56,0,0,1,4.65,4.69A4.42,4.42,0,0,1,55.82,51.23Z"/><path d="M44.72,60c4.48.67,8.3-.84,11.92-3.64C55.4,60.5,48.34,62.65,44.72,60Z"/><path d="M51.22,52.58a2.56,2.56,0,0,1,.21.66,2.73,2.73,0,0,1-.15,1.34c-.25.75-.6,1.89-1.05,3.34a11.33,11.33,0,0,1-1.36-1.19,5.52,5.52,0,0,1-1.35-1.84,4.45,4.45,0,0,1-.23-.73,2.25,2.25,0,0,1,3.93-1.58Z"/><path class="cls-1" d="M58.39,52.89h0Z"/><path class="cls-1" d="M60,56,60,56Z"/><ellipse cx="60.23" cy="54.18" rx="2.46" ry="1.99" transform="translate(-15.73 26.01) rotate(-21.63)"/><ellipse cx="39.73" cy="60.31" rx="2.3" ry="2.86" transform="translate(-26.28 89.61) rotate(-80.56)"/><path d="M41.08,43.2c.06-.28-1.88-1.45-3.43-.76-1.1.49-1.69,1.77-1.5,2s.73-.46,2-.86C39.84,43,41,43.41,41.08,43.2Z"/><path d="M53.13,38.65a2.94,2.94,0,0,0-3.26.18c-.77.72-.83,2-.6,2.17s.48-.61,1.42-1.29C52,38.77,53.16,38.86,53.13,38.65Z"/><path class="cls-2" d="M83.22,54.91a56,56,0,0,1-11.45,2.48,14.67,14.67,0,0,1-3.12-.29l-.86-.23c-.07-2.2-.13-3.77-.17-4.2a1,1,0,0,1,.1-.64,1,1,0,0,1,.24-.25l.21,0A123.11,123.11,0,0,1,83.22,54.91Z"/><path class="cls-2" d="M40.9,34.67,33.8,19.35a27.17,27.17,0,0,1,9.79,11.12,7.15,7.15,0,0,1,.49,1.15c.28.82.42,1.23.27,1.62s-.82.75-1.68,1"/><path class="cls-2" d="M19.65,29l14.87,8.25a1,1,0,0,1,.32.35c.06.13.27.63-.74,2.14-.69,1-1.35,2-2.05,1.92a1,1,0,0,1-.6-.43L20.74,30.76Z"/><path class="cls-2" d="M12.47,48.5c.89-.28,13.56-4.19,16.87.5a5,5,0,0,1,.79,3.15L11,49C11.3,48.9,11.83,48.71,12.47,48.5Z"/><path class="cls-2" d="M29.66,57.39a2.38,2.38,0,0,1,.5.4,2.55,2.55,0,0,1,.65,1.65,2,2,0,0,1,0,.44l-.42.22q-8.86,4.42-17.85,8c.45-.54.9-1.07,8.7-7.28,2.27-1.81,4.86-3.84,8-3.5Z"/><path class="cls-2" d="M31.08,61c1.65,1.37,1.59,2.47-.17,3.61-4.81,3.14-10.06,4.1-16.26,3.73Z"/><path class="cls-2" d="M51.28,74.05a19.46,19.46,0,0,1-7.86,11.72c.82-3.75,1.61-7.5,2.51-11.23.08-.36.86-.77,1.32-.77C48.51,73.75,49.77,73.93,51.28,74.05Z"/><path class="cls-2" d="M60.5,69.77a2.72,2.72,0,0,1,1.14.42,3.29,3.29,0,0,1,1.17,2c.68,2.4,1,3.59,1.06,4a23.2,23.2,0,0,1-.34,7.42A77.58,77.58,0,0,1,58.44,73c-.14-.35-.27-.7-.4-1a4.25,4.25,0,0,1,.54-.83A5,5,0,0,1,60,70C60.23,69.9,60.39,69.82,60.5,69.77Z"/><path class="cls-2" d="M65.17,64.47a2,2,0,0,1,.3.08,2.25,2.25,0,0,1,1,.73c.44.5,4,4.1,8.94,9.12a16.94,16.94,0,0,1-12.19-7.13c0-.13,0-.25,0-.36A3.81,3.81,0,0,1,65.17,64.47Z"/><path class="cls-2" d="M20.4,31.6c3.77,3.92,7.19,7.33,10.38,10.95a1.19,1.19,0,0,1,.25.82,3,3,0,0,1-1,2.17,12.39,12.39,0,0,1-1.57-1,15,15,0,0,1-2.33-2.35A61,61,0,0,1,20.4,31.6Z"/><path class="cls-2" d="M65.2,42.28a2.72,2.72,0,0,1,.48-.49,4.12,4.12,0,0,1,.64-.43A64.83,64.83,0,0,1,76.44,37.3l1.3-.36a26.63,26.63,0,0,1-5.48,5.69A12.22,12.22,0,0,1,68,45.31a8.87,8.87,0,0,1-1.36.27,2.45,2.45,0,0,1-.57-.39A3.44,3.44,0,0,1,65.2,42.28Z"/><path class="cls-2" d="M66.85,22.53l-10.2,10.7c-.27.29-1,1.1-1.72,1s-1.14-1-1.33-1.46a25.72,25.72,0,0,1,2.81-3.52A26.7,26.7,0,0,1,66.85,22.53Z"/><path class="cls-2" d="M26.69,78.66c3.06-2.93,6.06-5.93,9.25-8.71.55-.49,1.88-.07,2.91.28C36.33,75.49,31.86,77.53,26.69,78.66Z"/><path class="cls-2" d="M67,23.89a21.3,21.3,0,0,1-2.81,7,21.59,21.59,0,0,1-4.43,5,2.67,2.67,0,0,1-.54.17c-1.11.18-2.47-.49-2.51-1.22a.73.73,0,0,1,.17-.5Z"/><path class="cls-2" d="M75.85,72.9c-3.13-3.17-6.34-6.29-9.33-9.6-.51-.55-.07-2-.07-3.48a38.8,38.8,0,0,1,5.86,5.62c3.38,4,4.06,6.61,4.28,7.69a6.91,6.91,0,0,1,.13.74Z"/><path class="cls-2" d="M49.13,16.66a42.88,42.88,0,0,1,2.25,7.94c.5,2.72,1.4,7.68-.33,8.56a1.46,1.46,0,0,1-.9.11A1.31,1.31,0,0,1,48.84,32a5.22,5.22,0,0,1,0-1.88c.14-.8-.07-.72,0-5.28C48.85,21.59,49,18.71,49.13,16.66Z"/><path class="cls-2" d="M26,77.92a23,23,0,0,1,7.77-12.3.93.93,0,0,1,.48,0c.31.08.37.32.86,1s.61.73.55,1a.6.6,0,0,1-.13.24Z"/><path class="cls-2" d="M48.05,32.82a2.1,2.1,0,0,1-1.84.3c-.37-.17-.7-.58-1-2.4a14.21,14.21,0,0,1-.32-3.5c.22-3.92,2.66-9.12,2.92-9.68Z"/><path class="cls-2" d="M29.61,53.14c-3.22,3.2-11.18,1.65-16.12-2.66Z"/><path class="cls-2" d="M39.85,34.72a.74.74,0,0,1,0,.36.84.84,0,0,1-.34.41c-1.11.81-1.29.81-1.43.77a.7.7,0,0,1-.25-.15,21.12,21.12,0,0,1-4.18-14.52Z"/><path class="cls-2" d="M82.74,53.68q-3.92-.78-8-1.75-3.51-.82-6.84-1.71a1.43,1.43,0,0,1,.09-1c.92-1.51,6,0,7,.37A24.26,24.26,0,0,1,82.74,53.68Z"/><path class="cls-2" d="M44.64,73.87c0,.15,0,.3,0,.45a51.47,51.47,0,0,1-2.35,11.11,27.56,27.56,0,0,1-1.33-6.81,28.16,28.16,0,0,1,.33-6.54,1,1,0,0,1,.29-.12,1.28,1.28,0,0,1,1,.31,14.79,14.79,0,0,1,1.94,1.35Z"/><path class="cls-2" d="M74,36.91c-2.86,1.25-5.71,2.53-8.58,3.76A2.28,2.28,0,0,1,64.1,41c-.91-.19-1.95-1-1.86-2a1.57,1.57,0,0,1,.39-.84,5.47,5.47,0,0,1,.79-.7c.76-.55,1.6-.86,4.2-1.15a25.8,25.8,0,0,1,6.3-.12l1.15.19Z"/></svg>