<?xml version="1.0" encoding="utf-8"?>
<!-- Generator: Adobe Illustrator 26.0.1, SVG Export Plug-In . SVG Version: 6.00 Build 0)  -->
<svg version="1.1" id="Слой_1" xmlns="http://www.w3.org/2000/svg" xmlns:xlink="http://www.w3.org/1999/xlink" x="0px" y="0px"
	 viewBox="0 0 180.3 180.3" style="enable-background:new 0 0 180.3 180.3;" xml:space="preserve">
<style type="text/css">
	.st0{fill:#8769FA;}
	.st1{fill:#8769FA;stroke:#8769FA;stroke-width:3;stroke-miterlimit:10;}
</style>
<g id="Ebene_2">
	<g id="_ŽÓť_1">
		<path class="st0" d="M-285.8,16.2c24.1,0,26.9,0.1,36.4,0.5c8.8,0.4,13.6,1.9,16.8,3.1c3.9,1.4,7.5,3.7,10.4,6.7
			c3,2.9,5.3,6.5,6.7,10.4c1.2,3.2,2.7,8,3.1,16.7c0.4,9.5,0.5,12.4,0.5,36.4s-0.1,26.9-0.5,36.4c-0.4,8.8-1.9,13.6-3.1,16.7
			c-3,7.9-9.2,14.1-17.1,17.1c-3.2,1.2-8,2.7-16.8,3.1c-9.5,0.4-12.4,0.5-36.4,0.5c-24.1,0-26.9-0.1-36.4-0.5
			c-8.8-0.4-13.6-1.9-16.7-3.1c-3.9-1.4-7.5-3.7-10.4-6.7c-3-2.9-5.3-6.5-6.7-10.4c-1.2-3.2-2.7-7.9-3.1-16.7
			c-0.4-9.5-0.5-12.4-0.5-36.4s0.1-26.9,0.5-36.4c0.4-8.8,1.9-13.6,3.1-16.7c1.4-3.9,3.7-7.5,6.7-10.4c2.9-3,6.5-5.3,10.4-6.8
			c3.2-1.2,8-2.7,16.7-3.1C-312.8,16.3-309.9,16.2-285.8,16.2 M-285.8,0c-24.5,0-27.6,0.1-37.2,0.5s-16.1,2-21.9,4.2
			c-6,2.3-11.5,5.8-16,10.4c-4.6,4.5-8.1,10-10.4,16c-2.2,5.7-3.7,12.3-4.2,21.9c-0.5,9.6-0.5,12.7-0.5,37.2s0.1,27.6,0.5,37.2
			s2,16.2,4.2,21.9c2.3,6,5.8,11.5,10.4,16c4.5,4.6,10,8.1,16,10.4c5.7,2.2,12.3,3.8,21.9,4.2s12.7,0.5,37.2,0.5
			c24.5,0,27.6-0.1,37.2-0.5s16.1-2,21.9-4.2c12.1-4.7,21.7-14.3,26.4-26.4c2.2-5.7,3.8-12.3,4.2-21.9s0.5-12.7,0.5-37.2
			s-0.1-27.6-0.5-37.2s-2-16.2-4.2-21.9c-2.3-6-5.8-11.5-10.4-16c-4.5-4.6-10-8.1-16-10.4c-5.7-2.2-12.3-3.7-21.9-4.2
			S-261.3,0-285.8,0"/>
		<path class="st0" d="M-285.8,43.9c-25.6,0-46.3,20.7-46.3,46.3s20.7,46.3,46.3,46.3c25.6,0,46.3-20.7,46.3-46.3
			S-260.3,43.9-285.8,43.9L-285.8,43.9 M-285.8,120.2c-16.6,0-30.1-13.4-30.1-30.1s13.4-30.1,30-30.1c16.6,0,30.1,13.4,30.1,30.1
			c0,0,0,0,0,0C-255.8,106.7-269.2,120.2-285.8,120.2"/>
		<path class="st0" d="M-226.9,42c0,6-4.8,10.8-10.8,10.9s-10.8-4.8-10.9-10.8c0-6,4.8-10.8,10.8-10.9c0,0,0,0,0,0
			C-231.7,31.2-226.9,36-226.9,42"/>
	</g>
</g>
<g>
	<path class="st1" d="M156.4,26.7H23.9c-12,0-21.8,9.8-21.8,21.8v83.4c0,12,9.8,21.8,21.8,21.8h132.5c12,0,21.8-9.8,21.8-21.8V48.5
		C178.2,36.5,168.4,26.7,156.4,26.7z M169.5,48.5v83.4c0,1.9-0.4,3.8-1.2,5.4l-53.8-47.1L168.4,43C169.1,44.7,169.5,46.5,169.5,48.5
		z M156.4,35.3c2,0,3.8,0.4,5.5,1.2L94.3,95.8c-2.3,2.1-5.9,2.1-8.2,0L18.4,36.6c1.7-0.8,3.5-1.2,5.5-1.2H156.4z M12,137.3
		c-0.8-1.7-1.2-3.5-1.2-5.4V48.5c0-1.9,0.4-3.8,1.2-5.4l53.8,47.1L12,137.3z M23.9,145c-2,0-3.8-0.4-5.5-1.2l54.3-47.6l7.3,6.4
		c2.9,2.5,6.5,3.8,10.1,3.8c3.6,0,7.2-1.3,10.1-3.8l7.3-6.4l54.3,47.6c-1.7,0.8-3.5,1.2-5.5,1.2H23.9z"/>
</g>
</svg>
