<svg id="Слой_1" data-name="Слой 1" xmlns="http://www.w3.org/2000/svg" viewBox="0 0 200 200"><defs><style>.cls-1{fill:#fff;}.cls-2{fill:#d6d6d6;}.cls-3{fill:#6c66ab;}</style></defs><path d="M46.34,42.06c6.18,5.12,12.46,10.16,16.2,17.46l-1.87,1.71L44.22,44Z"/><path d="M134.83,24.92l-10.68,21-2.28-1.14c1.24-8.23,5.95-14.78,10.44-21.44Z"/><path d="M7.52,131.88l22.88-5.73c.29,1.09.57,2.18.85,3.27L8.31,135.34C8.05,134.19,7.78,133,7.52,131.88Z"/><path d="M172.4,88.09,194.11,87c0,1.08.07,2.17.1,3.25l-21.79,1.26C172.41,90.38,172.41,89.23,172.4,88.09Z"/><path d="M106.93,42.8q3-10.92,5.95-21.85l2.55.63c.29,7.86-2.71,15-5.7,22.09Z"/><path d="M5.8,114.82c7.56-1.23,15.09-1.67,22.4,2.41H5.79C5.79,116.43,5.8,115.62,5.8,114.82Z"/><path d="M182.36,140.61c-7.36-.47-13.43-3.39-17.93-9.29C171.52,132.31,177.74,134.94,182.36,140.61Z"/><path d="M50.51,69.27,32.81,57.16l1.84-2.74L52.74,66.2C52,67.22,51.26,68.25,50.51,69.27Z"/><path d="M62.68,33.54,74.86,52c-7-1.51-12.74-9.53-13.72-17.59Z"/><path d="M95.74,22.1c3.94,7.63,3.18,14.59,2.67,22.08C94.05,39.34,92.87,30.39,95.74,22.1Z"/><path d="M9.92,97.16l20.2,4.2c-.22,1-.43,2-.64,3.06L9.13,100.58Z"/><path d="M24.73,67.45,43.1,78.61l-1.3,2.18c-6.75-2.67-13.36-5.56-18.38-11.14C23.85,68.91,24.29,68.18,24.73,67.45Z"/><path d="M23.21,146.78l17-8.11,1.45,3L24.75,150C24.24,148.89,23.72,147.84,23.21,146.78Z"/><path d="M133.58,46.7,147.72,31c.42,6.72-6.17,14.39-12.85,16.82Z"/><path d="M166.29,43,149.92,56.29a19.91,19.91,0,0,1,15.33-14.7Z"/><path d="M84,46.89c-2.55-6-5.11-12-8.24-19.42A17.44,17.44,0,0,1,84,46.89Z"/><path d="M34.22,90.23l-20.15-3.3.48-3,20.16,3.19Z"/><path d="M158.06,142.56q6.69,5.73,13.37,11.47L169.8,156c-6-1.86-10.29-6-13.43-11.44Z"/><path d="M103.47,178.41c-3-6.13-.16-11.93.43-17.86l2.7.16-1,17.82Z"/><path d="M56.51,171.49c1.27-7,5.73-10.76,10.2-15.14C67.43,162.3,63.63,168,56.51,171.49Z"/><path d="M135,156.48q1.48,8.22,3,16.44l-3.07.6-3.57-16.23Z"/><path d="M79.55,162.39c-1.62,5.3-3.25,10.6-5.1,16.66-3.56-5.84-2-12.07,3.42-17.21Z"/><path d="M52.14,151.64l-14,9.88c.66-6.13,6.12-10.13,13.06-11.24Z"/><path d="M170.68,118.73l16.75,2.06C180.62,124.67,174.39,124,170.68,118.73Z"/><path d="M151,166.73l-6.68-12.34,2.66-1.52q3.56,6,7.12,12Z"/><path d="M171.37,105.62h16.28C184.06,109.75,177.47,110,171.37,105.62Z"/><path d="M119.79,178.63q-.81-8.08-1.6-16.17l3-.38q1.08,8.05,2.17,16.11Z"/><path d="M161.42,62.76l14.18-5.21,1.08,2.86-14.37,5.44C162,64.82,161.71,63.79,161.42,62.76Z"/><path d="M171.34,75.27l14.84-2.79.6,3-15.08,3Z"/><path d="M91.21,164.89,89,178.24l-2.78-.4q.84-6.69,1.69-13.38Z"/><path class="cls-1" d="M101.09,86.53c-6.84-4.49-10.6-5-14.44-2.16-4.26,3.14-6,9.7-4.1,15.86,2.63,8.73,15,17.44,23.93,16.67a8.45,8.45,0,0,0,4.68-1.71c8.1-7.4,13.26-16.37,13-27.66-.13-4.94-1.91-9.57-7.34-10.94-5.6-1.42-10.11.85-13.36,5.53A44.43,44.43,0,0,0,101.09,86.53Z"/><path class="cls-2" d="M103.72,123.51c3.59.17,7.68-1.36,10.86-3.25,10.43-6.2,16-19.77,13.57-31.74a25.23,25.23,0,0,0-5-10.21A21.29,21.29,0,0,0,116.3,72c-6.68-3.54-13.84-1.39-15.85-.71A32.37,32.37,0,0,0,83.18,79c-1.74,1.53-3.87,3.08-4.81,5.53C72.31,100.31,86.73,122.67,103.72,123.51ZM86.65,84.37c3.84-2.84,7.6-2.33,14.44,2.16a44.43,44.43,0,0,1,2.32-4.41c3.25-4.68,7.76-7,13.36-5.53,5.43,1.37,7.21,6,7.34,10.94.31,11.29-4.85,20.26-13,27.66a8.45,8.45,0,0,1-4.68,1.71c-8.92.77-21.3-7.94-23.93-16.67C80.7,94.07,82.39,87.51,86.65,84.37Z"/><path class="cls-2" d="M143.09,79.08c-4.1-3-7.6-6.23-11.35-5.2a5.43,5.43,0,0,0-.83.29c-.36.13-.86.36-.95.77s.37.9.48,1c1.24,1.28,5,9.83,5.12,17.68a26.6,26.6,0,0,1-1.06,7.84c-3.49,13.41-10.21,24.6-24.78,27.63-13.87,2.88-23.84-4.76-32.07-14.85-5.71-7-7.83-15.43-8.26-24.4a1,1,0,0,0-.73-.86,1,1,0,0,0-.81.14c-8.14,10-13.91,17.49-15.1,19.45a5.29,5.29,0,0,0-.89,3,4.87,4.87,0,0,0,.67,2.17c.49.55,1.22,1.35,2.17,2.24a39,39,0,0,0,11.94,7.56,158.31,158.31,0,0,0,18.26,6.71c7.76,2.25,13.09,4.06,17.56,4.34,29.06,1.79,50-26.52,53.78-38,1.28-3.93.74-6.27.39-7.33C155.29,85.19,152.19,85.82,143.09,79.08Z"/><path d="M153.27,77.2C115.68,49.66,58.83,67.81,43.92,112c-.61,1.8.27,5.28,1.7,6.4,16.56,12.93,35.93,18.77,55.15,21.85,25.92-1.91,44.2-14.52,57.58-34.37C169.22,89.71,166,86.55,153.27,77.2Zm-74.9,7.29c.94-2.45,3.07-4,4.81-5.53a32.37,32.37,0,0,1,17.27-7.63c2-.68,9.17-2.83,15.85.71a21.29,21.29,0,0,1,6.89,6.27,25.23,25.23,0,0,1,5,10.21c2.4,12-3.14,25.54-13.57,31.74-3.18,1.89-7.27,3.42-10.86,3.25C86.73,122.67,72.31,100.31,78.37,84.49Zm77.87,12.09c-3.75,11.52-24.72,39.83-53.78,38-4.47-.28-9.8-2.09-17.56-4.34a158.31,158.31,0,0,1-18.26-6.71A39,39,0,0,1,54.7,116c-1-.89-1.68-1.69-2.17-2.24a4.87,4.87,0,0,1-.67-2.17,5.29,5.29,0,0,1,.89-3c1.19-2,7-9.47,15.1-19.45a1,1,0,0,1,.81-.14,1,1,0,0,1,.73.86c.43,9,2.55,17.41,8.26,24.4,8.23,10.09,18.2,17.73,32.07,14.85,14.57-3,21.29-14.22,24.78-27.63a26.6,26.6,0,0,0,1.06-7.84c-.13-7.85-3.88-16.4-5.12-17.68-.11-.11-.57-.56-.48-1s.59-.64.95-.77a5.43,5.43,0,0,1,.83-.29c3.75-1,7.25,2.16,11.35,5.2,9.1,6.74,12.2,6.11,13.54,10.17C157,90.31,157.52,92.65,156.24,96.58Z"/><path class="cls-3" d="M106.48,116.9a8.45,8.45,0,0,0,4.68-1.71c8.1-7.4,13.26-16.37,13-27.66-.13-4.94-1.91-9.57-7.34-10.94-5.6-1.42-10.11.85-13.36,5.53a44.43,44.43,0,0,0-2.32,4.41c-6.84-4.49-10.6-5-14.44-2.16-4.26,3.14-6,9.7-4.1,15.86C85.18,109,97.56,117.67,106.48,116.9Z"/></svg>