<svg id="Слой_1" data-name="Слой 1" xmlns="http://www.w3.org/2000/svg" viewBox="0 0 100 100"><defs><style>.cls-1{fill:#fff;}.cls-2{fill:#d27166;}</style></defs><path d="M77.48,24.61c1.71-1.54,3.15-3,4.75-4.21a7,7,0,0,1,2.43-.67c.12.76.6,1.76.29,2.24-1.17,1.82-2.29,4-4,5.09-3.13,2.06-6.67,3.5-10.23,5.3,2,2,3.77,3.16,6.84,2,4.46-1.75,4.72-1.55,6.26,3.1,8.71,26.28-11.57,50.37-34.52,49.23C40,86.17,32.63,82.2,27.35,74.2c-1.45,1.15-2.73,2.29-4.14,3.23s-2.95,2.29-4.17.37c-.37-.59.79-2.73,1.78-3.5a23.67,23.67,0,0,0,9.39-17.55c0-.39,0-.78-.08-1.7-3.63,2.32-6.93,4.49-10.29,6.57S15.4,63,14.75,59.19C10.88,36.53,25.35,16.68,48.21,13.6c10.16-1.36,18.85,2.42,26.6,8.74C75.6,23,76.37,23.66,77.48,24.61ZM18.61,57.17c7.44-4,14.68-8,22-11.85a14.52,14.52,0,0,1,3.06-.83l.62,2.64c3.93-1.57,7.86-3.26,11.89-4.7,1.76-.63,2.52-1.51,2.1-3.46a4,4,0,0,1-1.39.33,22.72,22.72,0,0,1-2.51-.58,7.73,7.73,0,0,1,1.12-2.52,13.76,13.76,0,0,1,3.24-2.27c4.87-2.67,9.79-5.27,14.7-7.91-9.86-10-26-11.51-39.07-3.73C21.85,29.73,14.81,45.08,18.61,57.17ZM57.79,45.75l-10.61,4.6c5.3,7.26,6.22,13.25,2.24,17C43,73.47,38,68.65,33,64.52a36.3,36.3,0,0,1-1.92,4.15c-1.23,2-.92,3.51.51,5.24a23.64,23.64,0,0,0,11.15,7.77c12,3.87,26.47-1.84,34-13.52,6.17-9.57,6.27-19.71,2.86-30.51L77,38.8c1.53,8,.31,12.56-3.75,14.37C68.55,55.27,62.82,52.64,57.79,45.75ZM48.38,60.62c0-3.37-2.35-6.88-5.54-9-3.78-2.48-8,.6-8.18,4.35s2.71,8.44,6.14,9.79A5.34,5.34,0,0,0,48.38,60.62ZM74.49,44.51c.24-.14-1.53-5.37-3.29-7.26-2.87-3.09-7.16-2.06-9,1.76-2.12,4.3.1,8.93,5.07,10.6C71.74,51.12,74.46,49.21,74.49,44.51Z"/><path class="cls-1" d="M18.61,57.17c-3.8-12.09,3.24-27.44,15.73-34.88C47.37,14.51,63.55,16,73.41,26c-4.91,2.64-9.83,5.24-14.7,7.91a13.76,13.76,0,0,0-3.24,2.27,7.73,7.73,0,0,0-1.12,2.52,22.72,22.72,0,0,0,2.51.58A4,4,0,0,0,58.25,39c.42,2-.34,2.83-2.1,3.46-4,1.44-8,3.13-11.89,4.7l-.62-2.64a14.52,14.52,0,0,0-3.06.83C33.29,49.2,26.05,53.15,18.61,57.17Z"/><path class="cls-1" d="M57.79,45.75c5,6.89,10.76,9.52,15.47,7.42C77.32,51.36,78.54,46.8,77,38.8l2.6-1.15c3.41,10.8,3.31,20.94-2.86,30.51-7.53,11.68-22,17.39-34,13.52A23.64,23.64,0,0,1,31.6,73.91c-1.43-1.73-1.74-3.29-.51-5.24A36.3,36.3,0,0,0,33,64.52c5,4.13,10,9,16.41,2.87,4-3.79,3.06-9.78-2.24-17Zm1,8.12c-1.33-.95-2.3-2-2.76-1.87a3.76,3.76,0,0,0-1.88,2.24c-.11.37,1.21,1.68,1.78,1.62C56.75,55.77,57.49,54.83,58.78,53.87Z"/><path class="cls-2" d="M48.38,60.62a5.34,5.34,0,0,1-7.58,5.16c-3.43-1.35-6.37-6.09-6.14-9.79s4.4-6.83,8.18-4.35C46,53.74,48.39,57.25,48.38,60.62Z"/><path class="cls-2" d="M74.49,44.51c0,4.7-2.75,6.61-7.26,5.1-5-1.67-7.19-6.3-5.07-10.6,1.88-3.82,6.17-4.85,9-1.76C73,39.14,74.73,44.37,74.49,44.51Z"/><path d="M58.78,53.87A2.37,2.37,0,0,1,58,55.39a2.42,2.42,0,0,1-2,.47,2.21,2.21,0,0,1-1.78-1.62A2.28,2.28,0,0,1,56,52a2.39,2.39,0,0,1,1.61.23A2.47,2.47,0,0,1,58.78,53.87Z"/></svg>