<svg id="Слой_1" data-name="Слой 1" xmlns="http://www.w3.org/2000/svg" viewBox="0 0 100 100"><defs><style>.cls-1{fill:#fff;}.cls-2{fill:#6c180c;}</style></defs><path d="M36.06,43.16c.18-7.83.29-15.66.58-23.48a27.47,27.47,0,0,1,1.17-6.91c.35-1.13,1.71-2.78,2.5-2.72a4.3,4.3,0,0,1,3.13,2.41c1.32,4.27,2.21,8.68,3.32,13.29.13-1,.24-2,.38-2.95.44-3.09.72-6.22,1.4-9.27a11.48,11.48,0,0,1,2.18-4.41C52.59,6.76,55,7,56.17,9.86a19.49,19.49,0,0,1,1.15,6.27c.16,3.72,0,7.44,0,11.17A4.3,4.3,0,0,0,58.2,30c.46-3.24.8-6.51,1.41-9.73a22.54,22.54,0,0,1,1.82-5.84c1.15-2.29,3.32-2.44,4.54-.21a16.94,16.94,0,0,1,1.82,6.37c.3,3.09.08,6.22.5,9.48.43-1,.79-2.09,1.3-3.08a38.78,38.78,0,0,1,2.88-5.07,3,3,0,0,1,2.45-1.11,2.88,2.88,0,0,1,1.5,2.14,59.74,59.74,0,0,1,.44,7.91A225.68,225.68,0,0,1,73.4,66.77a54,54,0,0,0-.4,14c.74,8.38.14,9.87-8.09,10.83-6.59.77-13.28.72-19.93.89a13.24,13.24,0,0,1-4.29-.88A4.62,4.62,0,0,1,37.18,87a41.51,41.51,0,0,1-.12-5c.62-6.4-1.54-12-4-17.77C29.45,56.06,26.69,47.48,23.64,39a11.07,11.07,0,0,1-.5-2.88C23,34.09,24.19,33,26,33.64a16.85,16.85,0,0,1,5.55,3.5,46.39,46.39,0,0,1,4.58,6l0,.13ZM26,36.55a27.35,27.35,0,0,0,.78,3.5c3.91,10.13,7.79,20.27,11.89,30.31a5.54,5.54,0,0,0,3.5,2.6c8.22,1.93,16.34.51,24.45-1a4,4,0,0,0,3.64-3.78c2.82-17.95,3.25-21.55,4.12-28.74a114.39,114.39,0,0,0,.08-11.92c0-.88-.14-.49-.21-1.48,0-.26,0-.59-.27-.75a.58.58,0,0,0-.45-.08l-.26.11-.35,1-.37,1.07c-.3.84-.38,1.13-.71,2.05-.7,2-.4.89-1.66,4-.82,2-1.25,3.07-2.15,3.45a2.36,2.36,0,0,1-1.33.13,3.58,3.58,0,0,1-.88-.75,5.25,5.25,0,0,1-1-3.67c0-4.71,0-9.25,0-13.22a20.89,20.89,0,0,0-.56-3.47l-.83,0a16.1,16.1,0,0,0-1,2.85c-.42,2.9-.64,5.84-1.06,8.74a28.7,28.7,0,0,1-1.32,6c-.39,1-1.68,1.71-2.56,2.55-.79-.9-2-1.69-2.29-2.72a17.12,17.12,0,0,1-.84-6.67c.08-3.22.4-9,.28-11.42,0-.34,0-.08-.15-1.42s-.17-2-.66-2.54a1.88,1.88,0,0,0-.41-.33.59.59,0,0,0-.47-.24.6.6,0,0,0-.47.25,7.38,7.38,0,0,0-.79,1.43c-.6,1.41-.54,2.41-.87,4.68-.16,1.07-.24,1.31-.41,2.3-.66,3.9-.59,7.15-.9,10.55a48.79,48.79,0,0,1-1.29,7.53l-1.11,0a34,34,0,0,1-3.71-11.66c-.64-5.22,0-11.09-2.28-11.87a1.63,1.63,0,0,0-.65-.08,1.31,1.31,0,0,0-.68.21c-.67.47-.63,1.58-.62,1.93.11,4.08-.63,8.21-.09,12.26,1.29,9.56.46,17.42.53,20.55a35.51,35.51,0,0,1-.37,4.09l-1,.23C33.75,48.07,32.6,40.46,26,36.55ZM40.41,82.47c-.87,5.42-.49,6.72,3.59,6.77,8,.09,16-.5,24-1,.87-.06,2.13-1.67,2.33-2.72.3-1.61-.16-3.37-.32-5.35C59.94,82.48,50.38,84.44,40.41,82.47Zm-.29-7c-.62,3.48-.11,4.15,3.45,4.68,8.42,1.26,16.49-.82,24.58-2.64.55-.12.85-1.37,1.27-2.09-.72-.26-1.5-.86-2.13-.73C58.27,76.57,49.25,77.9,40.12,75.45Z"/><path class="cls-1" d="M55.51,64.71c4-4.45,6.34-9.22,6.51-14.9a3.62,3.62,0,0,0-1.6-2.74c-.65-.35-2.07.16-2.84.72a21,21,0,0,0-2.81,3.06c-.58-.63-1.06-1.23-1.6-1.75a10.69,10.69,0,0,0-1.78-1.52c-2.38-1.47-4.29-.51-4.45,2.27a6.68,6.68,0,0,0,.34,2.59C49,57.09,52,60.87,55.51,64.71Z"/><path class="cls-1" d="M40.41,82.47c10,2,19.53,0,29.55-2.35.16,2,.62,3.74.32,5.35-.2,1-1.46,2.66-2.33,2.72-8,.55-16,1.14-24,1C39.92,89.19,39.54,87.89,40.41,82.47Z"/><path class="cls-1" d="M40.12,75.45a47,47,0,0,0,12,1.28A32.79,32.79,0,0,0,57,76.36l10.25-1.69a2.31,2.31,0,0,1,1.4.15,2.22,2.22,0,0,1,.73.58,1.73,1.73,0,0,1,.13,1.5c-.32.53-1.15.57-1.4.59-2.94.21-11.28,4.62-24.58,2.64C40,79.6,39.5,78.93,40.12,75.45Z"/><polygon class="cls-1" points="36.06 43.16 36.16 43.23 36.12 43.1 36.06 43.16"/><path class="cls-2" d="M55.51,64.71C52,60.87,49,57.09,47.28,52.44a6.68,6.68,0,0,1-.34-2.59c.16-2.78,2.07-3.74,4.45-2.27a10.69,10.69,0,0,1,1.78,1.52c.54.52,1,1.12,1.6,1.75a21,21,0,0,1,2.81-3.06c.77-.56,2.19-1.07,2.84-.72A3.62,3.62,0,0,1,62,49.81C61.85,55.49,59.46,60.26,55.51,64.71Z"/></svg>