<svg id="Слой_1" data-name="Слой 1" xmlns="http://www.w3.org/2000/svg" viewBox="0 0 100 100"><defs><style>.cls-1{fill:#ffd779;}.cls-2{fill:#fcf9f1;}</style></defs><path class="cls-1" d="M56.79,33a54.53,54.53,0,0,1,6.57-4.15A17.07,17.07,0,0,1,70,27.18c7.74-.14,11.89,5.76,8.52,12.69a56.32,56.32,0,0,1-9,13.44c-8.26,8.95-17,17.44-25.68,26-2.6,2.57-3.7,2.42-5.26-.73-5.41-11-10.39-22.12-12.43-34.3C24.93,37,24.76,29.67,28.67,22.94A13.47,13.47,0,0,1,52,22.5C54,25.76,55.23,29.52,56.79,33ZM41,76.71a6.72,6.72,0,0,0,1.22-.56c10.31-8.76,20.3-17.88,28.61-28.62a37.9,37.9,0,0,0,5.45-9.79c1.62-4.37-1-8-5.7-7.77a22.41,22.41,0,0,0-8.36,2.63c-2,1-3.58,2.93-5.42,4.35-2.55,2-3.16,1.68-3.83-1.48a64.92,64.92,0,0,0-2.37-9.64,10.09,10.09,0,0,0-9.51-6.68c-4.52-.2-7.82,1.91-10,5.85-2.75,4.88-3,10.12-2.48,15.49.95,10,4.56,19.15,8.59,28.19C38.39,71.37,39.73,74,41,76.71Z"/><path class="cls-2" d="M41,76.71c-1.3-2.71-2.64-5.34-3.84-8-4-9-7.64-18.21-8.59-28.19-.52-5.37-.27-10.61,2.48-15.49,2.22-3.94,5.52-6.05,10-5.85a10.09,10.09,0,0,1,9.51,6.68A64.92,64.92,0,0,1,53,35.47c.67,3.16,1.28,3.46,3.83,1.48,1.84-1.42,3.4-3.35,5.42-4.35A22.41,22.41,0,0,1,70.61,30c4.66-.24,7.32,3.4,5.7,7.77a37.9,37.9,0,0,1-5.45,9.79c-8.31,10.74-18.3,19.86-28.61,28.62A6.72,6.72,0,0,1,41,76.71Z"/><path class="cls-1" d="M40.89,26.92q4.57.69,5.92,4.1a6.83,6.83,0,0,1,.46,2.49,13.68,13.68,0,0,1-.37,3.26,17.4,17.4,0,0,1-1.53,4,28.45,28.45,0,0,1-2.88,4.46c-.35.44-.75.89-1.18,1.36s-1,1-1.71,1.66a9.29,9.29,0,0,1-2.23,1.52,4.57,4.57,0,0,1-2.22.5l-.26,0-1.15-.16.33-2.26.76.08a33.17,33.17,0,0,1-.1-6.2c.08-2.58.24-5.74.48-9.45l-1.68-1.16.65-.95a4.63,4.63,0,0,1,.34-.47,9.82,9.82,0,0,1,.91-.89,10.35,10.35,0,0,1,1.39-1.05A6.28,6.28,0,0,1,38.64,27,5.69,5.69,0,0,1,40.89,26.92ZM40.7,43.84a24.11,24.11,0,0,0,3.59-6.37c.86-2.26,1-4.14.4-5.62s-2-2.32-4.13-2.65a2.51,2.51,0,0,0-1.31.18,6.9,6.9,0,0,0-1.17.54l-.41.3-.07,1.15Q36.69,44.26,37,47.31h.06A16,16,0,0,0,40.7,43.84Z"/><path class="cls-1" d="M50.14,45.54q-.72,1.89-2.57,9.61t-1.78,9.06l.07,1.15-2.3.11-.05-1.14c0-1.17.57-4.46,1.87-9.89A88.16,88.16,0,0,1,48,44.75l.37-1.06,2.17.8Z"/><path class="cls-1" d="M67.87,43.09l-.34.94h0q-4.31,11-8.31,12.72a3.41,3.41,0,0,1-2.74.13c-2.52-1-3.24-2.85-2.17-5.6l.36-.93,1.87.73-.37.93a3.29,3.29,0,0,0-.31,1.9c.12.43.56.8,1.34,1.11a1.57,1.57,0,0,0,1.23-.08q2.22-1,5-6.62Q60.61,50.68,58,49.64A3.25,3.25,0,0,1,56,47.78a4.1,4.1,0,0,1-.28-1.71,7.1,7.1,0,0,1,.41-2c.26-.74.49-1.34.69-1.79s.47-1.07.84-1.85.51-1.06.59-1.27l.36-.93,1.86.73-.36.93c-.1.26-.32.74-.65,1.43s-.71,1.47-.93,2a13.22,13.22,0,0,0-.64,2,3.1,3.1,0,0,0,0,1.81,1.54,1.54,0,0,0,1.23.84,3.46,3.46,0,0,0,.6,0,2.39,2.39,0,0,0,.79-.17,8.6,8.6,0,0,0,.94-.45,5.14,5.14,0,0,0,1.11-.85,14.85,14.85,0,0,0,1.23-1.33,18.12,18.12,0,0,0,1.36-1.92,27,27,0,0,0,1.45-2.62l.44-.87.84.42,1,.38-.37.93-.11.3a.44.44,0,0,1,0,.19l-.08.22Z"/></svg>