<svg id="Слой_1" data-name="Слой 1" xmlns="http://www.w3.org/2000/svg" viewBox="0 0 100 100"><defs><style>.cls-1{fill:#8c7fbb;}.cls-2{fill:#fcf9f1;}</style></defs><path class="cls-1" d="M32.15,57.1c-1.63-9.05,2.66-13.47,11.76-12.32,1.3-7.09,4.12-10.64,9-11.33C57.31,32.84,60,34.72,63,40.57c3.09-2.16,6.42-3.22,9.95-1.25s4.52,5.12,3.62,8.91c5.93,3.07,6.35,9.21,1,13.11a14.05,14.05,0,0,1-10.71,2.92c-3.76,8.88-6.76,10.39-14.5,7.88-2.64,2-4.76,4-7.27,5.29C42,79,38.93,78.24,36.21,76a3.14,3.14,0,0,0-2.38-.65,7.74,7.74,0,0,1-10.07-6.85C23.16,62.57,25.72,59,32.15,57.1Zm15.17-8.17-.66.56c-1.12-.63-2.28-1.22-3.36-1.92-2.61-1.7-4.85-1.51-7.09.66-2.87,2.79-3,5.78-.39,9.33a11.35,11.35,0,0,1,1,2.27,23.52,23.52,0,0,1-2.63.4,5.87,5.87,0,0,1-1.63-.31,4.33,4.33,0,0,0-4.94,2,8.36,8.36,0,0,0-.88,8.37,5.08,5.08,0,0,0,4.52,3.36c2.09.13,2.67-1.59,3.53-3a9.38,9.38,0,0,1,1.85-1.75,8.28,8.28,0,0,1,.6,2.36c-.14,3,1,4.39,4,4.61,4,.29,8.18-2.85,8.19-6.91,0-.65.64-1.29,1-1.93.58.45,1.15.9,1.74,1.34,1.15.85,2.21,2.18,3.49,2.45,5,1.08,9.4-3.76,8.19-8.72a8.7,8.7,0,0,1,.1-2.43c.82.34,1.67.62,2.46,1s1.88,1.6,2.74,1.53c3.4-.29,6.7-1.42,8.58-4.39a7,7,0,0,0,.48-5.32c-.28-.87-2.59-1.1-4-1.58-.27-.09-.65.12-.93,0-.7-.23-1.37-.55-2.05-.84a6.71,6.71,0,0,1,1.3-1.79c2.12-1.5,2.5-3.25,1-5.35-2.06-2.88-6.79-3-9.22-.35-.88,1-1.82,1.88-2.74,2.82-.39-1.38-.86-2.74-1.16-4.15-1-4.64-5.08-7-9.05-5.18a8.4,8.4,0,0,0-4.6,8.41C46.91,46,47.12,47.46,47.32,48.93Z"/><path class="cls-2" d="M47.32,48.93c-.2-1.47-.41-2.93-.59-4.4a8.4,8.4,0,0,1,4.6-8.41c4-1.83,8.06.54,9.05,5.18.3,1.41.77,2.77,1.16,4.15.92-.94,1.86-1.85,2.74-2.82,2.43-2.69,7.16-2.53,9.22.35,1.51,2.1,1.13,3.85-1,5.35a6.71,6.71,0,0,0-1.3,1.79c.68.29,1.35.61,2.05.84.28.09.66-.12.93,0,1.41.48,3.72.71,4,1.58a7,7,0,0,1-.48,5.32c-1.88,3-5.18,4.1-8.58,4.39-.86.07-1.8-1-2.74-1.53s-1.64-.68-2.46-1a8.7,8.7,0,0,0-.1,2.43c1.21,5-3.18,9.8-8.19,8.72-1.28-.27-2.34-1.6-3.49-2.45-.59-.44-1.16-.89-1.74-1.34-.34.64-1,1.28-1,1.93,0,4.06-4.19,7.2-8.19,6.91-3-.22-4.13-1.64-4-4.61a8.28,8.28,0,0,0-.6-2.36,9.38,9.38,0,0,0-1.85,1.75c-.86,1.44-1.44,3.16-3.53,3a5.08,5.08,0,0,1-4.52-3.36A8.36,8.36,0,0,1,27.63,62a4.33,4.33,0,0,1,4.94-2,5.87,5.87,0,0,0,1.63.31,23.52,23.52,0,0,0,2.63-.4,11.35,11.35,0,0,0-1-2.27c-2.57-3.55-2.48-6.54.39-9.33,2.24-2.17,4.48-2.36,7.09-.66,1.08.7,2.24,1.29,3.36,1.92Z"/><path class="cls-1" d="M44.59,66.12l.25,0-.13,1a14.14,14.14,0,0,1,.15,2.2l-.07.61-1.23-.14.07-.61a9.37,9.37,0,0,0-.16-2,5.22,5.22,0,0,0-1.45,0,10.19,10.19,0,0,0-1.88.53,10.9,10.9,0,0,0,.57,2l.27.54-1.1.56-.28-.54a10.66,10.66,0,0,1-.58-2l-.18.11-.59-1.08.47-.27q-.77-3.43-1.23-6.44L37.4,60l1.2-.19.11.61c.29,1.87.68,3.92,1.16,6.13A10.49,10.49,0,0,1,41.8,66a6,6,0,0,1,1.52,0c-.2-1.39-.43-2.84-.7-4.33s-.46-2.5-.6-3l-.18-.59,1.2-.33.16.58c.12.38.33,1.41.63,3.11S44.39,64.69,44.59,66.12Z"/><path class="cls-1" d="M47.46,50.8a2.43,2.43,0,0,1,1.93.63,3.7,3.7,0,0,1,.78,1.07,5.11,5.11,0,0,1,.43,1.34c.07.45.12.8.14,1a5,5,0,0,1,0,.61l0,.45L45.6,57.75a9.79,9.79,0,0,0,.81,3.09c.4.84.82,1.24,1.27,1.2.3,0,.6-.42.9-1.18a10.08,10.08,0,0,0,.58-2.49l.07-.61,1.22.12-.07.63c0,.19,0,.4-.08.61s-.09.52-.17.91a8.68,8.68,0,0,1-.33,1.09,8.32,8.32,0,0,1-.47,1,2.51,2.51,0,0,1-.67.8,1.51,1.51,0,0,1-.87.35A2.42,2.42,0,0,1,45.6,62a9.1,9.1,0,0,1-1.25-4.28,10.57,10.57,0,0,1,.41-4.37C45.31,51.75,46.21,50.91,47.46,50.8Zm-1.94,5.66,4-1.39a4.05,4.05,0,0,0-1-2.73,1.2,1.2,0,0,0-1-.31c-.73.07-1.28.62-1.65,1.66A9,9,0,0,0,45.52,56.46Z"/><path class="cls-1" d="M56.4,55.94l.14.61a12,12,0,0,1,.19,2.22,28.16,28.16,0,0,1-.12,2.89q-.4,3.93-1.68,5.39a2,2,0,0,1-1.75.82A2.65,2.65,0,0,1,51.27,67a4.78,4.78,0,0,1-.9-3.63l.06-.62,1.22.1,0,.61a3.6,3.6,0,0,0,.6,2.73,1.42,1.42,0,0,0,1,.49.92.92,0,0,0,.75-.38,6.43,6.43,0,0,0,1.07-2.79,21.87,21.87,0,0,0,.42-3.84,14.21,14.21,0,0,0-.16-2.82l-.14-.59Z"/><path class="cls-1" d="M63.42,51.13a33.94,33.94,0,0,1-2.19,4.72,16.59,16.59,0,0,1-1.61,2.56,8.36,8.36,0,0,0,2,1.81l.53.31L61.5,61.6,61,61.28a8.05,8.05,0,0,1-1.84-1.56,9.21,9.21,0,0,0,.12,1.08l.09.6-1.22.2L58,61a39,39,0,0,1-.2-5.26c0-2.49.08-4.26.19-5.31l.06-.62,1.24.13-.06.62a57.74,57.74,0,0,0-.19,6.56c.31-.47.68-1.09,1.09-1.84s.81-1.55,1.2-2.38.68-1.55.89-2.16l.2-.59,1.17.42Z"/><path class="cls-1" d="M66.25,46.3a.78.78,0,0,1,.6.19,8.2,8.2,0,0,1,1.39,3c.55,1.69,1,3.37,1.4,5a24.18,24.18,0,0,1,.62,3.31l0,.62-1.23.07,0-.62a7.44,7.44,0,0,0-.11-.93,2.38,2.38,0,0,1-.36-.16,1.61,1.61,0,0,0-1-.23,13.25,13.25,0,0,0-2.48.49,6.22,6.22,0,0,0,0,1l.08.61L64,58.87l-.08-.61c0-.18,0-.43,0-.75l-.19.06-.4-1.16.59-.21,0,0a54.13,54.13,0,0,1,.72-5.83,10.41,10.41,0,0,1,1.07-3.74A.82.82,0,0,1,66.25,46.3Zm1.2,9.07a2.91,2.91,0,0,1,1.15.13c-.31-1.32-.68-2.73-1.11-4.22A26.32,26.32,0,0,0,66.38,48a29.82,29.82,0,0,0-.7,3.46c-.24,1.58-.43,3-.54,4.31A14.44,14.44,0,0,1,67.45,55.37Z"/></svg>