<?xml version="1.0" encoding="utf-8"?>
<!-- Generator: Adobe Illustrator 26.0.1, SVG Export Plug-In . SVG Version: 6.00 Build 0)  -->
<svg version="1.1" id="Слой_1" xmlns="http://www.w3.org/2000/svg" xmlns:xlink="http://www.w3.org/1999/xlink" x="0px" y="0px"
	 viewBox="0 0 119.7 43.7" style="enable-background:new 0 0 119.7 43.7;" xml:space="preserve">
<style type="text/css">
	.st0{fill:#010202;}
	.st1{fill:#FCF8F0;}
</style>
<text transform="matrix(1 0 0 1 -1302.6318 56.2254)" style="font-family:'WoodStevensBold'; font-size:63.6756px;">EcoWoo</text>
<g>
	<path class="st0" d="M24.5-56.6c0.6-0.1,1.2-0.2,1.8-0.3c0.6-0.1,1.1-0.1,1.6,0c0.5,0,1,0.2,1.5,0.5c0.6,0.4,1,0.8,1.3,1.2
		s0.5,0.9,0.6,1.4s0.2,1,0.3,1.5c0.1,0.5,0.2,1,0.5,1.5c-0.5,0.5-1,1-1.7,1.4c-0.6,0.4-1.5,0.6-2.5,0.6c-0.5,0-1-0.1-1.6-0.4
		c-0.6-0.2-1.2-0.5-1.8-0.8c-0.6-0.3-1.2-0.6-1.9-0.8c-0.6-0.2-1.2-0.4-1.7-0.4c-0.3,0-0.7,0-1.1,0.1s-0.8,0.2-1.1,0.4
		c-0.3,0.2-0.6,0.4-0.9,0.7c-0.2,0.3-0.4,0.5-0.4,0.9v0.3c0,0.4,0.2,0.8,0.6,1.2s0.8,0.5,1.2,0.5h0.4c0.2,0,0.5-0.1,0.7-0.3
		c0.3-0.2,0.5-0.4,0.8-0.6c0.3-0.2,0.6-0.4,0.9-0.6c0.3-0.2,0.7-0.3,1-0.3c0.5,0,0.9,0.2,1.2,0.7c0.3,0.4,0.5,1,0.7,1.7
		c0.1,0.7,0.2,1.4,0.1,2.2c0,0.8-0.2,1.5-0.4,2.2c-0.2,0.7-0.5,1.2-0.9,1.7c-0.4,0.4-0.9,0.7-1.4,0.7c-0.4,0-0.7-0.1-0.9-0.2
		s-0.4-0.3-0.6-0.5s-0.4-0.3-0.6-0.5c-0.2-0.1-0.4-0.2-0.7-0.2c-0.7,0-1.2,0.2-1.5,0.7c-0.4,0.5-0.5,1-0.5,1.7c0,0.6,0.3,0.9,1,1.1
		c0.7,0.2,1.4,0.3,2.3,0.3s1.8-0.1,2.6-0.3c0.9-0.2,1.5-0.4,2-0.7s0.9-0.7,1.4-1.1c0.5-0.5,1-0.9,1.5-1.4c0.5-0.4,1.1-0.8,1.7-1.1
		s1.2-0.5,2-0.5h0.7c0.6,0,1,0.1,1.3,0.2c0.3,0.2,0.5,0.4,0.7,0.6c0.2,0.2,0.3,0.5,0.4,0.9c0.1,0.3,0.2,0.7,0.4,1
		c-0.3,0.4-0.7,0.9-0.9,1.5c-0.3,0.6-0.6,1.2-0.9,1.9c-0.3,0.7-0.6,1.3-0.8,2c-0.3,0.6-0.6,1.2-0.8,1.6c-0.4,0.6-0.8,1-1.4,1.1
		s-1.2,0.2-1.9,0.1s-1.4-0.2-2.2-0.3C25.8-32,25-32,24.2-32c-1.8,0-3.5,0-5,0s-2.9,0.1-4.3,0.1s-2.9-0.1-4.2,0
		c-1.4,0.1-2.9,0.2-4.5,0.3v-0.6l-0.4,0.6c-0.9,0-1.6-0.2-2.2-0.5C3-32.4,2.7-33,2.7-34c0-0.4,0.1-0.8,0.4-1.3s0.6-1,0.9-1.6
		c0.4-0.5,0.7-1.1,1-1.8s0.4-1.4,0.4-2.2v-8c0-0.7-0.1-1.3-0.2-1.8s-0.3-1-0.5-1.4s-0.3-0.8-0.5-1.1C4.1-53.5,4-53.8,4-54.1
		c0-0.8,0.2-1.3,0.7-1.7s1.1-0.6,1.7-0.7c0.7-0.1,1.4-0.1,2.2-0.1s1.4,0.1,2,0.1h11.7C23.2-56.4,23.9-56.5,24.5-56.6z"/>
	<path class="st0" d="M38.7-42c0.7-0.7,1.6-1.3,2.7-1.7c1.1-0.4,2.3-0.8,3.5-1s2.4-0.5,3.4-0.7c0.2,0.2,0.5,0.4,0.8,0.7
		s0.6,0.7,0.9,1.2c0.3,0.4,0.5,0.9,0.7,1.3c0.2,0.5,0.3,0.9,0.3,1.2c0,0.2-0.2,0.5-0.5,0.7c-0.3,0.3-0.7,0.4-1,0.4h-0.7
		c-0.6,0-1.1-0.1-1.6-0.4c-0.5-0.3-1-0.5-1.4-0.7c-0.3,0.3-0.6,0.6-0.8,0.8s-0.3,0.7-0.3,1.4c0,0.8,0.2,1.5,0.7,2.1s1.1,0.9,1.8,0.9
		c0.3,0,0.6-0.1,0.8-0.2c0.2-0.1,0.4-0.2,0.7-0.4c0.2-0.1,0.5-0.3,0.9-0.4c0.3-0.1,0.8-0.2,1.4-0.2c0,0.2,0.1,0.3,0.1,0.5
		c0,0.1,0.1,0.2,0.1,0.4c0,0.1,0.1,0.3,0.1,0.4c0,0.2,0,0.4,0,0.6c0,0.5-0.2,0.9-0.7,1.3c-0.5,0.4-1.1,0.7-1.7,1
		c-0.7,0.3-1.4,0.5-2.2,0.7s-1.4,0.3-2,0.3H44c-1.9,0-3.5-0.5-4.6-1.6s-1.7-2.5-1.7-4.3v-1.5C37.6-40.3,38-41.3,38.7-42z"/>
	<path class="st0" d="M62.3-31.6c-1,0-2-0.2-3.1-0.5c-1.1-0.3-2.1-0.8-2.9-1.3c-0.9-0.6-1.6-1.2-2.2-2c-0.6-0.8-0.9-1.6-0.9-2.4
		v-1.8c0-0.7,0.3-1.4,0.8-2s1.2-1.3,1.9-1.9c0.8-0.6,1.6-1,2.4-1.4s1.6-0.6,2.2-0.6c1.3,0,2.5,0.1,3.7,0.2c1.2,0.2,2.3,0.4,3.3,0.9
		c1,0.4,1.7,1,2.3,1.8c0.6,0.8,0.9,1.8,0.9,3v0.3c0,0.9-0.3,1.8-0.8,2.7s-1.2,1.7-2,2.5c-0.8,0.7-1.7,1.3-2.7,1.8
		C64.3-31.8,63.3-31.6,62.3-31.6z M60.1-39.6c0,0.3,0.1,0.8,0.3,1.3s0.4,1,0.7,1.5s0.6,0.9,1,1.3s0.7,0.6,0.9,0.6s0.4,0,0.4,0
		c0.1,0,0.1,0,0.2-0.1c0.1,0,0.1-0.1,0.3-0.1c0.1,0,0.3-0.1,0.5-0.2c0-0.7-0.1-1.5-0.3-2.3c-0.2-0.8-0.5-1.6-0.8-2.2
		C63-40.5,62.6-41,62-41.5c-0.5-0.5-1.2-0.7-1.9-0.7V-39.6z"/>
	<path class="st0" d="M87.8-55.2c0.2-0.3,0.5-0.5,0.9-0.7c0.3-0.2,0.7-0.3,1.1-0.4s0.8-0.1,1.1-0.1l6.8,0.1l1.4,1.1
		c0,0.3-0.1,0.5-0.1,0.7s-0.1,0.4-0.1,0.5c0,0.2-0.1,0.3-0.1,0.5s0,0.4,0,0.7c0,0.1,0.1,0.4,0.3,0.9c0.2,0.5,0.5,1.1,0.9,1.7
		c0.4,0.6,0.8,1.2,1.2,1.7c0.4,0.5,0.9,0.8,1.3,0.8c0.2-0.8,0.5-1.5,0.8-2.2c0.4-0.7,0.5-1.3,0.5-1.9c0-0.3-0.1-0.5-0.2-0.6
		s-0.2-0.3-0.3-0.4c-0.1-0.2-0.2-0.3-0.3-0.6s-0.2-0.6-0.2-1s0.1-0.7,0.3-0.9c0.2-0.2,0.4-0.5,0.7-0.8l3.8-0.4h4.5
		c0.5,0,0.9,0,1.2,0.1c0.3,0.1,0.6,0.2,0.8,0.3c0.2,0.1,0.4,0.3,0.6,0.4c0.2,0.2,0.4,0.3,0.7,0.5c-0.5,1-0.9,1.8-1.2,2.2
		c-0.3,0.5-0.6,0.9-0.9,1.2s-0.6,0.7-0.9,1s-0.7,0.9-1.2,1.6c-0.2,0.3-0.4,0.8-0.6,1.4c-0.2,0.6-0.5,1.3-0.8,2s-0.5,1.4-0.8,2.1
		c-0.3,0.7-0.5,1.2-0.6,1.6c-0.5,1.3-0.9,2.5-1.4,3.8c-0.4,1.3-0.9,2.5-1.4,3.6c-0.4,0.7-0.7,1.3-1.1,1.7s-0.8,0.7-1.3,0.9
		s-1.1,0.3-1.8,0.4c-0.7,0-1.6,0.1-2.7,0.1c-0.6,0-1.1-0.4-1.8-1.3c-0.6-0.9-1.3-1.9-1.9-3c-0.7-1.1-1.3-2.2-2-3.3s-1.4-1.8-2-2.3
		c-0.5,0.3-0.9,0.8-1.3,1.4c-0.4,0.6-0.8,1.3-1.2,2c-0.4,0.7-0.8,1.5-1.2,2.3c-0.4,0.8-0.9,1.5-1.3,2.1c-0.5,0.6-1,1.1-1.6,1.5
		c-0.6,0.4-1.2,0.6-1.9,0.6h-2c-0.7,0-1.3-0.2-1.7-0.5c-0.4-0.4-0.8-0.8-1.1-1.3c-0.3-0.5-0.5-1.1-0.7-1.7s-0.4-1.2-0.6-1.7
		c-0.4-0.9-0.8-1.9-1.4-2.9c-0.6-1.1-1.1-2.1-1.5-3c-0.5-1-1-2-1.4-3.1s-0.9-2.1-1.4-3c-0.3-0.5-0.7-0.9-1.1-1.3
		c-0.5-0.4-0.9-0.8-1.4-1.1c-0.5-0.4-0.9-0.7-1.2-1.1c-0.3-0.4-0.5-0.7-0.5-1.1c0-0.7,0.3-1.2,0.9-1.6c0.6-0.4,1.3-0.7,2.2-0.9
		c0.9-0.2,1.9-0.3,3.1-0.4c1.1,0,2.3-0.1,3.5,0c1.2,0,2.3,0.1,3.5,0.1c1.1,0.1,2.1,0.1,2.9,0.1l1.1,2.1l-1.1,2.1
		c0.1,0.2,0.3,0.5,0.6,0.9c0.3,0.4,0.5,0.9,0.9,1.4c0.3,0.5,0.6,0.9,0.9,1.2c0.3,0.4,0.6,0.5,0.8,0.5c0.4,0,0.7-0.2,1-0.7
		s0.5-1.1,0.6-1.7c0.2-0.6,0.3-1.3,0.3-1.9c0.1-0.6,0.1-1.1,0.1-1.4v-0.7C87.4-54.6,87.6-54.9,87.8-55.2z"/>
	<path class="st0" d="M119.7-31.6c-1,0-2-0.2-3.1-0.5c-1.1-0.3-2.1-0.8-2.9-1.3c-0.9-0.6-1.6-1.2-2.2-2s-0.9-1.6-0.9-2.4v-1.8
		c0-0.7,0.3-1.4,0.8-2s1.2-1.3,1.9-1.9c0.8-0.6,1.6-1,2.4-1.4s1.6-0.6,2.2-0.6c1.3,0,2.5,0.1,3.7,0.2c1.2,0.2,2.3,0.4,3.3,0.9
		c1,0.4,1.7,1,2.3,1.8c0.6,0.8,0.9,1.8,0.9,3v0.3c0,0.9-0.3,1.8-0.8,2.7s-1.2,1.7-2,2.5c-0.8,0.7-1.7,1.3-2.7,1.8
		C121.8-31.8,120.7-31.6,119.7-31.6z M117.5-39.6c0,0.3,0.1,0.8,0.3,1.3c0.2,0.5,0.4,1,0.7,1.5c0.3,0.5,0.6,0.9,1,1.3
		s0.7,0.6,0.9,0.6c0.2,0,0.4,0,0.4,0c0.1,0,0.1,0,0.2-0.1c0.1,0,0.1-0.1,0.3-0.1c0.1,0,0.3-0.1,0.5-0.2c0-0.7-0.1-1.5-0.3-2.3
		c-0.2-0.8-0.5-1.6-0.8-2.2c-0.4-0.7-0.8-1.2-1.4-1.7c-0.5-0.5-1.2-0.7-1.9-0.7v2.6H117.5z"/>
	<path class="st0" d="M138.9-31.6c-1,0-2-0.2-3.1-0.5c-1.1-0.3-2.1-0.8-2.9-1.3c-0.9-0.6-1.6-1.2-2.2-2c-0.6-0.8-0.9-1.6-0.9-2.4
		v-1.8c0-0.7,0.3-1.4,0.8-2s1.2-1.3,1.9-1.9c0.8-0.6,1.6-1,2.4-1.4s1.6-0.6,2.2-0.6c1.3,0,2.5,0.1,3.7,0.2c1.2,0.2,2.3,0.4,3.3,0.9
		c1,0.4,1.7,1,2.3,1.8s0.9,1.8,0.9,3v0.3c0,0.9-0.3,1.8-0.8,2.7s-1.2,1.7-2,2.5c-0.8,0.7-1.7,1.3-2.7,1.8
		C140.9-31.8,139.9-31.6,138.9-31.6z M136.7-39.6c0,0.3,0.1,0.8,0.3,1.3s0.4,1,0.7,1.5s0.6,0.9,1,1.3s0.7,0.6,0.9,0.6s0.4,0,0.4,0
		c0.1,0,0.1,0,0.2-0.1c0.1,0,0.1-0.1,0.3-0.1c0.1,0,0.3-0.1,0.5-0.2c0-0.7-0.1-1.5-0.3-2.3s-0.5-1.6-0.8-2.2
		c-0.4-0.7-0.8-1.2-1.4-1.7c-0.5-0.5-1.2-0.7-1.9-0.7v2.6H136.7z"/>
</g>
<text transform="matrix(1 0 0 1 -1302.6318 107.3618)" style="font-family:'WoodStevensBold'; font-size:63.6756px;">ecowoo</text>
<text transform="matrix(1 0 0 1 -1302.6318 206.3569)" style="font-family:'WoodLand'; font-size:63.6756px;">EcoWoo</text>
<text transform="matrix(1 0 0 1 -1302.6318 257.4932)" style="font-family:'WoodLand'; font-size:63.6756px;">ecowoo</text>
<text transform="matrix(1 0 0 1 -980.8942 122.0475)" style="font-family:'SquareWood-7'; font-size:63.6756px;">EcoWoo</text>
<text transform="matrix(1 0 0 1 -983.3137 446.744)" style="font-family:'HalloweenPlaque'; font-size:63.6756px;">EcoWoo</text>
<g>
	<path d="M32.7,234.3l-7.2-0.1l0.1,22.1l0,0v0.6v1.6l0.4-1.6h2.9v3.9l-3.3-0.1v1.7l7.1,0.1l-0.1,4.5l-4.8-0.4v-1.3l-0.2,0.7l-4-0.3
		l0.3-1.9c-0.1,0.5-0.3,1-0.4,1.4s-0.2,0.7-0.3,1l-1.3-0.1L21,234c0-0.6-0.1-1.1-0.3-1.6c-0.2-0.5-0.7-1.1-1.5-1.8l4.1-0.3
		c0,0.3,0.1,0.5,0.2,0.7s0.1,0.5,0.2,0.9l0.2-2.2l5.9-0.4l0.1,1.7l0.1-1.2l3-0.2L32.7,234.3z M23.4,248.5l0.2,5.1l-0.1-14.1
		L23.4,248.5z"/>
	<path d="M39.8,233.3c-0.6,0-1,0.5-1.4,1.6c-0.4,1-0.6,2.4-0.8,4.1c-0.2,1.7-0.3,3.5-0.4,5.5c-0.1,2-0.1,4-0.1,5.9
		c0,2,0,3.8,0.1,5.3c0,1.6,0.1,2.8,0.1,3.8c0,0.3,0,0.5,0,0.7c0.1,1.1,0.4,1.8,0.9,2.4s1,0.7,1.5,0.5s0.7-0.7,0.6-1.7
		c-0.1-1-0.7-2.4-1.8-4.3l2.8-0.1l0.2,1.4l0.2-1.1c1.1,0,2.1,0,2.9,0l0.2,1.2l0.1-1.2H45c0.7,0,1.4-0.1,2,0
		c-0.3,0.9-0.6,1.6-0.7,2.1c-0.1,0.4-0.2,0.8-0.3,1.1c-0.1,0.3-0.2,0.6-0.3,1c-0.3,1.3-0.7,2.4-1.4,3.2s-1.4,1.5-2.3,1.9l-0.4-1.8
		l0.2,1.4c-1.3,0.5-2.7,0.5-4.1,0l-0.1-1.5l-0.2,1.8c-0.9-0.4-1.7-1-2.4-1.8c-0.9-1.2-1.3-2.7-1.3-4.5c0-1.1-0.1-2.7-0.2-4.6
		c-0.1-2.8-0.2-5.9-0.3-9.4s0.1-6.5,0.4-9.3c0.3-2.8,1-4.7,2-5.6c0.6-0.5,1.2-0.9,1.8-1.2l0.2,1.3l-0.1-1.7c1.1-0.5,2.4-0.6,3.8-0.1
		v1.1l0.1-0.7c1.7,0.6,2.9,2.2,3.7,4.7c0.5,0.9,0.9,1.7,1.2,2.4c0.2,0.5,0.5,1.1,0.8,1.7l-1.6,0.2l-0.3-1.4l0.2,2.1
		c-0.5,0-1,0.1-1.5,0.1s-0.9,0-1.2,0v-1.6l-0.1,0.8l0,0c-0.5,0.1-1,0.1-1.6,0.1c0.3-0.8,0.5-1.4,0.5-2s-0.1-1.3-0.3-2.2
		C40.7,233.8,40.3,233.3,39.8,233.3z M35.1,249l0.2,5.1L35.2,240L35.1,249z"/>
	<path d="M57.9,261.9c0,1.4-0.5,2.5-1.4,3.5c-0.4,0.4-0.8,0.7-1.3,0.9l-0.3-3.3c0,0.9,0,1.7,0,2.2s0,1.1,0,1.6
		c-0.6,0.2-1.1,0.3-1.8,0.3c-0.8,0-1.5-0.2-2.2-0.5l-0.4-2.9c0.1,0.9,0.1,1.7,0,2.4c-0.1-0.1-0.3-0.2-0.5-0.4
		c-0.2-0.1-0.3-0.3-0.5-0.4c-0.9-1-1.4-2.1-1.4-3.5l-1-27.6c0-0.9,0.2-1.7,0.7-2.4s1.1-1.2,1.9-1.5l0.1,1.5l0.3-2.6
		c1.7-0.7,3.3-0.8,5-0.4l0.1,3.5v-2.6c1.8,0.6,3.1,2.1,3.6,4.5L57.9,261.9z M49.4,249.4l0.2,5.1v-14.1L49.4,249.4z M53,233.1
		c-0.3,0-0.5,0.1-0.8,0.3s-0.3,0.4-0.3,0.7v27.8c0,0.3,0.1,0.5,0.3,0.7s0.5,0.3,0.8,0.3s0.5-0.1,0.7-0.3c0.2-0.2,0.3-0.4,0.3-0.7
		v-27.8c0-0.3-0.1-0.5-0.3-0.7S53.2,233.1,53,233.1z M56,252.3l0.1,2.3v-6.4L56,252.3z"/>
	<path d="M75,261.6c0,0.7,0.1,1.3,0.3,1.9c0.2,0.6,0.8,1.2,1.7,2l-2.4,0.7l-0.1-0.8l-0.1,0.9l-1.7,0.5l-0.2-1v0.6l-2.5,0.1l-2.1-4.8
		l-0.3-1.4l-0.1,0.9l-2.3,6l-1.2-0.5l0.3-1.5l-0.8,2l-2.3-0.8c0.1-0.2,0.2-0.5,0.2-0.7c0.1-0.2,0.2-0.5,0.3-0.8l-0.9,1.4l-1.5-0.5
		c0.6-0.4,1-1.6,1.2-3.5c0.3-1.9,0.4-4.2,0.5-6.9c0-2.7,0-5.4,0-8.2c-0.1-2.8-0.1-5.2-0.2-7.3c0-0.2,0-0.3,0-0.5c0-0.7,0-1.2,0-1.6
		c0-0.6,0-1.1-0.1-1.5s-0.2-0.8-0.5-1.2s-0.7-1-1.3-1.8l2.1-0.2l0.2,1l0.1-0.8l3.1-0.2l0.1,0.7V233h1.3c-0.2,0.4-0.3,0.7-0.5,1
		c-0.3,0.7-0.5,1.2-0.7,1.6s-0.2,0.7-0.2,1.1s0,1,0,1.7c0,0.4,0,0.8,0,1.3l0.3,18.4l2.6-3.8l2.7,3.4L69.9,235c0-0.7-0.1-1.3-0.1-1.7
		c-0.1-0.4-0.2-0.8-0.3-1s-0.4-0.7-0.8-1.1c-0.2-0.2-0.4-0.5-0.7-0.9l2.1-0.2l0.2,1l0.1-0.8l3.1-0.2l0.1,0.7V230h1.3
		c-0.3,0.7-0.5,1.1-0.7,1.4c-0.2,0.3-0.3,0.5-0.4,0.8c-0.1,0.2-0.1,0.5-0.1,0.8c0,0.4,0,0.9,0,1.6L75,261.6z M62.8,246.6l-0.3-5.1
		l0.4,14.1L62.8,246.6z M72.2,245.5l-0.3-5.1l0.4,14.1L72.2,245.5z"/>
	<path d="M87.8,261.9c0,1.4-0.5,2.5-1.4,3.5c-0.4,0.4-0.8,0.7-1.3,0.9l-0.3-3.3c0,0.9,0,1.7,0,2.2s0,1.1,0,1.6
		c-0.6,0.2-1.1,0.3-1.8,0.3c-0.8,0-1.5-0.2-2.2-0.5l-0.4-2.9c0.1,0.9,0.1,1.7,0,2.4c-0.1-0.1-0.3-0.2-0.5-0.4
		c-0.2-0.1-0.3-0.3-0.5-0.4c-0.9-1-1.4-2.1-1.4-3.5l-1-27.6c0-0.9,0.2-1.7,0.7-2.4s1.1-1.2,1.9-1.5l0.1,1.5l0.3-2.6
		c1.7-0.7,3.3-0.8,5-0.4l0.1,3.5v-2.6c1.8,0.6,3.1,2.1,3.6,4.5L87.8,261.9z M79.3,249.4l0.2,5.1v-14.1L79.3,249.4z M82.9,233.1
		c-0.3,0-0.5,0.1-0.8,0.3s-0.3,0.4-0.3,0.7v27.8c0,0.3,0.1,0.5,0.3,0.7c0.2,0.2,0.5,0.3,0.8,0.3s0.5-0.1,0.7-0.3
		c0.2-0.2,0.3-0.4,0.3-0.7v-27.8c0-0.3-0.1-0.5-0.3-0.7C83.4,233.2,83.2,233.1,82.9,233.1z M85.9,252.3l0.1,2.3v-6.4L85.9,252.3z"/>
	<path d="M99.6,261.9c0,1.4-0.5,2.5-1.4,3.5c-0.4,0.4-0.8,0.7-1.3,0.9l-0.3-3.3c0,0.9,0,1.7,0,2.2s0,1.1,0,1.6
		c-0.6,0.2-1.1,0.3-1.8,0.3c-0.8,0-1.5-0.2-2.2-0.5l-0.4-2.9c0.1,0.9,0.1,1.7,0,2.4c-0.1-0.1-0.3-0.2-0.5-0.4
		c-0.2-0.1-0.3-0.3-0.5-0.4c-0.9-1-1.4-2.1-1.4-3.5l-1-27.6c0-0.9,0.2-1.7,0.7-2.4s1.1-1.2,1.9-1.5l0.1,1.5l0.3-2.6
		c1.7-0.7,3.3-0.8,5-0.4l0.1,3.5v-2.6c1.8,0.6,3.1,2.1,3.6,4.5L99.6,261.9z M91.1,249.4l0.2,5.1v-14.1L91.1,249.4z M94.7,233.1
		c-0.3,0-0.5,0.1-0.8,0.3s-0.3,0.4-0.3,0.7v27.8c0,0.3,0.1,0.5,0.3,0.7c0.2,0.2,0.5,0.3,0.8,0.3s0.5-0.1,0.7-0.3
		c0.2-0.2,0.3-0.4,0.3-0.7v-27.8c0-0.3-0.1-0.5-0.3-0.7C95.2,233.2,95,233.1,94.7,233.1z M97.7,252.3l0.1,2.3v-6.4L97.7,252.3z"/>
</g>
<text transform="matrix(1 0 0 1 -983.3136 56.2254)" style="font-family:'ArialMT'; font-size:63.6756px;">EcoWoo</text>
<g>
	<text transform="matrix(1 0 0 1 -974.1632 222.4219)" style="font-family:'DONT-FLICK-IN-THE-WOOD'; font-size:63.6756px;">ECOWOOO</text>
</g>
<g>
	<g>
		<path d="M15.5,337.5c0.1,0.2,0.2,0.4,0.2,0.6s0,0.4,0,0.6s0,0.3,0,0.4s0,0.3,0,0.4l0,0l-0.5,1c-0.2,0.1-0.3,0.2-0.5,0.3
			c-0.1,0-0.3,0.1-0.5,0.1c-0.5,0-0.8-0.1-0.9-0.4s-0.2-0.5-0.2-0.8c0,0-0.1,0.1-0.1,0.2l0,0c0,0.1,0.1,0.4,0.1,0.8v0.1L13,341
			c-0.1,0.2-0.2,0.2-0.3,0.2c-0.2,0-0.5-0.1-0.7-0.1h-0.2h-0.1c0,0-0.1,0-0.1,0.1c-0.3-0.1-0.4-0.1-0.4-0.1c-0.1,0-0.2,0.1-0.3,0.2
			s-0.3,0.2-0.5,0.2l0,0c-0.1,0-0.2,0-0.3,0c-0.3,0-0.6-0.1-0.9-0.2c-0.3-0.1-0.6-0.2-0.9-0.2c-0.3,0-0.5,0-0.8,0.1
			c-0.2,0.1-0.5,0.1-0.7,0.1l-1-0.1c-0.1,0-0.1,0-0.2,0s-0.1,0-0.2,0s-0.1,0-0.1-0.1l-0.5-0.4c-0.1,0-0.2-0.1-0.3-0.2
			c-0.1-0.1-0.2-0.3-0.2-0.5c-0.1-0.2-0.1-0.3-0.2-0.5c0-0.2,0-0.3,0-0.4l0.1-0.5c0-0.1,0-0.1,0-0.1s0,0,0-0.1l0.1-0.2
			c-0.1-0.4-0.2-0.9-0.2-1.4s0-1.3,0-2.3l0,0l0,0v-0.1l0,0c0-1,0.1-1.9,0.1-2.9s0.1-1.9,0.1-2.8C4,328.5,4,328.3,4,328v-0.6l0,0
			c0-0.1,0-0.1,0-0.1c0-0.1,0-0.2,0-0.3c0-0.1,0-0.2,0-0.3l0.1-2c0-0.2,0-0.3,0-0.5s0-0.3,0.1-0.5v-0.4c0-0.3-0.1-0.7-0.1-1
			S4,321.6,4,321.1s-0.1-1-0.1-1.7s0-1.5,0-2.6c0-0.3,0-0.4,0-0.4c0-0.5,0-1.1,0-1.6s0-1,0-1.6c0-1.7,0-3.4,0.2-5.1
			c0.1-1.7,0.1-3.4,0.1-5.1c0-0.8,0-1.5,0-2.2s0-1.5,0.1-2.2l-0.1-0.1c0,0,0.1-0.1,0.1-0.2C4.1,295.1,4,292.1,4,289s0-6.1,0-9.2
			v-1.6c0-0.1,0-0.2,0-0.3v-0.5l0.5-1l0.8-0.5c0.1-0.1,0.1-0.1,0.2-0.1s0.2,0,0.3-0.1h0.3v-0.1l0.5,0.1v-0.1c0,0,0,0,0-0.1h0.2
			c0.1-0.1,0.2-0.1,0.4-0.1c0.1,0,0.1,0,0.2,0c0,0,0.1,0,0.2,0h0.2c0.2-0.1,0.4-0.1,0.6-0.1s0.4,0,0.7-0.1c0.1,0,0.1,0,0.2,0
			c0.1,0,0.2,0,0.2,0c0.1,0,0.3-0.1,0.4-0.3c0,0.1,0,0.1,0,0.1v0.1V275c0.1,0,0.1,0.1,0.1,0.1h0.1c0.1,0,0.2-0.1,0.2-0.2
			c0,0,0.1,0.1,0.2,0.1c0.1,0,0.2,0,0.4-0.1l0.3-0.1H12c0.3,0.1,0.6,0.3,1,0.5l0.3,0.3c0.3,0.3,0.5,0.6,0.6,0.9s0.1,0.6,0.1,0.9v0.7
			h-0.1h-0.1c0,0,0,0.2-0.1,0.4c-0.1,0.2-0.2,0.4-0.3,0.5l-0.3,0.3c-0.1,0.1-0.2,0.2-0.3,0.2s-0.2,0-0.4,0c-0.4,0-0.6-0.1-0.8-0.4
			c-0.2-0.2-0.3-0.5-0.3-0.8V278c0,0.1,0,0.2,0,0.4c0,0.2,0,0.4,0,0.6s0,0.2,0,0.3l-0.2,0.1c0,0.2-0.1,0.2-0.2,0.2
			c-0.1,0-0.2,0-0.3-0.1s-0.2-0.1-0.3-0.1s-0.1,0.1-0.2,0.1l-0.3-0.1c-0.1,0-0.2,0.1-0.2,0.2s-0.2,0.2-0.4,0.2H9.1
			c-0.1,0-0.1,0-0.2,0c-0.2,0-0.4,0-0.6-0.1v4.4c0,0.3,0,0.7,0,1s0,0.7,0,1v1.9c0,1.6,0,3,0,4.3s0.1,2.6,0.1,3.9s0.1,2.6,0.1,3.9
			s0,2.8,0,4.4c0,1,0,1.9,0,2.9s0,2,0,3c0,0.8,0,1.5,0,2.2s0.1,1.4,0.2,2.1c-0.1,0.1-0.1,0.2-0.2,0.4c0,0.2-0.1,0.3-0.1,0.5l0.2-0.2
			c0,0.6-0.1,1.1-0.1,1.7s0,1.2,0,1.7c0,0.4,0,0.8,0.1,1.2c0,0.4,0.1,0.8,0.1,1.1c0,0.4,0,0.7,0,1s0,0.6,0,1.1c0,0.4,0,0.9,0.1,1.3
			s0.2,0.6,0.3,0.6s0.2-0.1,0.4-0.3c0,0.1,0,0.1,0,0.2s0,0.1,0,0.1V325c0.1,0,0.1,0.1,0.1,0.1h0.1c0.1,0,0.2-0.1,0.2-0.2
			c0,0,0.1,0,0.2,0c0.1,0,0.2,0,0.3-0.1l0.1-0.1H11l0,0c0,0,0,0,0.1,0h0.1c0.2,0,0.5,0.1,0.7,0.2s0.4,0.3,0.6,0.4l0.2,0.2l0.5,0.8
			c0.1,0.3,0.2,0.5,0.2,0.8l-0.1,0.9h-0.1l-0.4,0.6c-0.2,0.3-0.3,0.5-0.5,0.6c-0.2,0.2-0.3,0.2-0.5,0.2c-0.4,0-0.7-0.1-0.9-0.3
			c-0.2-0.2-0.3-0.5-0.4-0.8l0,0c0,0.1,0,0.1,0,0.2c0,0.2,0,0.4,0,0.6s0,0.2,0,0.3h-0.1c-0.1,0.2-0.2,0.2-0.2,0.2
			c-0.1,0-0.2,0-0.3-0.1s-0.2-0.1-0.3-0.1s-0.2,0-0.2,0.1c-0.1-0.1-0.2-0.1-0.3-0.1L9,330.1c0,0.5,0,1,0,1.5s0,1,0,1.5
			c0,0.6,0,1.1,0,1.6s-0.1,1-0.2,1.5v0.5l1-0.1c0.1,0,0.3,0,0.4,0c0.1,0,0.2,0,0.3,0c0.2,0,0.4-0.1,0.5-0.2c0,0.1,0.1,0.1,0.1,0.2
			v0.1v-0.2c0.1,0,0.1,0.1,0.2,0.1c0.1,0,0.1,0,0.2,0c0.1,0,0.2-0.1,0.3-0.2c0,0,0.1,0,0.2,0s0.2,0,0.2,0c0.1,0,0.2,0,0.2-0.1
			l0.3-0.1c0,0,0.1,0,0.2,0h0.7c0.2,0,0.5,0.1,0.8,0.3c0.3,0.2,0.5,0.4,0.7,0.5L15.5,337.5z M4.2,335.3c0-0.1-0.1-0.2-0.1-0.4
			c0-0.1-0.1-0.3-0.1-0.4c0.1,0.2,0.1,0.3,0.1,0.4s0,0.3,0.1,0.5V335.3z M8.7,336.2H8.5v0.1L8.7,336.2z M10.2,329.8
			c0,0.1,0,0.1-0.1,0.1L10.2,329.8L10.2,329.8z M10.8,279.8L10.8,279.8c0,0.1,0,0.1,0,0.1V279.8L10.8,279.8z M12.8,329l-0.2-0.1v0.1
			H12.8z M13.4,278.6c0.1-0.1,0.2-0.1,0.3-0.1h-0.2L13.4,278.6z"/>
		<path d="M17.8,336c-0.1-0.3-0.1-0.5-0.2-0.6v-0.1c0-1,0-1.8,0-2.5s0-1.2,0.1-1.6c0-0.5,0-0.8,0-1.1v1.9c0-0.9,0-2.4,0-4.4
			s0-4.7,0.1-8.1c0-3.4,0.1-7.7,0.2-12.7c0.1-5.1,0.1-11.2,0.2-18.3c0-0.9,0-1.7,0-2.5s0-1.7,0-2.5v-2.7c0.1-0.5,0.1-1,0.2-1.5
			s0.2-1.1,0.5-1.7l0.4-0.6l0.5-0.6c0.3-0.4,0.8-0.7,1.3-1l0.9-0.3c0.1,0,0.2,0,0.3,0c0.1,0,0.2,0,0.3,0h0.2
			c0.1-0.1,0.2-0.1,0.5-0.1s0.4,0,0.5,0c0.4,0,0.8,0.1,1.2,0.2c0.4,0.1,0.8,0.3,1.3,0.5l0.8,0.7c0.1,0.1,0.1,0.2,0.2,0.2l0.6,1.4
			c0,0.2,0.1,0.3,0.1,0.5c0,0.1,0,0.3,0,0.5l-0.1,0.8v0.1c0,0,0,0,0,0.1l-0.3,0.5l-0.8,0.6c-0.3,0.1-0.5,0.1-0.9,0.1
			c-0.2,0-0.4,0-0.7-0.1c-0.2-0.1-0.5-0.2-0.7-0.4l-0.4-0.4l-0.3-0.6c0,0-0.1-0.1-0.3-0.2H23c-0.1,0-0.2,0.1-0.3,0.2l-0.2,0.2
			c-0.1,0.2-0.1,0.4-0.2,0.7c0,0.3-0.1,0.6-0.1,0.9v0.8c0-0.1,0-0.1,0.1-0.1v21.2c0,1.8,0,3.5-0.1,5.3c0,1.8-0.1,3.6-0.1,5.6
			c0,1.9-0.1,4.1-0.1,6.3c0,2.3-0.1,4.8-0.1,7.6c0,0.8,0,1.7,0.1,2.5c0,0.8,0.1,1.6,0.2,2.4c-0.1,0.5-0.1,1-0.1,1.5s0,1,0,1.5v0.2
			l0,0v0.1c0.1,0.2,0.2,0.2,0.2,0.2l0.2-0.4c0-0.1,0-0.2,0-0.4c0-0.2,0.1-0.4,0.1-0.5v-1.1l0.1-0.8c0.1-0.1,0.1-0.2,0.2-0.5
			s0.2-0.5,0.4-0.7l0.2-0.3c0.2-0.2,0.4-0.4,0.7-0.5c0.3-0.1,0.6-0.2,0.8-0.3h1c0.2,0,0.3,0,0.4,0.1s0.2,0.1,0.3,0.1l0.6,0.5
			c0.2,0.2,0.4,0.5,0.6,0.9s0.3,0.7,0.3,1.1v0.8v0.6c0,0.2-0.1,0.4-0.1,0.6s-0.1,0.4-0.1,0.6l-0.2,0.5c-0.1,0.3-0.2,0.5-0.2,0.6
			l-0.5,1c-0.3,0.7-0.7,1.2-1.2,1.5s-1,0.5-1.4,0.5l-1,0.5c-0.1,0.1-0.2,0.1-0.2,0.1c-0.1,0-0.2,0-0.4,0.1h-0.2
			c-0.4,0-0.8,0-1.3-0.1s-1-0.2-1.6-0.5s-1-0.6-1.4-1.1c-0.5-0.5-0.8-1.1-1-1.9l-0.2-0.5c0-0.1,0-0.2,0-0.3c0-0.1,0-0.2,0-0.3v-0.9
			c0.1,0.1,0.1,0.2,0.1,0.3c0,0.1,0,0.1,0.1,0.2v0.2c0,0.1,0,0.1,0,0.1V336H17.8z M22.3,281.8L22.3,281.8L22.3,281.8L22.3,281.8z
			 M27.6,333.7L27.6,333.7L27.6,333.7L27.6,333.7z M27.7,337.5c0.1-0.1,0.2-0.1,0.2-0.1l-0.2-0.1V337.5z"/>
		<path d="M45.4,333.3c0,0.2,0,0.4,0,0.8v1c0,0.1,0,0.2,0,0.4c0,0.1,0,0.2-0.1,0.4l-0.1,0.6c-0.1,0.4-0.2,0.8-0.5,1.3s-0.6,1-1,1.4
			c-0.4,0.5-0.9,0.8-1.4,1.2c-0.5,0.3-1.1,0.5-1.7,0.5c-0.4,0-0.8-0.1-1-0.2c-0.1,0-0.2,0-0.2,0c-0.1,0-0.2,0-0.2,0.1H38
			c-0.4,0-0.7,0-1.1,0c-0.4,0-0.8-0.1-1.1-0.1l-0.5-0.1l-1.2-0.6l-0.7-0.5c-0.3-0.3-0.6-0.6-0.9-0.9c-0.3-0.4-0.6-0.8-0.7-1.2
			l-0.3-0.6c-0.2-0.4-0.3-0.9-0.3-1.4l-0.1-1.2v-1.9c0,0,0-0.1,0-0.3h-0.2l0.2-5.5c0,0.2,0,0.3,0,0.4c0-0.1,0-0.1,0-0.2l-0.1-0.5
			c-0.1,0.2-0.1,0.2-0.2,0.2v-2.7c-0.1-1-0.1-2.1-0.1-3.4c0-2,0-4,0-6s0.1-4,0.2-6c0-1.5,0-2.9,0-4.2c0-1.3,0-2.6,0-3.9s0-2.6,0-3.9
			s0.1-2.7,0.1-4.2l0.1-1.7c0-0.7,0-1.3,0-2s0-1.3,0-2v-4.8l0.1-1.5c0.1-0.7,0.4-1.4,0.8-2.1c0.4-0.7,0.8-1.2,1.3-1.8
			c0.5-0.5,1.1-0.9,1.8-1.2c0.7-0.3,1.5-0.4,2.3-0.4c1.3,0,2.4,0.2,3.2,0.7s1.5,1,2,1.7s0.9,1.4,1.1,2.2c0.2,0.8,0.4,1.5,0.4,2.2
			v1.2c0,1.9,0.1,3.8,0.1,5.5c0,1.8,0.1,3.5,0.2,5.3c0.1,1.8,0.1,3.5,0.2,5.3c0,1.8,0.1,3.6,0.2,5.5c0.1,1.8,0.1,3.6,0,5.5
			c0,1.9,0.1,3.8,0.3,5.5c-0.1,0.1-0.1,0.2-0.2,0.4c0,0.2-0.1,0.4-0.1,0.5l0.2-0.3c0,0.5,0,1.1,0,1.6s0,1,0,1.6
			c0,2.5,0.1,4.9,0.3,7.2C45.3,328.7,45.4,331,45.4,333.3z M31.9,338.1l0.4,0.4c0,0,0-0.1-0.1-0.1L31.9,338.1z M38.9,281.8
			c0,0,0-0.3-0.1-0.7c0-0.4-0.1-0.9-0.2-1.3c-0.1-0.3-0.2-0.6-0.4-0.8c-0.1-0.2-0.4-0.3-0.6-0.3h-0.1c-0.2,0-0.3,0-0.5,0
			s-0.4,0.1-0.5,0.1l-0.5,0.6c-0.2,0.2-0.4,0.6-0.6,1.2l-0.1,0.4c0,0.1,0,0.1,0,0.2s0,0.1,0,0.2l-0.1,0.9c0,0.3,0,0.5,0,0.7
			s0,0.5,0,0.7l0,0c0,0.2,0,0.3,0,0.5s0,0.4,0,0.5v0.3c0,0.1,0,0.3,0,0.6c0-0.1,0-0.1,0-0.2c0,0,0-0.1,0-0.2v4c0,0,0,0.1,0,0.2v0.3
			c0.1-0.2,0.1-0.2,0.2-0.2v2.8c0.1,0.6,0.1,1.1,0.1,1.7s0,1.2,0,1.8c0,2.7,0,5.2-0.1,7.8c0,2.5-0.1,5-0.1,7.4c0,2.5-0.1,5-0.1,7.5
			s0,5.1,0,7.8v7.9c0,0.1,0,0.2,0,0.3c0,0.1,0,0.2,0,0.3l0.3,0.6c0.4,0.8,1.2,1.2,2.5,1.3h0.5v0.1c0,0.1,0,0.2,0.1,0.5v-0.6h0.1
			c0.4,0,0.7-0.1,0.9-0.2s0.4-0.3,0.5-0.5s0.2-0.4,0.3-0.7c0.1-0.3,0.1-0.5,0.2-0.9V334c-0.1-4-0.2-8-0.3-12s-0.2-8-0.3-12.1
			c0-0.9,0-1.7,0-2.4c0-0.8,0-1.5,0-2.2s0-1.5-0.1-2.2c0-0.8-0.1-1.6-0.2-2.4c0.1-0.1,0.1-0.2,0.1-0.4c0-0.2,0.1-0.3,0.1-0.5
			l-0.2,0.2c0-0.5,0-1,0-1.5s0-1,0-1.5c0-2.5-0.1-5-0.3-7.4s-0.3-4.8-0.3-7.1v-0.1h1.6h-0.2h-1.4l0,0l0,0v-0.6H38.9z M38.7,279.6
			c0,0,0,0.1-0.2,0.2L38.7,279.6L38.7,279.6z M42.9,339.4h-2.6l2.3,0.2L42.9,339.4z"/>
		<path d="M50.3,336c-0.1-1.2-0.1-2.6-0.2-4c0-1.4-0.1-2.7-0.3-3.9v-2c0-0.2,0-0.4,0-0.5s0-0.3,0-0.5v-0.4c0-0.3-0.1-0.7-0.2-1
			c-0.1-0.3-0.1-0.7-0.2-1.2c-0.1-0.5-0.2-1-0.2-1.8c-0.1-0.7-0.1-1.6-0.1-2.7v-0.2c-0.2-2.2-0.4-4.4-0.4-6.7c0-2.2-0.1-4.5-0.1-6.7
			l-0.3-6c0-0.2,0-0.4,0-0.6s0-0.4,0-0.5v-0.1c-0.3-3.1-0.5-6.1-0.7-9.1s-0.4-6.1-0.5-9.3V277v-0.6c0,0,0,0,0-0.1s0-0.2,0.1-0.2
			l0.2-0.4l0.2-0.3c0.1-0.2,0.3-0.3,0.5-0.4s0.5-0.2,0.7-0.3h0.8c0.7,0.3,1.1,0.5,1.3,0.9c0.2,0.3,0.3,0.6,0.4,1l0.1,0.2v1.8
			l0.5,6.6H52v1.9l0.2,3.3c0.4,2.5,0.6,5.1,0.7,7.8c0.1,2.6,0.3,5.3,0.4,7.9c0.1,1.7,0.2,3.4,0.2,5.2s0.2,3.4,0.5,5
			c-0.1,0.1-0.1,0.2-0.1,0.4c0,0.2-0.1,0.3-0.1,0.5L54,317c0,0.7,0,1.3,0,2c0,0.6,0.1,1.3,0.1,2c0-0.1,0-0.5,0.1-1.2
			s0.2-1.5,0.4-2.6s0.3-2.3,0.6-3.7c0.2-1.4,0.5-2.8,0.8-4.4l0.2-0.8l0.2-0.5c0-0.2,0.1-0.3,0.2-0.5c0.1-0.1,0.3-0.3,0.4-0.4
			l0.3-0.1c0.3-0.2,0.5-0.2,0.8-0.2h0.7l0.4,0.1c0.2,0.1,0.4,0.2,0.6,0.3l0.1,0.1c0.1,0.1,0.1,0.1,0.2,0.2c0,0.1,0.1,0.2,0.2,0.2
			l0.2,0.5c0,0.1,0,0.1,0,0.1v0.1v0.2l0.5,3.9l0.4,2.7c0,0.2,0.1,0.3,0.1,0.5s0.1,0.4,0.1,0.6l0.2,1.3c0.1-2.2,0.3-4.4,0.6-6.6
			s0.6-4.4,0.8-6.7l0.1-1c0-0.9,0.1-1.7,0.2-2.6c0.1-0.8,0.2-1.7,0.2-2.5l0.1-1.2c0.3-3.1,0.5-6.1,0.6-9.2c0.2-3,0.4-6.1,0.8-9.1
			l0.2-1.8l0.1-0.8c0-0.4,0.2-0.7,0.7-0.9c0.4-0.2,0.8-0.4,1-0.4h0.5c0.1,0,0.2,0,0.3,0c0.1,0,0.2,0,0.1,0l0,0l0.9,0.5
			c0.1,0,0.1,0.1,0.1,0.1c0,0.1,0.1,0.1,0.1,0.1c0.2,0.3,0.4,0.7,0.4,1.1l-0.1,2.2c-0.1,0.8-0.1,1.6-0.2,2.4s-0.1,1.6-0.2,2.3
			l-0.2,3.9c-0.3,3.2-0.5,6.4-0.7,9.5s-0.4,6.3-0.7,9.5c-0.1,1.5-0.3,3.1-0.5,4.6s-0.3,3-0.3,4.5c0,0.2,0,0.4,0,0.6s0,0.4,0,0.5
			l-0.3,0.8l0.2-0.2c-0.1,1-0.2,1.9-0.3,2.9c-0.1,1-0.1,1.9-0.1,2.9c-0.3,2-0.4,3.9-0.4,5.8s-0.1,3.8-0.3,5.8
			c-0.1,0.6-0.1,1.1-0.2,1.6s-0.2,1-0.4,1.5l-0.1,1.2l-0.2,0.5l-0.5,0.6v0.3l-0.2,0.1c-0.1,0.4-0.3,0.6-0.5,0.8
			c-0.2,0.1-0.4,0.2-0.6,0.2c-0.2,0-0.3,0-0.4,0l-0.1-0.1l0,0H62c0-0.1,0-0.2,0-0.2v-0.4c0,0,0,0,0,0.1l-0.1,0.3l-0.1,0.1l-0.1,0.1
			c0,0-0.1,0.1-0.2,0.1c-0.1,0-0.3,0-0.5-0.1s-0.3-0.2-0.4-0.4l-0.2-0.4c-0.3-0.1-0.4-0.4-0.5-0.8s-0.1-0.8-0.2-1.3l0.3,0.5v-0.1
			l-0.3-0.4c-0.1-0.6-0.1-1.3-0.1-2s-0.1-1.4-0.3-1.9c0-0.2,0-0.4,0-0.5s0-0.3,0-0.5V333c0-0.3-0.1-0.8-0.4-1.2s-0.3-1.3-0.3-2.4
			c-0.2-0.8-0.3-1.6-0.3-2.4s-0.1-1.6-0.2-2.4c-0.1,0.6-0.2,1.2-0.3,1.8c-0.1,0.6-0.2,1.2-0.2,1.8c0,0.3,0,0.5,0,0.7
			c-0.1,0.1-0.1,0.1-0.2,0.2c0,0.1-0.1,0.1-0.2,0.2l0.2-0.1c-0.1,0.5-0.2,1-0.3,1.5s-0.2,1-0.2,1.5c-0.2,0.6-0.3,1.2-0.3,1.9
			c0,0.7-0.1,1.4-0.1,2.1s-0.1,1.3-0.2,1.9c-0.1,0.6-0.3,1.1-0.6,1.5l-0.1,0.6l-0.8,0.5c0,0,0,0.1,0,0.2v0.1h-0.2v0.1l-0.2,0.1
			c-0.1,0.1-0.3,0.2-0.4,0.2c-0.1,0-0.2,0-0.3,0c-0.4,0-0.6-0.1-0.6-0.4s0-0.4,0-0.5l-0.1,0.2l0,0l-0.2,0.4
			c-0.1,0.1-0.2,0.1-0.3,0.1c-0.2-0.1-0.4-0.2-0.6-0.3c-0.2-0.1-0.4-0.4-0.4-0.8v-0.2c-0.3,0-0.4-0.4-0.5-1.2
			C50.4,338.2,50.3,337.2,50.3,336l0.2,0.9v-0.2L50.3,336z M50.3,336v-0.2V336L50.3,336z M50.9,338.2l-0.2-0.5
			C50.7,337.9,50.8,338.1,50.9,338.2L50.9,338.2z M55.2,339.5L55.2,339.5h0.2H55.2z M63.9,340.5c0,0.1,0,0.1,0,0.1V340.5L63.9,340.5
			z M64.5,337.8L64.5,337.8v-0.1V337.8z"/>
		<path d="M85.6,333.3c0,0.2,0,0.4,0,0.8v1c0,0.1,0,0.2,0,0.4c0,0.1,0,0.2-0.1,0.4l-0.1,0.6c-0.1,0.4-0.2,0.8-0.5,1.3s-0.6,1-1,1.4
			c-0.4,0.5-0.9,0.8-1.4,1.2c-0.5,0.3-1.1,0.5-1.7,0.5c-0.4,0-0.8-0.1-1-0.2c-0.1,0-0.2,0-0.2,0c-0.1,0-0.2,0-0.2,0.1H78
			c-0.4,0-0.7,0-1.1,0s-0.8-0.1-1.1-0.1l-0.5-0.1l-1.2-0.6l-0.7-0.5c-0.3-0.3-0.6-0.6-0.9-0.9c-0.3-0.4-0.6-0.8-0.8-1.2l-0.3-0.6
			c-0.2-0.4-0.3-0.9-0.3-1.4l-0.1-1.2v-1.9c0,0,0-0.1,0-0.3h-0.2l0.2-5.5c0,0.2,0,0.3,0,0.4c0-0.1,0-0.1,0-0.2l-0.1-0.5
			c-0.1,0.2-0.1,0.2-0.2,0.2v-2.7c-0.1-1-0.1-2.1-0.1-3.4c0-2,0-4,0-6s0.1-4,0.2-6c0-1.5,0-2.9,0-4.2c0-1.3,0-2.6,0-3.9s0-2.6,0-3.9
			s0.1-2.7,0.1-4.2l0.1-1.7c0-0.7,0-1.3,0-2s0-1.3,0-2v-4.8l0.1-1.5c0.1-0.7,0.4-1.4,0.8-2.1s0.8-1.2,1.3-1.8
			c0.5-0.5,1.1-0.9,1.8-1.2c0.7-0.3,1.5-0.4,2.3-0.4c1.3,0,2.4,0.2,3.2,0.7c0.8,0.5,1.5,1,2,1.7s0.9,1.4,1.1,2.2
			c0.2,0.8,0.4,1.5,0.4,2.2v1.2c0,1.9,0.1,3.8,0.1,5.5c0,1.8,0.1,3.5,0.2,5.3s0.1,3.5,0.2,5.3c0,1.8,0.1,3.6,0.2,5.5
			c0.1,1.8,0.1,3.6,0,5.5c0,1.9,0.1,3.8,0.3,5.5c-0.1,0.1-0.1,0.2-0.2,0.4c0,0.2-0.1,0.4-0.1,0.5l0.2-0.3c0,0.5,0,1.1,0,1.6
			s0,1,0,1.6c0,2.5,0.1,4.9,0.3,7.2C85.5,328.7,85.6,331,85.6,333.3z M72.1,338.1l0.4,0.4c0,0,0-0.1-0.1-0.1L72.1,338.1z
			 M79.1,281.8c0,0,0-0.3-0.1-0.7c0-0.4-0.1-0.9-0.2-1.3c-0.1-0.3-0.2-0.6-0.4-0.8c-0.1-0.2-0.4-0.3-0.6-0.3h-0.1
			c-0.2,0-0.3,0-0.5,0s-0.4,0.1-0.5,0.1l-0.5,0.6c-0.2,0.2-0.4,0.6-0.6,1.2l-0.1,0.4c0,0.1,0,0.1,0,0.2s0,0.1,0,0.2l-0.1,0.9
			c0,0.3,0,0.5,0,0.7s0,0.5,0,0.7l0,0c0,0.2,0,0.3,0,0.5s0,0.4,0,0.5v0.3c0,0.1,0,0.3,0,0.6c0-0.1,0-0.1,0-0.2c0,0,0-0.1,0-0.2v4
			c0,0,0,0.1,0,0.2v0.3c0.1-0.2,0.1-0.2,0.2-0.2v2.8c0.1,0.6,0.1,1.1,0.1,1.7s0,1.2,0,1.8c0,2.7,0,5.2-0.1,7.8c0,2.5-0.1,5-0.1,7.4
			c0,2.5-0.1,5-0.1,7.5s0,5.1,0,7.8v7.9c0,0.1,0,0.2,0,0.3c0,0.1,0,0.2,0,0.3l0.3,0.6c0.4,0.8,1.2,1.2,2.5,1.3h0.5v0.1
			c0,0.1,0,0.2,0.1,0.5v-0.6h0.1c0.4,0,0.7-0.1,0.9-0.2c0.2-0.1,0.4-0.3,0.5-0.5s0.2-0.4,0.3-0.7c0.1-0.3,0.1-0.5,0.2-0.9V334
			c-0.1-4-0.2-8-0.3-12c-0.1-4-0.2-8-0.3-12.1c0-0.9,0-1.7,0-2.4c0-0.8,0-1.5,0-2.2s0-1.5-0.1-2.2c0-0.8-0.1-1.6-0.2-2.4
			c0.1-0.1,0.1-0.2,0.1-0.4c0-0.2,0.1-0.3,0.1-0.5l-0.2,0.2c0-0.5,0-1,0-1.5s0-1,0-1.5c0-2.5-0.1-5-0.3-7.4
			c-0.2-2.4-0.3-4.8-0.3-7.1v-0.1h1.6h-0.2h-1.4l0,0l0,0v-0.6H79.1z M79,279.6c0,0,0,0.1-0.2,0.2L79,279.6L79,279.6z M83.2,339.4
			h-2.6l2.3,0.2L83.2,339.4z"/>
		<path d="M102,333.3c0,0.2,0,0.4,0,0.8v1c0,0.1,0,0.2,0,0.4c0,0.1,0,0.2-0.1,0.4l-0.1,0.6c-0.1,0.4-0.2,0.8-0.5,1.3s-0.6,1-1,1.4
			c-0.4,0.5-0.9,0.8-1.4,1.2c-0.5,0.3-1.1,0.5-1.7,0.5c-0.4,0-0.8-0.1-1-0.2c-0.1,0-0.2,0-0.2,0c-0.1,0-0.2,0-0.2,0.1h-1.2
			c-0.4,0-0.7,0-1.1,0s-0.8-0.1-1.1-0.1l-0.5-0.1l-1.2-0.6l-0.7-0.5c-0.3-0.3-0.6-0.6-0.9-0.9c-0.3-0.4-0.6-0.8-0.8-1.2l-0.3-0.6
			c-0.2-0.4-0.3-0.9-0.3-1.4l-0.1-1.2v-1.9c0,0,0-0.1,0-0.3h-0.2l0.2-5.5c0,0.2,0,0.3,0,0.4c0-0.1,0-0.1,0-0.2l-0.1-0.5
			c-0.1,0.2-0.1,0.2-0.2,0.2v-2.7c-0.1-1-0.1-2.1-0.1-3.4c0-2,0-4,0-6s0.1-4,0.2-6c0-1.5,0-2.9,0-4.2c0-1.3,0-2.6,0-3.9s0-2.6,0-3.9
			s0.1-2.7,0.1-4.2l0.1-1.7c0-0.7,0-1.3,0-2s0-1.3,0-2v-4.8l0.1-1.5c0.1-0.7,0.4-1.4,0.8-2.1s0.8-1.2,1.3-1.8
			c0.5-0.5,1.1-0.9,1.8-1.2c0.7-0.3,1.5-0.4,2.3-0.4c1.3,0,2.4,0.2,3.2,0.7c0.8,0.5,1.5,1,2,1.7s0.9,1.4,1.1,2.2
			c0.2,0.8,0.4,1.5,0.4,2.2v1.2c0,1.9,0.1,3.8,0.1,5.5c0,1.8,0.1,3.5,0.2,5.3s0.1,3.5,0.2,5.3c0,1.8,0.1,3.6,0.2,5.5
			c0.1,1.8,0.1,3.6,0,5.5c0,1.9,0.1,3.8,0.3,5.5c-0.1,0.1-0.1,0.2-0.2,0.4c0,0.2-0.1,0.4-0.1,0.5l0.2-0.3c0,0.5,0,1.1,0,1.6
			s0,1,0,1.6c0,2.5,0.1,4.9,0.3,7.2C101.9,328.7,102,331,102,333.3z M88.5,338.1l0.4,0.4c0,0,0-0.1-0.1-0.1L88.5,338.1z M95.5,281.8
			c0,0,0-0.3-0.1-0.7c0-0.4-0.1-0.9-0.2-1.3c-0.1-0.3-0.2-0.6-0.4-0.8c-0.1-0.2-0.4-0.3-0.6-0.3h-0.1c-0.2,0-0.3,0-0.5,0
			s-0.4,0.1-0.5,0.1l-0.5,0.6c-0.2,0.2-0.4,0.6-0.6,1.2l-0.1,0.4c0,0.1,0,0.1,0,0.2s0,0.1,0,0.2l-0.1,0.9c0,0.3,0,0.5,0,0.7
			s0,0.5,0,0.7l0,0c0,0.2,0,0.3,0,0.5s0,0.4,0,0.5v0.3c0,0.1,0,0.3,0,0.6c0-0.1,0-0.1,0-0.2c0,0,0-0.1,0-0.2v4c0,0,0,0.1,0,0.2v0.3
			c0.1-0.2,0.1-0.2,0.2-0.2v2.8c0.1,0.6,0.1,1.1,0.1,1.7s0,1.2,0,1.8c0,2.7,0,5.2-0.1,7.8c0,2.5-0.1,5-0.1,7.4c0,2.5-0.1,5-0.1,7.5
			s0,5.1,0,7.8v7.9c0,0.1,0,0.2,0,0.3c0,0.1,0,0.2,0,0.3l0.3,0.6c0.4,0.8,1.2,1.2,2.5,1.3H95v0.1c0,0.1,0,0.2,0.1,0.5v-0.6h0.1
			c0.4,0,0.7-0.1,0.9-0.2c0.2-0.1,0.4-0.3,0.5-0.5s0.2-0.4,0.3-0.7c0.1-0.3,0.1-0.5,0.2-0.9V334c-0.1-4-0.2-8-0.3-12
			c-0.1-4-0.2-8-0.3-12.1c0-0.9,0-1.7,0-2.4c0-0.8,0-1.5,0-2.2s0-1.5-0.1-2.2c0-0.8-0.1-1.6-0.2-2.4c0.1-0.1,0.1-0.2,0.1-0.4
			c0-0.2,0.1-0.3,0.1-0.5l-0.2,0.2c0-0.5,0-1,0-1.5s0-1,0-1.5c0-2.5-0.1-5-0.3-7.4c-0.2-2.4-0.3-4.8-0.3-7.1v-0.1h1.6H97h-1.4l0,0
			l0,0L95.5,281.8L95.5,281.8z M95.4,279.6c0,0,0,0.1-0.2,0.2L95.4,279.6L95.4,279.6z M99.6,339.4H97l2.3,0.2L99.6,339.4z"/>
		<path d="M118.4,333.3c0,0.2,0,0.4,0,0.8v1c0,0.1,0,0.2,0,0.4c0,0.1,0,0.2-0.1,0.4l-0.1,0.6c-0.1,0.4-0.2,0.8-0.5,1.3s-0.6,1-1,1.4
			c-0.4,0.5-0.9,0.8-1.4,1.2c-0.5,0.3-1.1,0.5-1.7,0.5c-0.4,0-0.8-0.1-1-0.2c-0.1,0-0.2,0-0.2,0c-0.1,0-0.2,0-0.2,0.1H111
			c-0.4,0-0.7,0-1.1,0s-0.8-0.1-1.1-0.1l-0.5-0.1l-1.2-0.6l-0.7-0.5c-0.3-0.3-0.6-0.6-0.9-0.9c-0.3-0.4-0.6-0.8-0.8-1.2l-0.3-0.6
			c-0.2-0.4-0.3-0.9-0.3-1.4l-0.1-1.2v-1.9c0,0,0-0.1,0-0.3h-0.2l0.2-5.5c0,0.2,0,0.3,0,0.4c0-0.1,0-0.1,0-0.2l-0.1-0.5
			c-0.1,0.2-0.1,0.2-0.2,0.2v-2.7c-0.1-1-0.1-2.1-0.1-3.4c0-2,0-4,0-6s0.1-4,0.2-6c0-1.5,0-2.9,0-4.2c0-1.3,0-2.6,0-3.9s0-2.6,0-3.9
			s0.1-2.7,0.1-4.2l0.1-1.7c0-0.7,0-1.3,0-2s0-1.3,0-2v-4.8l0.1-1.5c0.1-0.7,0.4-1.4,0.8-2.1s0.8-1.2,1.3-1.8
			c0.5-0.5,1.1-0.9,1.8-1.2c0.7-0.3,1.5-0.4,2.3-0.4c1.3,0,2.4,0.2,3.2,0.7c0.8,0.5,1.5,1,2,1.7s0.9,1.4,1.1,2.2
			c0.2,0.8,0.4,1.5,0.4,2.2v1.2c0,1.9,0.1,3.8,0.1,5.5c0,1.8,0.1,3.5,0.2,5.3s0.1,3.5,0.2,5.3c0,1.8,0.1,3.6,0.2,5.5
			c0.1,1.8,0.1,3.6,0,5.5c0,1.9,0.1,3.8,0.3,5.5c-0.1,0.1-0.1,0.2-0.2,0.4c0,0.2-0.1,0.4-0.1,0.5l0.2-0.3c0,0.5,0,1.1,0,1.6
			s0,1,0,1.6c0,2.5,0.1,4.9,0.3,7.2C118.3,328.7,118.4,331,118.4,333.3z M104.9,338.1l0.4,0.4c0,0,0-0.1-0.1-0.1L104.9,338.1z
			 M111.9,281.8c0,0,0-0.3-0.1-0.7c0-0.4-0.1-0.9-0.2-1.3c-0.1-0.3-0.2-0.6-0.4-0.8c-0.1-0.2-0.4-0.3-0.6-0.3h-0.1
			c-0.2,0-0.3,0-0.5,0s-0.4,0.1-0.5,0.1l-0.5,0.6c-0.2,0.2-0.4,0.6-0.6,1.2l-0.1,0.4c0,0.1,0,0.1,0,0.2s0,0.1,0,0.2l-0.1,0.9
			c0,0.3,0,0.5,0,0.7s0,0.5,0,0.7l0,0c0,0.2,0,0.3,0,0.5s0,0.4,0,0.5v0.3c0,0.1,0,0.3,0,0.6c0-0.1,0-0.1,0-0.2c0,0,0-0.1,0-0.2v4
			c0,0,0,0.1,0,0.2v0.3c0.1-0.2,0.1-0.2,0.2-0.2v2.8c0.1,0.6,0.1,1.1,0.1,1.7s0,1.2,0,1.8c0,2.7,0,5.2-0.1,7.8c0,2.5-0.1,5-0.1,7.4
			c0,2.5-0.1,5-0.1,7.5s0,5.1,0,7.8v7.9c0,0.1,0,0.2,0,0.3c0,0.1,0,0.2,0,0.3l0.3,0.6c0.4,0.8,1.2,1.2,2.5,1.3h0.5v0.1
			c0,0.1,0,0.2,0.1,0.5v-0.6h0.1c0.4,0,0.7-0.1,0.9-0.2c0.2-0.1,0.4-0.3,0.5-0.5s0.2-0.4,0.3-0.7c0.1-0.3,0.1-0.5,0.2-0.9V334
			c-0.1-4-0.2-8-0.3-12c-0.1-4-0.2-8-0.3-12.1c0-0.9,0-1.7,0-2.4c0-0.8,0-1.5,0-2.2s0-1.5-0.1-2.2c0-0.8-0.1-1.6-0.2-2.4
			c0.1-0.1,0.1-0.2,0.1-0.4c0-0.2,0.1-0.3,0.1-0.5l-0.2,0.2c0-0.5,0-1,0-1.5s0-1,0-1.5c0-2.5-0.1-5-0.3-7.4
			c-0.2-2.4-0.3-4.8-0.3-7.1v-0.1h1.6h-0.2H112l0,0l0,0L111.9,281.8L111.9,281.8z M111.8,279.6c0,0,0,0.1-0.2,0.2L111.8,279.6
			L111.8,279.6z M116,339.4h-2.6l2.3,0.2L116,339.4z"/>
	</g>
</g>
<text transform="matrix(1 0 0 1 -972.763 278.6251)" style="font-family:'WermlandGothic-Regular'; font-size:63.6756px;">EcoWoo</text>
<g>
	<path class="st1" d="M17.5,9.5c-0.6,0-1.4,0-2.4,0c-1.1,0-2.1-0.1-3.2-0.1c-1,0-2,0-2.8,0S7.9,9.5,7.9,9.6c0,0.4,0,0.7,0,1.1
		c0,0.4,0,0.7,0,1.1c0,0.8,0,1.5,0,2.3s0,1.5,0,2.3v4.9c0,0.4,0,0.6,0,0.6c0,0.1-0.1,0.3-0.1,0.7c0,0.2,0,0.5,0.1,0.9
		c0,0.4,0.1,0.7,0.1,0.9c0,0.3,0,0.4,0,0.4s0.1,0,0.4,0c0.8,0,1.7,0.1,2.5,0.1c0.8,0.1,1.6,0.1,2.5,0.1c0.3,0,0.6,0,0.9,0
		c0.3,0,0.7,0,1-0.1c0.3,0,0.6,0,0.9,0c0.2,0,0.4,0,0.5,0c0.2,0.4,0.4,0.8,0.4,1s0,0.5,0,0.6c-0.1,0.2-0.2,0.3-0.3,0.4
		c-0.3,0.1-0.6,0.1-1,0.1s-0.7,0-1,0c-0.4,0-0.7,0-1.1,0.1s-0.7,0-1.1,0c-0.6,0-1.2,0-1.8,0s-1.2,0-1.8,0c-0.1,0-0.2,0-0.5,0
		S8,27.1,8,27.2c0,0.2,0,0.4,0,0.5c0,0.2,0,0.3,0,0.4v0.2c0.1,1.1,0.1,2.4,0.1,3.7s0,2.5,0,3.6c0,0.1,0.1,0.1,0.3,0.2
		c0.2,0.1,0.4,0.1,0.7,0.1c0.2,0,0.5,0.1,0.8,0.1s0.4,0,0.6,0c0.6,0,1.1,0,1.7-0.1c0.5-0.1,1.1-0.1,1.7-0.1c0.6,0,1.3,0,2,0.1
		s1.4,0.1,2,0.1c0.2,0,0.4,0,0.6-0.1c0.2,0,0.4,0,0.5,0s0.3,0,0.5,0.1c0.1,0.1,0.2,0.2,0.3,0.5c0.2,0.8,0.1,1.3-0.1,1.4
		c-0.2,0.1-0.5,0.2-0.9,0.2c-0.5,0.1-1.1,0.1-1.8,0.1c-0.7,0-1.3,0-1.8,0c-1.1,0-2.2,0-3.3,0s-2.2,0-3.3,0H7.5c-0.2,0-0.5,0-0.8,0
		s-0.6,0-1-0.1c-0.2-0.3-0.3-0.6-0.3-1.1s0-0.9,0-1.2c0-1,0-2,0.1-3.1c0.1-1,0.1-2.1,0.1-3c0-0.3,0-0.7,0-1.2c0-0.6,0-1.2,0-1.8
		c0-0.6,0-1.2,0-1.8c0-0.5,0-0.9,0-1.1c0-1.1-0.1-2.1-0.2-3.2s-0.2-2.2-0.2-3.3c0-1.2,0-2.3,0.1-3.5c0.1-1.1,0.2-2.3,0.2-3.5
		c0-0.2,0-0.4,0-0.6V7.4c0.3-0.2,0.7-0.3,1.3-0.3s1,0,1.3,0C9.2,7,10.3,7,11.3,7c1.1,0,2.2,0,3.3,0c0.6,0,1.2,0,2,0.1
		c0.8,0.1,1.4,0.1,2,0.1c0.3,0,0.4,0,0.5,0.1c0.1,0,0.2,0.2,0.2,0.5c0.1,0.5,0.2,0.8,0.1,1S19.2,9.2,19,9.3
		c-0.2,0.1-0.4,0.1-0.7,0.1S17.7,9.5,17.5,9.5z"/>
	<path class="st1" d="M35,34.3c0.1,0.1,0.3,0.2,0.5,0.3s0.4,0.2,0.6,0.2c0.2,0.1,0.4,0.1,0.5,0.2s0.1,0.2,0.1,0.4
		c-0.5,0.8-1,1.4-1.6,1.9c-0.6,0.4-1.2,0.8-1.8,0.9c-0.6,0.2-1.3,0.4-2.2,0.5c-0.1,0-0.3,0.1-0.6,0.1c-0.3,0-0.6,0-0.9,0
		s-0.6,0-1.1,0c-1.2-0.2-2.2-0.5-3.1-1s-1.6-1.2-2.1-2c-0.5-0.9-0.8-1.7-0.9-2.5s-0.2-1.6-0.1-2.5c0-0.2,0-0.4,0-0.6
		c0-0.3,0-0.5,0-0.6v-7.8c0-1,0-1.7,0-2.3c0-0.6,0.1-1.1,0.1-1.6s0.1-1,0.1-1.6s0-1.3,0-2.3c0-1.7,0.3-3.2,1-4.3
		c0.6-1.1,1.6-1.9,3-2.4s2.8-0.7,4-0.7s2.4,0.4,3.6,1.2c0.1,0.1,0.4,0.3,0.7,0.5s0.6,0.4,0.9,0.7c0.3,0.2,0.6,0.5,0.8,0.7
		s0.3,0.4,0.2,0.5s-0.3,0.3-0.5,0.5s-0.4,0.4-0.7,0.5c-0.2,0.1-0.5,0.2-0.7,0.3c-0.2,0-0.4,0-0.5-0.1c-0.4-0.7-0.9-1.2-1.5-1.6
		c-0.6-0.3-1.2-0.5-1.8-0.6c-0.6-0.1-1.3-0.1-1.9,0c-0.7,0.1-1.2,0.2-1.8,0.4c-0.6,0.2-1,0.5-1.4,0.8c-0.3,0.3-0.6,0.7-0.8,1.1
		c-0.2,0.4-0.3,0.8-0.4,1.3c-0.1,0.4-0.1,0.8-0.1,1.1c0,1,0,1.7,0,2.3s0,1.1,0,1.6s0,1,0,1.6s0,1.3,0,2.3s0,1.7,0,2.3
		c0,0.5-0.1,1-0.1,1.5c0,0.4-0.1,0.9-0.1,1.5c0,0.5,0,1.3,0,2.3c0,0.2,0,0.3,0,0.5c0,0.1,0,0.3,0,0.5c0,0.8,0.1,1.5,0.2,2.3
		c0.2,0.8,0.4,1.5,0.8,2c0.4,0.7,0.9,1.1,1.5,1.2c0.6,0.2,1.2,0.3,1.7,0.4c0.3,0.1,0.5,0.1,0.6,0.1s0.3,0,0.5,0s0.5,0.1,0.9,0.1
		s0.7,0,1.1-0.1s0.7-0.2,1.1-0.4c0.3-0.2,0.6-0.4,0.9-0.8c0-0.1,0.1-0.2,0.2-0.3c0.1-0.1,0.2-0.3,0.3-0.4c0.1-0.1,0.2-0.2,0.3-0.2
		C34.8,34.2,34.9,34.2,35,34.3z"/>
	<path class="st1" d="M54.4,22.4c0,0.3,0,0.5,0,0.8c0,0.2,0,0.5,0,0.8s0,0.7,0,1.2s0,0.8,0,1s0,0.5,0,0.6c0,0.2,0,0.4,0,0.6
		s0,0.6,0,1.1l-0.2,3.4c-0.1,0.6-0.2,1.2-0.2,1.8c0,0.6-0.1,1.2-0.4,1.6c-0.3,0.5-0.7,1-1.2,1.5c-0.6,0.6-1.1,1-1.5,1.3
		c-0.2,0.1-0.7,0.3-1.5,0.5C48.8,38.9,48,39,47.1,39c-1,0-1.9,0-2.8-0.2c-0.9-0.2-1.4-0.3-1.7-0.5c-0.5-0.3-0.9-0.6-1.3-0.9
		c-0.4-0.4-0.7-0.8-1-1.2c-0.3-0.5-0.5-1-0.8-1.6s-0.4-1.2-0.5-1.8c-0.1-0.5-0.1-0.9,0-1.3c0-0.4,0-0.9,0-1.5c0-0.5,0-1.1,0-1.8
		c0-0.7,0-1.4,0-1.9c0-0.6,0-1.1,0-1.6c0-0.4,0-0.9,0-1.5s0.1-1.2,0.2-1.8c0.1-0.6,0.2-1.2,0.1-1.8s-0.1-1.2-0.1-1.8
		c0-0.6-0.1-1.2-0.1-1.7c0-0.6,0-1.3,0-2s0-1.3,0.1-1.9c0.1-0.8,0.4-1.6,0.7-2.4c0.4-0.7,0.8-1.4,1.5-1.9C42,7.5,42.5,7.2,42.9,7
		c0.4-0.2,1-0.3,1.6-0.5c0.2,0,0.4-0.1,0.6-0.1c0.2,0,0.3,0,0.5,0H46c1.1-0.1,2-0.1,2.6,0c0.7,0.1,1.4,0.2,2.1,0.5
		c0.7,0.3,1.2,0.7,1.6,1.3C52.5,8.6,52.8,9,53,9.3c0.3,0.3,0.5,0.6,0.7,1c0.2,0.3,0.3,0.8,0.5,1.3c0.1,0.5,0.2,1.2,0.3,2.1
		c0,0.4,0,0.8,0,1.2s0,0.8,0,1.2s0,0.9,0,1.4v3.9C54.4,21.8,54.4,22.1,54.4,22.4z M51.9,31.6c0.1-0.2,0.1-0.5,0.2-0.9
		c0.1-0.3,0.1-0.6,0.1-1s0-0.9,0-1.4s0-0.9,0-1.1s0-0.6,0-0.9s0-0.6,0-0.9s0-0.7,0-1.1c0-0.5,0-0.8,0-1s0-0.3,0-0.4s0-0.2,0-0.4
		c0-0.2,0-0.5,0-1s0-0.9,0-1.2c0-0.3,0-0.6,0-0.9s0-0.6,0-0.9s0-0.7,0-1.2c0-1,0-1.8-0.1-2.4c0-0.7,0-1,0-1.1c0-0.2,0-0.5-0.1-0.9
		s-0.1-0.7-0.3-1.1c-0.1-0.4-0.3-0.7-0.4-1c-0.2-0.3-0.3-0.6-0.5-0.8c-0.4-0.4-0.9-0.7-1.5-0.8C48.9,9,48.3,9,47.8,9
		c-0.3,0-0.5,0-0.7,0s-0.3,0-0.5,0s-0.3,0-0.5,0s-0.4,0-0.7,0c-1,0-1.8,0.4-2.6,1c-0.3,0.3-0.6,0.7-0.9,1.1
		c-0.3,0.4-0.4,0.9-0.5,1.5c-0.1,0.5-0.1,0.9-0.1,1.3c0,0.4,0,0.9,0,1.5c0,0.5,0,1.1-0.1,1.8s-0.1,1.3,0,1.9c0,0.6,0,1.1,0,1.6
		s0,1,0,1.7c0,0.6,0,1.2-0.1,1.7S41,25.2,41,25.8c0,0.3,0,0.6,0,0.9s0,0.7,0.1,1.1c0,0.4,0.1,0.7,0.1,1.1s0,0.6,0,0.9
		c0,0.6,0,1.1,0.2,1.8c0.1,0.6,0.2,1.1,0.2,1.5c0.1,0.6,0.2,1.1,0.4,1.5s0.5,0.8,0.8,1.2c0.4,0.4,0.8,0.6,1.2,0.8s0.8,0.1,1.3,0.1
		c0.3,0,0.5,0,0.7,0s0.3,0.1,0.5,0.1s0.3,0.1,0.5,0.1s0.4,0,0.7,0c0.6,0,1.2-0.2,1.8-0.7c0.7-0.4,1.2-0.8,1.5-1.2
		c0.2-0.2,0.4-0.4,0.5-0.8c0.1-0.4,0.2-0.8,0.3-1.1C51.8,32.6,51.9,32.1,51.9,31.6z"/>
	<path class="st1" d="M61,38.5c0,0-0.2,0-0.4,0s-0.5,0-0.8,0s-0.5,0-0.8-0.1c-0.2,0-0.3,0-0.3-0.1c-0.1-0.2-0.1-0.6-0.1-1.2
		c0-0.5,0-0.9,0-1.2c0-0.5,0-0.9,0.1-1.4c0.1-0.4,0.1-0.9,0.1-1.4s-0.1-1.1-0.2-1.6c-0.1-0.5-0.2-1-0.2-1.6s0-1.1,0-1.6s0-1,0-1.6
		s0-1.1,0.1-1.7c0-0.5,0.1-1.1,0.1-1.7s0-1.1-0.1-1.6s-0.1-1.1-0.1-1.7c0-0.7,0-1.2,0-1.7s0-1,0-1.5c0-0.6,0-1.1-0.1-1.6
		s-0.1-1.1-0.1-1.6c0-0.6,0-1.1,0-1.7c0-0.6,0.1-1.1,0.1-1.7c0-0.4,0-0.9-0.1-1.5s0-1.1,0.2-1.4c0.1-0.3,0.4-0.5,0.8-0.4
		c0.4,0.1,0.8,0,1.2,0c0.2,0,0.3,0.1,0.3,0.5s0.1,0.7,0.1,1.1v3.4v3.3V19c0,0.7,0,1.3,0,1.8c0,0.6,0,1.1,0,1.7
		c0,0.7-0.1,1.4-0.2,2.1c-0.1,0.7-0.2,1.4-0.2,2.1s0,1.3,0.1,2c0.1,0.6,0.1,1.3,0.1,2s0,1.3,0.1,1.8c0,0.6,0,1.2,0,1.9
		c0.4-0.4,0.7-0.8,0.9-1.2c0.3-0.4,0.6-0.8,0.9-1.3c0.3-0.5,0.5-0.9,0.8-1.2c0.3-0.3,0.6-0.7,0.8-1.2c0.2-0.3,0.5-0.7,0.9-1.1
		s0.7-0.9,1-1.2c0.4-0.5,0.7-0.9,1.1-1.2c0.3-0.3,0.7-0.5,1-0.5s0.6,0.2,0.9,0.5s0.5,0.6,0.8,0.9c0.3,0.4,0.7,0.8,1,1.2
		c0.3,0.4,0.6,0.8,0.9,1.2c0.3,0.4,0.6,0.7,0.8,1c0.2,0.2,0.5,0.6,0.8,1s0.7,0.9,1.1,1.4c0.5,0.5,0.9,1,1.2,1.3
		c-0.1-0.6-0.1-1.1,0-1.7c0-0.6,0-1.2,0-1.7c0-0.6-0.1-1.1-0.1-1.7s0-1.1,0-1.7s0-1.1,0-1.7c0-0.5,0-1.1,0-1.7s0-1.1,0-1.5
		s0-0.9,0-1.5s0-1.2,0-2s-0.1-1.4-0.1-2s0-1.1,0-1.6s0-1,0-1.6s0-1.3-0.1-2.2s-0.1-1.6-0.1-2.2c0-0.4,0-0.8,0-1s0-0.5,0.2-1
		c0.2-0.4,0.4-0.6,0.5-0.6s0.5,0,1.1,0.2c0.2,0.1,0.4,0.2,0.5,0.4c0.1,0.2,0.2,0.5,0.2,0.7c0,0.3,0.1,0.5,0.1,0.8s0,0.5,0,0.7
		c0,0.6,0,1,0,1.4s0,0.8,0,1.4c0,0.6,0,1.1-0.1,1.7s-0.1,1.1-0.1,1.6c0,0.6,0,1.1,0.1,1.7c0.1,0.5,0.1,1.1,0.1,1.6
		c0,0.6,0,1.1-0.1,1.7c0,0.6,0,1.1,0,1.7s0,1.1,0,1.6s0,1,0,1.6s0,1.1,0.1,1.7c0.1,0.5,0.1,1.1,0.1,1.7s0,1,0,1.4c0,0.3,0,0.8,0,1.4
		c0,0.6,0,1.2,0.1,1.9s0.1,1.3,0.1,1.9c0,0.3,0.1,0.8,0.1,1.4c0,0.6,0,1.1-0.1,1.4c0,0.1-0.1,0.2-0.3,0.2c-0.2,0.1-0.4,0.1-0.7,0.1
		c-0.2,0-0.5,0-0.7,0s-0.4-0.1-0.5-0.1s-0.2-0.1-0.3-0.3c-0.1-0.2-0.2-0.4-0.4-0.6s-0.3-0.4-0.4-0.6c-0.1-0.2-0.2-0.3-0.3-0.4
		c-0.3-0.3-0.5-0.5-0.7-0.7s-0.4-0.4-0.5-0.6c-0.2-0.2-0.3-0.4-0.5-0.6c-0.2-0.2-0.3-0.5-0.5-0.7c-0.2-0.3-0.4-0.5-0.5-0.7
		s-0.2-0.3-0.4-0.5s-0.2-0.3-0.4-0.5c-0.2-0.2-0.3-0.4-0.6-0.7c-0.1-0.1-0.2-0.3-0.4-0.5s-0.3-0.4-0.5-0.7c-0.2-0.2-0.3-0.4-0.5-0.6
		s-0.3-0.3-0.4-0.4s-0.1-0.2-0.2-0.3c-0.1-0.1-0.1-0.2-0.2-0.3c-0.1-0.1-0.2-0.2-0.2-0.1c0,0-0.1,0.1-0.2,0.2
		c-0.4,0.3-0.8,0.7-1.2,1.1c-0.4,0.4-0.7,0.8-1,1.2c-0.3,0.4-0.6,0.8-0.8,1.1c-0.2,0.3-0.5,0.7-0.7,1.1c-0.3,0.4-0.5,0.8-0.8,1.2
		c-0.2,0.4-0.5,0.8-0.9,1.2c-0.1,0.2-0.3,0.4-0.4,0.7c-0.1,0.3-0.3,0.6-0.5,1c-0.2,0.3-0.3,0.6-0.5,0.8C61.3,38.4,61.2,38.5,61,38.5
		z"/>
	<path class="st1" d="M96.7,22.4c0,0.3,0,0.5,0,0.8c0,0.2,0,0.5,0,0.8s0,0.7,0,1.2s0,0.8,0,1s0,0.5,0,0.6c0,0.2,0,0.4,0,0.6
		s0,0.6,0,1.1l-0.2,3.4c-0.1,0.6-0.2,1.2-0.2,1.8c0,0.6-0.1,1.2-0.4,1.6c-0.3,0.5-0.7,1-1.2,1.5c-0.6,0.6-1.1,1-1.5,1.3
		c-0.2,0.1-0.7,0.3-1.5,0.5C91,38.9,90.2,39,89.3,39c-1,0-1.9,0-2.8-0.2s-1.4-0.3-1.7-0.5c-0.5-0.3-0.9-0.6-1.3-0.9
		c-0.4-0.4-0.7-0.8-1-1.2c-0.3-0.5-0.5-1-0.8-1.6s-0.4-1.2-0.5-1.8c-0.1-0.5-0.1-0.9,0-1.3c0-0.4,0-0.9,0-1.5c0-0.5,0-1.1,0-1.8
		c0-0.7,0-1.4,0-1.9c0-0.6,0-1.1,0-1.6c0-0.4,0-0.9,0-1.5s0.1-1.2,0.2-1.8c0.1-0.6,0.2-1.2,0.1-1.8s-0.1-1.2-0.1-1.8
		c0-0.6-0.1-1.2-0.1-1.7c0-0.6,0-1.3,0-2s0-1.3,0.1-1.9c0.1-0.8,0.4-1.6,0.7-2.4c0.4-0.7,0.8-1.4,1.5-1.9c0.6-0.4,1.1-0.7,1.5-0.9
		c0.4-0.2,1-0.3,1.6-0.5c0.2,0,0.4-0.1,0.6-0.1s0.3,0,0.5,0h0.5c1.1-0.1,2-0.1,2.6,0c0.7,0.1,1.4,0.2,2.1,0.5s1.2,0.7,1.6,1.3
		c0.2,0.4,0.5,0.8,0.7,1.1c0.3,0.3,0.5,0.6,0.7,1c0.2,0.3,0.3,0.8,0.5,1.3c0.1,0.5,0.2,1.2,0.3,2.1c0,0.4,0,0.8,0,1.2
		s-0.1,0.8-0.1,1.2s0,0.9,0,1.4v3.9C96.7,21.8,96.7,22.1,96.7,22.4z M94.2,31.6c0.1-0.2,0.1-0.5,0.2-0.9c0.1-0.3,0.1-0.6,0.2-1
		c0-0.4,0-0.9,0-1.4s0-0.9,0-1.1s0-0.6,0-0.9s0-0.6,0-0.9s0-0.7,0-1.1c0-0.5,0-0.8,0-1s0-0.3,0-0.4s0-0.2,0-0.4c0-0.2,0-0.5,0-1
		s0-0.9,0-1.2c0-0.3,0-0.6,0-0.9s0-0.6,0-0.9s0-0.7,0-1.2c0-1,0-1.8,0-2.4c0-0.7,0-1,0-1.1c0-0.2,0-0.5-0.1-0.9
		c0-0.4-0.1-0.7-0.3-1.1c-0.1-0.4-0.3-0.7-0.4-1c-0.2-0.3-0.3-0.6-0.5-0.8c-0.4-0.4-0.9-0.7-1.5-0.8C91.1,9,90.5,9,90,9
		c-0.3,0-0.5,0-0.7,0S89,9,88.8,9s-0.3,0-0.5,0s-0.4,0-0.7,0c-1,0-1.8,0.4-2.6,1c-0.3,0.3-0.6,0.7-0.9,1.1c-0.3,0.4-0.4,0.9-0.5,1.5
		c-0.1,0.5-0.1,0.9-0.1,1.3c0,0.4,0,0.9,0,1.5c0,0.5,0,1.1-0.1,1.8s-0.1,1.3,0,1.9c0,0.6,0,1.1,0,1.6s0,1,0,1.7c0,0.6,0,1.2-0.1,1.7
		s-0.1,1.1-0.1,1.7c0,0.3,0,0.6,0,0.9s0,0.7,0.1,1.1c0,0.4,0.1,0.7,0.1,1.1s0,0.6,0,0.9c0,0.6,0,1.1,0.1,1.8
		c0.1,0.6,0.2,1.1,0.2,1.5c0.1,0.6,0.2,1.1,0.4,1.5c0.2,0.4,0.5,0.8,0.8,1.2c0.4,0.4,0.8,0.6,1.2,0.8c0.4,0.1,0.8,0.1,1.3,0.1
		c0.3,0,0.5,0,0.7,0s0.3,0.1,0.5,0.1s0.3,0.1,0.5,0.1s0.4,0,0.7,0c0.6,0,1.2-0.2,1.8-0.7c0.7-0.4,1.2-0.8,1.5-1.2
		c0.2-0.2,0.4-0.4,0.5-0.8c0.1-0.4,0.2-0.8,0.3-1.1C94.1,32.6,94.1,32.1,94.2,31.6z"/>
	<path class="st1" d="M115.7,22.4c0,0.3,0,0.5,0,0.8c0,0.2,0,0.5,0,0.8s0,0.7,0,1.2s0,0.8,0,1s0,0.5,0,0.6c0,0.2,0,0.4,0,0.6
		s0,0.6,0,1.1l-0.2,3.4c-0.1,0.6-0.2,1.2-0.2,1.8c0,0.6-0.1,1.2-0.4,1.6c-0.3,0.5-0.7,1-1.2,1.5c-0.6,0.6-1.1,1-1.5,1.3
		c-0.2,0.1-0.7,0.3-1.5,0.5s-1.6,0.3-2.5,0.4c-1,0-1.9,0-2.8-0.2s-1.4-0.3-1.7-0.5c-0.5-0.3-0.9-0.6-1.3-0.9c-0.4-0.4-0.7-0.8-1-1.2
		c-0.3-0.5-0.5-1-0.8-1.6s-0.4-1.2-0.5-1.8c-0.1-0.5-0.1-0.9,0-1.3c0-0.4,0-0.9,0-1.5c0-0.5,0-1.1,0-1.8c0-0.7,0-1.4,0-1.9
		c0-0.6,0-1.1,0-1.6c0-0.4,0-0.9,0-1.5s0.1-1.2,0.2-1.8c0.1-0.6,0.2-1.2,0.1-1.8s-0.1-1.2-0.1-1.8c0-0.6-0.1-1.2-0.1-1.7
		c0-0.6,0-1.3,0-2s0-1.3,0.1-1.9c0.1-0.8,0.4-1.6,0.7-2.4c0.4-0.7,0.8-1.4,1.5-1.9c0.6-0.4,1.1-0.7,1.5-0.9c0.4-0.2,1-0.3,1.6-0.5
		c0.2,0,0.4-0.1,0.6-0.1s0.3,0,0.5,0h0.5c1.1-0.1,2-0.1,2.6,0c0.7,0.1,1.4,0.2,2.1,0.5s1.2,0.7,1.6,1.3c0.2,0.4,0.5,0.8,0.7,1.1
		c0.3,0.3,0.5,0.6,0.7,1c0.2,0.3,0.3,0.8,0.5,1.3c0.1,0.5,0.2,1.2,0.3,2.1c0,0.4,0,0.8,0,1.2s-0.1,0.8-0.1,1.2s0,0.9,0,1.4v3.9
		C115.7,21.8,115.7,22.1,115.7,22.4z M113.2,31.6c0.1-0.2,0.1-0.5,0.2-0.9c0.1-0.3,0.1-0.6,0.2-1c0-0.4,0-0.9,0-1.4s0-0.9,0-1.1
		s0-0.6,0-0.9s0-0.6,0-0.9s0-0.7,0-1.1c0-0.5,0-0.8,0-1s0-0.3,0-0.4s0-0.2,0-0.4c0-0.2,0-0.5,0-1s0-0.9,0-1.2c0-0.3,0-0.6,0-0.9
		s0-0.6,0-0.9s0-0.7,0-1.2c0-1,0-1.8,0-2.4c0-0.7,0-1,0-1.1c0-0.2,0-0.5-0.1-0.9c0-0.4-0.1-0.7-0.3-1.1c-0.1-0.4-0.3-0.7-0.4-1
		c-0.2-0.3-0.3-0.6-0.5-0.8c-0.4-0.4-0.9-0.7-1.5-0.8C110.2,9,109.6,9,109.1,9c-0.3,0-0.5,0-0.7,0s-0.3,0-0.5,0s-0.3,0-0.5,0
		s-0.4,0-0.7,0c-1,0-1.8,0.4-2.6,1c-0.3,0.3-0.6,0.7-0.9,1.1c-0.3,0.4-0.4,0.9-0.5,1.5c-0.1,0.5-0.1,0.9-0.1,1.3c0,0.4,0,0.9,0,1.5
		c0,0.5,0,1.1-0.1,1.8s-0.1,1.3,0,1.9c0,0.6,0,1.1,0,1.6s0,1,0,1.7c0,0.6,0,1.2-0.1,1.7s-0.1,1.1-0.1,1.7c0,0.3,0,0.6,0,0.9
		s0,0.7,0.1,1.1c0,0.4,0.1,0.7,0.1,1.1s0,0.6,0,0.9c0,0.6,0,1.1,0.1,1.8c0.1,0.6,0.2,1.1,0.2,1.5c0.1,0.6,0.2,1.1,0.4,1.5
		c0.2,0.4,0.5,0.8,0.8,1.2c0.4,0.4,0.8,0.6,1.2,0.8c0.4,0.1,0.8,0.1,1.3,0.1c0.3,0,0.5,0,0.7,0s0.3,0.1,0.5,0.1s0.3,0.1,0.5,0.1
		s0.4,0,0.7,0c0.6,0,1.2-0.2,1.8-0.7c0.7-0.4,1.2-0.8,1.5-1.2c0.2-0.2,0.4-0.4,0.5-0.8c0.1-0.4,0.2-0.8,0.3-1.1
		C113.1,32.6,113.2,32.1,113.2,31.6z"/>
</g>
<text transform="matrix(1 0 0 1 -983.3136 342.261)" style="font-family:'KanoteDemo'; font-size:63.6756px;">EcoWoo</text>
<text transform="matrix(1 0 0 1 -983.3136 393.3974)" style="font-family:'KanoteDemo'; font-size:63.6756px;">ecowoo</text>
<text transform="matrix(1 0 0 1 -966.7139 537.7953)" style="font-family:'Gouristal-Regular'; font-size:63.6756px;">EcoWoo</text>
<g>
	<path d="M12.2,193.2c0-7,0.5-19.6,6-19.6h0.2l7.4,0.6l-0.2,6.2l-7.6-0.9l-0.1,13.6l5.7-0.6l0.1,5.3c-1.7,0.2-3.4,0.4-5.2,0.6
		l-0.7,0.1l-0.2,15l7.1-1.7l0.5,5.2l-9,2.1c-0.1,0-0.1,0-0.2,0c-3.5,0-3.8-14.1-3.8-20c0-1.1,0-1.9,0-2.3
		C12.2,196.1,12.2,194.8,12.2,193.2z"/>
	<path d="M26.8,193.2c0-7,0.5-19.6,6-19.6c0.1,0,0.2,0,0.2,0l6.6,0.6l-0.2,6.2l-6.6-0.9l-0.4,34l6.3-1.7l0.5,5.2l-8.4,2.1
		c-0.1,0-0.1,0-0.2,0c-3.5,0-3.8-14.1-3.8-20c0-1.1,0-1.9,0-2.3C26.8,196.1,26.8,194.8,26.8,193.2z"/>
	<path d="M55.5,195.1c0,12.1-0.3,23.9-7.9,23.9c-8.3,0-8.6-12.2-8.6-22.4c0-8.9,0.9-23,8.1-23C54.7,173.6,55.5,186.6,55.5,195.1z
		 M44.2,214.1h6.1l-0.7-34.5L45,179L44.2,214.1z"/>
	<path d="M61.3,174.1l0.1,32.3l5.1-23l1.9,0.1l5,20.9l0.2-30.3h4.5l-0.9,44.5h-5.1l-4.7-21.9l-4.6,21.9h-5.4L57,174.1H61.3z"/>
	<path d="M96.1,195.1c0,12.1-0.3,23.9-7.9,23.9c-8.3,0-8.6-12.2-8.6-22.4c0-8.9,0.9-23,8.1-23C95.4,173.6,96.1,186.6,96.1,195.1z
		 M84.8,214.1h6.1l-0.7-34.5l-4.6-0.6L84.8,214.1z"/>
	<path d="M114.1,195.1c0,12.1-0.3,23.9-7.9,23.9c-8.3,0-8.6-12.2-8.6-22.4c0-8.9,0.9-23,8.1-23C113.4,173.6,114.1,186.6,114.1,195.1
		z M102.8,214.1h6.1l-0.7-34.5l-4.6-0.6L102.8,214.1z"/>
</g>
<g>
	<path d="M494.9,2.7c0.9-0.2,1.7-0.3,2.5-0.4c0.8-0.1,1.5-0.1,2.2-0.1s1.4,0.3,2.1,0.7c0.8,0.5,1.4,1.1,1.8,1.7s0.7,1.3,0.9,1.9
		c0.2,0.7,0.3,1.3,0.4,2s0.3,1.4,0.7,2.1c-0.6,0.7-1.4,1.4-2.3,1.9c-0.9,0.6-2,0.9-3.4,0.9c-0.6,0-1.4-0.2-2.2-0.5
		c-0.8-0.3-1.7-0.7-2.5-1.1c-0.9-0.4-1.7-0.8-2.6-1.1c-0.8-0.3-1.6-0.5-2.3-0.5c-0.4,0-0.9,0.1-1.5,0.2s-1.1,0.3-1.5,0.6
		c-0.5,0.3-0.9,0.6-1.2,0.9c-0.3,0.4-0.5,0.8-0.5,1.2v0.4c0,0.6,0.3,1.1,0.8,1.6s1,0.7,1.6,0.7h0.5c0.3,0,0.6-0.1,1-0.4
		c0.4-0.3,0.7-0.5,1.1-0.8s0.8-0.5,1.2-0.8c0.4-0.3,0.9-0.4,1.4-0.4c0.7,0,1.2,0.3,1.7,0.9c0.4,0.6,0.7,1.4,0.9,2.3
		c0.2,0.9,0.3,1.9,0.2,3s-0.2,2.1-0.5,3s-0.7,1.7-1.3,2.3c-0.6,0.6-1.2,0.9-2,0.9c-0.5,0-0.9-0.1-1.2-0.3c-0.3-0.2-0.5-0.4-0.8-0.6
		s-0.5-0.4-0.8-0.6s-0.6-0.3-1-0.3c-0.9,0-1.6,0.3-2.1,1c-0.5,0.6-0.7,1.4-0.7,2.4c0,0.8,0.5,1.3,1.4,1.6c0.9,0.3,2,0.4,3.2,0.4
		s2.5-0.2,3.7-0.5s2.1-0.6,2.8-1c0.6-0.4,1.3-0.9,1.9-1.6c0.7-0.7,1.3-1.3,2.1-1.9c0.7-0.6,1.5-1.1,2.3-1.6s1.7-0.7,2.7-0.7h1
		c0.8,0,1.3,0.1,1.8,0.3c0.4,0.2,0.7,0.5,1,0.8c0.2,0.3,0.4,0.7,0.5,1.2c0.1,0.4,0.3,0.9,0.6,1.4c-0.5,0.6-0.9,1.2-1.3,2.1
		c-0.4,0.8-0.8,1.7-1.2,2.6c-0.4,0.9-0.8,1.8-1.1,2.7c-0.4,0.9-0.8,1.6-1.1,2.3c-0.5,0.9-1.2,1.4-2,1.6c-0.8,0.2-1.7,0.2-2.7,0.1
		s-2-0.3-3.1-0.5s-2.2-0.3-3.3-0.3c-2.5,0-4.9,0-6.9,0.1c-2.1,0-4.1,0.1-6,0.2c-1.9,0.1-3.8,0.1-5.7,0.3c-1.9,0.1-4,0.2-6.2,0.4
		v-0.9l-0.6,0.9c-1.2,0-2.3-0.3-3.1-0.7c-0.8-0.4-1.2-1.3-1.2-2.6c0-0.5,0.2-1.1,0.6-1.8s0.8-1.4,1.3-2.2c0.5-0.8,0.9-1.6,1.3-2.6
		c0.4-0.9,0.6-1.9,0.6-3v-11c0-0.9-0.1-1.8-0.3-2.5c-0.2-0.7-0.4-1.4-0.7-2c-0.3-0.6-0.5-1.1-0.7-1.5s-0.3-0.8-0.3-1.2
		c0-1.1,0.3-1.8,1-2.3s1.5-0.8,2.4-1c1-0.1,2-0.2,3-0.1c1,0.1,2,0.1,2.8,0.1h16.2C493,3,494,2.9,494.9,2.7z"/>
	<path d="M514.5,23c1-1,2.3-1.8,3.8-2.4s3.1-1.1,4.8-1.4s3.3-0.6,4.7-1c0.3,0.2,0.6,0.6,1.1,1c0.4,0.5,0.8,1,1.2,1.6s0.7,1.2,1,1.8
		c0.3,0.6,0.4,1.2,0.4,1.7c0,0.3-0.2,0.6-0.7,1c-0.4,0.4-0.9,0.6-1.4,0.6h-1c-0.8,0-1.6-0.2-2.3-0.6s-1.3-0.7-1.9-1
		c-0.5,0.4-0.8,0.8-1.1,1.1c-0.3,0.3-0.4,1-0.4,1.9c0,1.1,0.3,2.1,1,2.9s1.5,1.2,2.5,1.2c0.4,0,0.8-0.1,1.1-0.2s0.6-0.3,1-0.5
		c0.3-0.2,0.7-0.4,1.2-0.5s1.1-0.2,1.9-0.2c0,0.3,0.1,0.5,0.2,0.6c0.1,0.2,0.1,0.3,0.2,0.5c0.1,0.2,0.1,0.4,0.1,0.6s0,0.5,0,0.8
		c0,0.7-0.3,1.3-1,1.8c-0.7,0.6-1.5,1-2.4,1.4c-1,0.4-2,0.7-3,1c-1.1,0.2-2,0.4-2.8,0.4h-1c-2.7,0-4.8-0.7-6.4-2.2
		c-1.6-1.5-2.4-3.5-2.4-6v-2C513,25.3,513.5,24,514.5,23z"/>
	<path d="M547.2,37.4c-1.4,0-2.8-0.2-4.3-0.7c-1.5-0.4-2.8-1.1-4.1-1.8c-1.2-0.8-2.3-1.7-3.1-2.7s-1.2-2.2-1.2-3.3v-2.5
		c0-0.9,0.4-1.9,1.1-2.8c0.7-1,1.6-1.8,2.7-2.6c1.1-0.8,2.2-1.4,3.3-1.9s2.2-0.8,3.1-0.8c1.7,0,3.5,0.1,5.2,0.3
		c1.7,0.2,3.2,0.6,4.6,1.2c1.3,0.6,2.4,1.4,3.2,2.5s1.2,2.5,1.2,4.2v0.4c0,1.3-0.3,2.5-1.1,3.8c-0.7,1.3-1.6,2.4-2.7,3.4
		c-1.1,1-2.3,1.8-3.7,2.5C550,37.1,548.6,37.4,547.2,37.4z M544.1,26.3c0,0.5,0.1,1.1,0.4,1.8c0.3,0.7,0.6,1.4,1,2.1
		s0.8,1.3,1.3,1.8c0.5,0.5,0.9,0.8,1.3,0.8c0.3,0,0.5,0,0.6,0s0.2-0.1,0.3-0.1s0.2-0.1,0.4-0.2c0.1-0.1,0.4-0.1,0.7-0.2
		c0-1-0.1-2-0.4-3.2c-0.3-1.1-0.6-2.2-1.1-3.1s-1.1-1.7-1.9-2.4c-0.7-0.6-1.6-1-2.6-1V26.3z"/>
	<path d="M582.5,4.7c0.3-0.4,0.7-0.7,1.2-0.9c0.5-0.3,1-0.4,1.5-0.6c0.6-0.1,1.1-0.2,1.5-0.2l9.4,0.2l2,1.6c0,0.4-0.1,0.7-0.2,1
		c-0.1,0.3-0.1,0.5-0.2,0.7c-0.1,0.2-0.1,0.5-0.2,0.7c0,0.3-0.1,0.6-0.1,1c0,0.1,0.2,0.6,0.5,1.3s0.7,1.5,1.2,2.4
		c0.5,0.8,1.1,1.6,1.7,2.3c0.6,0.7,1.2,1,1.8,1.1c0.3-1.1,0.6-2.1,1.1-3.1s0.7-1.9,0.7-2.7c0-0.4-0.1-0.7-0.2-0.9
		c-0.1-0.2-0.3-0.4-0.4-0.6c-0.1-0.2-0.3-0.5-0.4-0.8c-0.1-0.3-0.2-0.8-0.2-1.4s0.1-1,0.4-1.3c0.3-0.3,0.6-0.6,0.9-1.1l5.2-0.5
		l6.2,0.1c0.7,0,1.3,0.1,1.7,0.2c0.4,0.1,0.8,0.2,1.1,0.4s0.6,0.4,0.9,0.6c0.3,0.2,0.6,0.5,1,0.7c-0.7,1.4-1.2,2.4-1.7,3.1
		c-0.4,0.7-0.9,1.2-1.2,1.7c-0.4,0.4-0.8,0.9-1.2,1.4s-1,1.2-1.6,2.2c-0.3,0.4-0.6,1.1-0.9,1.9c-0.3,0.8-0.7,1.8-1.1,2.7
		c-0.4,1-0.8,1.9-1.1,2.9c-0.4,0.9-0.6,1.7-0.9,2.2c-0.7,1.7-1.3,3.5-1.9,5.2c-0.6,1.7-1.2,3.4-1.9,5c-0.5,1-1,1.8-1.5,2.3
		c-0.5,0.6-1.1,1-1.8,1.3s-1.5,0.5-2.5,0.5c-1,0.1-2.2,0.1-3.7,0.1c-0.8,0-1.6-0.6-2.5-1.8s-1.8-2.6-2.7-4.1
		c-0.9-1.6-1.8-3.1-2.8-4.6s-1.9-2.5-2.8-3.2c-0.6,0.5-1.2,1.1-1.8,2c-0.6,0.8-1.1,1.8-1.7,2.8c-0.6,1-1.1,2.1-1.7,3.1
		c-0.6,1.1-1.2,2-1.8,2.9c-0.7,0.8-1.4,1.5-2.2,2.1s-1.7,0.8-2.6,0.8h-2.8c-1,0-1.8-0.2-2.4-0.7c-0.6-0.5-1.1-1.1-1.5-1.8
		s-0.7-1.5-0.9-2.3s-0.5-1.6-0.8-2.3c-0.5-1.2-1.1-2.6-1.9-4.1c-0.8-1.5-1.5-2.9-2.1-4.1c-0.7-1.4-1.3-2.8-1.9-4.2
		c-0.6-1.5-1.3-2.9-1.9-4.2c-0.4-0.7-0.9-1.3-1.6-1.8c-0.7-0.5-1.3-1-1.9-1.5c-0.6-0.5-1.2-1-1.7-1.5s-0.7-1-0.7-1.6
		c0-0.9,0.4-1.7,1.2-2.3s1.8-1,3.1-1.3s2.7-0.4,4.3-0.5s3.2-0.1,4.8-0.1s3.2,0.1,4.8,0.2c1.5,0.1,2.9,0.1,4,0.1l1.5,2.9l-1.5,2.9
		c0.2,0.3,0.4,0.7,0.8,1.3c0.4,0.6,0.8,1.3,1.2,1.9c0.4,0.7,0.8,1.2,1.3,1.7c0.4,0.5,0.8,0.7,1.1,0.7c0.6,0,1-0.3,1.4-1
		s0.6-1.5,0.9-2.4c0.2-0.9,0.4-1.8,0.4-2.7c0.1-0.9,0.1-1.5,0.1-2v-1C582,5.5,582.1,5.1,582.5,4.7z"/>
	<path d="M626.7,37.4c-1.4,0-2.8-0.2-4.3-0.7c-1.5-0.4-2.8-1.1-4.1-1.8c-1.2-0.8-2.3-1.7-3.1-2.7S614,30,614,28.9v-2.5
		c0-0.9,0.4-1.9,1.1-2.8s1.6-1.8,2.7-2.6c1.1-0.8,2.2-1.4,3.3-1.9s2.2-0.8,3.1-0.8c1.7,0,3.5,0.1,5.2,0.3c1.7,0.2,3.2,0.6,4.6,1.2
		c1.3,0.6,2.4,1.4,3.2,2.5s1.2,2.5,1.2,4.2v0.4c0,1.3-0.4,2.5-1.1,3.8c-0.7,1.3-1.6,2.4-2.7,3.4c-1.1,1-2.3,1.8-3.7,2.5
		C629.5,37.1,628.1,37.4,626.7,37.4z M623.6,26.3c0,0.5,0.1,1.1,0.4,1.8c0.3,0.7,0.6,1.4,1,2.1s0.8,1.3,1.3,1.8
		c0.5,0.5,0.9,0.8,1.3,0.8c0.3,0,0.5,0,0.6,0s0.2-0.1,0.3-0.1s0.2-0.1,0.3-0.2c0.1-0.1,0.4-0.1,0.7-0.2c0-1-0.1-2-0.4-3.2
		c-0.3-1.1-0.6-2.2-1.1-3.1s-1.1-1.7-1.9-2.4c-0.7-0.6-1.6-1-2.6-1v3.7H623.6z"/>
	<path d="M653.2,37.4c-1.4,0-2.8-0.2-4.3-0.7c-1.5-0.4-2.8-1.1-4.1-1.8c-1.2-0.8-2.3-1.7-3.1-2.7s-1.2-2.2-1.2-3.3v-2.5
		c0-0.9,0.4-1.9,1.1-2.8c0.7-1,1.6-1.8,2.7-2.6c1.1-0.8,2.2-1.4,3.3-1.9s2.2-0.8,3.1-0.8c1.7,0,3.5,0.1,5.2,0.3
		c1.7,0.2,3.2,0.6,4.6,1.2c1.3,0.6,2.4,1.4,3.2,2.5s1.2,2.5,1.2,4.2v0.4c0,1.3-0.3,2.5-1.1,3.8c-0.7,1.3-1.6,2.4-2.7,3.4
		c-1.1,1-2.3,1.8-3.7,2.5C656,37.1,654.6,37.4,653.2,37.4z M650.1,26.3c0,0.5,0.1,1.1,0.4,1.8c0.3,0.7,0.6,1.4,1,2.1
		s0.8,1.3,1.3,1.8c0.5,0.5,0.9,0.8,1.3,0.8c0.3,0,0.5,0,0.6,0s0.2-0.1,0.3-0.1s0.2-0.1,0.4-0.2c0.1-0.1,0.4-0.1,0.7-0.2
		c0-1-0.1-2-0.4-3.2c-0.3-1.1-0.6-2.2-1.1-3.1s-1.1-1.7-1.9-2.4c-0.7-0.6-1.6-1-2.6-1V26.3z"/>
</g>
<g>
	<path d="M473.4,220.8l-9.1-0.1l0.2,28.2l0,0v0.8v2l0.5-2h3.7v4.9l-4.2-0.1v2.2l9,0.2l-0.1,5.8l-6.1-0.5l-0.1-1.7l-0.3,0.9l-5.1-0.4
		l0.4-2.4c-0.2,0.7-0.3,1.3-0.5,1.7c-0.1,0.5-0.2,0.9-0.4,1.3l-1.6-0.2l-1.2-41.1c0-0.7-0.1-1.4-0.4-2.1c-0.3-0.7-0.9-1.4-1.9-2.3
		l5.2-0.4c0.1,0.3,0.1,0.6,0.2,0.9c0.1,0.3,0.2,0.7,0.2,1.1l0.2-2.8l7.6-0.5l0.1,2.1l0.2-1.5l3.8-0.2L473.4,220.8z M461.5,238.9
		l0.3,6.5l-0.2-18L461.5,238.9z"/>
	<path d="M482.3,219.5c-0.7,0-1.3,0.7-1.7,2c-0.5,1.3-0.8,3-1.1,5.2c-0.2,2.1-0.4,4.5-0.5,7s-0.2,5-0.2,7.6c0,2.5,0,4.8,0.1,6.8
		s0.1,3.6,0.1,4.8c0,0.4,0,0.7,0,0.9c0.1,1.3,0.5,2.3,1.1,3c0.7,0.7,1.3,0.9,1.9,0.7c0.6-0.2,0.9-0.9,0.8-2.1
		c-0.1-1.2-0.8-3-2.3-5.4l3.5-0.1l0.2,1.8l0.2-1.4c1.4,0,2.6,0,3.6-0.1l0.2,1.6l0.1-1.6c0.1,0,0.1,0,0.2,0c1-0.1,1.8-0.1,2.5,0
		c-0.4,1.2-0.7,2.1-0.9,2.6c-0.2,0.6-0.3,1.1-0.4,1.4c-0.1,0.4-0.2,0.8-0.4,1.3c-0.4,1.7-0.9,3-1.8,4.1s-1.8,1.9-3,2.4l-0.6-2.3
		l0.2,1.8c-1.7,0.7-3.4,0.7-5.2,0.1l-0.2-1.9l-0.2,2.3c-1.1-0.5-2.1-1.2-3-2.3c-1.1-1.5-1.6-3.4-1.6-5.8c0-1.5-0.1-3.4-0.2-5.9
		c-0.2-3.6-0.3-7.6-0.4-11.9c-0.1-4.4,0.1-8.3,0.5-11.9c0.4-3.6,1.3-5.9,2.6-7.2c0.8-0.7,1.6-1.2,2.3-1.6l0.3,1.6l-0.1-2.2
		c1.5-0.7,3.1-0.7,4.9-0.2v1.5l0.2-0.9c2.2,0.8,3.7,2.8,4.8,6c0.6,1.1,1.2,2.1,1.6,3.1c0.3,0.6,0.6,1.3,1,2.1l-2,0.2l-0.4-1.7
		l0.3,2.6c-0.6,0-1.3,0.1-2,0.1c-0.6,0-1.1,0-1.5,0.1l-0.1-2.1l-0.2,1c0,0,0,0-0.1,0c-0.7,0.1-1.3,0.2-2,0.2c0.4-1,0.6-1.8,0.7-2.6
		s-0.1-1.7-0.4-2.8C483.6,220.2,483,219.5,482.3,219.5z M476.4,239.5l0.2,6.5l-0.1-18L476.4,239.5z"/>
	<path d="M505.4,256c0,1.7-0.6,3.2-1.8,4.4c-0.5,0.5-1.1,0.9-1.7,1.2l-0.4-4.2c0,1.2,0,2.1,0,2.9c0,0.7,0,1.4,0,2
		c-0.7,0.3-1.5,0.4-2.3,0.4c-1,0-1.9-0.2-2.8-0.7l-0.5-3.7c0.1,1.2,0.1,2.2,0,3.1c-0.2-0.1-0.4-0.3-0.6-0.5s-0.4-0.3-0.6-0.5
		c-1.2-1.2-1.8-2.7-1.8-4.4l-1.2-35.2c0-1.2,0.3-2.2,0.9-3s1.4-1.5,2.4-2l0.2,2l0.4-3.3c2.1-0.8,4.2-1,6.3-0.5l0.2,4.5v-3.3
		c2.3,0.7,3.9,2.6,4.6,5.7L505.4,256z M494.6,240l0.2,6.4v-18L494.6,240z M499.2,219.3c-0.4,0-0.7,0.1-1,0.4
		c-0.3,0.2-0.4,0.6-0.4,0.9V256c0,0.4,0.1,0.7,0.4,0.9c0.3,0.3,0.6,0.4,1,0.4s0.7-0.1,0.9-0.4c0.3-0.2,0.4-0.6,0.4-0.9v-35.4
		c0-0.4-0.1-0.7-0.4-0.9C499.8,219.4,499.5,219.3,499.2,219.3z M502.9,243.7l0.1,2.9v-8.2L502.9,243.7z"/>
	<path d="M527.2,255.5c0,0.9,0.1,1.7,0.4,2.4c0.3,0.7,1,1.6,2.2,2.5l-3,0.9l-0.2-1.1l-0.1,1.2l-2.2,0.7l-0.2-1.3v0.8l-3.1,0.1
		l-2.7-6.1l-0.4-1.8l-0.1,1.2l-2.9,7.6l-1.5-0.6l0.3-1.9l-1,2.6l-2.9-1c0.1-0.3,0.2-0.6,0.3-0.9c0.1-0.3,0.2-0.6,0.3-1.1l-1.1,1.8
		l-1.9-0.6c0.7-0.5,1.2-2,1.5-4.4s0.5-5.4,0.6-8.8c0.1-3.4,0.1-6.9,0-10.4s-0.2-6.6-0.3-9.4c0-0.2,0-0.4,0-0.6c0-0.8,0-1.5,0-2.1
		c0-0.8,0-1.5-0.1-1.9c-0.1-0.5-0.3-1-0.6-1.6c-0.3-0.5-0.9-1.3-1.6-2.3l2.6-0.3l0.3,1.3l0.1-1l4-0.2l0.2,0.8v-1l1.6-0.1
		c-0.2,0.5-0.4,0.9-0.6,1.3c-0.4,0.9-0.7,1.5-0.8,2c-0.2,0.5-0.3,0.9-0.3,1.4s0,1.2,0,2.1c0,0.5,0,1,0,1.7l0.4,23.4l3.3-4.8l3.5,4.4
		l-0.4-28.8c0-0.9-0.1-1.7-0.1-2.2c-0.1-0.5-0.2-1-0.4-1.3c-0.2-0.4-0.5-0.8-1-1.4c-0.2-0.3-0.5-0.7-0.8-1.1l2.6-0.3l0.3,1.3l0.1-1
		l4-0.2l0.2,0.9v-1h1.6c-0.4,0.8-0.7,1.4-0.9,1.8c-0.2,0.4-0.4,0.7-0.5,1s-0.2,0.6-0.2,1.1c0,0.4,0,1.1,0,2L527.2,255.5z
		 M511.7,236.5l-0.4-6.4l0.5,17.9L511.7,236.5z M523.7,235.1l-0.4-6.5l0.5,18L523.7,235.1z"/>
	<path d="M543.5,256c0,1.7-0.6,3.2-1.8,4.4c-0.5,0.5-1.1,0.9-1.7,1.2l-0.4-4.2c0,1.2,0,2.1,0,2.9c0,0.7,0,1.4,0,2
		c-0.7,0.3-1.5,0.4-2.3,0.4c-1,0-1.9-0.2-2.8-0.7l-0.5-3.7c0.1,1.2,0.1,2.2,0,3.1c-0.2-0.1-0.4-0.3-0.6-0.5
		c-0.2-0.2-0.4-0.3-0.6-0.5c-1.2-1.2-1.8-2.7-1.8-4.4l-1.2-35.2c0-1.2,0.3-2.2,0.9-3c0.6-0.8,1.4-1.5,2.4-2l0.2,2l0.4-3.3
		c2.1-0.8,4.2-1,6.3-0.5l0.2,4.5v-3.3c2.3,0.7,3.9,2.6,4.6,5.7L543.5,256z M532.7,240l0.2,6.4v-18L532.7,240z M537.2,219.3
		c-0.4,0-0.7,0.1-1,0.4c-0.3,0.2-0.4,0.6-0.4,0.9V256c0,0.4,0.1,0.7,0.4,0.9c0.3,0.3,0.6,0.4,1,0.4s0.7-0.1,0.9-0.4
		c0.3-0.2,0.4-0.6,0.4-0.9v-35.4c0-0.4-0.1-0.7-0.4-0.9C537.9,219.4,537.6,219.3,537.2,219.3z M541,243.7l0.1,2.9v-8.2L541,243.7z"
		/>
	<path d="M558.5,256c0,1.7-0.6,3.2-1.8,4.4c-0.5,0.5-1.1,0.9-1.7,1.2l-0.4-4.2c0,1.2,0,2.1,0,2.9c0,0.7,0,1.4,0,2
		c-0.7,0.3-1.5,0.4-2.3,0.4c-1,0-1.9-0.2-2.8-0.7l-0.5-3.7c0.1,1.2,0.1,2.2,0,3.1c-0.2-0.1-0.4-0.3-0.6-0.5
		c-0.2-0.2-0.4-0.3-0.6-0.5c-1.2-1.2-1.8-2.7-1.8-4.4l-1.2-35.2c0-1.2,0.3-2.2,0.9-3c0.6-0.8,1.4-1.5,2.4-2l0.2,2l0.4-3.3
		c2.1-0.8,4.2-1,6.3-0.5l0.2,4.5v-3.3c2.3,0.7,3.9,2.6,4.6,5.7L558.5,256z M547.8,240l0.2,6.4v-18L547.8,240z M552.3,219.3
		c-0.4,0-0.7,0.1-1,0.4c-0.3,0.2-0.4,0.6-0.4,0.9V256c0,0.4,0.1,0.7,0.4,0.9c0.3,0.3,0.6,0.4,1,0.4s0.7-0.1,0.9-0.4
		c0.3-0.2,0.4-0.6,0.4-0.9v-35.4c0-0.4-0.1-0.7-0.4-0.9C553,219.4,552.6,219.3,552.3,219.3z M556.1,243.7l0.1,2.9v-8.2L556.1,243.7z
		"/>
</g>
<g>
	<g>
		<path d="M471,131.4c0.2,0.3,0.3,0.5,0.3,0.8s0.1,0.5,0.1,0.7s0,0.4,0,0.5s0,0.3,0,0.5h-0.1l-0.6,1.3c-0.2,0.2-0.4,0.3-0.6,0.4
			c-0.2,0.1-0.4,0.1-0.6,0.1c-0.6,0-1-0.2-1.2-0.5s-0.3-0.6-0.3-1c0,0-0.1,0.1-0.1,0.3v0.1c0,0.2,0.1,0.5,0.1,1v0.2l-0.2,0.1
			c-0.1,0.2-0.3,0.3-0.4,0.3c-0.3,0-0.6-0.1-0.8-0.2h-0.3l-0.1,0.1c0,0-0.1,0-0.1,0.1c-0.3-0.1-0.5-0.2-0.6-0.2s-0.2,0.1-0.3,0.2
			c-0.1,0.1-0.3,0.2-0.7,0.2c0,0-0.1,0-0.1-0.1c-0.1,0-0.2,0.1-0.4,0.1c-0.4,0-0.8-0.1-1.1-0.3c-0.4-0.2-0.8-0.3-1.1-0.3
			c-0.3,0-0.7,0-1,0.1s-0.6,0.1-0.9,0.1l-1.3-0.1c-0.1,0-0.2,0-0.3-0.1c-0.1,0-0.2-0.1-0.2-0.1s-0.1,0-0.2-0.1l-0.6-0.4
			c-0.1,0-0.2-0.1-0.4-0.3c-0.1-0.2-0.2-0.4-0.3-0.6c-0.1-0.2-0.1-0.4-0.2-0.6c0-0.2-0.1-0.4-0.1-0.5l0.1-0.7c0-0.1,0-0.1,0-0.2
			v-0.1l0.1-0.3c-0.2-0.5-0.3-1.1-0.3-1.8s0-1.7,0-2.9h0.1h-0.1v-0.1V127c0-1.2,0.1-2.5,0.2-3.7s0.1-2.4,0.1-3.6
			c-0.2-0.3-0.3-0.5-0.3-0.8l0.1-0.8V118c0-0.1,0-0.1,0.1-0.2c0-0.1,0-0.3,0-0.4s0-0.3,0-0.4l0.1-2.5c0-0.2,0-0.4,0-0.6
			s0-0.4,0.1-0.6v-0.4c0-0.4-0.1-0.8-0.1-1.3c0-0.4-0.1-0.9-0.1-1.5s-0.1-1.3-0.1-2.2c0-0.8-0.1-2-0.1-3.3c0-0.3,0-0.5,0.1-0.5
			c0-0.7-0.1-1.3-0.1-2s0-1.3,0-2c0-2.2,0.1-4.3,0.2-6.5s0.2-4.4,0.2-6.5c0-1,0-1.9,0-2.9c0-0.9,0-1.9,0.1-2.9c0,0-0.1-0.1-0.1-0.2
			c0,0,0.1-0.1,0.1-0.2c-0.1-3.9-0.1-7.8-0.2-11.7c0-3.9-0.1-7.8-0.1-11.7l0.1-2c0-0.1-0.1-0.2-0.1-0.4l0.1-0.6l0.6-1.2l1-0.6
			c0.1-0.1,0.2-0.1,0.3-0.1c0.1,0,0.2,0,0.3-0.1h0.4v-0.1l0.6,0.1v-0.1v-0.1l0.3,0.1c0.1-0.1,0.3-0.2,0.4-0.2s0.2,0,0.2,0
			c0.1,0,0.1,0,0.2,0h0.2c0.3-0.1,0.5-0.1,0.8-0.2c0.3,0,0.5-0.1,0.8-0.1c0.1,0,0.2,0,0.3,0.1c0.1,0,0.2,0.1,0.3,0.1
			c0.2,0,0.4-0.1,0.6-0.4c0,0.1,0,0.1,0,0.2V52v0c0.1,0,0.1,0.1,0.2,0.1c0,0,0.1,0.1,0.2,0.1c0.2,0,0.3-0.1,0.3-0.3
			c0,0,0.1,0.1,0.3,0.1s0.3,0,0.4-0.1l0.4-0.2l1,0.1c0.3,0.1,0.7,0.3,1.2,0.6l0.4,0.4c0.3,0.3,0.6,0.7,0.7,1.1
			c0.1,0.4,0.2,0.8,0.2,1.1l-0.1,0.9c0,0-0.1,0-0.1,0.1h-0.1c0,0-0.1,0.2-0.2,0.5s-0.3,0.5-0.4,0.7l-0.4,0.4
			c-0.1,0.2-0.2,0.3-0.4,0.3c-0.1,0-0.3,0-0.5,0c-0.5,0-0.8-0.1-1-0.4c-0.2-0.3-0.4-0.6-0.4-1v-0.4c0,0.1-0.1,0.3-0.1,0.5
			c0,0.3,0.1,0.5,0.1,0.7s0,0.3,0,0.4l-0.2,0.1c0,0.2-0.1,0.3-0.3,0.3c-0.1,0-0.3,0-0.4-0.1s-0.3-0.1-0.4-0.1s-0.2,0.1-0.3,0.2
			l-0.4-0.2c-0.1,0-0.2,0.1-0.3,0.2c0,0.1-0.2,0.2-0.5,0.2c0,0-0.1,0-0.1-0.1c-0.1,0-0.2,0.1-0.3,0.1c-0.3,0-0.6-0.1-0.8-0.2v5.7
			c0,0.4,0,0.8,0,1.3c0,0.4,0,0.8,0,1.3l0.1,2.4c0,2,0,3.8,0.1,5.5c0,1.7,0.1,3.3,0.1,5c0,1.6,0.1,3.3,0.1,5s0.1,3.6,0.1,5.6
			c0,1.2,0,2.5-0.1,3.8c0,1.3-0.1,2.5-0.1,3.8c0,1,0,1.9,0.1,2.8c0,0.9,0.1,1.8,0.3,2.7c-0.1,0.1-0.1,0.2-0.2,0.5
			c0,0.2-0.1,0.4-0.2,0.6l0.3-0.3c0,0.7-0.1,1.5-0.1,2.2s-0.1,1.5-0.1,2.2c0,0.5,0,1,0.1,1.5s0.1,1,0.1,1.4c0,0.5,0,0.9,0,1.2
			c0,0.3,0,0.8,0,1.5c0,0.6,0,1.1,0.1,1.7s0.2,0.8,0.4,0.8c0.2,0,0.3-0.1,0.4-0.4c0,0.1,0,0.1,0,0.2v0.1V116c0.1,0,0.1,0.1,0.2,0.1
			c0,0,0.1,0.1,0.2,0.1s0.2-0.1,0.3-0.3c0,0,0.1,0.1,0.3,0.1c0.1,0,0.2,0,0.4-0.1l0.1-0.1l0.7,0.1h0.1c0,0,0-0.1,0.1-0.1l0.1,0.1
			c0.3,0,0.6,0.1,0.9,0.3c0.3,0.2,0.5,0.3,0.7,0.5l0.3,0.3l0.6,1c0.1,0.3,0.2,0.7,0.2,1l-0.1,1.1l-0.1,0.1l-0.5,0.8
			c-0.2,0.3-0.4,0.6-0.6,0.8c-0.2,0.2-0.4,0.3-0.7,0.3c-0.5,0-0.9-0.1-1.1-0.4s-0.4-0.6-0.5-1v-0.1c0,0.1-0.1,0.2-0.1,0.3
			c0,0.3,0.1,0.5,0.1,0.7s0,0.3,0,0.4h-0.1c-0.1,0.2-0.2,0.3-0.3,0.3c-0.1,0-0.2,0-0.4-0.1c-0.1-0.1-0.2-0.1-0.4-0.1
			c-0.1,0-0.2,0.1-0.3,0.2c-0.1-0.1-0.3-0.2-0.4-0.2l-0.3,0.3c0,0.6,0.1,1.3,0.1,1.9s0,1.3,0,1.9c0,0.8,0,1.5-0.1,2.1
			c0,0.6-0.1,1.3-0.3,1.9v0.6l1.3-0.1c0.2,0,0.3,0,0.5,0c0.1,0,0.3,0,0.4,0c0.3,0,0.5-0.1,0.7-0.3c0,0.1,0.1,0.1,0.1,0.2
			c0,0,0,0.1,0,0.2v-0.3c0.1,0,0.2,0.1,0.3,0.1c0.1,0,0.2,0.1,0.3,0.1c0.1,0,0.3-0.1,0.4-0.3c0,0,0.1,0.1,0.3,0.1c0.1,0,0.2,0,0.3,0
			c0.1,0,0.2-0.1,0.3-0.1l0.4-0.2c0,0,0.1-0.1,0.3-0.1l0.9,0.1c0.3,0,0.6,0.1,1,0.4s0.7,0.5,0.9,0.7L471,131.4z M456.6,128.6
			c0-0.1-0.1-0.3-0.1-0.4c0-0.2-0.1-0.3-0.2-0.5c0.1,0.2,0.1,0.4,0.2,0.6c0,0.2,0.1,0.4,0.1,0.6V128.6z M462.2,129.7H462v0.2
			L462.2,129.7z M464.1,121.5c0,0.1,0,0.1-0.1,0.2L464.1,121.5L464.1,121.5z M465,57.8C465,57.9,465,57.9,465,57.8
			c-0.1,0.1-0.1,0.1-0.1,0.2L465,57.8L465,57.8z M467.5,120.5l-0.2-0.1c0,0,0,0.1-0.1,0.1H467.5z M468.3,56.3
			c0.1-0.1,0.3-0.1,0.4-0.1l-0.3-0.1C468.4,56.2,468.3,56.3,468.3,56.3z"/>
		<path d="M473.9,129.4c-0.1-0.3-0.2-0.6-0.3-0.8v-0.1c0-1.3,0.1-2.3,0.1-3.2c0-0.8,0-1.5,0.1-2c0-0.6,0-1.1,0.1-1.5v2.4
			c0-1.2,0-3,0-5.5s0.1-5.9,0.1-10.3s0.1-9.8,0.2-16.2c0.1-6.5,0.2-14.2,0.3-23.3c0-1.1,0-2.2,0-3.2c0-1.1,0-2.1,0-3.2V59
			c0.1-0.6,0.2-1.2,0.3-1.9c0.1-0.7,0.3-1.4,0.7-2.1l0.4-0.8l0.6-0.8c0.4-0.5,1-0.9,1.7-1.3l1.1-0.4c0.1,0,0.3,0,0.4-0.1
			c0.1,0,0.3-0.1,0.4-0.1h0.3c0.1-0.1,0.3-0.1,0.6-0.1c0.3,0,0.5,0,0.7,0c0.5,0,1,0.1,1.5,0.2c0.5,0.1,1,0.4,1.6,0.7l1,0.9
			c0.1,0.2,0.2,0.3,0.3,0.3l0.8,1.7c0,0.2,0.1,0.4,0.1,0.6s0,0.4,0,0.6l-0.1,1v0.1v0.1l-0.4,0.7l-1,0.8c-0.3,0.1-0.7,0.2-1.1,0.2
			c-0.3,0-0.5,0-0.9-0.1c-0.3-0.1-0.6-0.2-0.9-0.4l-0.4-0.6l-0.4-0.8c0,0-0.2-0.1-0.4-0.3h-0.6c-0.1,0-0.3,0.1-0.4,0.3l-0.2,0.3
			c-0.1,0.2-0.2,0.5-0.2,0.9c-0.1,0.4-0.1,0.7-0.1,1.1v1c0-0.1,0-0.1,0.1-0.1v27.1c0,2.3,0,4.5-0.1,6.7c0,2.3-0.1,4.6-0.1,7.1
			s-0.1,5.2-0.1,8.1s-0.1,6.1-0.1,9.6c0,1.1,0,2.1,0.1,3.2c0,1,0.1,2.1,0.3,3.1c-0.1,0.6-0.1,1.3-0.1,1.9c0,0.7,0,1.3,0,1.9v0.3
			l0.1,0.1v0.1c0.1,0.2,0.2,0.3,0.3,0.3l0.3-0.5c0-0.1,0-0.3,0.1-0.6c0-0.3,0.1-0.4,0.1-0.6V127l0.1-1.1c0.1-0.1,0.2-0.3,0.3-0.6
			c0.1-0.3,0.3-0.6,0.5-0.8l0.3-0.4c0.3-0.3,0.6-0.5,0.9-0.6c0.4-0.1,0.7-0.3,1.1-0.4l1.3,0.1c0.2,0,0.4,0,0.5,0.1s0.3,0.1,0.4,0.2
			l0.8,0.6c0.3,0.3,0.6,0.7,0.8,1.1s0.4,0.9,0.4,1.4v1.1l-0.1,0.7c0,0.3-0.1,0.6-0.1,0.8c0,0.3-0.1,0.5-0.2,0.8l-0.2,0.7
			c-0.2,0.3-0.3,0.6-0.3,0.8l-0.6,1.3c-0.4,0.8-0.9,1.5-1.6,1.9s-1.3,0.7-1.8,0.7L482,136c-0.1,0.1-0.2,0.1-0.3,0.1
			c-0.1,0-0.3,0-0.4,0.1H481c-0.5,0-1-0.1-1.7-0.2c-0.7-0.1-1.3-0.3-2-0.6s-1.3-0.8-1.8-1.4c-0.6-0.6-1-1.4-1.3-2.4l-0.2-0.7
			c0-0.1,0-0.3,0-0.4c0-0.1,0-0.3,0-0.4V129c0.1,0.2,0.1,0.3,0.1,0.4c0,0.1,0,0.2,0.1,0.3v0.3c0,0.1,0,0.1,0.1,0.2v-0.8H473.9z
			 M479.6,60.4L479.6,60.4L479.6,60.4L479.6,60.4z M486.3,126.5L486.3,126.5L486.3,126.5L486.3,126.5z M486.5,131.3
			c0.2-0.1,0.3-0.1,0.3-0.1l-0.2-0.1L486.5,131.3z"/>
		<path d="M509,126c0,0.2,0.1,0.5,0.1,1l-0.1,1.3c0,0.2,0,0.3,0,0.4s-0.1,0.3-0.1,0.4l-0.2,0.8c-0.1,0.5-0.3,1-0.7,1.7
			c-0.4,0.6-0.8,1.2-1.3,1.8s-1.1,1.1-1.8,1.5c-0.7,0.4-1.4,0.6-2.2,0.6c-0.5,0-1-0.1-1.3-0.2c-0.1,0-0.2,0-0.3,0
			c-0.1,0-0.2,0.1-0.3,0.1h-1.5c-0.5,0-0.9,0-1.4-0.1c-0.5,0-1-0.1-1.4-0.2l-0.7-0.1l-1.6-0.7l-0.9-0.6c-0.4-0.3-0.8-0.7-1.1-1.2
			c-0.4-0.4-0.7-1-1-1.6l-0.4-0.8c-0.2-0.6-0.3-1.1-0.4-1.7l-0.1-1.6l0.1-2.4c0,0-0.1-0.2-0.1-0.4h-0.2l0.2-6.9c0,0.2,0,0.4,0.1,0.5
			c0-0.1,0-0.1,0.1-0.2l-0.1-0.6c-0.1,0.2-0.1,0.3-0.2,0.3l0.1-3.4c-0.1-1.3-0.2-2.7-0.2-4.3c0-2.6,0-5.2,0.1-7.7
			c0-2.5,0.1-5.1,0.3-7.6c0-1.9,0-3.6,0-5.3c0-1.7,0-3.3,0-5s0-3.3,0-5s0.1-3.5,0.2-5.4l0.1-2.1c0-0.8-0.1-1.7-0.1-2.5s0-1.7,0-2.5
			l0.1-6.1l0.1-1.8c0.2-0.9,0.5-1.8,1-2.7c0.5-0.8,1-1.6,1.7-2.2s1.4-1.1,2.3-1.5s1.9-0.5,2.9-0.5c1.7,0,3,0.3,4,0.9
			c1,0.6,1.9,1.3,2.5,2.2s1.1,1.8,1.4,2.8s0.5,1.9,0.5,2.8l0.1,1.6c0,2.5,0.1,4.8,0.2,7.1c0.1,2.3,0.1,4.5,0.2,6.7s0.2,4.5,0.2,6.7
			c0.1,2.3,0.1,4.6,0.2,7.1c0.1,2.3,0.1,4.6,0,7s0.1,4.8,0.4,7c-0.1,0.1-0.1,0.3-0.2,0.5c0,0.2-0.1,0.5-0.2,0.7l0.3-0.4
			c0,0.7,0,1.3,0,2s0,1.3,0,2c0,3.2,0.1,6.2,0.4,9.2C508.8,120.1,509,123.1,509,126z M491.8,132.1l0.5,0.4c0,0,0-0.1-0.1-0.2
			L491.8,132.1z M500.7,60.4c0,0,0-0.3-0.1-0.9c0-0.5-0.1-1.1-0.3-1.7c-0.1-0.4-0.3-0.7-0.5-1s-0.5-0.4-0.8-0.4h-0.1
			c-0.2,0-0.4,0-0.7,0.1c-0.2,0-0.5,0.1-0.7,0.2l-0.6,0.7c-0.3,0.3-0.6,0.8-0.8,1.5l-0.1,0.4c0,0.1,0,0.2,0,0.3s0,0.2,0,0.3
			l-0.1,1.1c0,0.3,0,0.6,0,0.9c0,0.3,0,0.6-0.1,0.9v0.1c0,0.2,0,0.4,0,0.7c0,0.2,0,0.5,0,0.7v0.4c0,0.2-0.1,0.4-0.1,0.8
			c0-0.1,0-0.2,0-0.2s0-0.1,0-0.2V70c0,0-0.1,0.1-0.1,0.3l0.1,0.4c0.1-0.2,0.1-0.3,0.2-0.3L496,74c0.1,0.7,0.1,1.5,0.1,2.2
			s0,1.5,0,2.3c0,3.4,0,6.7-0.1,9.9c-0.1,3.2-0.1,6.3-0.2,9.5c-0.1,3.1-0.1,6.3-0.2,9.5c0,3.2-0.1,6.5-0.1,9.9v10.1
			c0,0.1,0,0.2,0.1,0.4c0,0.1,0.1,0.3,0.1,0.4l0.4,0.8c0.5,1,1.5,1.5,3.2,1.7h0.7c0,0,0,0.1,0,0.2c0,0.1,0,0.3,0.1,0.6v-0.8h0.1
			c0.5,0,0.9-0.1,1.2-0.3c0.3-0.2,0.5-0.4,0.6-0.6c0.1-0.3,0.3-0.6,0.4-0.9c0.1-0.3,0.2-0.7,0.3-1.1v-0.7
			c-0.2-5.1-0.3-10.2-0.4-15.3c-0.1-5.1-0.3-10.2-0.4-15.4c0-1.1-0.1-2.1,0-3.1c0-1,0-1.9,0-2.8s-0.1-1.9-0.1-2.8c0-1-0.1-2-0.3-3.1
			c0.1-0.1,0.1-0.3,0.2-0.5c0-0.2,0.1-0.4,0.2-0.6l-0.2,0.3c0-0.6,0-1.3,0-1.9c0-0.7,0-1.3,0-1.9c0-3.2-0.1-6.3-0.4-9.4
			s-0.4-6.1-0.4-9.1V61h2.1l-0.3-0.1h-1.8c0,0-0.1,0,0,0l0,0v-0.5H500.7z M500.5,57.6c0,0-0.1,0.1-0.2,0.3L500.5,57.6L500.5,57.6z
			 M505.9,133.8h-3.3l2.9,0.2L505.9,133.8z"/>
		<path d="M515.3,129.4c-0.1-1.6-0.1-3.3-0.2-5.1c0-1.8-0.2-3.5-0.4-5v-2.5c0-0.3,0-0.5,0-0.7s0-0.4-0.1-0.6V115
			c0-0.4-0.1-0.8-0.2-1.2c-0.1-0.4-0.2-0.9-0.3-1.5s-0.2-1.3-0.3-2.2s-0.1-2-0.1-3.4v-0.3c-0.3-2.8-0.5-5.6-0.5-8.5
			c0-2.8-0.1-5.7-0.2-8.5l-0.4-7.6c0-0.3,0-0.5,0-0.7s0-0.5-0.1-0.7v-0.1c-0.3-3.9-0.6-7.8-0.9-11.6c-0.3-3.8-0.5-7.8-0.7-11.8
			l-0.1-2.2v-0.8c0,0,0.1-0.1,0-0.2c0-0.1,0-0.2,0.1-0.3l0.2-0.5l0.3-0.4c0.1-0.2,0.4-0.4,0.7-0.5s0.6-0.3,0.9-0.4h1
			c0.8,0.3,1.4,0.7,1.6,1.1c0.2,0.4,0.4,0.8,0.5,1.3l0.1,0.3v2.2l0.6,8.5h0.2v2.4l0.3,4.2c0.5,3.2,0.8,6.5,0.9,9.9
			c0.1,3.4,0.3,6.7,0.5,10c0.2,2.2,0.3,4.4,0.3,6.6s0.3,4.4,0.7,6.4c-0.1,0.1-0.1,0.3-0.2,0.5c0,0.2-0.1,0.4-0.2,0.6l0.3-0.3
			c0,0.8,0,1.7,0,2.5s0.1,1.7,0.2,2.5c0-0.1,0.1-0.6,0.2-1.5c0.1-0.8,0.3-2,0.5-3.3c0.2-1.4,0.4-2.9,0.7-4.7c0.3-1.8,0.6-3.6,1-5.6
			l0.2-1l0.3-0.6c0-0.2,0.1-0.4,0.3-0.6s0.3-0.4,0.5-0.5l0.4-0.2c0.3-0.2,0.7-0.3,1-0.3h0.8l0.5,0.2c0.3,0.1,0.5,0.2,0.7,0.4
			l0.1,0.1c0.1,0.1,0.2,0.2,0.2,0.3c0.1,0.1,0.1,0.2,0.2,0.3l0.3,0.6c0,0.1,0,0.1,0,0.2c0,0,0,0.1,0,0.2l0.1,0.3l0.6,5l0.5,3.4
			c0,0.2,0.1,0.4,0.1,0.7c0,0.3,0.1,0.5,0.2,0.8l0.3,1.7c0.1-2.8,0.4-5.6,0.7-8.4c0.4-2.8,0.7-5.7,1.1-8.5l0.1-1.3
			c0-1.1,0.1-2.2,0.3-3.2c0.1-1.1,0.2-2.1,0.3-3.2l0.1-1.5c0.3-3.9,0.6-7.8,0.8-11.7c0.2-3.9,0.5-7.8,1-11.6l0.3-2.2l0.2-1
			c0-0.5,0.3-0.9,0.8-1.2s1-0.5,1.2-0.5h0.7c0.1,0,0.2,0,0.4,0c0.1,0,0.2,0,0.2,0h-0.1l1.1,0.6c0.1,0,0.1,0.1,0.2,0.2
			c0,0.1,0.1,0.1,0.1,0.2c0.3,0.4,0.5,0.9,0.5,1.3l-0.2,2.9c-0.1,1-0.2,2-0.3,3s-0.2,2-0.2,3l-0.3,5c-0.3,4.1-0.6,8.1-0.9,12.1
			c-0.2,4-0.5,8-0.9,12.1c-0.2,2-0.4,3.9-0.6,5.8c-0.2,1.9-0.4,3.9-0.4,5.8c0,0.3,0,0.5,0,0.7s0,0.5,0,0.7l-0.4,1l0.3-0.3
			c-0.2,1.2-0.3,2.5-0.4,3.7c-0.1,1.2-0.2,2.4-0.2,3.6c-0.3,2.5-0.5,5-0.5,7.4s-0.1,4.9-0.4,7.4c-0.1,0.8-0.2,1.5-0.3,2.1
			s-0.3,1.3-0.5,1.9l-0.2,1.6l-0.3,0.7l-0.7,0.8v0.4l-0.2,0.1c-0.1,0.5-0.3,0.8-0.6,1s-0.5,0.3-0.7,0.3c-0.3,0-0.4,0-0.5-0.1
			l-0.1-0.1c0,0-0.1,0-0.1-0.1h-0.1c0-0.1,0-0.2-0.1-0.3v-0.5c0,0-0.1,0-0.1,0.1l-0.1,0.4l-0.1,0.1l-0.2,0.1c0,0-0.1,0.1-0.3,0.1
			s-0.4,0-0.6-0.1c-0.2-0.1-0.4-0.2-0.5-0.4l-0.3-0.4c-0.3-0.2-0.6-0.5-0.7-1c-0.1-0.5-0.2-1-0.2-1.7l0.4,0.6v-0.1l-0.4-0.5
			c-0.1-0.8-0.1-1.7-0.2-2.6c0-0.9-0.2-1.7-0.4-2.5c0-0.3,0-0.5,0-0.7s0-0.4,0-0.6V126c0-0.4-0.1-1-0.4-1.6s-0.4-1.6-0.4-3
			c-0.2-1-0.4-2-0.4-3c-0.1-1-0.1-2.1-0.2-3.1c-0.1,0.8-0.3,1.5-0.4,2.3s-0.3,1.5-0.3,2.3c0,0.4,0,0.7,0.1,0.8
			c-0.1,0.1-0.2,0.2-0.2,0.3c-0.1,0.1-0.1,0.2-0.2,0.3l0.3-0.1c-0.2,0.7-0.3,1.3-0.4,1.9c-0.1,0.6-0.2,1.2-0.2,1.8
			c-0.2,0.8-0.3,1.6-0.4,2.5c0,0.9-0.1,1.8-0.2,2.6c-0.1,0.9-0.2,1.7-0.3,2.5s-0.4,1.4-0.8,1.9l-0.2,0.8l-1,0.6c0,0-0.1,0.1-0.1,0.3
			c0,0,0,0.1-0.1,0.1l-0.3,0.1l-0.1,0.1l-0.3,0.2c-0.2,0.2-0.3,0.3-0.5,0.3c-0.1,0-0.3,0-0.4,0c-0.5,0-0.7-0.2-0.7-0.5s0-0.5,0-0.6
			l-0.1,0.3c0,0,0-0.1-0.1-0.1l-0.3,0.4c-0.1,0.1-0.3,0.2-0.4,0.2c-0.3-0.1-0.5-0.2-0.8-0.4s-0.5-0.5-0.5-1v-0.3
			c-0.3,0-0.6-0.5-0.6-1.5C515.4,132.2,515.3,130.9,515.3,129.4l0.3,1.2v-0.3L515.3,129.4z M515.3,129.4l-0.1-0.3L515.3,129.4
			L515.3,129.4z M516,132.2l-0.2-0.7C515.8,131.8,515.9,132.1,516,132.2L516,132.2z M521.5,133.9L521.5,133.9h0.3H521.5z
			 M532.5,135.1c0,0.1,0,0.1-0.1,0.1L532.5,135.1L532.5,135.1z M533.4,131.7l0.1-0.1l-0.1-0.1V131.7z"/>
		<path d="M560.2,126c0,0.2,0.1,0.5,0.1,1l-0.1,1.3c0,0.2,0,0.3,0,0.4c0,0.1-0.1,0.3-0.1,0.4l-0.2,0.8c-0.1,0.5-0.3,1-0.7,1.7
			c-0.4,0.6-0.8,1.2-1.3,1.8s-1.1,1.1-1.8,1.5s-1.4,0.6-2.2,0.6c-0.5,0-1-0.1-1.3-0.2c-0.1,0-0.2,0-0.3,0s-0.2,0.1-0.3,0.1h-1.5
			c-0.5,0-0.9,0-1.4-0.1c-0.5,0-1-0.1-1.4-0.2L547,135l-1.6-0.7l-0.9-0.6c-0.4-0.3-0.8-0.7-1.1-1.2c-0.4-0.4-0.7-1-1-1.6l-0.4-0.8
			c-0.2-0.6-0.3-1.1-0.4-1.7l-0.1-1.6l0.1-2.4c0,0-0.1-0.2-0.1-0.4h-0.2l0.2-6.9c0,0.2,0,0.4,0.1,0.5c0-0.1,0-0.1,0.1-0.2l-0.1-0.6
			c-0.1,0.2-0.1,0.3-0.2,0.3l0.1-3.4c-0.1-1.3-0.2-2.7-0.2-4.3c0-2.6,0-5.2,0.1-7.7c0-2.5,0.1-5.1,0.3-7.6c0-1.9,0-3.6,0-5.3
			c0-1.7,0-3.3,0-5s0-3.3,0-5s0.1-3.5,0.2-5.4l0.1-2.1c0-0.8-0.1-1.7-0.1-2.5s0-1.7,0-2.5l0.1-6.1l0.1-1.8c0.2-0.9,0.5-1.8,1-2.7
			c0.5-0.8,1-1.6,1.7-2.2c0.7-0.6,1.4-1.1,2.3-1.5c0.9-0.4,1.9-0.5,2.9-0.5c1.7,0,3,0.3,4,0.9c1,0.6,1.9,1.3,2.5,2.2
			s1.1,1.8,1.4,2.8c0.3,1,0.5,1.9,0.5,2.8l0.1,1.6c0,2.5,0.1,4.8,0.2,7.1c0.1,2.3,0.1,4.5,0.2,6.7c0.1,2.2,0.2,4.5,0.2,6.7
			c0.1,2.3,0.1,4.6,0.2,7.1c0.1,2.3,0.1,4.6,0,7s0.1,4.8,0.4,7c-0.1,0.1-0.1,0.3-0.2,0.5c0,0.2-0.1,0.5-0.2,0.7l0.3-0.4
			c0,0.7,0,1.3,0,2s0,1.3,0,2c0,3.2,0.1,6.2,0.4,9.2S560.2,123.1,560.2,126z M543,132.1l0.5,0.4c0,0,0-0.1-0.1-0.2L543,132.1z
			 M552,60.4c0,0,0-0.3-0.1-0.9c0-0.5-0.1-1.1-0.3-1.7c-0.1-0.4-0.3-0.7-0.5-1s-0.5-0.4-0.8-0.4h-0.1c-0.2,0-0.4,0-0.7,0.1
			c-0.2,0-0.5,0.1-0.7,0.2l-0.6,0.7c-0.3,0.3-0.6,0.8-0.8,1.5l-0.1,0.4c0,0.1,0,0.2,0,0.3s0,0.2,0,0.3l-0.1,1.1c0,0.3,0,0.6,0,0.9
			c0,0.3,0,0.6-0.1,0.9v0.1c0,0.2,0,0.4,0,0.7c0,0.2,0,0.5,0,0.7v0.4c0,0.2-0.1,0.4-0.1,0.8c0-0.1,0-0.2,0-0.2c0-0.1,0-0.1,0-0.2V70
			c0,0-0.1,0.1-0.1,0.3l0.1,0.4c0.1-0.2,0.1-0.3,0.2-0.3l-0.1,3.6c0.1,0.7,0.1,1.5,0.1,2.2s0,1.5,0,2.3c0,3.4,0,6.7-0.1,9.9
			c-0.1,3.2-0.1,6.3-0.2,9.5c-0.1,3.1-0.1,6.3-0.2,9.5c0,3.2-0.1,6.5-0.1,9.9v10.1c0,0.1,0,0.2,0.1,0.4c0,0.1,0.1,0.3,0.1,0.4
			l0.4,0.8c0.5,1,1.5,1.5,3.2,1.7h0.7c0,0,0,0.1,0,0.2c0,0.1,0,0.3,0.1,0.6v-0.8h0.1c0.5,0,0.9-0.1,1.2-0.3s0.5-0.4,0.6-0.6
			s0.3-0.6,0.4-0.9c0.1-0.3,0.2-0.7,0.3-1.1v-0.7c-0.2-5.1-0.3-10.2-0.4-15.3c-0.1-5.1-0.3-10.2-0.4-15.4c0-1.1-0.1-2.1,0-3.1
			c0-1,0-1.9,0-2.8s-0.1-1.9-0.1-2.8c0-1-0.1-2-0.3-3.1c0.1-0.1,0.1-0.3,0.2-0.5c0-0.2,0.1-0.4,0.2-0.6l-0.2,0.3c0-0.6,0-1.3,0-1.9
			c0-0.7,0-1.3,0-1.9c0-3.2-0.1-6.3-0.4-9.4c-0.3-3.1-0.4-6.1-0.4-9.1V61h2.1l-0.3-0.1H552c0,0-0.1,0,0,0l0,0V60.4z M551.8,57.6
			c0,0-0.1,0.1-0.2,0.3L551.8,57.6L551.8,57.6z M557.1,133.8h-3.3l2.9,0.2L557.1,133.8z"/>
		<path d="M581.1,126c0,0.2,0.1,0.5,0.1,1l-0.1,1.3c0,0.2,0,0.3,0,0.4c0,0.1-0.1,0.3-0.1,0.4l-0.2,0.8c-0.1,0.5-0.3,1-0.7,1.7
			c-0.4,0.6-0.8,1.2-1.3,1.8s-1.1,1.1-1.8,1.5s-1.4,0.6-2.2,0.6c-0.5,0-1-0.1-1.3-0.2c-0.1,0-0.2,0-0.3,0s-0.2,0.1-0.3,0.1h-1.5
			c-0.5,0-0.9,0-1.4-0.1c-0.5,0-1-0.1-1.4-0.2l-0.7-0.1l-1.6-0.7l-0.9-0.6c-0.4-0.3-0.8-0.7-1.1-1.2c-0.4-0.4-0.7-1-1-1.6l-0.4-0.8
			c-0.2-0.6-0.3-1.1-0.4-1.7l-0.1-1.6l0.1-2.4c0,0-0.1-0.2-0.1-0.4h-0.2l0.2-6.9c0,0.2,0,0.4,0.1,0.5c0-0.1,0-0.1,0.1-0.2l-0.1-0.6
			c-0.1,0.2-0.1,0.3-0.2,0.3l0.1-3.4c-0.1-1.3-0.2-2.7-0.2-4.3c0-2.6,0-5.2,0.1-7.7c0-2.5,0.1-5.1,0.3-7.6c0-1.9,0-3.6,0-5.3
			c0-1.7,0-3.3,0-5s0-3.3,0-5s0.1-3.5,0.2-5.4l0.1-2.1c0-0.8-0.1-1.7-0.1-2.5s0-1.7,0-2.5l0.1-6.1l0.1-1.8c0.2-0.9,0.5-1.8,1-2.7
			c0.5-0.8,1-1.6,1.7-2.2c0.7-0.6,1.4-1.1,2.3-1.5c0.9-0.4,1.9-0.5,2.9-0.5c1.7,0,3,0.3,4,0.9c1,0.6,1.9,1.3,2.5,2.2
			s1.1,1.8,1.4,2.8c0.3,1,0.5,1.9,0.5,2.8l0.1,1.6c0,2.5,0.1,4.8,0.2,7.1c0.1,2.3,0.1,4.5,0.2,6.7c0.1,2.2,0.2,4.5,0.2,6.7
			c0.1,2.3,0.1,4.6,0.2,7.1c0.1,2.3,0.1,4.6,0,7s0.1,4.8,0.4,7c-0.1,0.1-0.1,0.3-0.2,0.5c0,0.2-0.1,0.5-0.2,0.7l0.3-0.4
			c0,0.7,0,1.3,0,2s0,1.3,0,2c0,3.2,0.1,6.2,0.4,9.2S581.1,123.1,581.1,126z M563.9,132.1l0.5,0.4c0,0,0-0.1-0.1-0.2L563.9,132.1z
			 M572.8,60.4c0,0,0-0.3-0.1-0.9c0-0.5-0.1-1.1-0.3-1.7c-0.1-0.4-0.3-0.7-0.5-1s-0.5-0.4-0.8-0.4H571c-0.2,0-0.4,0-0.7,0.1
			c-0.2,0-0.5,0.1-0.7,0.2l-0.6,0.7c-0.3,0.3-0.6,0.8-0.8,1.5l-0.1,0.4c0,0.1,0,0.2,0,0.3s0,0.2,0,0.3L568,61c0,0.3,0,0.6,0,0.9
			c0,0.3,0,0.6-0.1,0.9v0.1c0,0.2,0,0.4,0,0.7c0,0.2,0,0.5,0,0.7v0.4c0,0.2-0.1,0.4-0.1,0.8c0-0.1,0-0.2,0-0.2c0-0.1,0-0.1,0-0.2V70
			c0,0-0.1,0.1-0.1,0.3l0.1,0.4c0.1-0.2,0.1-0.3,0.2-0.3l-0.1,3.6c0.1,0.7,0.1,1.5,0.1,2.2s0,1.5,0,2.3c0,3.4,0,6.7-0.1,9.9
			c-0.1,3.2-0.1,6.3-0.2,9.5c-0.1,3.1-0.1,6.3-0.2,9.5c0,3.2-0.1,6.5-0.1,9.9v10.1c0,0.1,0,0.2,0.1,0.4c0,0.1,0.1,0.3,0.1,0.4
			l0.4,0.8c0.5,1,1.5,1.5,3.2,1.7h0.7c0,0,0,0.1,0,0.2c0,0.1,0,0.3,0.1,0.6v-0.8h0.1c0.5,0,0.9-0.1,1.2-0.3s0.5-0.4,0.6-0.6
			s0.3-0.6,0.4-0.9c0.1-0.3,0.2-0.7,0.3-1.1v-0.7c-0.2-5.1-0.3-10.2-0.4-15.3c-0.1-5.1-0.3-10.2-0.4-15.4c0-1.1-0.1-2.1,0-3.1
			c0-1,0-1.9,0-2.8s-0.1-1.9-0.1-2.8c0-1-0.1-2-0.3-3.1c0.1-0.1,0.1-0.3,0.2-0.5c0-0.2,0.1-0.4,0.2-0.6l-0.2,0.3c0-0.6,0-1.3,0-1.9
			c0-0.7,0-1.3,0-1.9c0-3.2-0.1-6.3-0.4-9.4c-0.3-3.1-0.4-6.1-0.4-9.1V61h2.1l-0.3-0.1h-1.8c0,0-0.1,0,0,0l0,0V60.4z M572.6,57.6
			c0,0-0.1,0.1-0.2,0.3L572.6,57.6L572.6,57.6z M578,133.8h-3.3l2.9,0.2L578,133.8z"/>
		<path d="M602,126c0,0.2,0.1,0.5,0.1,1l-0.1,1.3c0,0.2,0,0.3,0,0.4c0,0.1-0.1,0.3-0.1,0.4l-0.2,0.8c-0.1,0.5-0.3,1-0.7,1.7
			c-0.4,0.6-0.8,1.2-1.3,1.8s-1.1,1.1-1.8,1.5s-1.4,0.6-2.2,0.6c-0.5,0-1-0.1-1.3-0.2c-0.1,0-0.2,0-0.3,0s-0.2,0.1-0.3,0.1h-1.5
			c-0.5,0-0.9,0-1.4-0.1c-0.5,0-1-0.1-1.4-0.2l-0.7-0.1l-1.6-0.7l-0.9-0.6c-0.4-0.3-0.8-0.7-1.1-1.2c-0.4-0.4-0.7-1-1-1.6l-0.4-0.8
			c-0.2-0.6-0.3-1.1-0.4-1.7l-0.1-1.6l0.1-2.4c0,0-0.1-0.2-0.1-0.4h-0.2l0.2-6.9c0,0.2,0,0.4,0.1,0.5c0-0.1,0-0.1,0.1-0.2l-0.1-0.6
			c-0.1,0.2-0.1,0.3-0.2,0.3l0.1-3.4c-0.1-1.3-0.2-2.7-0.2-4.3c0-2.6,0-5.2,0.1-7.7c0-2.5,0.1-5.1,0.3-7.6c0-1.9,0-3.6,0-5.3
			c0-1.7,0-3.3,0-5s0-3.3,0-5s0.1-3.5,0.2-5.4l0.1-2.1c0-0.8-0.1-1.7-0.1-2.5s0-1.7,0-2.5l0.1-6.1l0.1-1.8c0.2-0.9,0.5-1.8,1-2.7
			c0.5-0.8,1-1.6,1.7-2.2c0.7-0.6,1.4-1.1,2.3-1.5c0.9-0.4,1.9-0.5,2.9-0.5c1.7,0,3,0.3,4,0.9c1,0.6,1.9,1.3,2.5,2.2
			s1.1,1.8,1.4,2.8c0.3,1,0.5,1.9,0.5,2.8l0.1,1.6c0,2.5,0.1,4.8,0.2,7.1c0.1,2.3,0.1,4.5,0.2,6.7c0.1,2.2,0.2,4.5,0.2,6.7
			c0.1,2.3,0.1,4.6,0.2,7.1c0.1,2.3,0.1,4.6,0,7s0.1,4.8,0.4,7c-0.1,0.1-0.1,0.3-0.2,0.5c0,0.2-0.1,0.5-0.2,0.7l0.3-0.4
			c0,0.7,0,1.3,0,2s0,1.3,0,2c0,3.2,0.1,6.2,0.4,9.2S602,123.1,602,126z M584.8,132.1l0.5,0.4c0,0,0-0.1-0.1-0.2L584.8,132.1z
			 M593.7,60.4c0,0,0-0.3-0.1-0.9c0-0.5-0.1-1.1-0.3-1.7c-0.1-0.4-0.3-0.7-0.5-1s-0.5-0.4-0.8-0.4h-0.1c-0.2,0-0.4,0-0.7,0.1
			c-0.2,0-0.5,0.1-0.7,0.2l-0.6,0.7c-0.3,0.3-0.6,0.8-0.8,1.5l-0.1,0.4c0,0.1,0,0.2,0,0.3s0,0.2,0,0.3l-0.1,1.1c0,0.3,0,0.6,0,0.9
			c0,0.3,0,0.6-0.1,0.9v0.1c0,0.2,0,0.4,0,0.7c0,0.2,0,0.5,0,0.7v0.4c0,0.2-0.1,0.4-0.1,0.8c0-0.1,0-0.2,0-0.2c0-0.1,0-0.1,0-0.2V70
			c0,0-0.1,0.1-0.1,0.3l0.1,0.4c0.1-0.2,0.1-0.3,0.2-0.3L589,74c0.1,0.7,0.1,1.5,0.1,2.2s0,1.5,0,2.3c0,3.4,0,6.7-0.1,9.9
			c-0.1,3.2-0.1,6.3-0.2,9.5c-0.1,3.1-0.1,6.3-0.2,9.5c0,3.2-0.1,6.5-0.1,9.9v10.1c0,0.1,0,0.2,0.1,0.4c0,0.1,0.1,0.3,0.1,0.4
			l0.4,0.8c0.5,1,1.5,1.5,3.2,1.7h0.7c0,0,0,0.1,0,0.2c0,0.1,0,0.3,0.1,0.6v-0.8h0.1c0.5,0,0.9-0.1,1.2-0.3s0.5-0.4,0.6-0.6
			s0.3-0.6,0.4-0.9c0.1-0.3,0.2-0.7,0.3-1.1v-0.7c-0.2-5.1-0.3-10.2-0.4-15.3c-0.1-5.1-0.3-10.2-0.4-15.4c0-1.1-0.1-2.1,0-3.1
			c0-1,0-1.9,0-2.8s-0.1-1.9-0.1-2.8c0-1-0.1-2-0.3-3.1c0.1-0.1,0.1-0.3,0.2-0.5c0-0.2,0.1-0.4,0.2-0.6l-0.2,0.3c0-0.6,0-1.3,0-1.9
			c0-0.7,0-1.3,0-1.9c0-3.2-0.1-6.3-0.4-9.4c-0.3-3.1-0.4-6.1-0.4-9.1V61h2.1l-0.3-0.1h-1.8c0,0-0.1,0,0,0l0,0v-0.5H593.7z
			 M593.5,57.6c0,0-0.1,0.1-0.2,0.3L593.5,57.6L593.5,57.6z M598.9,133.8h-3.3l2.9,0.2L598.9,133.8z"/>
	</g>
</g>
<g>
	<path d="M471.5,158.7c-0.7,0-1.8,0-3.1-0.1c-1.4,0-2.7-0.1-4-0.1s-2.5,0-3.5,0s-1.5,0.1-1.5,0.3c0,0.5,0,0.9,0,1.4s0,0.9,0,1.4
		c0,1,0,2,0,2.9c0,1,0,2,0,2.9v6.3c0,0.5,0,0.7-0.1,0.8c0,0.1-0.1,0.4-0.1,0.8c0,0.2,0,0.6,0.1,1.1c0.1,0.6,0.1,0.9,0.1,1.1
		c0,0.3,0,0.5,0,0.5s0.2,0,0.5,0c1.1,0,2.1,0.1,3.2,0.2c1,0.1,2.1,0.1,3.2,0.1c0.3,0,0.7,0,1.2,0c0.4,0,0.9-0.1,1.3-0.1
		s0.8-0.1,1.1-0.1s0.5,0,0.7,0.1c0.3,0.6,0.5,1,0.5,1.3c0.1,0.3,0.1,0.6,0,0.8s-0.2,0.4-0.4,0.5c-0.4,0.1-0.8,0.2-1.3,0.2
		s-0.9,0-1.3,0c-0.5,0-0.9,0-1.4,0.1c-0.5,0-0.9,0.1-1.4,0.1c-0.7,0-1.5,0.1-2.2,0c-0.8,0-1.5,0-2.3,0c-0.1,0-0.3,0-0.7,0
		c-0.4,0-0.6,0.1-0.7,0.2c0,0.3,0,0.5,0,0.7s0,0.4,0,0.5v0.3c0.1,1.4,0.1,3,0.2,4.6c0,1.7,0,3.2,0,4.6c0,0.1,0.1,0.2,0.4,0.2
		c0.2,0.1,0.5,0.1,0.8,0.2c0.3,0,0.6,0.1,1,0.1s0.6,0,0.7,0c0.7,0,1.4,0,2.1-0.1s1.4-0.1,2.1-0.1c0.8,0,1.6,0,2.5,0.1
		s1.8,0.1,2.5,0.1c0.3,0,0.5,0,0.8-0.1c0.3,0,0.5-0.1,0.7-0.1s0.4,0.1,0.6,0.2c0.2,0.1,0.3,0.3,0.4,0.6c0.2,1,0.2,1.6-0.2,1.8
		c-0.3,0.1-0.7,0.2-1.1,0.3c-0.7,0.1-1.5,0.1-2.3,0.1c-0.9,0-1.6,0-2.3,0c-1.4,0-2.8,0-4.2,0.1c-1.4,0-2.8,0-4.2,0h-0.8
		c-0.3,0-0.6,0-1,0s-0.8-0.1-1.3-0.1c-0.2-0.3-0.3-0.8-0.4-1.5c0-0.6,0-1.1,0-1.5c0-1.3,0-2.6,0.1-3.9c0.1-1.3,0.2-2.6,0.2-3.9
		c0-0.3,0-0.9,0-1.6c0-0.7,0-1.5,0-2.3s0-1.5,0-2.2s0-1.2,0-1.5c0-1.4-0.1-2.7-0.2-4.1c-0.1-1.4-0.2-2.8-0.2-4.2
		c0-1.5,0.1-3,0.2-4.4c0.1-1.5,0.2-2.9,0.2-4.4c0-0.2-0.1-0.5-0.1-0.8v-2.9c0.3-0.3,0.9-0.4,1.6-0.4s1.3,0,1.7,0
		c1.4-0.1,2.8-0.2,4.1-0.1c1.3,0.1,2.7,0.1,4.1,0.1c0.7,0,1.6,0,2.5,0.1c1,0.1,1.8,0.1,2.5,0.1c0.3,0,0.6,0,0.7,0.1s0.2,0.3,0.3,0.6
		c0.2,0.6,0.2,1,0.1,1.3s-0.3,0.5-0.5,0.6s-0.6,0.2-0.9,0.2S471.8,158.7,471.5,158.7z"/>
	<path d="M493.9,190.3c0.1,0.2,0.3,0.3,0.6,0.4c0.3,0.1,0.5,0.2,0.8,0.3s0.5,0.2,0.6,0.3s0.2,0.3,0.1,0.4c-0.6,1-1.3,1.8-2.1,2.4
		c-0.8,0.6-1.6,1-2.3,1.2c-0.7,0.3-1.7,0.4-2.8,0.6c-0.2,0-0.4,0.1-0.8,0.1s-0.7,0-1.1,0s-0.8,0-1.4,0c-1.5-0.2-2.8-0.6-3.9-1.3
		c-1.1-0.6-2-1.5-2.6-2.5c-0.6-1.1-1-2.2-1.2-3.2c-0.1-1-0.2-2-0.2-3.2c0-0.2,0-0.5,0-0.8s0-0.6,0-0.8v-9.9c0-1.2,0-2.2,0.1-2.9
		c0-0.7,0.1-1.4,0.2-2s0.1-1.3,0.2-2c0-0.7,0.1-1.7,0.1-2.9c0-2.2,0.4-4,1.2-5.5c0.8-1.4,2.1-2.4,3.8-3c1.8-0.6,3.5-0.9,5.1-0.9
		c1.5,0,3.1,0.5,4.6,1.5c0.2,0.1,0.4,0.3,0.8,0.6s0.8,0.6,1.1,0.9s0.7,0.6,1,0.9c0.3,0.3,0.3,0.5,0.2,0.7c-0.1,0.2-0.3,0.4-0.6,0.6
		c-0.3,0.2-0.6,0.4-0.9,0.6s-0.6,0.3-0.9,0.4c-0.3,0.1-0.5,0-0.6-0.2c-0.6-0.9-1.2-1.5-1.9-2c-0.7-0.4-1.5-0.7-2.3-0.8
		s-1.6-0.1-2.5,0c-0.8,0.1-1.6,0.3-2.3,0.5c-0.7,0.3-1.3,0.6-1.8,1c-0.4,0.4-0.8,0.9-1.1,1.4c-0.3,0.5-0.4,1.1-0.5,1.6
		c-0.1,0.6-0.1,1-0.1,1.5c0,1.2,0,2.2,0,2.9s0,1.4,0.1,2c0,0.6,0,1.3,0.1,2c0,0.7,0,1.7,0,2.9s0,2.2-0.1,2.9c0,0.7-0.1,1.3-0.1,1.9
		c0,0.6-0.1,1.2-0.1,1.9s-0.1,1.7-0.1,2.9c0,0.2,0,0.4,0,0.6c0,0.2,0,0.4-0.1,0.6c0,1,0.1,2,0.3,3c0.2,1,0.5,1.9,1,2.6
		c0.5,0.8,1.1,1.4,1.9,1.6c0.7,0.2,1.5,0.4,2.2,0.5c0.4,0.1,0.6,0.1,0.8,0.1c0.1,0,0.4,0,0.7,0c0.3,0,0.7,0.1,1.1,0.1
		c0.5,0,0.9-0.1,1.4-0.2c0.5-0.1,1-0.3,1.4-0.5s0.8-0.6,1.1-1c0-0.1,0.1-0.2,0.3-0.4c0.1-0.2,0.3-0.3,0.4-0.5
		c0.1-0.1,0.3-0.2,0.4-0.3C493.6,190.1,493.8,190.2,493.9,190.3z"/>
	<path d="M518.6,175.2c0,0.4,0,0.7,0,1s0,0.6,0,1s0,0.9,0,1.5s0,1,0,1.3s0,0.6,0,0.8c0,0.3,0,0.5,0,0.8s0,0.7-0.1,1.3l-0.2,4.3
		c-0.2,0.7-0.2,1.5-0.2,2.3s-0.1,1.5-0.5,2.1c-0.3,0.6-0.9,1.3-1.6,2c-0.7,0.7-1.4,1.3-1.9,1.7c-0.3,0.2-0.9,0.4-1.9,0.7
		s-2,0.4-3.1,0.5c-1.2,0-2.4,0-3.5-0.3c-1.1-0.2-1.8-0.4-2.1-0.6c-0.6-0.3-1.1-0.7-1.6-1.2s-0.9-1-1.2-1.6c-0.3-0.6-0.7-1.3-1.1-2
		s-0.6-1.5-0.6-2.2c-0.1-0.6-0.1-1.2-0.1-1.7s0.1-1.2,0.1-1.9c0-0.6,0-1.4,0-2.3c0-0.9,0-1.7,0-2.4c0-0.8,0-1.4,0-2s0-1.2,0-2
		s0.1-1.5,0.2-2.3s0.2-1.5,0.2-2.3s-0.1-1.5-0.2-2.3c-0.1-0.7-0.1-1.5-0.1-2.2c0-0.8,0-1.7,0-2.6c0-0.9,0-1.7,0.1-2.4
		c0.2-1.1,0.5-2.1,0.9-3c0.5-0.9,1.1-1.7,1.9-2.4c0.7-0.6,1.4-0.9,1.9-1.1c0.5-0.2,1.2-0.4,2.1-0.6c0.3,0,0.5-0.1,0.7-0.1
		s0.4,0,0.6,0h0.6c1.4-0.1,2.5-0.1,3.4-0.1c0.9,0.1,1.8,0.3,2.7,0.6s1.6,0.9,2,1.7c0.3,0.6,0.6,1,0.9,1.4c0.3,0.4,0.6,0.8,0.8,1.2
		s0.4,1,0.6,1.7c0.2,0.7,0.3,1.5,0.3,2.6c0,0.5-0.1,1-0.1,1.5s-0.1,1-0.1,1.6s0,1.2,0,1.8v4.9C518.6,174.4,518.6,174.8,518.6,175.2z
		 M515.4,186.9c0.1-0.3,0.2-0.7,0.3-1.1c0.1-0.4,0.1-0.8,0.2-1.3c0-0.5,0.1-1.1,0.1-1.7c0-0.6,0-1.1,0-1.5s0-0.8,0-1.1
		c0-0.4,0-0.7,0-1.1s0-0.9,0-1.5s0-1,0-1.2s0-0.4,0-0.5s0-0.3,0-0.5s0-0.6,0-1.2c0-0.6,0-1.2,0-1.6c0-0.4,0-0.8,0-1.2s0-0.8,0-1.2
		s0-0.9,0-1.5c0-1.2,0-2.3-0.1-3.1c0-0.8-0.1-1.3-0.1-1.3c0-0.3,0-0.7-0.1-1.1c-0.1-0.5-0.2-0.9-0.4-1.4s-0.4-0.9-0.5-1.3
		c-0.2-0.4-0.4-0.8-0.7-1c-0.5-0.6-1.2-0.9-1.9-1c-0.8-0.1-1.5-0.2-2.2-0.2c-0.3,0-0.6,0-0.8,0c-0.2,0-0.4,0-0.6,0s-0.4,0-0.6,0
		s-0.5,0-0.8,0c-1.2,0-2.3,0.4-3.3,1.3c-0.4,0.4-0.8,0.8-1.2,1.4c-0.3,0.5-0.6,1.2-0.6,1.9c-0.1,0.6-0.1,1.2-0.1,1.7s0,1.2,0,1.9
		s0,1.5-0.1,2.4s-0.1,1.7-0.1,2.4c0,0.8,0.1,1.5,0,2.1c0,0.6,0,1.3,0,2.1s0,1.5-0.1,2.2s-0.1,1.4-0.1,2.1c0,0.3,0,0.7,0,1.2
		s0.1,0.9,0.1,1.4s0.1,0.9,0.1,1.4c0,0.4,0,0.8,0,1.1c0,0.7,0.1,1.5,0.2,2.2s0.2,1.4,0.3,2c0.1,0.8,0.3,1.4,0.5,1.9
		c0.3,0.5,0.6,1,1.1,1.5s1,0.8,1.5,1c0.5,0.1,1.1,0.2,1.7,0.2c0.3,0,0.6,0,0.8,0.1c0.2,0,0.4,0.1,0.6,0.1s0.4,0.1,0.6,0.1
		s0.5,0,0.9,0c0.7,0,1.5-0.3,2.3-0.8c0.8-0.6,1.5-1.1,2-1.6c0.3-0.2,0.4-0.6,0.6-1.1c0.1-0.5,0.2-1,0.3-1.4
		C515.3,188.2,515.4,187.6,515.4,186.9z"/>
	<path d="M527,195.7c0,0-0.2,0-0.5,0s-0.6,0-1-0.1c-0.4,0-0.7,0-1-0.1c-0.3,0-0.4-0.1-0.4-0.1c-0.1-0.3-0.1-0.8-0.1-1.5s0-1.2,0-1.5
		c0-0.6,0-1.2,0.1-1.7c0.1-0.6,0.1-1.1,0.1-1.7c0-0.7-0.1-1.3-0.2-2c-0.1-0.7-0.2-1.3-0.2-2s0.1-1.4,0.1-2.1c0-0.7,0-1.3,0-2
		s0-1.4,0.1-2.1c0.1-0.7,0.1-1.4,0.1-2.1c0-0.7,0-1.4-0.1-2.1c-0.1-0.7-0.1-1.4-0.1-2.1c0-0.8,0-1.6,0.1-2.2c0-0.6,0.1-1.3,0.1-1.9
		c0-0.7-0.1-1.4-0.2-2.1c-0.1-0.7-0.2-1.4-0.2-2.1c0-0.7,0-1.4,0-2.2c0-0.7,0.1-1.4,0.1-2.2c0-0.5,0-1.1-0.1-1.9
		c-0.1-0.7,0-1.3,0.2-1.8c0.2-0.4,0.5-0.6,1.1-0.5s1.1,0.1,1.5,0c0.2,0,0.3,0.2,0.4,0.6c0.1,0.5,0.1,0.9,0.1,1.4v4.3v4.3v4.8
		c0,0.8,0.1,1.6,0,2.3c0,0.7,0,1.4,0,2.1c0,0.9-0.1,1.7-0.2,2.7c-0.1,0.9-0.2,1.8-0.2,2.7c0,0.8,0,1.7,0.1,2.5s0.2,1.6,0.2,2.5
		s0,1.6,0.1,2.4c0,0.7,0,1.5,0,2.4c0.5-0.5,0.9-1,1.2-1.5s0.7-1,1.1-1.6c0.3-0.6,0.7-1.1,1.1-1.5c0.4-0.4,0.7-0.9,1-1.5
		c0.3-0.4,0.6-0.8,1.1-1.4c0.5-0.6,0.9-1.1,1.3-1.6c0.5-0.6,0.9-1.1,1.4-1.5c0.4-0.4,0.9-0.6,1.3-0.6c0.4,0,0.8,0.3,1.1,0.7
		s0.7,0.8,1,1.1c0.4,0.5,0.8,1,1.2,1.5s0.8,1,1.1,1.5c0.4,0.5,0.8,0.9,1,1.2c0.3,0.3,0.6,0.7,1,1.3s0.9,1.2,1.5,1.8
		c0.6,0.7,1.1,1.2,1.6,1.7c-0.1-0.7-0.1-1.5-0.1-2.2s0.1-1.5,0.1-2.2s-0.1-1.4-0.1-2.1c0-0.7-0.1-1.4-0.1-2.1c0-0.7,0-1.4-0.1-2.1
		c0-0.7,0-1.4,0-2.1c0-0.7,0-1.3,0-1.8s0-1.1,0-1.8s0-1.6-0.1-2.5c0-1-0.1-1.8-0.1-2.5s0-1.4,0-2s0-1.3-0.1-2c0-0.7-0.1-1.6-0.2-2.8
		c-0.1-1.1-0.2-2-0.2-2.8c0-0.6,0-1,0-1.2c0-0.3,0.1-0.7,0.2-1.2c0.3-0.5,0.5-0.7,0.7-0.8s0.6,0,1.4,0.2c0.3,0.1,0.4,0.3,0.6,0.5
		c0.1,0.3,0.2,0.6,0.3,0.9c0.1,0.3,0.1,0.7,0.1,1.1c0,0.4,0,0.7,0,0.9c0,0.7,0,1.3,0,1.8c0,0.4,0,1,0,1.8c0,0.7,0,1.4-0.1,2.1
		c-0.1,0.7-0.1,1.4-0.2,2c0,0.7,0,1.4,0.1,2.1c0.1,0.7,0.1,1.4,0.1,2.1c0,0.7,0,1.4-0.1,2.2c0,0.7-0.1,1.4-0.1,2.2
		c0,0.7,0,1.4-0.1,2c0,0.6-0.1,1.3-0.1,2s0,1.4,0.1,2.1c0.1,0.7,0.1,1.4,0.1,2.1c0,0.7,0,1.3,0.1,1.7c0,0.4,0.1,1,0.1,1.7
		s0,1.5,0.1,2.4s0.1,1.7,0.1,2.4c0,0.4,0.1,1,0.1,1.8s0,1.4-0.1,1.8c0,0.1-0.1,0.2-0.4,0.3c-0.3,0.1-0.5,0.1-0.9,0.1
		c-0.3,0-0.6,0-0.9,0c-0.3,0-0.5-0.1-0.6-0.1s-0.3-0.2-0.4-0.4c-0.1-0.2-0.3-0.5-0.5-0.8s-0.3-0.5-0.5-0.8c-0.1-0.2-0.3-0.4-0.3-0.5
		c-0.3-0.3-0.6-0.6-0.9-0.9c-0.2-0.3-0.4-0.5-0.6-0.8c-0.2-0.2-0.4-0.5-0.6-0.8c-0.2-0.3-0.4-0.6-0.7-0.9c-0.3-0.4-0.5-0.7-0.6-0.9
		s-0.3-0.4-0.4-0.6c-0.1-0.2-0.3-0.4-0.5-0.6c-0.2-0.2-0.4-0.5-0.7-0.9c-0.1-0.1-0.3-0.3-0.5-0.6s-0.4-0.6-0.6-0.8
		c-0.2-0.3-0.4-0.5-0.6-0.8c-0.2-0.3-0.4-0.4-0.5-0.6c-0.1-0.1-0.2-0.2-0.2-0.4c-0.1-0.2-0.1-0.3-0.2-0.4c-0.2-0.2-0.3-0.2-0.3-0.2
		s-0.1,0.1-0.3,0.3c-0.5,0.4-1,0.9-1.5,1.4s-0.9,1-1.3,1.5c-0.4,0.6-0.7,1-1,1.4s-0.6,0.9-0.9,1.5c-0.3,0.6-0.7,1.1-1,1.6
		s-0.7,1-1.1,1.5c-0.2,0.2-0.3,0.5-0.5,0.9s-0.4,0.8-0.6,1.2c-0.2,0.4-0.4,0.8-0.6,1.1C527.4,195.5,527.2,195.7,527,195.7z"/>
	<path d="M572.4,175.2c0,0.4,0,0.7,0,1s0,0.6,0,1s0,0.9,0,1.5s0,1,0,1.3s0,0.6,0,0.8c0,0.3,0,0.5,0,0.8s0,0.7-0.1,1.3l-0.2,4.3
		c-0.2,0.7-0.2,1.5-0.2,2.3s-0.1,1.5-0.5,2.1c-0.3,0.6-0.9,1.3-1.6,2c-0.7,0.7-1.4,1.3-1.9,1.7c-0.3,0.2-0.9,0.4-1.9,0.7
		s-2,0.4-3.1,0.5c-1.2,0-2.4,0-3.5-0.3c-1.1-0.2-1.8-0.4-2.1-0.6c-0.6-0.3-1.1-0.7-1.6-1.2s-0.9-1-1.2-1.6s-0.7-1.3-1.1-2
		c-0.4-0.8-0.6-1.5-0.6-2.2c-0.1-0.6-0.1-1.2-0.1-1.7s0.1-1.2,0.1-1.9c0-0.6,0-1.4,0-2.3c0-0.9,0-1.7,0-2.4c0-0.8,0-1.4,0-2
		s0-1.2,0-2s0.1-1.5,0.2-2.3c0.1-0.8,0.2-1.5,0.2-2.3s-0.1-1.5-0.2-2.3c-0.1-0.7-0.1-1.5-0.1-2.2c0-0.8,0-1.7,0-2.6
		c0-0.9,0-1.7,0.1-2.4c0.2-1.1,0.5-2.1,0.9-3c0.5-0.9,1.1-1.7,1.9-2.4c0.7-0.6,1.4-0.9,1.9-1.1c0.5-0.2,1.2-0.4,2.1-0.6
		c0.3,0,0.5-0.1,0.7-0.1s0.4,0,0.6,0h0.6c1.4-0.1,2.5-0.1,3.4-0.1c0.9,0.1,1.8,0.3,2.7,0.6s1.6,0.9,2,1.7c0.3,0.6,0.6,1,0.9,1.4
		c0.3,0.4,0.6,0.8,0.8,1.2s0.4,1,0.6,1.7c0.2,0.7,0.3,1.5,0.3,2.6c0,0.5-0.1,1-0.1,1.5s-0.1,1-0.1,1.6s0,1.2,0,1.8v4.9
		C572.4,174.4,572.4,174.8,572.4,175.2z M569.2,186.9c0.1-0.3,0.2-0.7,0.3-1.1c0.1-0.4,0.1-0.8,0.2-1.3c0-0.5,0.1-1.1,0.1-1.7
		c0-0.6,0-1.1,0-1.5s0-0.8,0-1.1c0-0.4,0-0.7,0-1.1s0-0.9,0-1.5s0-1,0-1.2s0-0.4,0-0.5s0-0.3,0-0.5s0-0.6,0-1.2c0-0.6,0-1.2,0-1.6
		c0-0.4,0-0.8,0-1.2s0-0.8,0-1.2s0-0.9,0-1.5c0-1.2,0-2.3-0.1-3.1c0-0.8-0.1-1.3-0.1-1.3c0-0.3,0-0.7-0.1-1.1
		c-0.1-0.5-0.2-0.9-0.4-1.4s-0.4-0.9-0.5-1.3c-0.2-0.4-0.4-0.8-0.7-1c-0.5-0.6-1.2-0.9-1.9-1c-0.8-0.1-1.5-0.2-2.2-0.2
		c-0.3,0-0.6,0-0.8,0s-0.4,0-0.6,0c-0.2,0-0.4,0-0.6,0s-0.5,0-0.8,0c-1.2,0-2.3,0.4-3.3,1.3c-0.4,0.4-0.8,0.8-1.2,1.4
		c-0.3,0.5-0.6,1.2-0.6,1.9c-0.1,0.6-0.1,1.2-0.1,1.7s0,1.2,0,1.9s0,1.5-0.1,2.4s-0.1,1.7-0.1,2.4c0,0.8,0.1,1.5,0,2.1
		c0,0.6,0,1.3,0,2.1s0,1.5-0.1,2.2s-0.1,1.4-0.1,2.1c0,0.3,0,0.7,0,1.2c0,0.4,0.1,0.9,0.1,1.4s0.1,0.9,0.1,1.4s0,0.8,0,1.1
		c0,0.7,0.1,1.5,0.2,2.2c0.1,0.8,0.2,1.4,0.3,2c0.1,0.8,0.3,1.4,0.5,1.9c0.3,0.5,0.6,1,1.1,1.5s1,0.8,1.5,1c0.5,0.1,1.1,0.2,1.7,0.2
		c0.3,0,0.6,0,0.8,0.1c0.2,0,0.4,0.1,0.6,0.1c0.2,0,0.4,0.1,0.6,0.1c0.2,0,0.5,0,0.9,0c0.7,0,1.5-0.3,2.3-0.8c0.8-0.6,1.5-1.1,2-1.6
		c0.3-0.2,0.4-0.6,0.6-1.1c0.1-0.5,0.2-1,0.3-1.4C569.1,188.2,569.2,187.6,569.2,186.9z"/>
	<path d="M596.7,175.2c0,0.4,0,0.7,0,1s0,0.6,0,1s0,0.9,0,1.5s0,1,0,1.3s0,0.6,0,0.8c0,0.3,0,0.5,0,0.8s0,0.7-0.1,1.3l-0.2,4.3
		c-0.2,0.7-0.2,1.5-0.2,2.3s-0.1,1.5-0.5,2.1c-0.3,0.6-0.9,1.3-1.6,2c-0.7,0.7-1.4,1.3-1.9,1.7c-0.3,0.2-0.9,0.4-1.9,0.7
		s-2,0.4-3.1,0.5c-1.2,0-2.4,0-3.5-0.3c-1.1-0.2-1.8-0.4-2.1-0.6c-0.6-0.3-1.1-0.7-1.6-1.2s-0.9-1-1.2-1.6s-0.7-1.3-1.1-2
		s-0.6-1.5-0.6-2.2c-0.1-0.6-0.1-1.2-0.1-1.7s0.1-1.2,0.1-1.9c0-0.6,0-1.4,0-2.3c0-0.9,0-1.7,0-2.4c0-0.8,0-1.4,0-2s0-1.2,0-2
		s0.1-1.5,0.2-2.3s0.2-1.5,0.2-2.3s-0.1-1.5-0.2-2.3c-0.1-0.7-0.1-1.5-0.1-2.2c0-0.8,0-1.7,0-2.6c0-0.9,0-1.7,0.1-2.4
		c0.2-1.1,0.5-2.1,0.9-3c0.5-0.9,1.1-1.7,1.9-2.4c0.7-0.6,1.4-0.9,1.9-1.1c0.5-0.2,1.2-0.4,2.1-0.6c0.3,0,0.5-0.1,0.7-0.1
		s0.4,0,0.6,0h0.6c1.4-0.1,2.5-0.1,3.4-0.1c0.9,0.1,1.8,0.3,2.7,0.6s1.6,0.9,2,1.7c0.3,0.6,0.6,1,0.9,1.4c0.3,0.4,0.6,0.8,0.8,1.2
		s0.4,1,0.6,1.7c0.2,0.7,0.3,1.5,0.3,2.6c0,0.5-0.1,1-0.1,1.5s-0.1,1-0.1,1.6s0,1.2,0,1.8v4.9C596.7,174.4,596.7,174.8,596.7,175.2z
		 M593.5,186.9c0.1-0.3,0.2-0.7,0.3-1.1c0.1-0.4,0.1-0.8,0.2-1.3c0-0.5,0.1-1.1,0.1-1.7c0-0.6,0-1.1,0-1.5s0-0.8,0-1.1
		c0-0.4,0-0.7,0-1.1s0-0.9,0-1.5s0-1,0-1.2s0-0.4,0-0.5s0-0.3,0-0.5s0-0.6,0-1.2c0-0.6,0-1.2,0-1.6c0-0.4,0-0.8,0-1.2s0-0.8,0-1.2
		s0-0.9,0-1.5c0-1.2,0-2.3-0.1-3.1c0-0.8-0.1-1.3-0.1-1.3c0-0.3,0-0.7-0.1-1.1c-0.1-0.5-0.2-0.9-0.4-1.4s-0.4-0.9-0.5-1.3
		c-0.2-0.4-0.4-0.8-0.7-1c-0.5-0.6-1.2-0.9-1.9-1c-0.8-0.1-1.5-0.2-2.2-0.2c-0.3,0-0.6,0-0.8,0s-0.4,0-0.6,0c-0.2,0-0.4,0-0.6,0
		s-0.5,0-0.8,0c-1.2,0-2.3,0.4-3.3,1.3c-0.4,0.4-0.8,0.8-1.2,1.4c-0.3,0.5-0.6,1.2-0.6,1.9c-0.1,0.6-0.1,1.2-0.1,1.7s0,1.2,0,1.9
		s0,1.5-0.1,2.4s-0.1,1.7-0.1,2.4c0,0.8,0.1,1.5,0,2.1c0,0.6,0,1.3,0,2.1s0,1.5-0.1,2.2s-0.1,1.4-0.1,2.1c0,0.3,0,0.7,0,1.2
		s0.1,0.9,0.1,1.4s0.1,0.9,0.1,1.4c0,0.4,0,0.8,0,1.1c0,0.7,0.1,1.5,0.2,2.2s0.2,1.4,0.3,2c0.1,0.8,0.3,1.4,0.5,1.9
		c0.3,0.5,0.6,1,1.1,1.5s1,0.8,1.5,1c0.5,0.1,1.1,0.2,1.7,0.2c0.3,0,0.6,0,0.8,0.1c0.2,0,0.4,0.1,0.6,0.1c0.2,0,0.4,0.1,0.6,0.1
		c0.2,0,0.5,0,0.9,0c0.7,0,1.5-0.3,2.3-0.8c0.8-0.6,1.5-1.1,2-1.6c0.3-0.2,0.4-0.6,0.6-1.1c0.1-0.5,0.2-1,0.3-1.4
		C593.4,188.2,593.4,187.6,593.5,186.9z"/>
</g>
<g>
	<path d="M451.2,303.9c0-8.9,0.7-25,7.6-25h0.3l9.4,0.8l-0.3,8l-9.7-1.2l-0.2,17.4l7.2-0.7l0.2,6.7c-2.2,0.3-4.4,0.5-6.6,0.7
		l-0.9,0.1l-0.2,19.1l9-2.1l0.7,6.7l-11.4,2.6c-0.1,0-0.2,0-0.2,0c-4.5,0-4.8-18-4.8-25.5c0-1.4,0-2.4,0-2.9
		C451.2,307.6,451.2,305.9,451.2,303.9z"/>
	<path d="M469.9,303.9c0-8.9,0.7-25,7.6-25c0.1,0,0.2,0,0.3,0l8.4,0.8l-0.3,8l-8.5-1.2l-0.5,43.3l8.1-2.1l0.7,6.7L475,337
		c-0.1,0-0.2,0-0.2,0c-4.5,0-4.8-18-4.8-25.5c0-1.4,0-2.4,0-2.9C469.9,307.6,469.9,305.9,469.9,303.9z"/>
	<path d="M506.3,306.3c0,15.4-0.3,30.4-10,30.4c-10.6,0-10.9-15.6-10.9-28.5c0-11.4,1.1-29.3,10.3-29.3
		C505.4,278.9,506.3,295.5,506.3,306.3z M491.9,330.5h7.7l-0.9-44l-5.8-0.8L491.9,330.5z"/>
	<path d="M513.8,279.6l0.1,41.1l6.5-29.3l2.4,0.1l6.4,26.6l0.3-38.6h5.7l-1.2,56.6h-6.5l-5.9-27.8l-5.9,27.8h-6.9l-0.4-56.5
		L513.8,279.6L513.8,279.6z"/>
	<path d="M558.1,306.3c0,15.4-0.3,30.4-10,30.4c-10.6,0-10.9-15.6-10.9-28.5c0-11.4,1.1-29.3,10.3-29.3
		C557.2,278.9,558.1,295.5,558.1,306.3z M543.7,330.5h7.7l-0.9-44l-5.8-0.8L543.7,330.5z"/>
	<path d="M581,306.3c0,15.4-0.3,30.4-10,30.4c-10.6,0-10.9-15.6-10.9-28.5c0-11.4,1.1-29.3,10.3-29.3
		C580.1,278.9,581,295.5,581,306.3z M566.6,330.5h7.7l-0.9-44l-5.8-0.8L566.6,330.5z"/>
</g>
</svg>
