<svg id="Слой_1" data-name="Слой 1" xmlns="http://www.w3.org/2000/svg" viewBox="0 0 200 200"><defs><style>.cls-1{fill:#fff;}.cls-2{fill:#d6d6d6;}.cls-3{fill:#6c66ab;}</style></defs><path d="M49.13,42.06c6.18,5.12,12.46,10.16,16.19,17.46l-1.86,1.71L47,44Z"/><path d="M137.61,24.92l-10.67,21-2.29-1.14c1.24-8.23,5.95-14.78,10.45-21.44Z"/><path d="M10.3,131.88l22.89-5.73.84,3.27L11.1,135.34C10.83,134.19,10.57,133,10.3,131.88Z"/><path d="M175.19,88.09,196.9,87c0,1.08.06,2.17.1,3.25l-21.8,1.26C175.2,90.38,175.19,89.23,175.19,88.09Z"/><path d="M109.72,42.8l6-21.85,2.54.63c.3,7.86-2.71,15-5.7,22.09Z"/><path d="M8.59,114.82c7.56-1.23,15.08-1.67,22.4,2.41H8.57C8.58,116.43,8.58,115.62,8.59,114.82Z"/><path d="M185.15,140.61c-7.36-.47-13.44-3.39-17.94-9.29C174.3,132.31,180.52,134.94,185.15,140.61Z"/><path d="M53.3,69.27,35.59,57.16l1.85-2.74L55.53,66.2C54.78,67.22,54,68.25,53.3,69.27Z"/><path d="M65.46,33.54,77.65,52c-7-1.51-12.75-9.53-13.73-17.59Z"/><path d="M98.52,22.1c3.94,7.63,3.19,14.59,2.67,22.08C96.84,39.34,95.65,30.39,98.52,22.1Z"/><path d="M12.71,97.16l20.19,4.2c-.21,1-.43,2-.64,3.06l-20.34-3.84Z"/><path d="M27.51,67.45,45.89,78.61c-.44.72-.87,1.45-1.31,2.18-6.74-2.67-13.36-5.56-18.38-11.14Z"/><path d="M26,146.78l17-8.11,1.46,3L27.53,150Z"/><path d="M136.37,46.7,150.5,31c.42,6.72-6.17,14.39-12.85,16.82Z"/><path d="M169.07,43,152.71,56.29A19.89,19.89,0,0,1,168,41.59Z"/><path d="M86.73,46.89c-2.55-6-5.1-12-8.24-19.42A17.43,17.43,0,0,1,86.73,46.89Z"/><path d="M37,90.23l-20.15-3.3c.15-1,.31-2,.47-3L37.5,87.17Z"/><path d="M160.85,142.56,174.22,154c-.55.64-1.09,1.29-1.63,1.94-6-1.86-10.3-6-13.44-11.44Z"/><path d="M106.25,178.41c-2.94-6.13-.16-11.93.43-17.86l2.7.16q-.5,8.91-1,17.82Z"/><path d="M59.29,171.49c1.27-7,5.73-10.76,10.2-15.14C70.21,162.3,66.42,168,59.29,171.49Z"/><path d="M137.74,156.48l3,16.44-3.08.6-3.57-16.23Z"/><path d="M82.34,162.39c-1.63,5.3-3.25,10.6-5.11,16.66-3.56-5.84-2-12.07,3.42-17.21Z"/><path d="M54.92,151.64l-14,9.88c.65-6.13,6.11-10.13,13.06-11.24C54.27,150.74,54.6,151.19,54.92,151.64Z"/><path d="M173.47,118.73l16.74,2.06C183.4,124.67,177.18,124,173.47,118.73Z"/><path d="M153.74,166.73l-6.69-12.34,2.66-1.52,7.12,12Z"/><path d="M174.16,105.62h16.28C186.84,109.75,180.26,110,174.16,105.62Z"/><path d="M122.57,178.63q-.79-8.08-1.6-16.17l3-.38q1.08,8.05,2.17,16.11Z"/><path d="M164.2,62.76l14.18-5.21,1.08,2.86-14.37,5.44C164.79,64.82,164.5,63.79,164.2,62.76Z"/><path d="M174.12,75.27,189,72.48c.19,1,.39,2,.59,3l-15.07,3C174.36,77.41,174.24,76.34,174.12,75.27Z"/><path d="M94,164.89q-1.14,6.68-2.26,13.35l-2.78-.4q.86-6.69,1.7-13.38Z"/><path class="cls-1" d="M103.87,86.53C97,82,93.28,81.53,89.44,84.37c-4.26,3.14-6,9.7-4.1,15.86,2.63,8.73,15,17.44,23.93,16.67a8.45,8.45,0,0,0,4.67-1.71c8.11-7.4,13.26-16.37,13-27.66-.14-4.94-1.92-9.57-7.35-10.94-5.6-1.42-10.11.85-13.35,5.53A42.29,42.29,0,0,0,103.87,86.53Z"/><path class="cls-2" d="M106.51,123.51c3.58.17,7.68-1.36,10.85-3.25,10.43-6.2,16-19.77,13.57-31.74a25.23,25.23,0,0,0-5-10.21A21.24,21.24,0,0,0,119.09,72c-6.68-3.54-13.84-1.39-15.85-.71A32.37,32.37,0,0,0,86,79c-1.73,1.53-3.87,3.08-4.8,5.53C75.1,100.31,89.51,122.67,106.51,123.51ZM89.44,84.37C93.28,81.53,97,82,103.87,86.53a42.29,42.29,0,0,1,2.33-4.41c3.24-4.68,7.75-7,13.35-5.53,5.43,1.37,7.21,6,7.35,10.94.3,11.29-4.85,20.26-13,27.66a8.45,8.45,0,0,1-4.67,1.71c-8.92.77-21.3-7.94-23.93-16.67C83.48,94.07,85.18,87.51,89.44,84.37Z"/><path class="cls-2" d="M145.88,79.08c-4.1-3-7.6-6.23-11.36-5.2a5.24,5.24,0,0,0-.82.29c-.36.13-.87.36-.95.77s.37.9.47,1c1.24,1.28,5,9.83,5.13,17.68a26.93,26.93,0,0,1-1.07,7.84c-3.48,13.41-10.21,24.6-24.78,27.63-13.87,2.88-23.83-4.76-32.07-14.85-5.71-7-7.83-15.43-8.26-24.4a1,1,0,0,0-1.53-.72c-8.15,10-13.91,17.49-15.1,19.45a5.21,5.21,0,0,0-.89,3,4.75,4.75,0,0,0,.66,2.17c.49.55,1.23,1.35,2.17,2.24a39.2,39.2,0,0,0,11.94,7.56,159,159,0,0,0,18.26,6.71c7.77,2.25,13.1,4.06,17.57,4.34,29.05,1.79,50-26.52,53.77-38,1.28-3.93.75-6.27.4-7.33C158.07,85.19,155,85.82,145.88,79.08Z"/><path d="M156.06,77.2C118.46,49.66,61.62,67.81,46.7,112c-.61,1.8.28,5.28,1.7,6.4C65,131.28,84.33,137.12,103.56,140.2c25.92-1.91,44.19-14.52,57.58-34.37C172,89.71,168.82,86.55,156.06,77.2Zm-74.9,7.29c.93-2.45,3.07-4,4.8-5.53a32.37,32.37,0,0,1,17.28-7.63c2-.68,9.17-2.83,15.85.71A21.24,21.24,0,0,1,126,78.31a25.23,25.23,0,0,1,5,10.21c2.4,12-3.14,25.54-13.57,31.74-3.17,1.89-7.27,3.42-10.85,3.25C89.51,122.67,75.1,100.31,81.16,84.49ZM159,96.58c-3.75,11.52-24.72,39.83-53.77,38-4.47-.28-9.8-2.09-17.57-4.34a159,159,0,0,1-18.26-6.71A39.2,39.2,0,0,1,57.48,116c-.94-.89-1.68-1.69-2.17-2.24a4.75,4.75,0,0,1-.66-2.17,5.21,5.21,0,0,1,.89-3c1.19-2,7-9.47,15.1-19.45a1,1,0,0,1,1.53.72c.43,9,2.55,17.41,8.26,24.4,8.24,10.09,18.2,17.73,32.07,14.85,14.57-3,21.3-14.22,24.78-27.63a26.93,26.93,0,0,0,1.07-7.84c-.13-7.85-3.89-16.4-5.13-17.68-.1-.11-.57-.56-.47-1s.59-.64.95-.77a5.24,5.24,0,0,1,.82-.29c3.76-1,7.26,2.16,11.36,5.2,9.09,6.74,12.19,6.11,13.54,10.17C159.77,90.31,160.3,92.65,159,96.58Z"/><path class="cls-3" d="M109.27,116.9a8.45,8.45,0,0,0,4.67-1.71c8.11-7.4,13.26-16.37,13-27.66-.14-4.94-1.92-9.57-7.35-10.94-5.6-1.42-10.11.85-13.35,5.53a42.29,42.29,0,0,0-2.33,4.41C97,82,93.28,81.53,89.44,84.37c-4.26,3.14-6,9.7-4.1,15.86C88,109,100.35,117.67,109.27,116.9Z"/></svg>