<?xml version="1.0" encoding="utf-8"?>
<!-- Generator: Adobe Illustrator 26.0.1, SVG Export Plug-In . SVG Version: 6.00 Build 0)  -->
<svg version="1.1" id="Слой_1" xmlns="http://www.w3.org/2000/svg" xmlns:xlink="http://www.w3.org/1999/xlink" x="0px" y="0px"
	 viewBox="0 0 128 128" style="enable-background:new 0 0 128 128;" xml:space="preserve">
<style type="text/css">
	.st0{fill:#FFD046;}
	.st1{fill:#FFFFFF;}
</style>
<g>
	<ellipse class="st0" cx="64.7" cy="66.5" rx="32.9" ry="36.2"/>
	<g>
		<g>
			<path class="st0" d="M37.7,81.5c-8.3,3.7-16.5,7.4-25.7,11.5c9.7,0.6,17.9-0.9,25.5-5.8C40.2,85.3,40.3,83.6,37.7,81.5z"/>
			<path class="st0" d="M45.3,95.4c-5,4.4-9.7,9.1-14.5,13.6c8.1-1.8,15.1-5,19-13.2C48.3,95.3,46.2,94.6,45.3,95.4z"/>
			<path class="st0" d="M60.9,102.6c-1.4,5.8-2.6,11.7-3.9,17.6c6.7-4.6,10.3-10.8,12.3-18.4c-2.4-0.2-4.3-0.5-6.3-0.4
				C62.3,101.4,61.1,102,60.9,102.6z"/>
			<path class="st0" d="M33.9,62.4c-8.4-3.8-16.9-3.2-25.4-0.6c0,0.3-0.1,0.7-0.1,1c8.8,1.5,17.6,3,27.7,4.7
				C35.1,65,34.9,62.9,33.9,62.4z"/>
			<path class="st0" d="M35.4,69.1c-8.2-1.4-16.4-2.7-25.2-4.2C17.9,71.7,30.4,74.1,35.4,69.1z"/>
			<path class="st0" d="M65.9,12c-0.2,8.5-1.7,17.1,1.6,25.2C72.6,28.4,68.1,20.3,65.9,12z"/>
			<path class="st0" d="M93,79.5c0,2.4-0.7,4.6,0.1,5.4c4.7,5.2,9.7,10.1,14.6,15c0.3-0.2,0.5-0.5,0.8-0.7
				C105.4,91.7,100.7,85.2,93,79.5z"/>
			<path class="st0" d="M79.7,102c-0.6-1-0.9-1.5-1.2-1.7c-0.9-0.7-2.4-0.7-3.4-0.1c-0.4,0.2-0.6,0.4-0.8,0.6c0,0.1-0.1,0.2-0.1,0.4
				c0,0.4,0.2,0.8,0.3,0.9c0.4,0.6,0.7,1.3,1.2,1.9c1,1.1,7.5,9,10.5,12.1c-3.1-6.9-5.5-12-6-13C80,102.6,79.8,102.2,79.7,102z"/>
			<path d="M124.2,68.6c-5.9-4.7-12.4-8.3-20-9.6c-0.8-0.1,6-7.9,9.2-12.2c1.1-1.5,2.3-4.2,1.7-5.3c-0.9-1.4-3.5-2.5-5.4-2.5
				c-3.6,0-9.7-0.8-18.4,0.8c1.2-1.9,5.2-8.2,8.3-14.5c0.7-1.5,1.8-3.7,1.3-6.4c-0.3-1.5-0.9-2.6-1.4-3.3c-1.2-0.2-2.8-0.4-4.8-0.3
				c-1.6,0.1-4.1,0.5-8,2.5c-6.2,3.2-10.9,8-13.1,10.5c-0.3-2-0.6-4.6-1.1-7c-1.3-5.7-2.7-11.4-4.3-17c-0.3-1.1-1.6-2.2-2.7-2.6
				C65,1.5,63.7,3,63,3.8c-0.7,0.9-1.3,2-1.8,3.1c-2,5-4,10.1-6.1,15.3c-3.4-3.3-5.9-5.8-8-8c0,0-1.9-2-5.6-4.6
				c-0.4-0.3-1.1-0.8-2.3-1.1c-0.8-0.2-1.4-0.3-1.9-0.4c-0.1,0.2-0.4,0.5-0.6,0.8C36,10.5,36,11.9,36,13.4c0,2.4,0,3.7,0.2,4.8
				c0.5,3.3,2,10.4,4.4,19.7C34,34.7,27.5,31.5,21,28.6c-1.4-0.6-3.9-0.8-4.7,0c-0.8,0.8-0.7,3.2-0.2,4.8c2.4,8.1,5.8,15.7,11,21.7
				c-9.8,0.9-17.1,2-20,2.8c-2.3,0.6-3.6,1.5-4.6,2.5c-0.7,0.7-1.1,1.3-1.3,1.7c0,0.4,0.1,1,0.4,1.6c0.9,2.2,3.1,3.2,4,3.7
				c2.9,1.4,8.7,4.6,16.5,8.8c-5.5,4.2-9.9,7.6-12.9,10C8,87,6.2,88.5,4.8,91c-0.7,1.2-1,2.4-1.2,3.1c0.5,0.4,1.3,0.9,2.4,1.4
				c2.8,1.3,5.3,1.3,6.6,1.3c3.7,0,9.4,0.2,16.6,0.1c-1.4,3.8-3.4,8.2-4.7,12.8c-1.2,4.3,0.4,5.9,4.7,4.8c3.7-0.9,7.3-2.4,10.9-4
				c2.8-1.3,5.4-3.1,7.8-4.5c1.1,5.4,1.9,10.5,3.4,15.5c1.7,5.9,4,6.7,8.3,2.4c4.9-4.9,9.1-10.5,13.4-15.5
				c0.3,0.3,6.3,6.9,11.8,12.3c0.8,0.8,2.4,2.3,4.6,2.7c1,0.2,1.8,0.1,2.3,0c0.3-0.5,0.7-1.3,1-2.4c0.6-1.7,0.7-3.1,0.7-3.9
				c0.1-2.4,0.2-7.7,0.1-14.8c1.7,0.6,3,1.1,4.4,1.5c3.8,1.2,7.6,2.5,11.5,3.3c4.8,1,6.8-1.1,4.6-5.4c-3.2-6.4-7.2-12.4-10.9-18.6
				c-0.6-0.9-1.3-1.8-1.6-2.2c7.4-1.7,14.8-3.1,21.8-5.3C127.7,74.3,127.8,71.5,124.2,68.6z M65.9,12c2.2,8.3,6.7,16.4,1.6,25.2
				C64.3,29.1,65.7,20.5,65.9,12z M8.6,61.8c8.5-2.6,17-3.2,25.4,0.6c1,0.4,1.2,2.6,2.3,5.1c-10.1-1.7-18.9-3.2-27.7-4.7
				C8.5,62.5,8.5,62.2,8.6,61.8z M10.2,64.9c8.8,1.5,17,2.8,25.2,4.2C30.4,74.1,17.9,71.7,10.2,64.9z M12,92.9
				c9.2-4.1,17.5-7.8,25.7-11.5c2.6,2.1,2.5,3.9-0.3,5.7C29.9,92,21.7,93.5,12,92.9z M30.8,109c4.8-4.6,9.5-9.3,14.5-13.6
				c0.9-0.8,2.9-0.1,4.6,0.4C45.9,104.1,38.9,107.3,30.8,109z M57,120.2c1.3-5.9,2.5-11.7,3.9-17.6c0.1-0.6,1.3-1.2,2.1-1.2
				c2,0,3.9,0.3,6.3,0.4C67.3,109.4,63.7,115.6,57,120.2z M75.7,103.9c-0.5-0.6-0.8-1.2-1.2-1.9c-0.1-0.1-0.3-0.5-0.3-0.9
				c0-0.2,0-0.3,0.1-0.4c0.2-0.2,0.4-0.4,0.8-0.6c1-0.6,2.5-0.6,3.4,0.1c0.3,0.3,0.6,0.8,1.2,1.7c0.1,0.1,0.3,0.5,0.5,1
				c0.5,1.1,2.9,6.1,6,13C83.3,112.9,76.7,105,75.7,103.9z M89.6,78.4c-2.8,9.6-8.8,16.4-19,18.6c-10,2.1-17.7-2-24-9.4
				C36.4,75.4,36.8,59.3,47.5,49c2.6,0.9,4.7,1.6,6.9,2.3c0.1-0.4,0.3-0.7,0.4-1.1c-1.7-1-3.5-2-5.2-2.9l9.7-5.2c1,2,2.1,4,3.1,6
				c1.1-0.6,2.2-1.2,3.3-1.8c-0.1-0.4-0.3-0.7-0.4-1.1c-0.9,0.1-1.8,0.1-3,0.2c-0.1-1.1-0.1-2.3-0.2-3.5c0.8-0.2,1.3-0.4,1.8-0.4
				C82.4,41.4,95.2,59.5,89.6,78.4z M108.5,99.3c-0.3,0.2-0.5,0.5-0.8,0.7c-4.9-5-9.9-9.8-14.6-15c-0.8-0.9-0.1-3.1-0.1-5.4
				C100.7,85.2,105.4,91.7,108.5,99.3z"/>
		</g>
		<path class="st0" d="M89.6,78.4c-0.4,1.5-2.2,8.7-8.8,13.9c-2.8,2.2-6.1,3.8-10.2,4.6c-10,2.1-17.7-2-24-9.4
			c-1.1-1.3-10.4-13.1-6.3-27.2c1.7-5.6,4.9-9.4,6.8-11.4c0.3-0.4,0.7-0.8,1.1-1.2c0.6-0.6,1.1-1,1.6-1.4c1.1-0.7,2.4-1.5,3.9-2.3
			c2-1,3.9-1.6,5.5-2.1c2.1-0.5,5.4-1,9.1-0.2 M86.1,71.9c0.3-0.3,0.5-0.5,0.8-0.8c0-0.5,0-1,0-1.5c-0.6-0.5-1.1-1.1-1.7-1.6
			c-1.3,0-2.6,0-3.9,0c-0.3,0.3-0.6,0.6-0.9,0.9c-1.8,3.9-1.5,4.6,2.5,4.7l-0.1,0.1c0.8-0.3,1.6-0.6,2.3-0.9
			C85.5,72.4,85.8,72.2,86.1,71.9z M59,65.9c-0.1-4.1-3-7.3-7-7.3c-3.9,0-7.6,3.8-7.6,7.8c0,3.9,3.4,7.5,7.4,7.5
			C55.5,74,59,70.1,59,65.9z M76.4,66.1c3.7-0.1,6.7-3.2,6.7-7c0-4.2-3.2-7.4-7.3-7.3c-4.1,0-7.5,3.3-7.5,7.3
			C68.4,63.1,71.9,66.2,76.4,66.1z M52.9,84c1.2-1.6,3.1-3,3.4-4.7c0.2-1-2.2-3.1-3.7-3.4c-2.4-0.4-4.3,1.3-4.4,4
			C48,82.5,49.7,83.4,52.9,84z M59,79.8c5.7,4.1,16.7,0.8,18.7-5.7C72,78.5,66.1,80.9,59,79.8z M69.6,68.4c-3.9-2.2-5.9-1.2-6.5,2.3
			c1.5,1.9,2.9,3.7,4.6,5.9C68.4,73.5,69,71,69.6,68.4z M71.1,44.4c-0.9,1.3-1.8,2.1-1.8,2.8c0,0.5,1.3,1.7,1.5,1.6
			c0.8-0.4,1.6-1.1,2-1.9C72.9,46.6,71.9,45.7,71.1,44.4z M57.9,45.2c-0.4,0.3-0.9,0.6-1.3,0.8c-0.3,0.6-0.9,1.4-0.7,1.8
			c0.4,0.7,1.3,1.1,1.9,1.6c0.4-0.6,1-1.2,1-1.8C58.8,46.9,58.2,46,57.9,45.2z M49.5,53.7c-0.3-0.5-0.7-0.9-1-1.4
			c-1,0.9-1.9,1.8-2.9,2.7c0.3,0.3,0.6,0.6,0.8,1C47.4,55.1,48.4,54.4,49.5,53.7z"/>
		<path d="M59,65.9c0.1,4.2-3.4,8.1-7.3,8.1c-3.9-0.1-7.4-3.6-7.4-7.5c0-4,3.7-7.8,7.6-7.8C55.9,58.6,58.9,61.7,59,65.9z"/>
		<path d="M76.4,66.1c-4.5,0.1-8-3-8-7.1c0-3.9,3.3-7.2,7.5-7.3c4.1,0,7.3,3.1,7.3,7.3C83.1,62.9,80.1,66,76.4,66.1z"/>
		<path d="M59,79.8c7,1.1,13-1.3,18.7-5.7C75.8,80.6,64.7,84,59,79.8z"/>
		<path d="M69.2,68.2c0.1,0.2,0.3,0.6,0.3,1c0.2,0.9-0.1,1.7-0.2,2.1c-0.4,1.2-0.9,3-1.6,5.2c-0.9-0.7-1.6-1.3-2.1-1.9
			c-0.9-0.9-1.6-1.7-2.1-2.9c-0.2-0.5-0.3-0.9-0.4-1.1c0-1.4,0.7-2.6,1.8-3.2C66.3,66.7,68.1,67,69.2,68.2z"/>
		<path class="st1" d="M80.4,68.7c0.3,0,0.6,0,0.9,0C81.1,68.7,80.8,68.7,80.4,68.7z"/>
		<path class="st1" d="M83,73.5L83,73.5L83,73.5z"/>
	</g>
	<ellipse transform="matrix(0.9296 -0.3686 0.3686 0.9296 -20.1977 35.6878)" cx="83.3" cy="70.7" rx="3.9" ry="3.1"/>
	<ellipse transform="matrix(0.1639 -0.9865 0.9865 0.1639 -36.3855 117.6769)" cx="51.2" cy="80.3" rx="3.6" ry="4.5"/>
	<path d="M53.3,53.5c0.1-0.4-2.9-2.3-5.4-1.2c-1.7,0.8-2.6,2.8-2.3,3.1c0.2,0.3,1.2-0.7,3.1-1.4C51.4,53.2,53.3,53.9,53.3,53.5z"/>
	<path d="M72.2,46.4c-0.1-0.4-3.4-1.3-5.1,0.3c-1.2,1.1-1.3,3.2-0.9,3.4c0.3,0.2,0.7-1,2.2-2C70.4,46.6,72.3,46.7,72.2,46.4z"/>
	<path class="st1" d="M133.5,43.5"/>
	<path class="st0" d="M119.3,71.9c-8.9,2.7-15.6,3.8-17.9,3.9c-2.7,0-4.9-0.5-4.9-0.5c-0.6-0.1-1.1-0.3-1.3-0.4
		C95,71.5,95,69,94.9,68.4c0-0.1-0.1-0.6,0.2-1c0.1-0.2,0.3-0.3,0.4-0.4c0.1,0,0.2,0,0.3,0C103.5,68.1,111.4,69.7,119.3,71.9z"/>
	<path class="st0" d="M53.1,40.2c-3.7-8-7.4-16-11.1-24c2.9,1.9,6.7,4.8,10.3,9.3c2.3,2.9,3.9,5.7,5,8.1c0.2,0.4,0.5,1,0.8,1.8
		c0.4,1.3,0.6,1.9,0.4,2.5c-0.3,0.8-1.3,1.2-2.6,1.6"/>
	<path class="st0" d="M19.8,31.3c7.8,4.3,15.5,8.6,23.3,12.9c0.2,0.1,0.4,0.3,0.5,0.5c0.1,0.2,0.4,1-1.1,3.4c-1.1,1.6-2.1,3.2-3.2,3
		c-0.4-0.1-0.7-0.4-0.9-0.7C32.7,45,27.1,39.5,21.5,34.1C20.9,33.1,20.4,32.2,19.8,31.3z"/>
	<path class="st0" d="M8.6,61.8c1.4-0.4,21.2-6.6,26.4,0.8c0.6,0.8,1.3,2.3,1.2,4.9c-10-1.6-20-3.3-30-4.9
		C6.7,62.5,7.6,62.2,8.6,61.8z"/>
	<path class="st0" d="M35.5,75.7c0.4,0.2,0.6,0.5,0.8,0.6c0.1,0.2,1,1.1,1,2.6c0,0.3,0,0.5-0.1,0.7c-0.2,0.1-0.4,0.2-0.7,0.3
		C27.3,84.6,18,88.8,8.6,92.5c0.7-0.8,1.4-1.7,13.6-11.4c3.6-2.8,7.6-6,12.6-5.5C35.1,75.7,35.3,75.7,35.5,75.7z"/>
	<path class="st0" d="M37.7,81.5c2.6,2.1,2.5,3.9-0.3,5.7C29.9,92,21.7,93.5,12,92.9C21.2,88.8,29.4,85.1,37.7,81.5z"/>
	<path class="st0" d="M69.3,101.8c-2,7.6-5.6,13.8-12.3,18.4c1.3-5.9,2.5-11.7,3.9-17.6c0.1-0.6,1.3-1.2,2.1-1.2
		C65,101.3,66.9,101.6,69.3,101.8z"/>
	<path class="st0" d="M83.7,95.1c0.5,0.1,1.1,0.2,1.8,0.7c1.2,0.8,1.5,2.1,1.8,3.1c1.1,3.7,1.6,5.6,1.7,6.3c0.6,4.6,0,8.9-0.5,11.6
		c-2.9-5.1-5.6-10.6-8-16.6c-0.2-0.5-0.4-1.1-0.6-1.6c0.3-0.6,0.6-1,0.9-1.3c0.8-1,1.7-1.5,2.3-1.8C83.3,95.3,83.6,95.2,83.7,95.1z"
		/>
	<path class="st0" d="M91,86.8c0.1,0,0.3,0,0.5,0.1c0.9,0.3,1.5,1,1.6,1.1c0.7,0.8,6.2,6.4,14,14.3c-2.3-0.2-6.4-1-10.8-3.5
		c-4.3-2.6-7-5.8-8.3-7.6c0-0.2,0-0.4,0.1-0.6C88.4,88.6,90.2,87.3,91,86.8z"/>
	<path class="st0" d="M21,35.4c5.9,6.1,11.3,11.5,16.2,17.1c0.5,0.5,0.4,1.3,0.4,1.3c0.1,1.4-0.8,2.7-1.5,3.4
		c-0.6-0.3-1.5-0.9-2.5-1.6c0,0-1.9-1.5-3.6-3.7C28.2,49.6,24.7,43.7,21,35.4z"/>
	<path class="st0" d="M91.1,52.1c0.2-0.2,0.4-0.5,0.8-0.8c0.4-0.3,0.8-0.5,1-0.7c7.9-4.1,15.8-6.4,15.8-6.4c0.4-0.1,1.1-0.3,2-0.6
		c-1.8,2.5-4.5,5.8-8.6,8.9c-1.9,1.4-3.7,3.3-6.7,4.2c-0.9,0.2-1.6,0.4-2.1,0.4c-0.4-0.2-0.7-0.4-0.9-0.6
		C90.7,55.1,91,52.5,91.1,52.1z"/>
	<path class="st0" d="M93.7,21.2c-5.3,5.6-10.6,11.2-16,16.8c-0.4,0.5-1.5,1.7-2.7,1.5c-1.1-0.2-1.8-1.5-2.1-2.3
		c1.2-1.8,2.6-3.6,4.4-5.5C83,25.7,89.4,22.7,93.7,21.2z"/>
	<path class="st0" d="M30.8,109c4.8-4.6,9.5-9.3,14.5-13.6c0.9-0.8,2.9-0.1,4.6,0.4C45.9,104.1,38.9,107.3,30.8,109z"/>
	<path class="st0" d="M94,23.3c-0.6,2.6-1.7,6.6-4.4,10.9c-2.3,3.7-5,6.3-6.9,7.9c-0.2,0.1-0.5,0.2-0.8,0.3
		c-1.7,0.3-3.9-0.8-3.9-1.9c0-0.2,0-0.4,0.3-0.8C83.4,34.2,88.7,28.8,94,23.3z"/>
	<path class="st0" d="M107.8,100c-4.9-5-9.9-9.8-14.6-15c-0.8-0.9-0.1-3.1-0.1-5.4c4.1,3.2,7.1,6.4,9.2,8.8c5.3,6.3,6.4,10.3,6.7,12
		c0.1,0.5,0.2,0.9,0.2,1.1C108.7,101,108.2,100.5,107.8,100z"/>
	<path class="st0" d="M65.9,12c1.9,5,3,9.3,3.5,12.4c0.8,4.3,2.2,12-0.5,13.4c-0.5,0.3-1,0.2-1.4,0.2c-0.3,0-1.1-0.2-1.6-0.8
		c-0.3-0.4-0.4-0.8-0.5-1.3c-0.2-1.3-0.2-1.9-0.1-2.9c0.2-1.2-0.1-1.1,0-8.3C65.5,19.7,65.7,15.2,65.9,12z"/>
	<path class="st0" d="M29.7,107.9c0.6-2.4,1.6-5.5,3.4-8.8c2.8-5.1,6.3-8.5,8.7-10.5c0.2-0.1,0.4-0.1,0.7,0c0.5,0.1,0.6,0.5,1.4,1.6
		c0.6,0.8,1,1.1,0.9,1.6c0,0.2-0.1,0.3-0.2,0.4C39.7,97.4,34.7,102.6,29.7,107.9z"/>
	<path class="st0" d="M64.3,37.3c-0.5,0.3-1.8,1-2.9,0.5c-0.6-0.3-1.1-0.9-1.6-3.8c-0.3-1.8-0.6-3.4-0.5-5.5
		c0.3-6.1,4.2-14.3,4.6-15.1C64,21.3,64.1,29.3,64.3,37.3z"/>
	<path class="st0" d="M35.4,69.1c-5,5-17.5,2.6-25.2-4.2C19,66.4,27.2,67.7,35.4,69.1z"/>
	<path class="st0" d="M51.4,40.3c0,0.1,0,0.3,0,0.6c-0.1,0.3-0.4,0.5-0.5,0.6c-1.7,1.3-2,1.3-2.2,1.2c-0.1,0-0.2-0.1-0.4-0.2
		c-1.6-2.1-3.9-5.7-5.3-10.6c-1.5-5.1-1.5-9.5-1.2-12.2C44.9,26.6,48.2,33.4,51.4,40.3z"/>
	<path class="st0" d="M118.5,69.9c-4.1-0.8-8.3-1.7-12.6-2.7c-3.7-0.9-7.2-1.8-10.7-2.7c-0.1-0.5-0.2-1.1,0.1-1.6
		c1.4-2.4,9.3,0.1,10.9,0.6C109.4,64.4,113.8,66.2,118.5,69.9z"/>
	<path class="st0" d="M58.9,101.5c0,0.2,0,0.5-0.1,0.7c-0.6,6.1-1.9,11.9-3.7,17.4c-0.9-2.7-1.8-6.3-2.1-10.7
		c-0.3-4.1,0.1-7.6,0.5-10.2c0.1-0.1,0.2-0.1,0.4-0.2c0.6-0.1,1.2,0.3,1.5,0.5c1.9,1.4,2.4,1.4,3,2.1
		C58.7,101.3,58.8,101.4,58.9,101.5z"/>
	<path class="st0" d="M104.8,43.7c-4.5,2-8.9,4-13.4,5.9c-0.9,0.4-1.5,0.6-2,0.5c-1.4-0.3-3-1.6-2.9-3.1c0.1-0.6,0.4-1.1,0.6-1.3
		c0.3-0.3,0.7-0.7,1.2-1.1c1.2-0.9,2.5-1.3,6.6-1.8c6-0.7,9-0.3,9.9-0.2c0.7,0.1,1.4,0.2,1.8,0.3C106,43.2,105.4,43.4,104.8,43.7z"
		/>
</g>
</svg>
